<svg xmlns="http://www.w3.org/2000/svg" width="82.826" height="98.107" viewBox="0 0 82.826 98.107">
  <g id="dips_logosvg" transform="translate(-182 48.974)">
    <g id="g5" transform="translate(182 -48.974)">
      <g id="g3" transform="translate(0 0)">
        <path id="path7" d="M28.667,20.055s24.557-11.943,46.85-2.21c20.92,9.134,33.148,37.862,13.112,65.412-6.95,9.557-18.71,15.911-18.71,15.911S83.03,74.2,74.411,53.5a53.467,53.467,0,0,0-26.445-27.55C40.142,22.116,28.667,20.055,28.667,20.055Z" transform="translate(-15.997 -14.026)" fill="#FFFFFF"/>
        <path id="path11" d="M0,49.2a78.792,78.792,0,0,1,14.585-4.714A74.166,74.166,0,0,1,29.711,43.3s16.4,6.286,24.8,22.541c8.22,15.909,4.273,30.006,1.916,38.01-1.866,6.335-6.09,12.424-3.732,13.308a3.209,3.209,0,0,0,3.732-1.08,53.8,53.8,0,0,1-7.268,6.679c-4.125,3.094-8.2,5.7-8.2,5.7s12.523-23.08,5.746-43.314C40.768,67.428,27.255,59.214,20.773,55.678,11.977,50.881,0,49.2,0,49.2Z" transform="translate(0 -30.35)" fill="#FFFFFF" />
      </g>
    </g>
  </g>
</svg>
