<svg width="24" height="24" viewBox="0 0 24 24" fill="none" xmlns="http://www.w3.org/2000/svg">
<g clip-path="url(#clip0_1529_16427)">
<mask id="mask0_1529_16427" style="mask-type:alpha" maskUnits="userSpaceOnUse" x="0" y="-1" width="24" height="24">
<rect y="-1" width="24" height="24" fill="#D9D9D9"/>
</mask>
<g mask="url(#mask0_1529_16427)">
<path d="M1 20L12 1L23 20H1ZM4.45 18H19.55L12 5L4.45 18ZM12 17C12.2833 17 12.5208 16.9042 12.7125 16.7125C12.9042 16.5208 13 16.2833 13 16C13 15.7167 12.9042 15.4792 12.7125 15.2875C12.5208 15.0958 12.2833 15 12 15C11.7167 15 11.4792 15.0958 11.2875 15.2875C11.0958 15.4792 11 15.7167 11 16C11 16.2833 11.0958 16.5208 11.2875 16.7125C11.4792 16.9042 11.7167 17 12 17ZM11 14H13V9H11V14Z" fill="#1C1B1F"/>
</g>
</g>
<defs>
<clipPath id="clip0_1529_16427">
<rect width="24" height="24" fill="white"/>
</clipPath>
</defs>
</svg>
