<svg width="24" height="24" viewBox="0 0 24 24" fill="none" xmlns="http://www.w3.org/2000/svg">
<g clip-path="url(#clip0_1008_16384)">
<path d="M12.8661 2.44759L22.3921 18.9476C22.4799 19.0996 22.5261 19.272 22.5261 19.4476C22.5261 19.6231 22.4799 19.7956 22.3921 19.9476C22.3043 20.0996 22.1781 20.2258 22.0261 20.3136C21.8741 20.4014 21.7016 20.4476 21.5261 20.4476H2.4741C2.29856 20.4476 2.12612 20.4014 1.9741 20.3136C1.82209 20.2258 1.69585 20.0996 1.60809 19.9476C1.52032 19.7956 1.47412 19.6231 1.47412 19.4476C1.47412 19.272 1.52033 19.0996 1.6081 18.9476L11.1341 2.44759C11.2219 2.29558 11.3481 2.16935 11.5001 2.08159C11.6521 1.99383 11.8246 1.94763 12.0001 1.94763C12.1756 1.94763 12.3481 1.99383 12.5001 2.08159C12.6521 2.16935 12.7783 2.29558 12.8661 2.44759ZM11.0001 15.4476V17.4476H13.0001V15.4476H11.0001ZM11.0001 8.44759V13.4476H13.0001V8.44759H11.0001Z" fill="#373D40"/>
</g>
<defs>
<clipPath id="clip0_1008_16384">
<rect width="24" height="24" fill="white"/>
</clipPath>
</defs>
</svg>
