<svg width="24" height="24" viewBox="0 0 24 24" fill="none" xmlns="http://www.w3.org/2000/svg">
<g clip-path="url(#clip0_1185_22034)">
<path d="M8.59131 7.4718V11.4718L2.59131 6.4718L8.59131 1.4718V5.4718H13.5913C15.713 5.4718 17.7479 6.31466 19.2482 7.81495C20.7485 9.31524 21.5913 11.3501 21.5913 13.4718C21.5913 15.5935 20.7485 17.6284 19.2482 19.1287C17.7479 20.6289 15.713 21.4718 13.5913 21.4718H4.59131V19.4718H13.5913C15.1826 19.4718 16.7087 18.8397 17.834 17.7144C18.9592 16.5892 19.5913 15.0631 19.5913 13.4718C19.5913 11.8805 18.9592 10.3544 17.834 9.22916C16.7087 8.10394 15.1826 7.4718 13.5913 7.4718H8.59131Z" fill="#373D40"/>
</g>
<defs>
<clipPath id="clip0_1185_22034">
<rect width="24" height="24" fill="white"/>
</clipPath>
</defs>
</svg>
