<svg width="24" height="24" viewBox="0 0 24 24" fill="none" xmlns="http://www.w3.org/2000/svg">
<g clip-path="url(#clip0_1185_22033)">
<path d="M15.5 7.51608H10.5C8.9087 7.51608 7.38258 8.14822 6.25736 9.27344C5.13214 10.3987 4.5 11.9248 4.5 13.5161C4.5 15.1074 5.13214 16.6335 6.25736 17.7587C7.38258 18.8839 8.9087 19.5161 10.5 19.5161H19.5V21.5161H10.5C8.37827 21.5161 6.34344 20.6732 4.84315 19.1729C3.34285 17.6726 2.5 15.6378 2.5 13.5161C2.5 11.3944 3.34285 9.35952 4.84315 7.85923C6.34344 6.35894 8.37827 5.51608 10.5 5.51608H15.5V1.51608L21.5 6.51608L15.5 11.5161V7.51608Z" fill="#373D40"/>
</g>
<defs>
<clipPath id="clip0_1185_22033">
<rect width="24" height="24" fill="white"/>
</clipPath>
</defs>
</svg>
