<svg width="24" height="25" viewBox="0 0 24 25" fill="none" xmlns="http://www.w3.org/2000/svg">
<g clip-path="url(#clip0_1241_16507)">
<path d="M14.0039 14.3091V8.80908C14.0039 7.74822 13.5825 6.7308 12.8323 5.98065C12.0822 5.23051 11.0648 4.80908 10.0039 4.80908C8.94304 4.80908 7.92562 5.23051 7.17548 5.98065C6.42533 6.7308 6.00391 7.74822 6.00391 8.80908V14.3091C6.00391 16.033 6.68873 17.6863 7.90771 18.9053C9.1267 20.1243 10.78 20.8091 12.5039 20.8091C14.2278 20.8091 15.8811 20.1243 17.1001 18.9053C18.3191 17.6863 19.0039 16.033 19.0039 14.3091V4.80908H21.0039V14.3091C21.0039 16.5634 20.1084 18.7254 18.5143 20.3195C16.9203 21.9135 14.7582 22.8091 12.5039 22.8091C10.2496 22.8091 8.08756 21.9135 6.4935 20.3195C4.89944 18.7254 4.00391 16.5634 4.00391 14.3091V8.80908C4.00391 7.21778 4.63605 5.69166 5.76127 4.56644C6.88648 3.44122 8.41261 2.80908 10.0039 2.80908C11.5952 2.80908 13.1213 3.44122 14.2465 4.56644C15.3718 5.69166 16.0039 7.21778 16.0039 8.80908V14.3091C16.0039 15.2373 15.6352 16.1276 14.9788 16.784C14.3224 17.4403 13.4322 17.8091 12.5039 17.8091C11.5756 17.8091 10.6854 17.4403 10.029 16.784C9.37266 16.1276 9.00391 15.2373 9.00391 14.3091V8.80908H11.0039V14.3091C11.0039 14.7069 11.1619 15.0884 11.4432 15.3697C11.7246 15.651 12.1061 15.8091 12.5039 15.8091C12.9017 15.8091 13.2833 15.651 13.5646 15.3697C13.8459 15.0884 14.0039 14.7069 14.0039 14.3091Z" fill="#373D40"/>
</g>
<defs>
<clipPath id="clip0_1241_16507">
<rect width="24" height="24" fill="white" transform="translate(0.00390625 0.809082)"/>
</clipPath>
</defs>
</svg>
