<svg width="24" height="24" viewBox="0 0 24 24" fill="none" xmlns="http://www.w3.org/2000/svg">
<g clip-path="url(#clip0_1241_16507)">
<mask id="mask0_1241_16507" style="mask-type:alpha" maskUnits="userSpaceOnUse" x="0" y="0" width="24" height="24">
<rect width="24" height="24" fill="#D9D9D9"/>
</mask>
<g mask="url(#mask0_1241_16507)">
<path d="M18 15.75C18 17.4833 17.3917 18.9583 16.175 20.175C14.9583 21.3917 13.4833 22 11.75 22C10.0167 22 8.54167 21.3917 7.325 20.175C6.10833 18.9583 5.5 17.4833 5.5 15.75V6.5C5.5 5.25 5.9375 4.1875 6.8125 3.3125C7.6875 2.4375 8.75 2 10 2C11.25 2 12.3125 2.4375 13.1875 3.3125C14.0625 4.1875 14.5 5.25 14.5 6.5V15.25C14.5 16.0167 14.2333 16.6667 13.7 17.2C13.1667 17.7333 12.5167 18 11.75 18C10.9833 18 10.3333 17.7333 9.8 17.2C9.26667 16.6667 9 16.0167 9 15.25V6H11V15.25C11 15.4667 11.0708 15.6458 11.2125 15.7875C11.3542 15.9292 11.5333 16 11.75 16C11.9667 16 12.1458 15.9292 12.2875 15.7875C12.4292 15.6458 12.5 15.4667 12.5 15.25V6.5C12.4833 5.8 12.2375 5.20833 11.7625 4.725C11.2875 4.24167 10.7 4 10 4C9.3 4 8.70833 4.24167 8.225 4.725C7.74167 5.20833 7.5 5.8 7.5 6.5V15.75C7.48333 16.9333 7.89167 17.9375 8.725 18.7625C9.55833 19.5875 10.5667 20 11.75 20C12.9167 20 13.9083 19.5875 14.725 18.7625C15.5417 17.9375 15.9667 16.9333 16 15.75V6H18V15.75Z" fill="#1C1B1F"/>
</g>
</g>
<defs>
<clipPath id="clip0_1241_16507">
<rect width="24" height="24" fill="white"/>
</clipPath>
</defs>
</svg>
