<svg width="24" height="24" viewBox="0 0 24 24" fill="none" xmlns="http://www.w3.org/2000/svg">
<path fill-rule="evenodd" clip-rule="evenodd" d="M8.14966 16.5191C9.11616 16.5191 9.89966 15.7434 9.89966 14.7864C9.89966 13.8295 9.11616 13.0538 8.14966 13.0538C7.18316 13.0538 6.39966 13.8295 6.39966 14.7864C6.39966 15.7434 7.18316 16.5191 8.14966 16.5191ZM8.14966 15.5191C8.57328 15.5191 8.89966 15.1817 8.89966 14.7864C8.89966 14.3912 8.57328 14.0538 8.14966 14.0538C7.72604 14.0538 7.39966 14.3912 7.39966 14.7864C7.39966 15.1817 7.72604 15.5191 8.14966 15.5191Z" fill="#373D40"/>
<path d="M11.4028 11.2052C11.955 11.2052 12.4028 10.7574 12.4028 10.2052C12.4028 9.65287 11.955 9.20515 11.4028 9.20515C10.8505 9.20515 10.4028 9.65287 10.4028 10.2052C10.4028 10.7574 10.8505 11.2052 11.4028 11.2052Z" fill="#373D40"/>
<path fill-rule="evenodd" clip-rule="evenodd" d="M18.0459 2.66569C18.1186 2.39929 17.9616 2.12439 17.6952 2.0517C17.4288 1.979 17.1539 2.13603 17.0812 2.40243L16.85 3.24991C16.138 3.20786 15.1078 3.32292 13.7088 3.81263L13.3293 3.02549C13.2093 2.77675 12.9104 2.67235 12.6617 2.79229C12.413 2.91224 12.3086 3.21111 12.4285 3.45984L12.7733 4.17481C11.8543 4.56295 10.8031 5.09762 9.60933 5.82357L9.20207 5.15581C9.05828 4.92006 8.7506 4.8455 8.51485 4.98929C8.27909 5.13307 8.20454 5.44075 8.34832 5.6765L8.76251 6.35562C8.68956 6.40288 8.61613 6.45082 8.54222 6.49944C7.53047 7.16496 6.68483 7.93878 5.98063 8.75996L5.56767 8.41105C5.35673 8.23284 5.04126 8.25936 4.86305 8.47029C4.68483 8.68123 4.71135 8.9967 4.92229 9.17491L5.3594 9.54423C4.61289 10.5649 4.06152 11.6269 3.6618 12.6227L3.30662 12.4312C3.06356 12.3001 2.76028 12.3909 2.62922 12.634C2.49815 12.877 2.58894 13.1803 2.832 13.3114L3.31724 13.573C3.08318 14.2939 2.92706 14.9627 2.83092 15.5351C2.70329 16.295 2.66923 16.9563 2.73905 17.3482L2.34382 17.4801C2.08187 17.5675 1.94039 17.8507 2.0278 18.1127C2.11521 18.3746 2.39842 18.5161 2.66036 18.4287L3.07133 18.2915C3.48105 19.0926 4.27396 20.0027 5.63475 20.5392L5.47089 21.3599C5.41681 21.6307 5.5925 21.894 5.8633 21.9481C6.1341 22.0022 6.39746 21.8265 6.45153 21.5557L6.59919 20.8162C7.24581 20.9155 7.96223 20.8464 8.60466 20.6873C9.13142 20.5569 9.66553 20.3517 10.1176 20.0786L10.6993 20.6574C10.8951 20.8521 11.2117 20.8513 11.4064 20.6556C11.6012 20.4598 11.6004 20.1433 11.4047 19.9485L10.8869 19.4332C11.1651 19.0783 11.3627 18.6102 11.5251 18.1802C11.6259 17.9135 11.7259 17.6235 11.8267 17.331L11.8417 17.2874C11.9489 16.9765 12.0587 16.6592 12.1793 16.3389C12.2338 16.1941 12.2899 16.0507 12.3479 15.9092L12.9828 16.2197C13.2309 16.341 13.5303 16.2383 13.6516 15.9902C13.773 15.7422 13.6702 15.4427 13.4222 15.3214L12.7681 15.0015C13.1676 14.246 13.6634 13.601 14.3349 13.1836C14.5702 13.0373 14.8076 12.9085 15.0486 12.7913L15.2293 13.1859C15.3443 13.4369 15.6411 13.5472 15.8921 13.4322C16.1432 13.3172 16.2535 13.0205 16.1385 12.7694L15.9677 12.3966C16.2671 12.2811 16.5743 12.1717 16.8919 12.0586L16.9525 12.037C17.6924 11.7735 18.4838 11.4881 19.2834 11.0532L19.808 11.5395C20.0105 11.7272 20.3269 11.7152 20.5146 11.5126C20.7023 11.3101 20.6903 10.9938 20.4878 10.806L20.1502 10.4932C20.6472 10.0457 20.9385 9.3713 21.0868 8.7406C21.2461 8.0628 21.2733 7.30204 21.1385 6.62434L21.4985 6.52825C21.7653 6.45703 21.9238 6.18301 21.8526 5.91621C21.7814 5.64941 21.5074 5.49086 21.2406 5.56207L20.7976 5.68031C20.5213 5.17688 20.1156 4.73114 19.6553 4.36923C19.1311 3.95702 18.5037 3.62714 17.8373 3.43031L18.0459 2.66569ZM9.39975 7.91313C14.0021 4.88571 16.1915 4.58185 16.944 4.71133C17.5775 4.82033 18.1794 5.08354 18.6803 5.47733C19.187 5.87578 19.4892 6.35356 19.5995 6.77103C19.7264 7.25174 19.7327 7.78723 19.5995 8.35409C19.4606 8.94486 19.2501 9.29752 19.0377 9.43501C18.1874 9.98558 17.4147 10.3862 16.4827 10.7182L16.378 10.7554C15.4906 11.0712 14.5335 11.4117 13.5958 11.9946C12.1262 12.9081 11.3729 14.5077 10.8691 15.8455C10.7407 16.1866 10.6127 16.4362 10.5059 16.746L10.4805 16.7929C10.3772 17.0925 10.2882 17.1813 10.1949 17.4283C9.98716 17.9782 9.91408 18.301 9.79436 18.4143C9.51048 18.6829 9.14224 19.0359 8.50027 19.1948C7.86038 19.3533 7.02215 19.3868 6.59919 19.2667C4.81025 18.7589 4.36352 17.7954 4.26879 17.2874C4.26879 17.0502 4.21408 16.5793 4.33733 15.8455C4.4558 15.1401 4.73564 14.1404 5.11219 13.1859C5.86636 11.274 7.12018 9.41261 9.39975 7.91313Z" fill="#373D40"/>
</svg>
