<svg width="24" height="24" viewBox="0 0 24 24" fill="none" xmlns="http://www.w3.org/2000/svg">
<mask id="mask0_533_22099" style="mask-type:alpha" maskUnits="userSpaceOnUse" x="0" y="0" width="24" height="24">
<rect width="24" height="24" fill="#D9D9D9"/>
</mask>
<g mask="url(#mask0_533_22099)">
<path d="M15 22C14.7167 22 14.4792 21.9042 14.2875 21.7125C14.0958 21.5208 14 21.2833 14 21V19.925C13.6167 19.8583 13.2542 19.7625 12.9125 19.6375C12.5708 19.5125 12.25 19.3417 11.95 19.125L10.95 20.125C10.75 20.3083 10.5125 20.4042 10.2375 20.4125C9.9625 20.4208 9.725 20.325 9.525 20.125C9.325 19.925 9.225 19.6875 9.225 19.4125C9.225 19.1375 9.325 18.9 9.525 18.7L10.55 17.675C10.5 17.5917 10.45 17.5042 10.4 17.4125C10.35 17.3208 10.3 17.2333 10.25 17.15L9.575 15.825L8.35 17.05C8.15 17.2333 7.91667 17.3292 7.65 17.3375C7.38333 17.3458 7.15 17.25 6.95 17.05C6.75 16.85 6.65 16.6167 6.65 16.35C6.65 16.0833 6.75 15.85 6.95 15.65L8.175 14.4L6.85 13.75C6.76667 13.7167 6.69167 13.6792 6.625 13.6375C6.55833 13.5958 6.48333 13.55 6.4 13.5L5.5 14.4C5.3 14.5833 5.0625 14.6792 4.7875 14.6875C4.5125 14.6958 4.275 14.6 4.075 14.4C3.875 14.2 3.775 13.9667 3.775 13.7C3.775 13.4333 3.875 13.2 4.075 13L4.95 12.125C4.71667 11.8083 4.52917 11.4708 4.3875 11.1125C4.24583 10.7542 4.14167 10.3833 4.075 10H3C2.71667 10 2.47917 9.90417 2.2875 9.7125C2.09583 9.52083 2 9.28333 2 9C2 8.71667 2.09583 8.47917 2.2875 8.2875C2.47917 8.09583 2.71667 8 3 8H4.125C4.20833 7.68333 4.30833 7.38333 4.425 7.1C4.54167 6.81667 4.69167 6.54167 4.875 6.275L4 5.4C3.8 5.2 3.7 4.96667 3.7 4.7C3.7 4.43333 3.8 4.2 4 4C4.2 3.8 4.43333 3.7 4.7 3.7C4.96667 3.7 5.2 3.8 5.4 4L6.275 4.875C6.54167 4.69167 6.81667 4.54167 7.1 4.425C7.38333 4.30833 7.68333 4.20833 8 4.125V3C8 2.71667 8.09583 2.47917 8.2875 2.2875C8.47917 2.09583 8.71667 2 9 2C9.28333 2 9.52083 2.09583 9.7125 2.2875C9.90417 2.47917 10 2.71667 10 3V4.075C10.4 4.14167 10.7792 4.25 11.1375 4.4C11.4958 4.55 11.8333 4.74167 12.15 4.975L13.025 4.1C13.225 3.9 13.4625 3.8 13.7375 3.8C14.0125 3.8 14.25 3.9 14.45 4.1C14.65 4.3 14.75 4.53333 14.75 4.8C14.75 5.06667 14.65 5.3 14.45 5.5L13.525 6.425C13.5583 6.49167 13.5958 6.55833 13.6375 6.625C13.6792 6.69167 13.7167 6.76667 13.75 6.85L14.375 8.1L15.525 6.95C15.725 6.75 15.9625 6.65 16.2375 6.65C16.5125 6.65 16.75 6.75 16.95 6.95C17.15 7.15 17.25 7.3875 17.25 7.6625C17.25 7.9375 17.15 8.175 16.95 8.375L15.75 9.55L17.15 10.25C17.25 10.3 17.3542 10.3542 17.4625 10.4125C17.5708 10.4708 17.6667 10.5333 17.75 10.6L18.75 9.6C18.95 9.4 19.1833 9.3 19.45 9.3C19.7167 9.3 19.95 9.4 20.15 9.6C20.35 9.8 20.45 10.0375 20.45 10.3125C20.45 10.5875 20.35 10.825 20.15 11.025L19.15 12C19.35 12.3 19.5125 12.6167 19.6375 12.95C19.7625 13.2833 19.8583 13.6333 19.925 14H21C21.2833 14 21.5208 14.0958 21.7125 14.2875C21.9042 14.4792 22 14.7167 22 15C22 15.2833 21.9042 15.5208 21.7125 15.7125C21.5208 15.9042 21.2833 16 21 16H19.875C19.7917 16.3167 19.6917 16.6125 19.575 16.8875C19.4583 17.1625 19.3083 17.4333 19.125 17.7L19.975 18.55C20.175 18.75 20.275 18.9875 20.275 19.2625C20.275 19.5375 20.175 19.775 19.975 19.975C19.775 20.1583 19.5375 20.2542 19.2625 20.2625C18.9875 20.2708 18.75 20.175 18.55 19.975L17.725 19.125C17.4583 19.3083 17.1833 19.4583 16.9 19.575C16.6167 19.6917 16.3167 19.7917 16 19.875V21C16 21.2833 15.9042 21.5208 15.7125 21.7125C15.5208 21.9042 15.2833 22 15 22ZM14.85 18C15.8167 18 16.6125 17.6333 17.2375 16.9C17.8625 16.1667 18.1 15.3167 17.95 14.35C17.8667 13.85 17.6792 13.4 17.3875 13C17.0958 12.6 16.7167 12.2833 16.25 12.05L14.6 11.2C14.2167 11 13.8708 10.7458 13.5625 10.4375C13.2542 10.1292 13 9.78333 12.8 9.4L11.95 7.75C11.6833 7.21667 11.3 6.79167 10.8 6.475C10.3 6.15833 9.75 6 9.15 6C8.18333 6 7.3875 6.36667 6.7625 7.1C6.1375 7.83333 5.9 8.68333 6.05 9.65C6.13333 10.15 6.32083 10.6 6.6125 11C6.90417 11.4 7.28333 11.7167 7.75 11.95L9.4 12.8C9.78333 13 10.1292 13.2542 10.4375 13.5625C10.7458 13.8708 11 14.2167 11.2 14.6L12.05 16.25C12.3167 16.7833 12.7 17.2083 13.2 17.525C13.7 17.8417 14.25 18 14.85 18ZM9.5 10.5C9.91667 10.5 10.2708 10.3542 10.5625 10.0625C10.8542 9.77083 11 9.41667 11 9C11 8.58333 10.8542 8.22917 10.5625 7.9375C10.2708 7.64583 9.91667 7.5 9.5 7.5C9.08333 7.5 8.72917 7.64583 8.4375 7.9375C8.14583 8.22917 8 8.58333 8 9C8 9.41667 8.14583 9.77083 8.4375 10.0625C8.72917 10.3542 9.08333 10.5 9.5 10.5ZM14.5 16.75C14.85 16.75 15.1458 16.6292 15.3875 16.3875C15.6292 16.1458 15.75 15.85 15.75 15.5C15.75 15.15 15.6292 14.8542 15.3875 14.6125C15.1458 14.3708 14.85 14.25 14.5 14.25C14.15 14.25 13.8542 14.3708 13.6125 14.6125C13.3708 14.8542 13.25 15.15 13.25 15.5C13.25 15.85 13.3708 16.1458 13.6125 16.3875C13.8542 16.6292 14.15 16.75 14.5 16.75Z" fill="#1C1B1F"/>
</g>
</svg>
