<svg width="24" height="24" viewBox="0 0 24 24" fill="none" xmlns="http://www.w3.org/2000/svg">
<path d="M2 4H3.16183V20H2V4V4ZM3.84647 19.935H4.48963V4H3.84647V19.935V19.935ZM5.0083 19.935H5.6722V4H5.0083V19.935ZM6.52282 19.935H7.95436V4H6.52282V19.935V19.935ZM9.15768 19.935H9.90457V4H9.15768V19.935ZM10.9834 19.935H13.971V4H10.9834V19.935V19.935ZM18.805 19.935H19.8008V4H18.805V19.935ZM20.6722 4V20H22V4H20.6722ZM15.2158 19.935H15.8589V4H15.2158V19.935ZM16.7718 19.935H17.4149V4H16.7718V19.935Z" fill="#373D40"/>
</svg>
