<svg width="24" height="24" viewBox="0 0 24 24" fill="none" xmlns="http://www.w3.org/2000/svg">
<path d="M15.9523 1.97595V3.95191H14.9643V7.15594C14.9643 8.30002 15.2123 9.42928 15.6915 10.4677L19.922 19.6322C20.2648 20.3761 19.9398 21.2564 19.1968 21.5982C19.0022 21.6891 18.7908 21.7356 18.5764 21.7356H5.42435C4.60631 21.7356 3.94238 21.0717 3.94238 20.2536C3.94238 20.0392 3.98882 19.8268 4.07872 19.6322L8.30926 10.4677C8.78843 9.43027 9.03641 8.30002 9.03641 7.15594V3.95191H8.04843V1.97595H15.9523ZM13.3717 9.88079H10.629C10.5263 10.2394 10.4018 10.5931 10.2595 10.9389L10.1034 11.2956L6.19597 19.7596H17.8038L13.8973 11.2956C13.6859 10.8372 13.51 10.3639 13.3717 9.88079V9.88079ZM11.0124 7.15594C11.0124 7.4059 11.0025 7.65586 10.9837 7.90483H13.017C13.0071 7.78528 13.0012 7.66574 12.9962 7.5452L12.9883 7.15594V3.95191H11.0124V7.15594Z" fill="#373D40"/>
</svg>
