<svg width="24" height="24" viewBox="0 0 24 24" fill="none" xmlns="http://www.w3.org/2000/svg">
<path d="M21.342 16.5315L18.989 14.6966C19.4855 14.0274 19.8093 13.2071 19.8093 12.322C19.8093 10.0553 17.9097 8.22044 15.5783 8.22044C13.2469 8.22044 11.304 10.0553 11.304 12.322C11.304 14.5886 13.2037 16.4019 15.5351 16.4019C16.4849 16.4019 17.2837 16.1429 18.0176 15.6464L19.9389 17.9778C19.982 18.021 20.0252 18.0641 20.0684 18.1073C20.5217 18.4743 21.1477 18.388 21.4715 17.9346C21.8385 17.5245 21.7306 16.8984 21.342 16.5315ZM17.6075 14.6102C17.3268 14.8261 16.9814 15.0635 16.5713 15.1499C16.2475 15.2362 15.9021 15.3226 15.5351 15.3226C15.2113 15.3226 14.9091 15.2794 14.5853 15.1931C14.1751 15.0635 13.7865 14.8693 13.4627 14.6102C12.7935 14.0705 12.3834 13.2502 12.3834 12.3652C12.3834 10.703 13.7865 9.38614 15.5351 9.38614C17.2837 9.38614 18.6868 10.7461 18.6868 12.3652C18.6868 13.2071 18.2767 14.0705 17.6075 14.6102V14.6102ZM16.4849 14.7829C16.9383 14.6534 17.2837 14.3728 17.6075 14.0705V11.0052C17.6075 10.962 17.5643 10.8757 17.4779 10.8757H16.6145C16.5713 10.8757 16.4849 10.9188 16.4849 11.0052V14.7829ZM14.9954 14.9124C15.1681 14.9556 15.3624 14.9556 15.5351 14.9556C15.7078 14.9556 15.9453 14.9556 16.0748 14.9124V12.9912C16.0748 12.948 16.0316 12.8617 15.9453 12.8617H15.0818C15.0386 12.8617 14.9522 12.9048 14.9522 12.9912V14.9124H14.9954ZM13.4627 14.1137C13.7865 14.4159 14.1319 14.6534 14.5853 14.8261V11.9982C14.5853 11.955 14.5421 11.8687 14.4557 11.8687H13.5923C13.5491 11.8687 13.4627 11.9118 13.4627 11.9982V14.1137ZM6.03678 2.99637V4.80968H7.39677V7.93981L2 18.3016L3.3384 21H17.737L19.097 18.3016L18.2335 16.6826C17.4779 17.0711 16.5713 17.3086 15.5783 17.3086C12.5561 17.3086 10.1383 15.1067 10.1383 12.322C10.1383 11.8687 10.1815 11.4585 10.311 11.0483H10.052L5.99361 19.1435H4.20188L9.23167 8.80329V4.80968H11.9301V8.71694C12.4266 8.26362 13.0526 7.89664 13.7434 7.68076V4.80968H15.0818V2.99637H6.03678V2.99637Z" fill="#373D40"/>
</svg>
