<svg width="24" height="24" viewBox="0 0 24 24" fill="none" xmlns="http://www.w3.org/2000/svg">
<path fill-rule="evenodd" clip-rule="evenodd" d="M12.7936 4.82637V3.03296H6.41228V4.82637H7.20995V7.73438C7.20995 8.77276 7.00973 9.79859 6.62286 10.7401L3.20725 19.058C3.13466 19.2346 3.09717 19.4274 3.09717 19.622C3.09717 20.3645 3.6332 20.967 4.29367 20.967H14.9122C15.0853 20.967 15.256 20.9249 15.4132 20.8424C16.013 20.5321 16.2754 19.7332 15.9987 19.058L15.6494 18.2076C15.3669 18.2499 15.0776 18.2718 14.7832 18.2718C14.4795 18.2718 14.1813 18.2485 13.8901 18.2035L14.2885 19.1736H4.91665L8.07143 11.4916L8.19746 11.1679C8.31232 10.854 8.41283 10.533 8.49579 10.2075H9.44186C9.95262 9.00414 10.8582 8.00888 11.996 7.3842V4.82637H12.7936ZM8.78215 8.41408C8.7973 8.18811 8.80528 7.96124 8.80528 7.73438V4.82637H10.4006V7.73438L10.407 8.08768C10.411 8.19708 10.4158 8.30558 10.4238 8.41408H8.78215Z" fill="#373D40"/>
<path d="M21.0162 17.7749L18.3971 15.5007C18.9497 14.6713 19.3102 13.6547 19.3102 12.5577C19.3102 9.7485 17.1956 7.47437 14.6005 7.47437C12.0054 7.47437 9.84277 9.7485 9.84277 12.5577C9.84277 15.367 11.9573 17.6144 14.5524 17.6144C15.6097 17.6144 16.4988 17.2933 17.3158 16.6779L19.4543 19.5674C19.5024 19.6209 19.5505 19.6745 19.5985 19.728C20.1031 20.1828 20.8 20.0758 21.1604 19.5139C21.5689 19.0056 21.4487 18.2297 21.0162 17.7749ZM16.8592 15.3937C16.5468 15.6613 16.1624 15.9556 15.7058 16.0626C15.3454 16.1696 14.9609 16.2766 14.5524 16.2766C14.192 16.2766 13.8556 16.2231 13.4952 16.1161C13.0386 15.9556 12.6061 15.7148 12.2457 15.3937C11.5008 14.7249 11.0442 13.7082 11.0442 12.6112C11.0442 10.5511 12.6061 8.91911 14.5524 8.91911C16.4988 8.91911 18.0607 10.6047 18.0607 12.6112C18.0607 13.6547 17.6041 14.7249 16.8592 15.3937ZM15.6097 15.6078C16.1143 15.4472 16.4988 15.0994 16.8592 14.7249V10.9257C16.8592 10.8722 16.8112 10.7652 16.715 10.7652H15.7539C15.7058 10.7652 15.6097 10.8187 15.6097 10.9257V15.6078ZM13.9517 15.7683C14.144 15.8218 14.3602 15.8218 14.5524 15.8218C14.7447 15.8218 15.009 15.8218 15.1532 15.7683V13.3871C15.1532 13.3336 15.1051 13.2266 15.009 13.2266H14.0478C13.9998 13.2266 13.9037 13.2801 13.9037 13.3871V15.7683H13.9517ZM12.2457 14.7784C12.6061 15.1529 12.9906 15.4472 13.4952 15.6613V12.1564C13.4952 12.1029 13.4471 11.9959 13.351 11.9959H12.3898C12.3418 11.9959 12.2457 12.0494 12.2457 12.1564V14.7784Z" fill="#373D40"/>
</svg>
