<svg width="24" height="24" viewBox="0 0 24 24" fill="none" xmlns="http://www.w3.org/2000/svg">
<mask id="mask0_1518_16979" style="mask-type:alpha" maskUnits="userSpaceOnUse" x="0" y="0" width="24" height="24">
<rect width="24" height="24" fill="#D9D9D9"/>
</mask>
<g mask="url(#mask0_1518_16979)">
<path d="M1 19V4H3V14H11V6H19C20.1 6 21.0417 6.39167 21.825 7.175C22.6083 7.95833 23 8.9 23 10V19H21V16H3V19H1ZM7 13C6.16667 13 5.45833 12.7083 4.875 12.125C4.29167 11.5417 4 10.8333 4 10C4 9.16667 4.29167 8.45833 4.875 7.875C5.45833 7.29167 6.16667 7 7 7C7.83333 7 8.54167 7.29167 9.125 7.875C9.70833 8.45833 10 9.16667 10 10C10 10.8333 9.70833 11.5417 9.125 12.125C8.54167 12.7083 7.83333 13 7 13ZM13 14H21V10C21 9.45 20.8042 8.97917 20.4125 8.5875C20.0208 8.19583 19.55 8 19 8H13V14ZM7 11C7.28333 11 7.52083 10.9042 7.7125 10.7125C7.90417 10.5208 8 10.2833 8 10C8 9.71667 7.90417 9.47917 7.7125 9.2875C7.52083 9.09583 7.28333 9 7 9C6.71667 9 6.47917 9.09583 6.2875 9.2875C6.09583 9.47917 6 9.71667 6 10C6 10.2833 6.09583 10.5208 6.2875 10.7125C6.47917 10.9042 6.71667 11 7 11Z" fill="#1C1B1F"/>
</g>
</svg>
