<svg width="24" height="24" viewBox="0 0 24 24" fill="none" xmlns="http://www.w3.org/2000/svg">
<path d="M22 11V20H20V17H4V20H2V4H4V14H12V7H18C19.0609 7 20.0783 7.42143 20.8284 8.17157C21.5786 8.92172 22 9.93913 22 11ZM8 13C7.20435 13 6.44129 12.6839 5.87868 12.1213C5.31607 11.5587 5 10.7956 5 10C5 9.20435 5.31607 8.44129 5.87868 7.87868C6.44129 7.31607 7.20435 7 8 7C8.79565 7 9.55871 7.31607 10.1213 7.87868C10.6839 8.44129 11 9.20435 11 10C11 10.7956 10.6839 11.5587 10.1213 12.1213C9.55871 12.6839 8.79565 13 8 13Z" fill="#262626"/>
</svg>
