<svg width="24" height="25" viewBox="0 0 24 25" fill="none" xmlns="http://www.w3.org/2000/svg">
<g clip-path="url(#clip0_1241_16605)">
<path d="M22 11.8091V20.8091H20V17.8091H4V20.8091H2V4.80908H4V14.8091H12V7.80908H18C19.0609 7.80908 20.0783 8.23051 20.8284 8.98065C21.5786 9.7308 22 10.7482 22 11.8091ZM8 13.8091C7.20435 13.8091 6.44129 13.493 5.87868 12.9304C5.31607 12.3678 5 11.6047 5 10.8091C5 10.0134 5.31607 9.25037 5.87868 8.68776C6.44129 8.12515 7.20435 7.80908 8 7.80908C8.79565 7.80908 9.55871 8.12515 10.1213 8.68776C10.6839 9.25037 11 10.0134 11 10.8091C11 11.6047 10.6839 12.3678 10.1213 12.9304C9.55871 13.493 8.79565 13.8091 8 13.8091Z" fill="#262626"/>
</g>
<defs>
<clipPath id="clip0_1241_16605">
<rect width="24" height="24" fill="white" transform="translate(0 0.809082)"/>
</clipPath>
</defs>
</svg>
