<svg width="24" height="24" viewBox="0 0 24 24" fill="none" xmlns="http://www.w3.org/2000/svg">
<path d="M18.1667 15.9334V9.86672C18.1667 6.87383 15.9827 4.3865 13.1111 3.88094V2.78894C13.1111 2.24294 12.646 1.77783 12.1 1.77783C11.554 1.77783 11.0889 2.24294 11.0889 2.78894V3.88094C8.21733 4.34605 6.03333 6.87383 6.03333 9.86672V15.9334L3 18.9667H21.2L18.1667 15.9334ZM12.0596 17.2478H7.63089C7.63089 17.2478 7.59044 12.3945 7.55 9.70494C7.55 7.25805 9.57222 5.19539 12.0596 5.19539C14.5469 5.19539 16.6096 7.25805 16.6096 9.74539C16.6096 12.3136 16.65 17.2478 16.65 17.2478H12.0596ZM12.1 22.0001C13.2324 22.0001 14.1222 21.1103 14.1222 19.9778H10.0778C10.0778 21.1103 10.9676 22.0001 12.1 22.0001Z" fill="black"/>
</svg>
