<svg width="24" height="24" viewBox="0 0 24 24" fill="none" xmlns="http://www.w3.org/2000/svg">
<path d="M14.0054 19.9952C14.0054 21.0811 13.0865 22 12.0006 22C10.9147 22 9.99584 21.0811 9.99584 19.9952H14.0054V19.9952ZM19.7482 21.5615L17.1796 18.9928H3L5.98628 16.0066V9.99223C5.98628 9.34485 6.0907 8.73924 6.29953 8.13363L3.48031 5.29353L4.90036 3.89436L7.30192 6.29592L21.1683 20.1832L19.7482 21.5615ZM10.9982 4.08231V2.99639C10.9982 2.43255 11.4368 1.994 12.0006 1.994C12.5645 1.994 13.003 2.43255 13.003 2.99639V4.08231C15.8222 4.56262 17.9941 7.02683 17.9941 9.99223V14.1688L8.78462 4.93852C9.43199 4.52086 10.2047 4.20761 10.9982 4.08231V4.08231Z" fill="#373D40"/>
</svg>
