<svg width="24" height="24" viewBox="0 0 24 24" fill="none" xmlns="http://www.w3.org/2000/svg">
<g clip-path="url(#clip0_483_22224)">
<mask id="mask0_483_22224" style="mask-type:alpha" maskUnits="userSpaceOnUse" x="0" y="0" width="24" height="24">
<rect width="24" height="24" fill="#D9D9D9"/>
</mask>
<g mask="url(#mask0_483_22224)">
<path d="M5 19C4.71667 19 4.47917 18.9042 4.2875 18.7125C4.09583 18.5208 4 18.2833 4 18C4 17.7167 4.09583 17.4792 4.2875 17.2875C4.47917 17.0958 4.71667 17 5 17H6V10C6 8.61667 6.41667 7.3875 7.25 6.3125C8.08333 5.2375 9.16667 4.53333 10.5 4.2V3.5C10.5 3.08333 10.6458 2.72917 10.9375 2.4375C11.2292 2.14583 11.5833 2 12 2C12.4167 2 12.7708 2.14583 13.0625 2.4375C13.3542 2.72917 13.5 3.08333 13.5 3.5V4.2C14.8333 4.53333 15.9167 5.2375 16.75 6.3125C17.5833 7.3875 18 8.61667 18 10V17H19C19.2833 17 19.5208 17.0958 19.7125 17.2875C19.9042 17.4792 20 17.7167 20 18C20 18.2833 19.9042 18.5208 19.7125 18.7125C19.5208 18.9042 19.2833 19 19 19H5ZM12 22C11.45 22 10.9792 21.8042 10.5875 21.4125C10.1958 21.0208 10 20.55 10 20H14C14 20.55 13.8042 21.0208 13.4125 21.4125C13.0208 21.8042 12.55 22 12 22Z" fill="#1C1B1F"/>
</g>
</g>
<defs>
<clipPath id="clip0_483_22224">
<rect width="24" height="24" fill="white"/>
</clipPath>
</defs>
</svg>
