<svg width="24" height="24" viewBox="0 0 24 24" fill="none" xmlns="http://www.w3.org/2000/svg">
<path d="M14.0054 19.9952C14.0054 21.0812 13.0865 22 12.0006 22C10.9147 22 9.99584 21.0812 9.99584 19.9952H14.0054V19.9952ZM19.7482 21.5615L17.1796 18.9929H3L5.98628 16.0066V9.99224C5.98628 9.34487 6.0907 8.73926 6.29953 8.13365L3.48031 5.29355L4.90036 3.89438L7.30192 6.29594L21.1683 20.1832L19.7482 21.5615ZM10.9982 4.08233V2.99641C10.9982 2.43256 11.4368 1.99402 12.0006 1.99402C12.5645 1.99402 13.003 2.43256 13.003 2.99641V4.08233C15.8222 4.56264 17.9941 7.02684 17.9941 9.99224V14.1689L8.78462 4.93853C9.43199 4.52087 10.2047 4.20763 10.9982 4.08233V4.08233Z" fill="black"/>
</svg>
