<svg width="24" height="24" viewBox="0 0 24 24" fill="none" xmlns="http://www.w3.org/2000/svg">
<path d="M11.5657 20.0205C11.5657 20.8827 10.8672 21.5812 10.0049 21.5812C9.14265 21.5812 8.44413 20.8827 8.44413 20.0205H11.5657V20.0205ZM16.025 21.2468L14.0369 19.2401H3L5.34116 16.8989V12.2352C5.34116 12.2294 5.34116 12.2218 5.34116 12.2148C5.34116 11.7027 5.42942 11.2115 5.592 10.7551L5.58271 10.7853L3.37161 8.57419L4.48645 7.49652L17.1585 20.1685L16.0436 21.2462L16.025 21.2468ZM9.22452 7.62716V6.79103C9.22452 6.78523 9.22452 6.77884 9.22452 6.77245C9.22452 6.34161 9.57407 5.99206 10.0049 5.99206C10.4294 5.99206 10.7748 6.33116 10.7853 6.75329V6.75445V7.62774C13.0109 8.01445 14.6826 9.92884 14.6872 12.2352V15.4874L7.49652 8.31523C7.9889 7.98484 8.57071 7.74387 9.19723 7.63181L9.22452 7.62774V7.62716ZM14.0369 3.00058C13.6752 3.07781 13.4052 3.38613 13.3866 3.76065V3.76239V4.57994C12.8965 4.67806 12.461 4.83194 12.0575 5.03923L12.0859 5.02587C12.0952 5.10426 12.108 5.17394 12.1254 5.24129L12.1231 5.23026V6.15929C14.5775 6.58839 16.4239 8.69032 16.4524 11.2289V11.2318V16.2114H21.1719L18.8307 13.8703V9.2251C18.8295 6.92923 17.1759 5.01948 14.9944 4.62116L14.9659 4.6171V3.79955C14.9369 3.38439 14.6025 3.05632 14.1873 3.03774H14.1855C14.1472 3.01394 14.1008 3 14.0508 3C14.0456 3 14.041 3 14.0363 3.00058H14.0369V3.00058Z" fill="#373D40"/>
</svg>
