<svg width="24" height="24" viewBox="0 0 24 24" fill="none" xmlns="http://www.w3.org/2000/svg">
<path d="M13.8415 2C13.1215 2 12.5015 2.62 12.5015 3.34V3.96C12.3415 4 12.2015 4.04 12.0415 4.08C12.0815 4.2 12.0815 4.38 12.0815 4.5V5.12C12.5415 5.24 12.9615 5.42 13.3415 5.58C13.5015 5.58 13.6215 5.54 13.8015 5.54C16.0415 5.54 17.8415 7.34 17.8415 9.58V15.38H16.8015V16.2L17.7615 17.16H21.4215V16.3L19.6215 14.5V9.58C19.6215 6.84 17.7015 4.54 15.1615 3.96V3.34C15.1615 2.62 14.5415 2 13.8415 2V2ZM10.0415 4.12C9.38154 4.2 8.84154 4.8 8.84154 5.46V6.08C6.26154 6.7 4.38154 9 4.38154 11.7V16.62L2.58154 18.42V19.3H17.8015V18.42L16.0015 16.62V11.7C16.0015 8.96 14.0815 6.66 11.5415 6.08V5.46C11.5415 4.7 10.9615 4.12 10.2015 4.12C10.1215 4.12 10.0815 4.12 10.0415 4.12V4.12ZM10.1615 7.7C12.4215 7.7 14.2015 9.5 14.2015 11.74V17.54H6.16154V11.7C6.16154 9.5 7.92154 7.7 10.1615 7.7V7.7ZM8.38154 20.2C8.38154 21.2 9.16154 22 10.1615 22C11.1615 22 11.9615 21.2 11.9615 20.2H8.38154Z" fill="#373D40"/>
</svg>
