<svg width="24" height="24" viewBox="0 0 24 24" fill="none" xmlns="http://www.w3.org/2000/svg">
<path d="M13.8789 2C13.4823 2.08351 13.19 2.43841 13.19 2.8142V3.69102C12.7098 3.77453 12.2296 3.94154 11.7912 4.17119C11.7912 4.2547 11.833 4.3382 11.833 4.37996V5.38205C14.4426 5.82046 16.4885 8.11691 16.4885 10.8727V16.2171H21.5825L19.0564 13.691V8.70146C19.0564 6.21712 17.2192 4.12944 14.881 3.73278V2.85595C14.881 2.43841 14.4843 2.04175 14.0459 2.04175C14.0042 2 13.9207 2 13.8789 2ZM9.3904 5.25679C9.01461 5.29854 8.70146 5.6952 8.70146 6.09186V6.94781C6.3215 7.34447 4.5261 9.43215 4.5261 11.9165V16.9478L2 19.4739H17.0939L14.5679 16.9478V11.9582C14.5679 9.4739 12.7516 7.38622 10.3925 6.98956V6.13361C10.3925 5.6952 10.0167 5.29854 9.57829 5.29854C9.49478 5.25679 9.45303 5.25679 9.3904 5.25679ZM7.88727 20.309C7.88727 21.1858 8.65971 22 9.57829 22C10.4969 22 11.2693 21.2276 11.2693 20.309H7.88727Z" fill="#373D40"/>
</svg>
