<svg width="24" height="24" viewBox="0 0 24 24" fill="none" xmlns="http://www.w3.org/2000/svg">
<path d="M12 22C6.47688 22 2 17.5231 2 12C2 6.47688 6.47688 2 12 2C17.5231 2 22 6.47688 22 12C22 17.5231 17.5231 22 12 22ZM12 3.6C7.3275 3.6 3.54 7.3875 3.54 12.06C3.54 16.7325 7.3275 20.52 12 20.52C16.6725 20.52 20.46 16.7325 20.46 12.06C20.46 12.0388 20.46 12.0181 20.46 11.9969V12C20.46 7.3275 16.6725 3.54 12 3.54V3.6ZM7 12.92H5.34V11.22H7V12.92ZM11.22 4.54H12.92V6.24H11.22V4.54ZM11.72 5.04H12.42V5.74H11.72V5.04ZM17.38 8.48H15.68V6.78H17.38V8.48ZM12.92 6.26H11.22V4.54H12.92V6.26ZM19.26 12.92H17.56V11.22H19.26V12.92ZM10.28 11.22L6.18 7.12L7.24 6.06L11.34 10.16L10.28 11.22ZM12 14.22C11.9944 14.22 11.9875 14.22 11.9806 14.22C10.7325 14.22 9.72062 13.2081 9.72062 11.96C9.72062 10.7119 10.7325 9.7 11.9806 9.7C13.2288 9.7 14.2406 10.7119 14.2406 11.96C14.2406 11.9738 14.2406 11.9881 14.24 12.0019V12C14.2175 13.2238 13.2256 14.2087 12.0013 14.22H12ZM12 11.22C11.6362 11.2812 11.3631 11.5938 11.3631 11.97C11.3631 12.3462 11.6369 12.6587 11.9956 12.7194L12 12.72C12.3638 12.6588 12.6369 12.3462 12.6369 11.97C12.6369 11.5938 12.3631 11.2812 12.0044 11.2206L12 11.22Z" fill="black"/>
</svg>
