<svg width="24" height="24" viewBox="0 0 24 24" fill="none" xmlns="http://www.w3.org/2000/svg">
<g clip-path="url(#clip0_559_22123)">
<mask id="mask0_559_22123" style="mask-type:alpha" maskUnits="userSpaceOnUse" x="0" y="0" width="24" height="24">
<rect width="24" height="24" fill="#D9D9D9"/>
</mask>
<g mask="url(#mask0_559_22123)">
<path d="M12 22C10.6333 22 9.34167 21.7375 8.125 21.2125C6.90833 20.6875 5.84583 19.9708 4.9375 19.0625C4.02917 18.1542 3.3125 17.0917 2.7875 15.875C2.2625 14.6583 2 13.3667 2 12C2 10.6167 2.2625 9.32083 2.7875 8.1125C3.3125 6.90417 4.02917 5.84583 4.9375 4.9375C5.84583 4.02917 6.90833 3.3125 8.125 2.7875C9.34167 2.2625 10.6333 2 12 2C13.3833 2 14.6792 2.2625 15.8875 2.7875C17.0958 3.3125 18.1542 4.02917 19.0625 4.9375C19.9708 5.84583 20.6875 6.90417 21.2125 8.1125C21.7375 9.32083 22 10.6167 22 12C22 13.3667 21.7375 14.6583 21.2125 15.875C20.6875 17.0917 19.9708 18.1542 19.0625 19.0625C18.1542 19.9708 17.0958 20.6875 15.8875 21.2125C14.6792 21.7375 13.3833 22 12 22ZM12 16C13 16 13.975 16.1458 14.925 16.4375C15.875 16.7292 16.7667 17.15 17.6 17.7C18.3667 16.9333 18.9583 16.0625 19.375 15.0875C19.7917 14.1125 20 13.0833 20 12C20 9.76667 19.225 7.875 17.675 6.325C16.125 4.775 14.2333 4 12 4C9.76667 4 7.875 4.775 6.325 6.325C4.775 7.875 4 9.76667 4 12C4 13.0833 4.20417 14.1167 4.6125 15.1C5.02083 16.0833 5.61667 16.95 6.4 17.7C7.23333 17.15 8.125 16.7292 9.075 16.4375C10.025 16.1458 11 16 12 16ZM12 18C11.3167 18 10.65 18.0833 10 18.25C9.35 18.4167 8.73333 18.6667 8.15 19C8.73333 19.3333 9.35 19.5833 10 19.75C10.65 19.9167 11.3167 20 12 20C12.6833 20 13.35 19.9167 14 19.75C14.65 19.5833 15.2667 19.3333 15.85 19C15.2667 18.6667 14.65 18.4167 14 18.25C13.35 18.0833 12.6833 18 12 18ZM7 11C7.28333 11 7.52083 10.9042 7.7125 10.7125C7.90417 10.5208 8 10.2833 8 10C8 9.71667 7.90417 9.47917 7.7125 9.2875C7.52083 9.09583 7.28333 9 7 9C6.71667 9 6.47917 9.09583 6.2875 9.2875C6.09583 9.47917 6 9.71667 6 10C6 10.2833 6.09583 10.5208 6.2875 10.7125C6.47917 10.9042 6.71667 11 7 11ZM10 8C10.2833 8 10.5208 7.90417 10.7125 7.7125C10.9042 7.52083 11 7.28333 11 7C11 6.71667 10.9042 6.47917 10.7125 6.2875C10.5208 6.09583 10.2833 6 10 6C9.71667 6 9.47917 6.09583 9.2875 6.2875C9.09583 6.47917 9 6.71667 9 7C9 7.28333 9.09583 7.52083 9.2875 7.7125C9.47917 7.90417 9.71667 8 10 8ZM17 11C17.2833 11 17.5208 10.9042 17.7125 10.7125C17.9042 10.5208 18 10.2833 18 10C18 9.71667 17.9042 9.47917 17.7125 9.2875C17.5208 9.09583 17.2833 9 17 9C16.7167 9 16.4792 9.09583 16.2875 9.2875C16.0958 9.47917 16 9.71667 16 10C16 10.2833 16.0958 10.5208 16.2875 10.7125C16.4792 10.9042 16.7167 11 17 11ZM12 14C12.55 14 13.0208 13.8042 13.4125 13.4125C13.8042 13.0208 14 12.55 14 12C14 11.7833 13.9667 11.5708 13.9 11.3625C13.8333 11.1542 13.7333 10.9667 13.6 10.8L14.95 7.4C15.0667 7.13333 15.0708 6.87083 14.9625 6.6125C14.8542 6.35417 14.6667 6.16667 14.4 6.05C14.15 5.93333 13.8958 5.92917 13.6375 6.0375C13.3792 6.14583 13.2 6.33333 13.1 6.6L11.75 10C11.25 10.0833 10.8333 10.3125 10.5 10.6875C10.1667 11.0625 10 11.5 10 12C10 12.55 10.1958 13.0208 10.5875 13.4125C10.9792 13.8042 11.45 14 12 14Z" fill="#1C1B1F"/>
</g>
</g>
<defs>
<clipPath id="clip0_559_22123">
<rect width="24" height="24" fill="white"/>
</clipPath>
</defs>
</svg>
