<svg width="24" height="24" viewBox="0 0 24 24" fill="none" xmlns="http://www.w3.org/2000/svg">
<g clip-path="url(#clip0_2068_16439)">
<mask id="mask0_2068_16439" style="mask-type:alpha" maskUnits="userSpaceOnUse" x="0" y="0" width="25" height="24">
<rect x="0.139648" width="24" height="24" fill="#D9D9D9"/>
</mask>
<g mask="url(#mask0_2068_16439)">
<path d="M6.93945 19V5H12.4645C13.5478 5 14.5478 5.33333 15.4645 6C16.3811 6.66667 16.8395 7.59167 16.8395 8.775C16.8395 9.625 16.6478 10.2792 16.2645 10.7375C15.8811 11.1958 15.5228 11.525 15.1895 11.725C15.6061 11.9083 16.0686 12.25 16.577 12.75C17.0853 13.25 17.3395 14 17.3395 15C17.3395 16.4833 16.7978 17.5208 15.7145 18.1125C14.6311 18.7042 13.6145 19 12.6645 19H6.93945ZM9.96445 16.2H12.5645C13.3645 16.2 13.852 15.9958 14.027 15.5875C14.202 15.1792 14.2895 14.8833 14.2895 14.7C14.2895 14.5167 14.202 14.2208 14.027 13.8125C13.852 13.4042 13.3395 13.2 12.4895 13.2H9.96445V16.2ZM9.96445 10.5H12.2895C12.8395 10.5 13.2395 10.3583 13.4895 10.075C13.7395 9.79167 13.8645 9.475 13.8645 9.125C13.8645 8.725 13.7228 8.4 13.4395 8.15C13.1561 7.9 12.7895 7.775 12.3395 7.775H9.96445V10.5Z" fill="#1C1B1F"/>
</g>
</g>
<defs>
<clipPath id="clip0_2068_16439">
<rect width="24" height="24" fill="white"/>
</clipPath>
</defs>
</svg>
