<svg width="25" height="24" viewBox="0 0 25 24" fill="none" xmlns="http://www.w3.org/2000/svg">
<path d="M8.86035 11H13.3604C14.7411 11 15.8604 9.88071 15.8604 8.5C15.8604 7.11929 14.7411 6 13.3604 6H8.86035V11ZM18.8604 15.5C18.8604 17.9853 16.8457 20 14.3604 20H6.86035V4H13.3604C15.8457 4 17.8604 6.01472 17.8604 8.5C17.8604 9.70431 17.3873 10.7981 16.6168 11.6058C17.9583 12.3847 18.8604 13.837 18.8604 15.5ZM8.86035 13V18H14.3604C15.7411 18 16.8604 16.8807 16.8604 15.5C16.8604 14.1193 15.7411 13 14.3604 13H8.86035Z" fill="#373D40"/>
</svg>
