<svg width="24" height="24" viewBox="0 0 24 24" fill="none" xmlns="http://www.w3.org/2000/svg">
<path fill-rule="evenodd" clip-rule="evenodd" d="M5 3C3.89543 3 3 3.89543 3 5V19C3 20.1046 3.89543 21 5 21H19C20.1046 21 21 20.1046 21 19V5C21 3.89543 20.1046 3 19 3H5ZM16.644 9.42654C15.769 7.97154 14.176 6.99854 12.356 6.99854C9.59596 6.99854 7.35596 9.23853 7.35596 11.9985C7.35508 13.0925 7.71309 14.1566 8.3751 15.0276C9.0371 15.8985 9.96654 16.5283 11.0209 16.8203C12.0752 17.1122 13.1962 17.0503 14.2119 16.6439C15.2276 16.2375 16.082 15.5092 16.644 14.5705L14.929 13.5425C14.6625 13.9869 14.2854 14.3546 13.8344 14.6097C13.3835 14.8649 12.8741 14.9989 12.356 14.9985C11.8315 14.9983 11.3163 14.8606 10.8617 14.5992C10.407 14.3377 10.0289 13.9617 9.76491 13.5085C9.50094 13.0554 9.36038 12.5409 9.35724 12.0165C9.3541 11.492 9.4885 10.976 9.74703 10.5197C10.0056 10.0634 10.3792 9.68282 10.8307 9.41596C11.2821 9.1491 11.7957 9.00525 12.3201 8.99876C12.8445 8.99228 13.3614 9.12337 13.8194 9.37898C14.2773 9.63459 14.6602 10.0058 14.93 10.4555L16.644 9.42654Z" fill="#373D40"/>
</svg>
