<svg width="24" height="24" viewBox="0 0 24 24" fill="none" xmlns="http://www.w3.org/2000/svg">
<path fill-rule="evenodd" clip-rule="evenodd" d="M5 3C3.89543 3 3 3.89543 3 5V19C3 20.1046 3.89543 21 5 21H19C20.1046 21 21 20.1046 21 19V5C21 3.89543 20.1046 3 19 3H5ZM4.95 3.75C4.28726 3.75 3.75 4.28726 3.75 4.95V19.05C3.75 19.7127 4.28726 20.25 4.95 20.25H19.05C19.7127 20.25 20.25 19.7127 20.25 19.05V4.95C20.25 4.28726 19.7127 3.75 19.05 3.75H4.95Z" fill="#373D40"/>
<path d="M12.356 6.99849C14.176 6.99849 15.769 7.97149 16.644 9.42649L14.93 10.4555C14.6602 10.0057 14.2773 9.63454 13.8194 9.37894C13.3614 9.12333 12.8445 8.99223 12.3201 8.99872C11.7957 9.00521 11.2821 9.14905 10.8307 9.41591C10.3792 9.68277 10.0056 10.0633 9.74703 10.5196C9.4885 10.9759 9.3541 11.492 9.35724 12.0164C9.36038 12.5409 9.50094 13.0553 9.76491 13.5085C10.0289 13.9617 10.407 14.3377 10.8617 14.5991C11.3163 14.8606 11.8315 14.9983 12.356 14.9985C12.8741 14.9988 13.3835 14.8649 13.8344 14.6097C14.2854 14.3545 14.6625 13.9868 14.929 13.5425L16.644 14.5705C16.082 15.5091 15.2276 16.2375 14.2119 16.6438C13.1962 17.0502 12.0752 17.1122 11.0209 16.8202C9.96654 16.5283 9.0371 15.8985 8.3751 15.0275C7.71309 14.1566 7.35508 13.0925 7.35596 11.9985C7.35596 9.23849 9.59596 6.99849 12.356 6.99849Z" fill="#373D40"/>
</svg>
