<svg width="24" height="24" viewBox="0 0 24 24" fill="none" xmlns="http://www.w3.org/2000/svg">
<g clip-path="url(#clip0_2190_16468)">
<path d="M5 22.1885C4.45 22.1885 3.97917 21.9926 3.5875 21.601C3.19583 21.2093 3 20.7385 3 20.1885V6.18848C3 5.63848 3.19583 5.16764 3.5875 4.77598C3.97917 4.38431 4.45 4.18848 5 4.18848H6V3.18848C6 2.90514 6.09583 2.66764 6.2875 2.47598C6.47917 2.28431 6.71667 2.18848 7 2.18848C7.28333 2.18848 7.52083 2.28431 7.7125 2.47598C7.90417 2.66764 8 2.90514 8 3.18848V4.18848H16V3.18848C16 2.90514 16.0958 2.66764 16.2875 2.47598C16.4792 2.28431 16.7167 2.18848 17 2.18848C17.2833 2.18848 17.5208 2.28431 17.7125 2.47598C17.9042 2.66764 18 2.90514 18 3.18848V4.18848H19C19.55 4.18848 20.0208 4.38431 20.4125 4.77598C20.8042 5.16764 21 5.63848 21 6.18848V20.1885C21 20.7385 20.8042 21.2093 20.4125 21.601C20.0208 21.9926 19.55 22.1885 19 22.1885H5ZM5 20.1885H19V10.1885H5V20.1885ZM5 8.18848H19V6.18848H5V8.18848Z" fill="#262626"/>
</g>
<defs>
<clipPath id="clip0_2190_16468">
<rect width="24" height="24" fill="white"/>
</clipPath>
</defs>
</svg>
