<svg width="25" height="24" viewBox="0 0 25 24" fill="none" xmlns="http://www.w3.org/2000/svg">
<g clip-path="url(#clip0_2190_16467)">
<path d="M5.55322 22.1885C5.00322 22.1885 4.53239 21.9926 4.14072 21.601C3.74906 21.2093 3.55322 20.7385 3.55322 20.1885V6.18848C3.55322 5.63848 3.74906 5.16764 4.14072 4.77598C4.53239 4.38431 5.00322 4.18848 5.55322 4.18848H6.55322V3.18848C6.55322 2.90514 6.64906 2.66764 6.84072 2.47598C7.03239 2.28431 7.26989 2.18848 7.55322 2.18848C7.83656 2.18848 8.07406 2.28431 8.26572 2.47598C8.45739 2.66764 8.55322 2.90514 8.55322 3.18848V4.18848H16.5532V3.18848C16.5532 2.90514 16.6491 2.66764 16.8407 2.47598C17.0324 2.28431 17.2699 2.18848 17.5532 2.18848C17.8366 2.18848 18.0741 2.28431 18.2657 2.47598C18.4574 2.66764 18.5532 2.90514 18.5532 3.18848V4.18848H19.5532C20.1032 4.18848 20.5741 4.38431 20.9657 4.77598C21.3574 5.16764 21.5532 5.63848 21.5532 6.18848V20.1885C21.5532 20.7385 21.3574 21.2093 20.9657 21.601C20.5741 21.9926 20.1032 22.1885 19.5532 22.1885H5.55322ZM5.55322 20.1885H19.5532V10.1885H5.55322V20.1885ZM12.5532 14.1885C12.2699 14.1885 12.0324 14.0926 11.8407 13.901C11.6491 13.7093 11.5532 13.4718 11.5532 13.1885C11.5532 12.9051 11.6491 12.6676 11.8407 12.476C12.0324 12.2843 12.2699 12.1885 12.5532 12.1885C12.8366 12.1885 13.0741 12.2843 13.2657 12.476C13.4574 12.6676 13.5532 12.9051 13.5532 13.1885C13.5532 13.4718 13.4574 13.7093 13.2657 13.901C13.0741 14.0926 12.8366 14.1885 12.5532 14.1885ZM8.55322 14.1885C8.26989 14.1885 8.03239 14.0926 7.84072 13.901C7.64906 13.7093 7.55322 13.4718 7.55322 13.1885C7.55322 12.9051 7.64906 12.6676 7.84072 12.476C8.03239 12.2843 8.26989 12.1885 8.55322 12.1885C8.83656 12.1885 9.07406 12.2843 9.26572 12.476C9.45739 12.6676 9.55322 12.9051 9.55322 13.1885C9.55322 13.4718 9.45739 13.7093 9.26572 13.901C9.07406 14.0926 8.83656 14.1885 8.55322 14.1885ZM16.5532 14.1885C16.2699 14.1885 16.0324 14.0926 15.8407 13.901C15.6491 13.7093 15.5532 13.4718 15.5532 13.1885C15.5532 12.9051 15.6491 12.6676 15.8407 12.476C16.0324 12.2843 16.2699 12.1885 16.5532 12.1885C16.8366 12.1885 17.0741 12.2843 17.2657 12.476C17.4574 12.6676 17.5532 12.9051 17.5532 13.1885C17.5532 13.4718 17.4574 13.7093 17.2657 13.901C17.0741 14.0926 16.8366 14.1885 16.5532 14.1885ZM12.5532 18.1885C12.2699 18.1885 12.0324 18.0926 11.8407 17.901C11.6491 17.7093 11.5532 17.4718 11.5532 17.1885C11.5532 16.9051 11.6491 16.6676 11.8407 16.476C12.0324 16.2843 12.2699 16.1885 12.5532 16.1885C12.8366 16.1885 13.0741 16.2843 13.2657 16.476C13.4574 16.6676 13.5532 16.9051 13.5532 17.1885C13.5532 17.4718 13.4574 17.7093 13.2657 17.901C13.0741 18.0926 12.8366 18.1885 12.5532 18.1885ZM8.55322 18.1885C8.26989 18.1885 8.03239 18.0926 7.84072 17.901C7.64906 17.7093 7.55322 17.4718 7.55322 17.1885C7.55322 16.9051 7.64906 16.6676 7.84072 16.476C8.03239 16.2843 8.26989 16.1885 8.55322 16.1885C8.83656 16.1885 9.07406 16.2843 9.26572 16.476C9.45739 16.6676 9.55322 16.9051 9.55322 17.1885C9.55322 17.4718 9.45739 17.7093 9.26572 17.901C9.07406 18.0926 8.83656 18.1885 8.55322 18.1885ZM16.5532 18.1885C16.2699 18.1885 16.0324 18.0926 15.8407 17.901C15.6491 17.7093 15.5532 17.4718 15.5532 17.1885C15.5532 16.9051 15.6491 16.6676 15.8407 16.476C16.0324 16.2843 16.2699 16.1885 16.5532 16.1885C16.8366 16.1885 17.0741 16.2843 17.2657 16.476C17.4574 16.6676 17.5532 16.9051 17.5532 17.1885C17.5532 17.4718 17.4574 17.7093 17.2657 17.901C17.0741 18.0926 16.8366 18.1885 16.5532 18.1885Z" fill="#262626"/>
</g>
<defs>
<clipPath id="clip0_2190_16467">
<rect width="24" height="24" fill="white" transform="translate(0.5)"/>
</clipPath>
</defs>
</svg>
