<svg width="27" height="24" viewBox="0 0 27 24" fill="none" xmlns="http://www.w3.org/2000/svg">
<g clip-path="url(#clip0_1379_32814)">
<path d="M19.125 3H23.625C23.9234 3 24.2095 3.10536 24.4205 3.29289C24.6315 3.48043 24.75 3.73478 24.75 4V20C24.75 20.2652 24.6315 20.5196 24.4205 20.7071C24.2095 20.8946 23.9234 21 23.625 21H3.375C3.07663 21 2.79048 20.8946 2.5795 20.7071C2.36853 20.5196 2.25 20.2652 2.25 20V4C2.25 3.73478 2.36853 3.48043 2.5795 3.29289C2.79048 3.10536 3.07663 3 3.375 3H7.875V1H10.125V3H16.875V1H19.125V3ZM16.875 5H10.125V7H7.875V5H4.5V9H22.5V5H19.125V7H16.875V5ZM22.5 11H4.5V19H22.5V11Z" fill="#373D40"/>
</g>
<defs>
<clipPath id="clip0_1379_32814">
<rect width="27" height="24" fill="white"/>
</clipPath>
</defs>
</svg>
