<svg width="24" height="24" viewBox="0 0 24 24" fill="none" xmlns="http://www.w3.org/2000/svg">
<path d="M20.3533 20H5.53821C4.92937 20 4.46549 19.5361 4.46549 18.9273V12.665C6.61092 13.8536 9.3072 13.1288 10.4959 10.9544C11.1047 9.8817 11.2207 8.57704 10.8728 7.35937H15.1636C15.4826 7.35937 15.8305 7.56231 16.0624 7.79425L17.454 9.8527H20.4112C21.0201 9.8527 21.484 10.3456 21.484 10.9254V18.8693C21.484 19.4781 20.9621 20 20.3533 20V20ZM12.9602 10.9254C10.8728 10.9254 9.13325 12.665 9.13325 14.7524C9.13325 16.8398 10.8728 18.5794 12.9602 18.5794C15.0477 18.5794 16.7872 16.8688 16.7872 14.7524C16.7872 12.636 15.0767 10.9254 12.9602 10.9254V10.9254ZM17.628 10.6355C17.3671 10.6355 17.0771 10.8674 17.0771 11.2153C17.0771 11.5632 17.3091 11.7662 17.628 11.7662C17.9179 11.7662 18.2078 11.5343 18.2078 11.2153C18.1498 10.9254 17.9179 10.6355 17.628 10.6355ZM12.9602 17.7966C11.2787 17.7966 9.91604 16.4339 9.91604 14.7524C9.91604 13.0708 11.2787 11.7082 12.9602 11.7082C14.6418 11.7082 16.0044 13.0708 16.0044 14.7524C16.0044 16.4339 14.6418 17.7966 12.9602 17.7966ZM6.321 5.96774V8.43208H3.85666V9.0989H6.321V11.5632H6.98782V9.0989H9.45216V8.43208H6.98782V5.96774H6.321ZM6.63991 12.9839C4.32053 12.9839 2.43604 11.0994 2.43604 8.77999C2.43604 6.46061 4.32053 4.54712 6.63991 4.54712C8.95929 4.54712 10.8728 6.43162 10.8728 8.77999C10.8728 11.1284 8.98829 12.9839 6.63991 12.9839V12.9839ZM6.63991 5.03999C4.58146 5.03999 2.89991 6.72154 2.89991 8.77999C2.89991 10.8384 4.58146 12.52 6.63991 12.52C8.69836 12.52 10.3799 10.8384 10.3799 8.77999C10.3799 6.72154 8.69836 5.03999 6.63991 5.03999V5.03999Z" fill="#373D40"/>
</svg>
