<svg width="24" height="24" viewBox="0 0 24 24" fill="none" xmlns="http://www.w3.org/2000/svg">
<path d="M17.3778 16.6218H6.92822C6.49878 16.6218 6.1716 16.2946 6.1716 15.8652V11.4481C7.68484 12.2865 9.58663 11.7753 10.425 10.2416C10.8545 9.485 10.9363 8.56478 10.6909 7.70591H13.7174C13.9423 7.70591 14.1877 7.84905 14.3513 8.01265L15.3329 9.46455H17.4187C17.8481 9.46455 18.1753 9.81218 18.1753 10.2212V15.8243C18.1753 16.2537 17.8072 16.6218 17.3778 16.6218V16.6218ZM12.1632 10.2212C10.6909 10.2212 9.46393 11.4481 9.46393 12.9205C9.46393 14.3928 10.6909 15.6198 12.1632 15.6198C13.656 15.6198 14.8625 14.4133 14.8625 12.9205C14.8625 11.4481 13.656 10.2212 12.1632 10.2212V10.2212ZM15.4556 10.0167C15.2715 10.0167 15.067 10.1803 15.067 10.4257C15.067 10.6711 15.2306 10.8142 15.4556 10.8142C15.6601 10.8142 15.8646 10.6506 15.8646 10.4257C15.8237 10.2212 15.6601 10.0167 15.4556 10.0167ZM12.1632 15.0676C10.9772 15.0676 10.0161 14.1065 10.0161 12.9205C10.0161 11.7344 10.9772 10.7733 12.1632 10.7733C13.3493 10.7733 14.3104 11.7344 14.3104 12.9205C14.3104 14.1065 13.3493 15.0676 12.1632 15.0676ZM7.48035 6.72434V8.46253H5.74216V8.93286H7.48035V10.6711H7.95068V8.93286H9.68887V8.46253H7.95068V6.72434H7.48035ZM7.70529 11.6731C6.06935 11.6731 4.74015 10.3439 4.74015 8.70792C4.74015 7.07198 6.06935 5.72233 7.70529 5.72233C9.34123 5.72233 10.6909 7.05153 10.6909 8.70792C10.6909 10.3643 9.36168 11.6731 7.70529 11.6731V11.6731ZM7.70529 6.06996C6.25339 6.06996 5.06733 7.25602 5.06733 8.70792C5.06733 10.1598 6.25339 11.3459 7.70529 11.3459C9.15719 11.3459 10.3432 10.1598 10.3432 8.70792C10.3432 7.25602 9.15719 6.06996 7.70529 6.06996V6.06996ZM11.9996 22C6.45789 22 1.97949 17.5011 1.97949 11.9594C1.97949 6.4176 6.45789 1.93921 11.9996 1.93921C17.5414 1.93921 22.0198 6.4176 22.0198 11.9594C22.0198 17.5011 17.5414 22 11.9996 22ZM11.9996 2.59359C6.82597 2.59359 2.63387 6.78569 2.63387 11.9594C2.63387 17.133 6.82597 21.3456 11.9996 21.3456C17.1733 21.3456 21.3654 17.1535 21.3654 11.9594C21.3654 6.76524 17.1733 2.59359 11.9996 2.59359V2.59359Z" fill="#373D40"/>
</svg>
