<svg width="24" height="24" viewBox="0 0 24 24" fill="none" xmlns="http://www.w3.org/2000/svg">
<g clip-path="url(#clip0_523_22161)">
<path d="M4.77778 5.77778H7.44444L9.22222 4H14.5556L16.3333 5.77778H19C19.4715 5.77778 19.9237 5.96508 20.2571 6.29848C20.5905 6.63187 20.7778 7.08406 20.7778 7.55556V18.2222C20.7778 18.6937 20.5905 19.1459 20.2571 19.4793C19.9237 19.8127 19.4715 20 19 20H4.77778C4.30628 20 3.8541 19.8127 3.5207 19.4793C3.1873 19.1459 3 18.6937 3 18.2222V7.55556C3 7.08406 3.1873 6.63187 3.5207 6.29848C3.8541 5.96508 4.30628 5.77778 4.77778 5.77778ZM11.8889 8.44444C10.7101 8.44444 9.57969 8.9127 8.74619 9.74619C7.9127 10.5797 7.44444 11.7101 7.44444 12.8889C7.44444 14.0676 7.9127 15.1981 8.74619 16.0316C9.57969 16.8651 10.7101 17.3333 11.8889 17.3333C13.0676 17.3333 14.1981 16.8651 15.0316 16.0316C15.8651 15.1981 16.3333 14.0676 16.3333 12.8889C16.3333 11.7101 15.8651 10.5797 15.0316 9.74619C14.1981 8.9127 13.0676 8.44444 11.8889 8.44444ZM11.8889 10.2222C12.5961 10.2222 13.2744 10.5032 13.7745 11.0033C14.2746 11.5034 14.5556 12.1816 14.5556 12.8889C14.5556 13.5961 14.2746 14.2744 13.7745 14.7745C13.2744 15.2746 12.5961 15.5556 11.8889 15.5556C11.1816 15.5556 10.5034 15.2746 10.0033 14.7745C9.50317 14.2744 9.22222 13.5961 9.22222 12.8889C9.22222 12.1816 9.50317 11.5034 10.0033 11.0033C10.5034 10.5032 11.1816 10.2222 11.8889 10.2222Z" fill="#373D40"/>
</g>
<defs>
<clipPath id="clip0_523_22161">
<rect width="17.7778" height="16" fill="white" transform="translate(3 4)"/>
</clipPath>
</defs>
</svg>
