<svg width="24" height="24" viewBox="0 0 24 24" fill="none" xmlns="http://www.w3.org/2000/svg">
<path d="M17.3778 16.6218H6.92822C6.49878 16.6218 6.1716 16.2946 6.1716 15.8652V11.4482C7.68484 12.2866 9.58663 11.7754 10.425 10.2417C10.8545 9.48504 10.9363 8.56482 10.6909 7.70595H13.7174C13.9423 7.70595 14.1877 7.84909 14.3513 8.01269L15.3329 9.46459H17.4187C17.8481 9.46459 18.1753 9.81223 18.1753 10.2212V15.8243C18.1753 16.2537 17.8072 16.6218 17.3778 16.6218V16.6218ZM12.1632 10.2212C10.6909 10.2212 9.46393 11.4482 9.46393 12.9205C9.46393 14.3929 10.6909 15.6198 12.1632 15.6198C13.656 15.6198 14.8625 14.4133 14.8625 12.9205C14.8625 11.4482 13.656 10.2212 12.1632 10.2212V10.2212ZM15.4556 10.0167C15.2715 10.0167 15.067 10.1803 15.067 10.4257C15.067 10.6711 15.2306 10.8142 15.4556 10.8142C15.6601 10.8142 15.8646 10.6506 15.8646 10.4257C15.8237 10.2212 15.6601 10.0167 15.4556 10.0167ZM12.1632 15.0677C10.9772 15.0677 10.0161 14.1066 10.0161 12.9205C10.0161 11.7345 10.9772 10.7733 12.1632 10.7733C13.3493 10.7733 14.3104 11.7345 14.3104 12.9205C14.3104 14.1066 13.3493 15.0677 12.1632 15.0677ZM7.48035 6.72438V8.46257H5.74216V8.93291H7.48035V10.6711H7.95068V8.93291H9.68887V8.46257H7.95068V6.72438H7.48035ZM7.70529 11.6731C6.06935 11.6731 4.74015 10.3439 4.74015 8.70796C4.74015 7.07202 6.06935 5.72237 7.70529 5.72237C9.34123 5.72237 10.6909 7.05157 10.6909 8.70796C10.6909 10.3644 9.36168 11.6731 7.70529 11.6731V11.6731ZM7.70529 6.07001C6.25339 6.07001 5.06733 7.25607 5.06733 8.70796C5.06733 10.1599 6.25339 11.3459 7.70529 11.3459C9.15719 11.3459 10.3432 10.1599 10.3432 8.70796C10.3432 7.25607 9.15719 6.07001 7.70529 6.07001V6.07001ZM11.9996 22C6.45789 22 1.97949 17.5012 1.97949 11.9594C1.97949 6.41764 6.45789 1.93925 11.9996 1.93925C17.5414 1.93925 22.0198 6.41764 22.0198 11.9594C22.0198 17.5012 17.5414 22 11.9996 22ZM11.9996 2.59363C6.82597 2.59363 2.63387 6.78573 2.63387 11.9594C2.63387 17.1331 6.82597 21.3456 11.9996 21.3456C17.1733 21.3456 21.3654 17.1535 21.3654 11.9594C21.3654 6.76528 17.1733 2.59363 11.9996 2.59363V2.59363Z" fill="black"/>
</svg>
