<svg width="24" height="24" viewBox="0 0 24 24" fill="none" xmlns="http://www.w3.org/2000/svg">
<path fill-rule="evenodd" clip-rule="evenodd" d="M2.45995 1.0459L1.0459 2.45995L8.01911 9.43316C7.38483 10.9946 7.68501 12.8631 8.91966 14.134C10.1845 15.4358 12.0587 15.7282 13.5972 15.0113L14.5378 15.9518L11.135 19.4544C10.3193 20.2939 8.99688 20.2939 8.18125 19.4544C7.36561 18.6148 7.36561 17.2537 8.18125 16.4141L9.02233 15.5484C8.73868 15.3761 8.4377 15.158 8.18125 14.894C7.9248 14.63 7.71288 14.3202 7.54549 14.0283L6.70441 14.894C5.07314 16.5731 5.07314 19.2954 6.70441 20.9745C8.33568 22.6536 10.9805 22.6536 12.6118 20.9745L16.0359 17.4499L21.5403 22.9543L22.9545 21.5401L2.45995 1.0459ZM10.3965 12.6138C10.0153 12.2214 9.81228 11.7152 9.78738 11.2014L11.8289 13.243C11.3093 13.2317 10.793 13.0219 10.3965 12.6138Z" fill="#373D40"/>
<path d="M18.224 13.9816C18.4024 12.6886 18.0085 11.3281 17.0423 10.3336C16.0454 9.30754 14.6701 8.9085 13.3789 9.13643L18.224 13.9816Z" fill="#373D40"/>
<path d="M12.0816 7.83908L14.827 5.01319C15.6427 4.17365 16.9651 4.17365 17.7807 5.01319C18.5963 5.85273 18.5963 7.21389 17.7807 8.05343L16.9287 8.93044C17.2296 9.10972 17.5429 9.32895 17.7806 9.57363C18.0371 9.8376 18.249 10.1474 18.4164 10.4394L19.2576 9.57355C20.8888 7.89447 20.8888 5.17215 19.2576 3.49307C17.6263 1.81399 14.9815 1.81399 13.3502 3.49307L10.5834 6.34092L12.0816 7.83908Z" fill="#373D40"/>
</svg>
