<svg width="24" height="24" viewBox="0 0 24 24" fill="none" xmlns="http://www.w3.org/2000/svg">
<g clip-path="url(#clip0_1963_29150)">
<mask id="mask0_1963_29150" style="mask-type:alpha" maskUnits="userSpaceOnUse" x="1" y="0" width="24" height="24">
<rect x="1" width="24" height="24" fill="#D9D9D9"/>
</mask>
<g mask="url(#mask0_1963_29150)">
<path d="M12 17H8C6.61667 17 5.4375 16.5125 4.4625 15.5375C3.4875 14.5625 3 13.3833 3 12C3 10.6167 3.4875 9.4375 4.4625 8.4625C5.4375 7.4875 6.61667 7 8 7H12V9H8C7.16667 9 6.45833 9.29167 5.875 9.875C5.29167 10.4583 5 11.1667 5 12C5 12.8333 5.29167 13.5417 5.875 14.125C6.45833 14.7083 7.16667 15 8 15H12V17ZM9 13V11H17V13H9ZM14 17V15H18C18.8333 15 19.5417 14.7083 20.125 14.125C20.7083 13.5417 21 12.8333 21 12C21 11.1667 20.7083 10.4583 20.125 9.875C19.5417 9.29167 18.8333 9 18 9H14V7H18C19.3833 7 20.5625 7.4875 21.5375 8.4625C22.5125 9.4375 23 10.6167 23 12C23 13.3833 22.5125 14.5625 21.5375 15.5375C20.5625 16.5125 19.3833 17 18 17H14Z" fill="#1C1B1F"/>
</g>
</g>
<defs>
<clipPath id="clip0_1963_29150">
<rect width="24" height="24" fill="white"/>
</clipPath>
</defs>
</svg>
