<svg width="24" height="24" viewBox="0 0 24 24" fill="none" xmlns="http://www.w3.org/2000/svg">
<path d="M8.19979 19.9417L9.32479 18.825L12.4998 22L11.9498 22.025C6.70812 22.025 2.41646 17.9917 1.99146 12.8583H3.24146C3.54146 15.9917 5.49145 18.6417 8.19979 19.9417ZM15.6998 4.10833L14.5748 5.225L11.3998 2.05L11.9498 2.025C17.1915 2.025 21.4831 6.05833 21.9081 11.1917H20.6581C20.3581 8.05833 18.4081 5.41667 15.6998 4.10833Z" fill="black"/>
<path d="M12 13.5833C10.3333 13.5833 7 14.5 7 16.1667V17H17V16.1667C17 14.5 13.6667 13.5833 12 13.5833Z" fill="black"/>
<path d="M13.7678 11.2678C14.2366 10.7989 14.5 10.163 14.5 9.5C14.5 8.83696 14.2366 8.20107 13.7678 7.73223C13.2989 7.26339 12.663 7 12 7C11.337 7 10.7011 7.26339 10.2322 7.73223C9.76339 8.20107 9.5 8.83696 9.5 9.5C9.5 10.163 9.76339 10.7989 10.2322 11.2678C10.7011 11.7366 11.337 12 12 12C12.663 12 13.2989 11.7366 13.7678 11.2678Z" fill="black"/>
</svg>
