<svg width="24" height="24" viewBox="0 0 24 24" fill="none" xmlns="http://www.w3.org/2000/svg">
<path d="M10.5468 13.8L8.39678 11.65C8.21344 11.4667 7.98011 11.375 7.69678 11.375C7.41344 11.375 7.18011 11.4667 6.99678 11.65C6.81344 11.8333 6.72178 12.0667 6.72178 12.35C6.72178 12.6333 6.81344 12.8667 6.99678 13.05L9.84678 15.9C10.0468 16.1 10.2801 16.2 10.5468 16.2C10.8134 16.2 11.0468 16.1 11.2468 15.9L16.8968 10.25C17.0801 10.0667 17.1718 9.83333 17.1718 9.55C17.1718 9.26667 17.0801 9.03333 16.8968 8.85C16.7134 8.66667 16.4801 8.575 16.1968 8.575C15.9134 8.575 15.6801 8.66667 15.4968 8.85L10.5468 13.8ZM11.9468 22C10.5634 22 9.26344 21.7375 8.04678 21.2125C6.83011 20.6875 5.77178 19.975 4.87178 19.075C3.97178 18.175 3.25928 17.1167 2.73428 15.9C2.20928 14.6833 1.94678 13.3833 1.94678 12C1.94678 10.6167 2.20928 9.31667 2.73428 8.1C3.25928 6.88333 3.97178 5.825 4.87178 4.925C5.77178 4.025 6.83011 3.3125 8.04678 2.7875C9.26344 2.2625 10.5634 2 11.9468 2C13.3301 2 14.6301 2.2625 15.8468 2.7875C17.0634 3.3125 18.1218 4.025 19.0218 4.925C19.9218 5.825 20.6343 6.88333 21.1593 8.1C21.6843 9.31667 21.9468 10.6167 21.9468 12C21.9468 13.3833 21.6843 14.6833 21.1593 15.9C20.6343 17.1167 19.9218 18.175 19.0218 19.075C18.1218 19.975 17.0634 20.6875 15.8468 21.2125C14.6301 21.7375 13.3301 22 11.9468 22ZM11.9468 20C14.1801 20 16.0718 19.225 17.6218 17.675C19.1718 16.125 19.9468 14.2333 19.9468 12C19.9468 9.76667 19.1718 7.875 17.6218 6.325C16.0718 4.775 14.1801 4 11.9468 4C9.71344 4 7.82178 4.775 6.27178 6.325C4.72178 7.875 3.94678 9.76667 3.94678 12C3.94678 14.2333 4.72178 16.125 6.27178 17.675C7.82178 19.225 9.71344 20 11.9468 20Z" fill="#262626"/>
</svg>
