<svg width="24" height="24" viewBox="0 0 24 24" fill="none" xmlns="http://www.w3.org/2000/svg">
<path d="M5.73443 9.79471H4.36571V3.35498H5.73443V9.79471ZM21.5757 3.35498H20.207V20.0938H21.5757V3.35498ZM5.73443 14.1028H4.36571V20.565H5.73443V14.1028V14.1028ZM21.5757 20.565V19.1963H5.48762V20.565H21.5757V20.565ZM12.6454 12.6443V11.2981H1V12.6443H12.6454ZM13.4307 13.0258L14.418 12.0385L10.3567 7.97722L9.3694 8.9645L13.4307 13.0258ZM14.418 12.0385L13.4307 11.0737L9.3694 15.135L10.3567 16.1222L14.418 12.0385ZM21.5757 4.74614V3.35498H5.73443V4.70127H21.5757V4.74614Z" fill="#373D40"/>
</svg>
