<svg width="24" height="25" viewBox="0 0 24 25" fill="none" xmlns="http://www.w3.org/2000/svg">
<g clip-path="url(#clip0_862_18573)">
<path d="M4 3.75H20C20.2652 3.75 20.5196 3.85536 20.7071 4.04289C20.8946 4.23043 21 4.48478 21 4.75V20.75C21 21.0152 20.8946 21.2696 20.7071 21.4571C20.5196 21.6446 20.2652 21.75 20 21.75H4C3.73478 21.75 3.48043 21.6446 3.29289 21.4571C3.10536 21.2696 3 21.0152 3 20.75V4.75C3 4.48478 3.10536 4.23043 3.29289 4.04289C3.48043 3.85536 3.73478 3.75 4 3.75V3.75ZM5 5.75V19.75H19V5.75H5Z" fill="#373D40"/>
</g>
<defs>
<clipPath id="clip0_862_18573">
<rect width="24" height="24" fill="white" transform="translate(0 0.75)"/>
</clipPath>
</defs>
</svg>
