<svg width="24" height="24" viewBox="0 0 24 24" fill="none" xmlns="http://www.w3.org/2000/svg">
<g clip-path="url(#clip0_760_18732)">
<mask id="mask0_760_18732" style="mask-type:alpha" maskUnits="userSpaceOnUse" x="1" y="0" width="24" height="24">
<rect x="1" width="24" height="24" fill="#D9D9D9"/>
</mask>
<g mask="url(#mask0_760_18732)">
<path d="M6 21C5.45 21 4.97917 20.8042 4.5875 20.4125C4.19583 20.0208 4 19.55 4 19V15H6V19H20V5H6V9H4V5C4 4.45 4.19583 3.97917 4.5875 3.5875C4.97917 3.19583 5.45 3 6 3H20C20.55 3 21.0208 3.19583 21.4125 3.5875C21.8042 3.97917 22 4.45 22 5V19C22 19.55 21.8042 20.0208 21.4125 20.4125C21.0208 20.8042 20.55 21 20 21H6ZM11.5 17L10.1 15.55L12.65 13H4V11H12.65L10.1 8.45L11.5 7L16.5 12L11.5 17Z" fill="#1C1B1F"/>
</g>
</g>
<defs>
<clipPath id="clip0_760_18732">
<rect width="24" height="24" fill="white"/>
</clipPath>
</defs>
</svg>
