<svg width="25" height="24" viewBox="0 0 25 24" fill="none" xmlns="http://www.w3.org/2000/svg">
<path fill-rule="evenodd" clip-rule="evenodd" d="M7.78474 2.86188H4.83646C4.35021 2.86188 3.95557 3.27126 3.95557 3.77568V20.224C3.95557 20.7285 4.35021 21.1378 4.83646 21.1378H18.9307C19.4169 21.1378 19.8116 20.7285 19.8116 20.224V14.9624L18.2556 16.79V19.4867H5.63712V4.48371L7.82057 4.49178C7.79721 4.40701 7.78474 4.31773 7.78474 4.22553V2.86188ZM16.5483 4.52401L18.2556 4.53032V9.08301L19.8116 7.20881V3.77568C19.8116 3.27126 19.4169 2.86188 18.9307 2.86188H16.5936V4.22553C16.5936 4.32949 16.5778 4.42975 16.5483 4.52401ZM21.7425 10.3751L20.4969 9.08301L13.6454 16.1905L13.6436 17.4808L14.8909 17.4826L21.7425 10.3751Z" fill="#373D40"/>
<path d="M8.23145 2.33801H16.1401V4.22571C16.1401 4.77799 15.6924 5.22571 15.1401 5.22571H9.23144C8.67916 5.22571 8.23145 4.77799 8.23145 4.22571V2.33801Z" fill="#373D40"/>
<rect x="6.66016" y="12.611" width="6.87036" height="1.3" fill="#373D40"/>
<rect x="6.66016" y="16.2081" width="6.16284" height="1.3" fill="#373D40"/>
<rect x="8.15967" y="6.64526" width="1.3" height="4.54579" fill="#373D40"/>
<rect x="6.66016" y="8.26831" width="4.29907" height="1.3" fill="#373D40"/>
</svg>
