<svg width="24" height="24" viewBox="0 0 24 24" fill="none" xmlns="http://www.w3.org/2000/svg">
<path d="M8.09432 21.4427H4V2.55734H7.32262V3.67203C7.32262 4.33655 7.77278 4.78671 8.4373 4.78671H16.1972C16.8832 4.78671 17.3119 4.33655 17.3119 3.67203V2.55734H20.6559V7.65916L19.7556 6.78028L13.8821 12.6752H6.20793V14.3258H12.2101L11.0954 15.4405H6.20793V17.1125H9.10182L8.86602 18.2272H6.20793V19.8993H8.54448L8.09432 21.4427ZM7.87996 9.11683V10.896H9.31618V9.11683H11.0954V7.65916H9.31618V5.90139H7.87996V7.65916H6.20793V9.11683H7.87996ZM7.77278 2H16.6474V3.67203C16.6474 3.99357 16.433 4.22937 16.09 4.22937H8.33012C7.98714 4.22937 7.77278 3.99357 7.77278 3.67203V2ZM19.6484 8.34512L10.881 17.1125L14.2036 20.4352L22.8639 11.6677L19.6484 8.34512ZM9.87353 17.9914L8.99464 22L13.089 21.2283L9.87353 17.9914Z" fill="black"/>
</svg>
