<svg width="24" height="24" viewBox="0 0 24 24" fill="none" xmlns="http://www.w3.org/2000/svg">
<g clip-path="url(#clip0_1287_16433)">
<mask id="mask0_1287_16433" style="mask-type:alpha" maskUnits="userSpaceOnUse" x="-1" y="0" width="25" height="25">
<rect x="-0.0527344" y="0.132324" width="24" height="24" fill="#D9D9D9"/>
</mask>
<g mask="url(#mask0_1287_16433)">
<path d="M8.94727 9.13232V7.13232H17.9473V9.13232H8.94727ZM8.94727 12.1323V10.1323H17.9473V12.1323H8.94727ZM11.9473 22.1323H5.94727C5.11393 22.1323 4.4056 21.8407 3.82227 21.2573C3.23893 20.674 2.94727 19.9657 2.94727 19.1323V16.1323H5.94727V2.13232H20.9473V11.1573C20.6139 11.124 20.2764 11.1365 19.9348 11.1948C19.5931 11.2532 19.2639 11.3573 18.9473 11.5073V4.13232H7.94727V16.1323H13.9473L11.9473 18.1323H4.94727V19.1323C4.94727 19.4157 5.0431 19.6532 5.23477 19.8448C5.42643 20.0365 5.66393 20.1323 5.94727 20.1323H11.9473V22.1323ZM13.9473 22.1323V19.0573L19.4723 13.5573C19.6223 13.4073 19.7889 13.299 19.9723 13.2323C20.1556 13.1657 20.3389 13.1323 20.5223 13.1323C20.7223 13.1323 20.9139 13.1698 21.0973 13.2448C21.2806 13.3198 21.4473 13.4323 21.5973 13.5823L22.5223 14.5073C22.6556 14.6573 22.7598 14.824 22.8348 15.0073C22.9098 15.1907 22.9473 15.374 22.9473 15.5573C22.9473 15.7407 22.9139 15.9282 22.8473 16.1198C22.7806 16.3115 22.6723 16.4823 22.5223 16.6323L17.0223 22.1323H13.9473ZM15.4473 20.6323H16.3973L19.4223 17.5823L18.9723 17.1073L18.4973 16.6573L15.4473 19.6823V20.6323ZM18.9723 17.1073L18.4973 16.6573L19.4223 17.5823L18.9723 17.1073Z" fill="#1C1B1F"/>
</g>
</g>
<defs>
<clipPath id="clip0_1287_16433">
<rect width="24" height="24" fill="white"/>
</clipPath>
</defs>
</svg>
