<svg width="24" height="24" viewBox="0 0 24 24" fill="none" xmlns="http://www.w3.org/2000/svg">
<g clip-path="url(#clip0_1241_16456)">
<mask id="mask0_1241_16456" style="mask-type:alpha" maskUnits="userSpaceOnUse" x="0" y="0" width="24" height="25">
<rect y="0.132324" width="24" height="24" fill="#D9D9D9"/>
</mask>
<g mask="url(#mask0_1241_16456)">
<path d="M15.3 16.8323L16.7 15.4323L13 11.7323V7.13232H11V12.5323L15.3 16.8323ZM12 22.1323C10.6167 22.1323 9.31667 21.8698 8.1 21.3448C6.88333 20.8198 5.825 20.1073 4.925 19.2073C4.025 18.3073 3.3125 17.249 2.7875 16.0323C2.2625 14.8157 2 13.5157 2 12.1323C2 10.749 2.2625 9.44899 2.7875 8.23232C3.3125 7.01566 4.025 5.95732 4.925 5.05732C5.825 4.15732 6.88333 3.44482 8.1 2.91982C9.31667 2.39482 10.6167 2.13232 12 2.13232C13.3833 2.13232 14.6833 2.39482 15.9 2.91982C17.1167 3.44482 18.175 4.15732 19.075 5.05732C19.975 5.95732 20.6875 7.01566 21.2125 8.23232C21.7375 9.44899 22 10.749 22 12.1323C22 13.5157 21.7375 14.8157 21.2125 16.0323C20.6875 17.249 19.975 18.3073 19.075 19.2073C18.175 20.1073 17.1167 20.8198 15.9 21.3448C14.6833 21.8698 13.3833 22.1323 12 22.1323ZM12 20.1323C14.2167 20.1323 16.1042 19.3532 17.6625 17.7948C19.2208 16.2365 20 14.349 20 12.1323C20 9.91566 19.2208 8.02816 17.6625 6.46982C16.1042 4.91149 14.2167 4.13232 12 4.13232C9.78333 4.13232 7.89583 4.91149 6.3375 6.46982C4.77917 8.02816 4 9.91566 4 12.1323C4 14.349 4.77917 16.2365 6.3375 17.7948C7.89583 19.3532 9.78333 20.1323 12 20.1323Z" fill="#1C1B1F"/>
</g>
</g>
<defs>
<clipPath id="clip0_1241_16456">
<rect width="24" height="24" fill="white"/>
</clipPath>
</defs>
</svg>
