<svg width="24" height="24" viewBox="0 0 24 24" fill="none" xmlns="http://www.w3.org/2000/svg">
<g clip-path="url(#clip0_1658_16514)">
<mask id="mask0_1658_16514" style="mask-type:alpha" maskUnits="userSpaceOnUse" x="0" y="0" width="24" height="24">
<rect width="24" height="24" fill="#D9D9D9"/>
</mask>
<g mask="url(#mask0_1658_16514)">
<path d="M11 22C9.75 22 8.57917 21.7625 7.4875 21.2875C6.39583 20.8125 5.44583 20.1708 4.6375 19.3625C3.82917 18.5542 3.1875 17.6042 2.7125 16.5125C2.2375 15.4208 2 14.25 2 13C2 10.5 2.875 8.375 4.625 6.625C6.375 4.875 8.5 4 11 4H11.15L9.6 2.45L11 1L15 5L11 9L9.6 7.55L11.15 6H11C9.05 6 7.39583 6.67917 6.0375 8.0375C4.67917 9.39583 4 11.05 4 13C4 14.95 4.67917 16.6042 6.0375 17.9625C7.39583 19.3208 9.05 20 11 20C11.5833 20 12.1583 19.9292 12.725 19.7875C13.2917 19.6458 13.8333 19.4333 14.35 19.15L15.8 20.6C15.0833 21.0667 14.3167 21.4167 13.5 21.65C12.6833 21.8833 11.85 22 11 22ZM17 19L11 13L17 7L23 13L17 19ZM17 16.15L20.15 13L17 9.85L13.85 13L17 16.15Z" fill="#1C1B1F"/>
</g>
</g>
<defs>
<clipPath id="clip0_1658_16514">
<rect width="24" height="24" fill="white"/>
</clipPath>
</defs>
</svg>
