<svg width="24" height="24" viewBox="0 0 24 24" fill="none" xmlns="http://www.w3.org/2000/svg">
<path d="M10.6985 4.66556L9.01534 2.98965L10.3175 1.69238L14.2214 5.58236L10.3175 9.47234L9.01534 8.17507L10.6985 6.49916H8.31869C7.58647 6.49916 6.88424 6.78893 6.36648 7.30473C5.84872 7.82053 5.55785 8.52011 5.55785 9.24956V12.9168H3.71729V9.24956C3.71729 8.03381 4.20207 6.86785 5.065 6.00818C5.92794 5.14852 7.09832 4.66556 8.31869 4.66556H10.6985ZM9.23897 11.0832C9.23897 10.84 9.33593 10.6068 9.50851 10.4349C9.6811 10.2629 9.91517 10.1664 10.1592 10.1664H19.3621C19.6061 10.1664 19.8402 10.2629 20.0128 10.4349C20.1854 10.6068 20.2823 10.84 20.2823 11.0832V20.2511C20.2823 20.4943 20.1854 20.7275 20.0128 20.8994C19.8402 21.0714 19.6061 21.1679 19.3621 21.1679H10.1592C9.91517 21.1679 9.6811 21.0714 9.50851 20.8994C9.33593 20.7275 9.23897 20.4943 9.23897 20.2511V11.0832ZM11.0795 12V19.3343H18.4418V12H11.0795Z" fill="#373D40"/>
</svg>
