<svg width="25" height="25" viewBox="0 0 25 25" fill="none" xmlns="http://www.w3.org/2000/svg">
<g clip-path="url(#clip0_1241_16456)">
<path d="M12.084 22.125C6.56098 22.125 2.08398 17.648 2.08398 12.125C2.08398 6.602 6.56098 2.125 12.084 2.125C17.607 2.125 22.084 6.602 22.084 12.125C22.084 17.648 17.607 22.125 12.084 22.125ZM12.084 20.125C14.2057 20.125 16.2405 19.2821 17.7408 17.7819C19.2411 16.2816 20.084 14.2467 20.084 12.125C20.084 10.0033 19.2411 7.96844 17.7408 6.46815C16.2405 4.96785 14.2057 4.125 12.084 4.125C9.96225 4.125 7.92742 4.96785 6.42713 6.46815C4.92684 7.96844 4.08398 10.0033 4.08398 12.125C4.08398 14.2467 4.92684 16.2816 6.42713 17.7819C7.92742 19.2821 9.96225 20.125 12.084 20.125ZM13.084 12.125H17.084V14.125H11.084V7.125H13.084V12.125Z" fill="#373D40"/>
</g>
<defs>
<clipPath id="clip0_1241_16456">
<rect width="24" height="24" fill="white" transform="translate(0.0839844 0.125)"/>
</clipPath>
</defs>
</svg>
