<svg width="24" height="24" viewBox="0 0 24 24" fill="none" xmlns="http://www.w3.org/2000/svg">
<g clip-path="url(#clip0_903_21403)">
<path d="M12.0002 21.1667C6.93741 21.1667 2.8335 17.0628 2.8335 12C2.8335 6.93729 6.93741 2.83337 12.0002 2.83337C17.0629 2.83337 21.1668 6.93729 21.1668 12C21.1668 17.0628 17.0629 21.1667 12.0002 21.1667ZM12.0002 19.3334C13.9451 19.3334 15.8103 18.5608 17.1856 17.1855C18.5609 15.8102 19.3335 13.945 19.3335 12C19.3335 10.0551 18.5609 8.18986 17.1856 6.81459C15.8103 5.43932 13.9451 4.66671 12.0002 4.66671C10.0552 4.66671 8.18998 5.43932 6.81471 6.81459C5.43945 8.18986 4.66683 10.0551 4.66683 12C4.66683 13.945 5.43945 15.8102 6.81471 17.1855C8.18998 18.5608 10.0552 19.3334 12.0002 19.3334V19.3334ZM12.0002 10.7039L14.5925 8.11062L15.8896 9.40771L13.2963 12L15.8896 14.5924L14.5925 15.8895L12.0002 13.2962L9.40783 15.8895L8.11075 14.5924L10.704 12L8.11075 9.40771L9.40783 8.11062L12.0002 10.7039Z" fill="#373D40"/>
</g>
<defs>
<clipPath id="clip0_903_21403">
<rect width="22" height="22" fill="white" transform="translate(1 1)"/>
</clipPath>
</defs>
</svg>
