<svg width="24" height="24" viewBox="0 0 24 24" fill="none" xmlns="http://www.w3.org/2000/svg">
<g clip-path="url(#clip0_903_21403)">
<path d="M12.1258 20.3333C7.52331 20.3333 3.79248 16.6025 3.79248 12C3.79248 7.39746 7.52331 3.66663 12.1258 3.66663C16.7283 3.66663 20.4591 7.39746 20.4591 12C20.4591 16.6025 16.7283 20.3333 12.1258 20.3333ZM12.1258 18.6666C13.8939 18.6666 15.5896 17.9642 16.8399 16.714C18.0901 15.4638 18.7925 13.7681 18.7925 12C18.7925 10.2318 18.0901 8.53616 16.8399 7.28591C15.5896 6.03567 13.8939 5.33329 12.1258 5.33329C10.3577 5.33329 8.66201 6.03567 7.41177 7.28591C6.16153 8.53616 5.45915 10.2318 5.45915 12C5.45915 13.7681 6.16153 15.4638 7.41177 16.714C8.66201 17.9642 10.3577 18.6666 12.1258 18.6666V18.6666ZM12.1258 10.8216L14.4825 8.46413L15.6616 9.64329L13.3041 12L15.6616 14.3566L14.4825 15.5358L12.1258 13.1783L9.76915 15.5358L8.58998 14.3566L10.9475 12L8.58998 9.64329L9.76915 8.46413L12.1258 10.8216Z" fill="#373D40"/>
</g>
<defs>
<clipPath id="clip0_903_21403">
<rect width="20" height="20" fill="white" transform="translate(2.12598 2)"/>
</clipPath>
</defs>
</svg>
