<svg width="24" height="24" viewBox="0 0 24 24" fill="none" xmlns="http://www.w3.org/2000/svg">
<g clip-path="url(#clip0_623_22269)">
<mask id="mask0_623_22269" style="mask-type:alpha" maskUnits="userSpaceOnUse" x="0" y="0" width="24" height="24">
<rect width="24" height="24" fill="#D9D9D9"/>
</mask>
<g mask="url(#mask0_623_22269)">
<path d="M3.9 21.5L2.5 20.1L5.6 17H3V15H9V21H7V18.4L3.9 21.5ZM20.1 21.5L17 18.4V21H15V15H21V17H18.4L21.5 20.1L20.1 21.5ZM3 9V7H5.6L2.5 3.9L3.9 2.5L7 5.6V3H9V9H3ZM15 9V3H17V5.6L20.1 2.5L21.5 3.9L18.4 7H21V9H15Z" fill="#1C1B1F"/>
</g>
</g>
<defs>
<clipPath id="clip0_623_22269">
<rect width="24" height="24" fill="white"/>
</clipPath>
</defs>
</svg>
