<svg width="24" height="24" viewBox="0 0 24 24" fill="none" xmlns="http://www.w3.org/2000/svg">
<path d="M9.3 21C9.0613 21 8.83239 20.9052 8.6636 20.7364C8.49482 20.5676 8.4 20.3387 8.4 20.1V17.4H4.8C4.32261 17.4 3.86477 17.2104 3.52721 16.8728C3.18964 16.5352 3 16.0774 3 15.6V4.8C3 4.32261 3.18964 3.86477 3.52721 3.52721C3.86477 3.18964 4.32261 3 4.8 3H19.2C19.6774 3 20.1352 3.18964 20.4728 3.52721C20.8104 3.86477 21 4.32261 21 4.8V15.6C21 16.0774 20.8104 16.5352 20.4728 16.8728C20.1352 17.2104 19.6774 17.4 19.2 17.4H13.71L10.38 20.739C10.2 20.91 9.975 21 9.75 21H9.3ZM10.2 15.6V18.372L12.972 15.6H19.2V4.8H4.8V15.6H10.2ZM11.1 6.6H12.9V9.3H15.6V11.1H12.9V13.8H11.1V11.1H8.4V9.3H11.1V6.6Z" fill="black"/>
</svg>
