<svg width="24" height="24" viewBox="0 0 24 24" fill="none" xmlns="http://www.w3.org/2000/svg">
<path d="M9.32379 21C8.82819 21 8.41189 20.5837 8.41189 20.0881V17.4119H4.82379C3.8326 17.4119 3 16.6189 3 15.5881V4.80396C3 3.81278 3.8326 3 4.82379 3H19.196C20.1872 3 21 3.77313 21 4.80396V15.5881C21 16.5793 20.2269 17.4119 19.196 17.4119H13.7445L10.3943 20.7621C10.1762 20.9604 9.97797 21 9.77974 21H9.32379V21ZM10.1762 15.5881V18.3634L12.9515 15.5881H19.1366V4.80396H4.82379V15.5881H10.1762V15.5881ZM6.58811 7.5H17.3722V9.32379H6.58811V7.5V7.5ZM6.58811 11.0881H14.6762V12.9119H6.58811V11.0881V11.0881Z" fill="black"/>
</svg>
