<svg width="24" height="24" viewBox="0 0 24 24" fill="none" xmlns="http://www.w3.org/2000/svg">
<g clip-path="url(#clip0_491_22118)">
<mask id="mask0_491_22118" style="mask-type:alpha" maskUnits="userSpaceOnUse" x="0" y="0" width="24" height="24">
<rect width="24" height="24" fill="#D9D9D9"/>
</mask>
<g mask="url(#mask0_491_22118)">
<path d="M22 22L18 18H8C7.45 18 6.97917 17.8042 6.5875 17.4125C6.19583 17.0208 6 16.55 6 16V15H17C17.55 15 18.0208 14.8042 18.4125 14.4125C18.8042 14.0208 19 13.55 19 13V6H20C20.55 6 21.0208 6.19583 21.4125 6.5875C21.8042 6.97917 22 7.45 22 8V22ZM4 12.175L5.175 11H15V4H4V12.175ZM2 17V4C2 3.45 2.19583 2.97917 2.5875 2.5875C2.97917 2.19583 3.45 2 4 2H15C15.55 2 16.0208 2.19583 16.4125 2.5875C16.8042 2.97917 17 3.45 17 4V11C17 11.55 16.8042 12.0208 16.4125 12.4125C16.0208 12.8042 15.55 13 15 13H6L2 17Z" fill="#1C1B1F"/>
</g>
</g>
<defs>
<clipPath id="clip0_491_22118">
<rect width="24" height="24" fill="white"/>
</clipPath>
</defs>
</svg>
