<svg width="24" height="24" viewBox="0 0 24 24" fill="none" xmlns="http://www.w3.org/2000/svg">
<path d="M9.584 19.9995C9.1455 19.9905 8.793 19.6375 8.784 19.2005V19.1995V16.7835H5.616C5.6065 16.7835 5.595 16.784 5.584 16.784C4.709 16.784 4 16.075 4 15.2C4 15.1945 4 15.1885 4 15.183V15.184V5.6C4.009 4.7145 4.729 4 5.616 4H18.4C19.2765 4.0175 19.9825 4.7235 20 5.5985V5.6V15.216C19.9825 16.0925 19.2765 16.7985 18.4015 16.816H18.4H13.504L10.576 19.744C10.435 19.88 10.2435 19.965 10.0325 19.968H9.6V20L9.584 19.9995ZM11.152 11.4235V13.7115H12.864V11.4235H15.136V9.7115H12.864V7.4235H11.152V9.7115H8.864V11.4235H11.152Z" fill="#373D40"/>
</svg>
