<svg width="24" height="24" viewBox="0 0 24 24" fill="none" xmlns="http://www.w3.org/2000/svg">
<path d="M4.61392 4C3.70253 4 3 4.74051 3 5.61392V15.4684H4.61392V5.61392H17.7152V4H4.61392ZM7.89873 7.28481C6.98734 7.28481 6.28481 7.98734 6.28481 8.89873V17.0823C6.28481 17.9937 7.02532 18.7152 7.89873 18.7152H11.1835V21.1646C11.1835 21.6013 11.5443 22 12.019 22H12.4177C12.6076 22 12.8165 21.9241 12.9684 21.7532L16.0063 18.7152H19.3671C20.2785 18.7152 21 17.9557 21 17.0823V8.89873C21 7.98734 20.2405 7.28481 19.3671 7.28481H7.89873ZM7.89873 8.89873H19.3671V17.0823H15.3418L12.8165 19.6266V17.0823H7.89873V8.89873ZM9.43671 10.9114V12.3354H17.943V10.9114H9.43671ZM9.43671 13.7595V15.1835H15.8165V13.7595H9.43671Z" fill="black"/>
</svg>
