<svg width="24" height="24" viewBox="0 0 24 24" fill="none" xmlns="http://www.w3.org/2000/svg">
<g clip-path="url(#clip0_559_22126)">
<mask id="mask0_559_22126" style="mask-type:alpha" maskUnits="userSpaceOnUse" x="0" y="0" width="24" height="24">
<rect width="24" height="24" fill="#D9D9D9"/>
</mask>
<g mask="url(#mask0_559_22126)">
<path d="M6 14H14V12H6V14ZM6 11H18V9H6V11ZM6 8H18V6H6V8ZM2 22V4C2 3.45 2.19583 2.97917 2.5875 2.5875C2.97917 2.19583 3.45 2 4 2H20C20.55 2 21.0208 2.19583 21.4125 2.5875C21.8042 2.97917 22 3.45 22 4V16C22 16.55 21.8042 17.0208 21.4125 17.4125C21.0208 17.8042 20.55 18 20 18H6L2 22ZM5.15 16H20V4H4V17.125L5.15 16Z" fill="#1C1B1F"/>
</g>
</g>
<defs>
<clipPath id="clip0_559_22126">
<rect width="24" height="24" fill="white"/>
</clipPath>
</defs>
</svg>
