<svg width="24" height="24" viewBox="0 0 24 24" fill="none" xmlns="http://www.w3.org/2000/svg">
<g clip-path="url(#clip0_623_22153)">
<mask id="mask0_623_22153" style="mask-type:alpha" maskUnits="userSpaceOnUse" x="0" y="0" width="24" height="24">
<rect width="24" height="24" fill="#D9D9D9"/>
</mask>
<g mask="url(#mask0_623_22153)">
<path d="M6.5 6C5.95 6 5.47917 5.80417 5.0875 5.4125C4.69583 5.02083 4.5 4.55 4.5 4C4.5 3.45 4.69583 2.97917 5.0875 2.5875C5.47917 2.19583 5.95 2 6.5 2C7.05 2 7.52083 2.19583 7.9125 2.5875C8.30417 2.97917 8.5 3.45 8.5 4C8.5 4.55 8.30417 5.02083 7.9125 5.4125C7.52083 5.80417 7.05 6 6.5 6ZM17 11C16.5833 11 16.2292 10.8542 15.9375 10.5625C15.6458 10.2708 15.5 9.91667 15.5 9.5C15.5 9.08333 15.6458 8.72917 15.9375 8.4375C16.2292 8.14583 16.5833 8 17 8C17.4167 8 17.7708 8.14583 18.0625 8.4375C18.3542 8.72917 18.5 9.08333 18.5 9.5C18.5 9.91667 18.3542 10.2708 18.0625 10.5625C17.7708 10.8542 17.4167 11 17 11ZM4.5 22V15H3V9C3 8.45 3.19583 7.97917 3.5875 7.5875C3.97917 7.19583 4.45 7 5 7H8C8.36667 7 8.7 7.0875 9 7.2625C9.3 7.4375 9.54167 7.68333 9.725 8L13.3 14.175L14.325 12.65C14.4583 12.45 14.6375 12.2917 14.8625 12.175C15.0875 12.0583 15.325 12 15.575 12H18.5C18.9167 12 19.2708 12.1458 19.5625 12.4375C19.8542 12.7292 20 13.0833 20 13.5V17H19V22H15V14.9L14.225 16H12.025L9.5 11.6V22H4.5Z" fill="#1C1B1F"/>
</g>
</g>
<defs>
<clipPath id="clip0_623_22153">
<rect width="24" height="24" fill="white"/>
</clipPath>
</defs>
</svg>
