<svg width="24" height="24" viewBox="0 0 24 24" fill="none" xmlns="http://www.w3.org/2000/svg">
<path d="M7.98068 4.10187C6.45363 4.10187 5.24035 5.31515 5.24035 6.8422C5.24035 8.36926 6.45363 9.58254 7.98068 9.58254C9.50774 9.58254 10.7419 8.36926 10.7419 6.8422C10.7419 5.31515 9.50774 4.10187 7.98068 4.10187ZM5.80515 10.6285C3.62962 10.6285 2.54185 14.4775 2.54185 14.4775L1.97705 17.2178L3.62962 17.7826C3.79697 15.5653 4.15258 15.0423 4.15258 15.0423C4.15258 15.0423 4.88473 13.5989 5.24035 13.3897L5.03116 18.1382C5.99342 18.6194 7.08119 18.8704 8.25263 18.8704C9.21488 18.8704 10.0725 18.703 10.9511 18.3474L10.7419 13.3897C11.0766 13.5571 11.8297 15.0423 11.8297 15.0423C12.3527 15.9627 13.0848 16.904 13.9634 17.4688V20H22.0171V18.9122C22.0171 17.4688 19.1512 16.7785 17.7078 16.7785H17.5823C15.4905 16.7785 13.6915 15.3351 13.0848 13.5152C12.6037 12.3856 11.6414 10.6703 10.1771 10.6703L5.80515 10.6285V10.6285ZM17.7078 11.3815C16.5364 11.3815 15.5741 12.3438 15.5741 13.5152C15.5741 14.6867 16.5364 15.6489 17.7078 15.6489C18.8793 15.6489 19.8415 14.6867 19.8415 13.5152C19.8415 12.3438 18.9211 11.3815 17.7078 11.3815Z" fill="#373D40"/>
</svg>
