<svg width="24" height="25" viewBox="0 0 24 25" fill="none" xmlns="http://www.w3.org/2000/svg">
<path d="M13.3219 6.76906L15.0314 8.47761L13.7088 9.80015L9.74403 5.8344L13.7088 1.86865L15.0314 3.19119L13.3219 4.89974H15.7389C16.9783 4.89974 18.167 5.39211 19.0434 6.26852C19.9198 7.14493 20.4122 8.3336 20.4122 9.57303V13.3117H18.5429V9.57303C18.5429 8.82937 18.2475 8.11617 17.7216 7.59032C17.1958 7.06448 16.4826 6.76906 15.7389 6.76906H13.3219ZM14.8043 11.4423V20.7889C14.8043 21.0368 14.7058 21.2745 14.5305 21.4498C14.3552 21.6251 14.1175 21.7236 13.8696 21.7236H4.52304C4.27515 21.7236 4.03742 21.6251 3.86213 21.4498C3.68685 21.2745 3.58838 21.0368 3.58838 20.7889V11.4423C3.58838 11.1945 3.68685 10.9567 3.86213 10.7814C4.03742 10.6062 4.27515 10.5077 4.52304 10.5077H13.8696C14.1175 10.5077 14.3552 10.6062 14.5305 10.7814C14.7058 10.9567 14.8043 11.1945 14.8043 11.4423ZM12.9349 12.377H5.45769V19.8543H12.9349V12.377Z" fill="#373D40"/>
</svg>
