<svg width="24" height="24" viewBox="0 0 24 24" fill="none" xmlns="http://www.w3.org/2000/svg">
<g clip-path="url(#clip0_1658_16513)">
<mask id="mask0_1658_16513" style="mask-type:alpha" maskUnits="userSpaceOnUse" x="0" y="-1" width="24" height="25">
<rect y="-0.376953" width="24" height="24" fill="#D9D9D9"/>
</mask>
<g mask="url(#mask0_1658_16513)">
<path d="M13 21.623C12.15 21.623 11.3167 21.5064 10.5 21.273C9.68333 21.0397 8.91667 20.6897 8.2 20.223L9.65 18.773C10.1667 19.0564 10.7083 19.2689 11.275 19.4105C11.8417 19.5522 12.4167 19.623 13 19.623C14.95 19.623 16.6042 18.9439 17.9625 17.5855C19.3208 16.2272 20 14.573 20 12.623C20 10.673 19.3208 9.01888 17.9625 7.66055C16.6042 6.30221 14.95 5.62305 13 5.62305H12.85L14.4 7.17305L13 8.62305L9 4.62305L13 0.623047L14.4 2.07305L12.85 3.62305H13C15.5 3.62305 17.625 4.49805 19.375 6.24805C21.125 7.99805 22 10.123 22 12.623C22 13.873 21.7625 15.0439 21.2875 16.1355C20.8125 17.2272 20.1708 18.1772 19.3625 18.9855C18.5542 19.7939 17.6042 20.4355 16.5125 20.9105C15.4208 21.3855 14.25 21.623 13 21.623ZM7 18.623L1 12.623L7 6.62305L13 12.623L7 18.623ZM7 15.773L10.15 12.623L7 9.47305L3.85 12.623L7 15.773Z" fill="#1C1B1F"/>
</g>
</g>
<defs>
<clipPath id="clip0_1658_16513">
<rect width="24" height="24" fill="white"/>
</clipPath>
</defs>
</svg>
