<svg width="24" height="24" viewBox="0 0 24 24" fill="none" xmlns="http://www.w3.org/2000/svg">
<path d="M12.4327 3C14.9343 3 17.3333 3.99373 19.1022 5.76257C20.871 7.53141 21.8647 9.93048 21.8647 12.432C21.8647 14.9335 20.871 17.3326 19.1022 19.1014C17.3333 20.8703 14.9343 21.864 12.4327 21.864C10.3662 21.842 8.36226 21.1515 6.72082 19.8957C5.07938 18.64 3.88863 16.8865 3.32671 14.8977C3.09969 14.0958 2.9899 13.2653 3.00073 12.432C3.00073 9.93048 3.99446 7.53141 5.7633 5.76257C7.53214 3.99373 9.93121 3 12.4327 3V3Z" fill="white" stroke="#4A4A4A" stroke-width="1.43605"/>
<path d="M12.4358 5.9053V18.9539" stroke="#F76D6D" stroke-width="2.87211"/>
<path d="M18.9541 12.4349H5.90554" stroke="#F76D6D" stroke-width="2.87211"/>
</svg>
