<svg width="24" height="25" viewBox="0 0 24 25" fill="none" xmlns="http://www.w3.org/2000/svg">
<g clip-path="url(#clip0_1185_22088)">
<path d="M7 4.86768V2.86768H17V4.86768H22V6.86768H20V21.8677C20 22.1329 19.8946 22.3872 19.7071 22.5748C19.5196 22.7623 19.2652 22.8677 19 22.8677H5C4.73478 22.8677 4.48043 22.7623 4.29289 22.5748C4.10536 22.3872 4 22.1329 4 21.8677V6.86768H2V4.86768H7ZM6 6.86768V20.8677H18V6.86768H6ZM9 9.86768H11V17.8677H9V9.86768ZM13 9.86768H15V17.8677H13V9.86768Z" fill="#262626"/>
</g>
<defs>
<clipPath id="clip0_1185_22088">
<rect width="24" height="24" fill="white" transform="translate(0 0.867676)"/>
</clipPath>
</defs>
</svg>
