<svg width="24" height="24" viewBox="0 0 24 24" fill="none" xmlns="http://www.w3.org/2000/svg">
<path d="M2.2 5L1 6.116L3.695 8.645C2.523 9.583 1.811 10.807 1.811 12.149C1.811 14.019 3.191 15.666 5.281 16.62C4.835 17.588 4.053 18.653 3.281 19.994C4.907 19.356 7.339 18.738 8.782 17.469L9.486 17.491C10.626 17.491 11.709 17.317 12.681 17.005L15.582 19.636L16.782 18.519L2.2 5ZM9.476 6.808C8.558 6.808 7.678 6.921 6.862 7.128L15.651 15.314C16.587 14.428 17.142 13.334 17.142 12.149C17.142 9.199 13.71 6.808 9.476 6.808ZM19.476 6.543V14.056H22.313V6.544L19.476 6.543ZM19.476 16.893V19.729H22.313V16.893H19.476Z" fill="#D14524"/>
</svg>
