<svg width="24" height="24" viewBox="0 0 24 24" fill="none" xmlns="http://www.w3.org/2000/svg">
<g clip-path="url(#clip0_1193_22170)">
<mask id="mask0_1193_22170" style="mask-type:alpha" maskUnits="userSpaceOnUse" x="-1" y="0" width="25" height="24">
<rect x="-0.360352" width="24" height="24" fill="#D9D9D9"/>
</mask>
<g mask="url(#mask0_1193_22170)">
<path d="M4.63965 21C4.08965 21 3.61882 20.8042 3.22715 20.4125C2.83548 20.0208 2.63965 19.55 2.63965 19V5C2.63965 4.45 2.83548 3.97917 3.22715 3.5875C3.61882 3.19583 4.08965 3 4.63965 3H18.6396C19.1896 3 19.6605 3.19583 20.0521 3.5875C20.4438 3.97917 20.6396 4.45 20.6396 5V19C20.6396 19.55 20.4438 20.0208 20.0521 20.4125C19.6605 20.8042 19.1896 21 18.6396 21H4.63965ZM4.63965 19H18.6396V12H4.63965V19ZM4.63965 10H18.6396V5H4.63965V10ZM11.6396 8H17.6396V6H11.6396V8Z" fill="#1C1B1F"/>
</g>
</g>
<defs>
<clipPath id="clip0_1193_22170">
<rect width="24" height="24" fill="white"/>
</clipPath>
</defs>
</svg>
