<svg width="24" height="24" viewBox="0 0 24 24" fill="none" xmlns="http://www.w3.org/2000/svg">
<g clip-path="url(#clip0_905_16433)">
<mask id="mask0_905_16433" style="mask-type:alpha" maskUnits="userSpaceOnUse" x="0" y="0" width="24" height="24">
<rect width="24" height="24" fill="#D9D9D9"/>
</mask>
<g mask="url(#mask0_905_16433)">
<path d="M9 20C8.45 20 7.97917 19.8042 7.5875 19.4125C7.19583 19.0208 7 18.55 7 18C7 17.45 7.19583 16.9792 7.5875 16.5875C7.97917 16.1958 8.45 16 9 16C9.55 16 10.0208 16.1958 10.4125 16.5875C10.8042 16.9792 11 17.45 11 18C11 18.55 10.8042 19.0208 10.4125 19.4125C10.0208 19.8042 9.55 20 9 20ZM15 20C14.45 20 13.9792 19.8042 13.5875 19.4125C13.1958 19.0208 13 18.55 13 18C13 17.45 13.1958 16.9792 13.5875 16.5875C13.9792 16.1958 14.45 16 15 16C15.55 16 16.0208 16.1958 16.4125 16.5875C16.8042 16.9792 17 17.45 17 18C17 18.55 16.8042 19.0208 16.4125 19.4125C16.0208 19.8042 15.55 20 15 20ZM9 14C8.45 14 7.97917 13.8042 7.5875 13.4125C7.19583 13.0208 7 12.55 7 12C7 11.45 7.19583 10.9792 7.5875 10.5875C7.97917 10.1958 8.45 10 9 10C9.55 10 10.0208 10.1958 10.4125 10.5875C10.8042 10.9792 11 11.45 11 12C11 12.55 10.8042 13.0208 10.4125 13.4125C10.0208 13.8042 9.55 14 9 14ZM15 14C14.45 14 13.9792 13.8042 13.5875 13.4125C13.1958 13.0208 13 12.55 13 12C13 11.45 13.1958 10.9792 13.5875 10.5875C13.9792 10.1958 14.45 10 15 10C15.55 10 16.0208 10.1958 16.4125 10.5875C16.8042 10.9792 17 11.45 17 12C17 12.55 16.8042 13.0208 16.4125 13.4125C16.0208 13.8042 15.55 14 15 14ZM9 8C8.45 8 7.97917 7.80417 7.5875 7.4125C7.19583 7.02083 7 6.55 7 6C7 5.45 7.19583 4.97917 7.5875 4.5875C7.97917 4.19583 8.45 4 9 4C9.55 4 10.0208 4.19583 10.4125 4.5875C10.8042 4.97917 11 5.45 11 6C11 6.55 10.8042 7.02083 10.4125 7.4125C10.0208 7.80417 9.55 8 9 8ZM15 8C14.45 8 13.9792 7.80417 13.5875 7.4125C13.1958 7.02083 13 6.55 13 6C13 5.45 13.1958 4.97917 13.5875 4.5875C13.9792 4.19583 14.45 4 15 4C15.55 4 16.0208 4.19583 16.4125 4.5875C16.8042 4.97917 17 5.45 17 6C17 6.55 16.8042 7.02083 16.4125 7.4125C16.0208 7.80417 15.55 8 15 8Z" fill="#1C1B1F"/>
</g>
</g>
<defs>
<clipPath id="clip0_905_16433">
<rect width="24" height="24" fill="white"/>
</clipPath>
</defs>
</svg>
