<svg width="24" height="24" viewBox="0 0 24 24" fill="none" xmlns="http://www.w3.org/2000/svg">
<path d="M10.75 4.5C10.75 5.88071 9.63071 7 8.25 7C6.86929 7 5.75 5.88071 5.75 4.5C5.75 3.11929 6.86929 2 8.25 2C9.63071 2 10.75 3.11929 10.75 4.5Z" fill="black"/>
<path d="M10.75 12C10.75 13.3807 9.63071 14.5 8.25 14.5C6.86929 14.5 5.75 13.3807 5.75 12C5.75 10.6193 6.86929 9.5 8.25 9.5C9.63071 9.5 10.75 10.6193 10.75 12Z" fill="black"/>
<path d="M10.75 19.5C10.75 20.8807 9.63071 22 8.25 22C6.86929 22 5.75 20.8807 5.75 19.5C5.75 18.1193 6.86929 17 8.25 17C9.63071 17 10.75 18.1193 10.75 19.5Z" fill="black"/>
<path d="M18.25 4.5C18.25 5.88071 17.1307 7 15.75 7C14.3693 7 13.25 5.88071 13.25 4.5C13.25 3.11929 14.3693 2 15.75 2C17.1307 2 18.25 3.11929 18.25 4.5Z" fill="black"/>
<path d="M18.25 12C18.25 13.3807 17.1307 14.5 15.75 14.5C14.3693 14.5 13.25 13.3807 13.25 12C13.25 10.6193 14.3693 9.5 15.75 9.5C17.1307 9.5 18.25 10.6193 18.25 12Z" fill="black"/>
<path d="M18.25 19.5C18.25 20.8807 17.1307 22 15.75 22C14.3693 22 13.25 20.8807 13.25 19.5C13.25 18.1193 14.3693 17 15.75 17C17.1307 17 18.25 18.1193 18.25 19.5Z" fill="black"/>
</svg>
