<svg width="24" height="24" viewBox="0 0 24 24" fill="none" xmlns="http://www.w3.org/2000/svg">
<mask id="mask0_2479_16607" style="mask-type:alpha" maskUnits="userSpaceOnUse" x="0" y="0" width="24" height="24">
<rect width="24" height="24" fill="#D9D9D9"/>
</mask>
<g mask="url(#mask0_2479_16607)">
<path d="M15.5499 12.675L14.1499 11.275L16.1999 9.22502L14.7749 7.80002L12.7249 9.85002L11.3249 8.45002L16.1999 3.57502C16.3999 3.37502 16.6207 3.22919 16.8624 3.13752C17.1041 3.04586 17.3582 3.00002 17.6249 3.00002C17.8916 3.00002 18.1499 3.05002 18.3999 3.15002C18.6499 3.25002 18.8666 3.40002 19.0499 3.60002L20.4249 5.00002C20.6249 5.18336 20.7707 5.40002 20.8624 5.65002C20.9541 5.90002 20.9999 6.15002 20.9999 6.40002C20.9999 6.66669 20.9541 6.92086 20.8624 7.16252C20.7707 7.40419 20.6249 7.62502 20.4249 7.82502L15.5499 12.675ZM4.9999 19H6.4249L11.2999 14.125L10.5999 13.4L9.8749 12.7L4.9999 17.575V19ZM19.7999 22.6L12.7249 15.55L7.2499 21H2.9999V16.775L8.4749 11.3L1.3999 4.20002L2.8249 2.77502L21.2249 21.175L19.7999 22.6ZM10.5999 13.4L9.8749 12.7L11.2999 14.125L10.5999 13.4Z" fill="#241E1A"/>
</g>
</svg>
