<svg width="24" height="25" viewBox="0 0 24 25" fill="none" xmlns="http://www.w3.org/2000/svg">
<path d="M20.4019 6.95695L18.4019 8.95695V4.19995H9.40188V9.19995H4.40188V20.2H18.4019V17.443L20.4019 15.443V21.208C20.4016 21.4711 20.2969 21.7235 20.1107 21.9095C19.9245 22.0955 19.6721 22.2 19.4089 22.2H3.39488C3.26356 22.199 3.1337 22.1723 3.01273 22.1212C2.89175 22.0701 2.78203 21.9956 2.68982 21.9021C2.59761 21.8086 2.52472 21.6979 2.47532 21.5762C2.42591 21.4545 2.40096 21.3243 2.40188 21.193V8.19995L8.40488 2.19995H19.3999C19.9519 2.19995 20.4019 2.65495 20.4019 3.19195V6.95695ZM21.1799 9.00695L22.5939 10.422L14.8159 18.2L13.3999 18.198L13.4019 16.786L21.1799 9.00695Z" fill="#373D40"/>
</svg>
