<svg width="24" height="24" viewBox="0 0 24 24" fill="none" xmlns="http://www.w3.org/2000/svg">
<g clip-path="url(#clip0_1181_21944)">
<mask id="mask0_1181_21944" style="mask-type:alpha" maskUnits="userSpaceOnUse" x="0" y="-1" width="24" height="25">
<rect y="-0.199951" width="24" height="24" fill="#D9D9D9"/>
</mask>
<g mask="url(#mask0_1181_21944)">
<path d="M14 21.8V18.725L19.525 13.225C19.675 13.075 19.8417 12.9667 20.025 12.9C20.2083 12.8334 20.3917 12.8 20.575 12.8C20.775 12.8 20.9667 12.8375 21.15 12.9125C21.3333 12.9875 21.5 13.1 21.65 13.25L22.575 14.175C22.7083 14.325 22.8125 14.4917 22.8875 14.675C22.9625 14.8584 23 15.0417 23 15.225C23 15.4084 22.9667 15.5959 22.9 15.7875C22.8333 15.9792 22.725 16.15 22.575 16.3L17.075 21.8H14ZM15.5 20.3H16.45L19.475 17.25L19.025 16.775L18.55 16.325L15.5 19.35V20.3ZM6 21.8C5.45 21.8 4.97917 21.6042 4.5875 21.2125C4.19583 20.8209 4 20.35 4 19.8V3.80005C4 3.25005 4.19583 2.77922 4.5875 2.38755C4.97917 1.99588 5.45 1.80005 6 1.80005H14L20 7.80005V10.8H18V8.80005H13V3.80005H6V19.8H12V21.8H6ZM19.025 16.775L18.55 16.325L19.475 17.25L19.025 16.775Z" fill="#1C1B1F"/>
</g>
</g>
<defs>
<clipPath id="clip0_1181_21944">
<rect width="24" height="24" fill="white"/>
</clipPath>
</defs>
</svg>
