<svg width="24" height="24" viewBox="0 0 24 24" fill="none" xmlns="http://www.w3.org/2000/svg">
<g clip-path="url(#clip0_1187_22144)">
<path fill-rule="evenodd" clip-rule="evenodd" d="M3.21726 9.64992V7.91401H19.042V1.96135L20.7859 2.90095V9.66404L3.21726 9.64992ZM3.21726 13.6871L20.7906 13.7098V21.0422L19.042 22.0386V15.4661H3.21726V13.6871ZM17.0094 4.14167H3.23768L3.23845 5.89285H17.0102L17.0094 4.14167ZM17.0211 17.4935L3.20948 17.4935V19.2338L17.0211 19.2338V17.4935ZM4.05397 12.1201H3.21716V11.2816H4.05397V12.1201ZM6.56439 12.1201H4.89077V11.2816H6.56439V12.1201ZM9.07481 12.1201H7.4012V11.2816H9.07481V12.1201ZM11.5852 12.1201H9.91162V11.2816H11.5852V12.1201ZM14.0956 12.1201H12.422V11.2816H14.0956V12.1201ZM16.6061 12.1201H14.9325V11.2816H16.6061V12.1201ZM19.1165 12.1201H17.4429V11.2816H19.1165V12.1201ZM20.7901 12.1201H19.9533V11.2816H20.7901V12.1201Z" fill="#262626"/>
</g>
<defs>
<clipPath id="clip0_1187_22144">
<rect width="24" height="24" fill="white"/>
</clipPath>
</defs>
</svg>
