<svg width="24" height="24" viewBox="0 0 24 24" fill="none" xmlns="http://www.w3.org/2000/svg">
<g clip-path="url(#clip0_1187_22144)">
<path fill-rule="evenodd" clip-rule="evenodd" d="M3.21725 9.64992V7.91401H19.042V1.96135L20.7859 2.90095V9.66404L3.21725 9.64992ZM3.21725 13.6871L20.7905 13.7098V21.0422L19.042 22.0386V15.4661H3.21725V13.6871ZM17.0094 4.14167H3.23767L3.23845 5.89285H17.0102L17.0094 4.14167ZM17.0211 17.4935L3.20947 17.4935V19.2338L17.0211 19.2338V17.4935ZM4.05396 12.1201H3.21715V11.2816H4.05396V12.1201ZM6.56438 12.1201H4.89077V11.2816H6.56438V12.1201ZM9.0748 12.1201H7.40119V11.2816H9.0748V12.1201ZM11.5852 12.1201H9.91161V11.2816H11.5852V12.1201ZM14.0956 12.1201H12.422V11.2816H14.0956V12.1201ZM16.6061 12.1201H14.9324V11.2816H16.6061V12.1201ZM19.1165 12.1201H17.4429V11.2816H19.1165V12.1201ZM20.7901 12.1201H19.9533V11.2816H20.7901V12.1201Z" fill="#262626"/>
</g>
<defs>
<clipPath id="clip0_1187_22144">
<rect width="24" height="24" fill="white"/>
</clipPath>
</defs>
</svg>
