<svg width="24" height="24" viewBox="0 0 24 24" fill="none" xmlns="http://www.w3.org/2000/svg">
<g clip-path="url(#clip0_1241_16531)">
<mask id="mask0_1241_16531" style="mask-type:alpha" maskUnits="userSpaceOnUse" x="-1" y="0" width="25" height="25">
<rect x="-0.0566406" y="0.132324" width="24" height="24" fill="#D9D9D9"/>
</mask>
<g mask="url(#mask0_1241_16531)">
<path d="M3.94336 22.1323C3.39336 22.1323 2.92253 21.9365 2.53086 21.5448C2.13919 21.1532 1.94336 20.6823 1.94336 20.1323V8.13232C1.94336 7.58232 2.13919 7.11149 2.53086 6.71982C2.92253 6.32816 3.39336 6.13232 3.94336 6.13232H7.94336V4.13232C7.94336 3.58232 8.13919 3.11149 8.53086 2.71982C8.92253 2.32816 9.39336 2.13232 9.94336 2.13232H13.9434C14.4934 2.13232 14.9642 2.32816 15.3559 2.71982C15.7475 3.11149 15.9434 3.58232 15.9434 4.13232V6.13232H19.9434C20.4934 6.13232 20.9642 6.32816 21.3559 6.71982C21.7475 7.11149 21.9434 7.58232 21.9434 8.13232V20.1323C21.9434 20.6823 21.7475 21.1532 21.3559 21.5448C20.9642 21.9365 20.4934 22.1323 19.9434 22.1323H3.94336ZM3.94336 20.1323H19.9434V8.13232H3.94336V20.1323ZM9.94336 6.13232H13.9434V4.13232H9.94336V6.13232ZM10.9434 15.1323V18.1323H12.9434V15.1323H15.9434V13.1323H12.9434V10.1323H10.9434V13.1323H7.94336V15.1323H10.9434Z" fill="#1C1B1F"/>
</g>
</g>
<defs>
<clipPath id="clip0_1241_16531">
<rect width="24" height="24" fill="white"/>
</clipPath>
</defs>
</svg>
