<svg width="24" height="25" viewBox="0 0 24 25" fill="none" xmlns="http://www.w3.org/2000/svg">
<g clip-path="url(#clip0_1241_16531)">
<path d="M16.0039 1.80908C16.5559 1.80908 17.0039 2.25708 17.0039 2.80908V5.80908H21.0039C21.5559 5.80908 22.0039 6.25708 22.0039 6.80908V20.8091C22.0039 21.3611 21.5559 21.8091 21.0039 21.8091H3.00391C2.45191 21.8091 2.00391 21.3611 2.00391 20.8091V6.80908C2.00391 6.25708 2.45191 5.80908 3.00391 5.80908H7.00391V2.80908C7.00391 2.25708 7.45191 1.80908 8.00391 1.80908H16.0039ZM20.0039 7.80908H4.00391V19.8091H20.0039V7.80908ZM13.0039 9.80908V12.8091H16.0039V14.8091H13.0029L13.0039 17.8091H11.0039L11.0029 14.8091H8.00391V12.8091H11.0039V9.80908H13.0039ZM15.0039 3.80908H9.00391V5.80908H15.0039V3.80908Z" fill="#373D40"/>
</g>
<defs>
<clipPath id="clip0_1241_16531">
<rect width="24" height="24" fill="white" transform="translate(0.00390625 0.809082)"/>
</clipPath>
</defs>
</svg>
