<svg width="24" height="24" viewBox="0 0 24 24" fill="none" xmlns="http://www.w3.org/2000/svg">
<path d="M9.61407 13.1025L11.0096 14.4979L6.50865 18.9989H10.1054V21.0036H3.1084V14.0066H5.11317V17.6034L9.61407 13.1025V13.1025ZM11.0489 9.50568L9.65338 10.9012L5.15248 6.40025V9.99704H3.1084V3H10.1054V5.00477H6.50865L11.0489 9.50568V9.50568ZM14.6063 13.1025L19.1269 17.6034V14.0066H21.1317V21.0036H14.115V18.9989H17.7314L13.2305 14.4979L14.6063 13.1025V13.1025ZM13.2305 9.50568L17.7314 5.00477H14.115V3H21.1317V9.99704H19.1269V6.40025L14.6063 10.9012L13.2305 9.50568V9.50568Z" fill="#373D40"/>
</svg>
