<svg width="24" height="24" viewBox="0 0 24 24" fill="none" xmlns="http://www.w3.org/2000/svg">
<path d="M9.61432 13.1025L11.0098 14.4979L6.50889 18.9989H10.1057V21.0036H3.10864V14.0066H5.11341V17.6034L9.61432 13.1025V13.1025ZM11.0491 9.50568L9.65363 10.9012L5.15272 6.40025V9.99704H3.10864V3H10.1057V5.00477H6.50889L11.0491 9.50568V9.50568ZM14.6066 13.1025L19.1272 17.6034V14.0066H21.1319V21.0036H14.1152V18.9989H17.7317L13.2308 14.4979L14.6066 13.1025V13.1025ZM13.2308 9.50568L17.7317 5.00477H14.1152V3H21.1319V9.99704H19.1272V6.40025L14.6066 10.9012L13.2308 9.50568V9.50568Z" fill="black"/>
</svg>
