<svg width="24" height="24" viewBox="0 0 24 24" fill="none" xmlns="http://www.w3.org/2000/svg">
<path d="M11.7007 9.55893L14.6486 12.5068V12.3805C14.6486 10.8434 13.4273 9.6221 11.8902 9.6221C11.8481 9.55893 11.806 9.55893 11.7007 9.55893ZM7.76314 10.317L9.21604 11.7699C9.17393 11.9804 9.13181 12.1489 9.13181 12.3805C9.13181 13.9176 10.3531 15.1389 11.8902 15.1389C12.1008 15.1389 12.3324 15.0968 12.5009 15.0547L13.9538 16.5076C13.3431 16.8024 12.5851 16.9919 11.8902 16.9919C9.30026 16.9287 7.19461 14.8862 7.19461 12.2963C7.23672 11.5804 7.40518 10.9276 7.76314 10.317V10.317ZM2.62534 5.17917L5.13107 7.6849C3.55183 8.90618 2.37266 10.4854 1.65674 12.3384C3.34126 16.5497 7.36306 19.266 11.8902 19.3081C13.28 19.3081 14.6486 19.0344 15.9752 18.5711L16.3542 18.9501L19.0705 21.6875L20.2286 20.5294L3.76239 4L2.62534 5.17917ZM11.8902 7.72701C14.4381 7.72701 16.5437 9.83266 16.5437 12.3805C16.5437 12.949 16.3963 13.5176 16.2279 14.0861L18.9442 16.8024C20.355 15.6232 21.4499 14.0861 22.1026 12.3805C20.4392 8.1692 16.3963 5.41079 11.8902 5.41079C10.6058 5.41079 9.38449 5.62135 8.20532 6.06354L10.2268 8.08497C10.7532 7.81124 11.3217 7.72701 11.8902 7.72701V7.72701Z" fill="#373D40"/>
</svg>
