<svg width="24" height="24" viewBox="0 0 24 24" fill="none" xmlns="http://www.w3.org/2000/svg">
<path fill-rule="evenodd" clip-rule="evenodd" d="M1.80811 12.0304C1.80811 12.0304 4.20338 5.03296 12.0303 5.03296C19.8572 5.03296 22.1918 12.0304 22.1918 12.0304C22.1918 12.0304 19.8253 18.967 12.0303 18.967C4.23526 18.967 1.80811 12.0304 1.80811 12.0304ZM17 12C17 14.7614 14.7612 17 12 17C9.23877 17 7 14.7614 7 12C7 9.23857 9.23877 7 12 7C14.7612 7 17 9.23857 17 12ZM15 12C15 13.6569 13.6567 15 12 15C10.3433 15 9 13.6569 9 12C9 10.3431 10.3433 9 12 9C13.6567 9 15 10.3431 15 12Z" fill="#373D40"/>
</svg>
