<svg width="24" height="24" viewBox="0 0 24 24" fill="none" xmlns="http://www.w3.org/2000/svg">
<path d="M6.00125 19.7045C6.00125 20.5379 5.24031 21.1176 4.15325 21.1176C3.31814 21.0939 2.62741 20.5022 2.45246 19.7164L2.4502 19.7045C2.92125 16.0628 7.46878 12.6929 12.1975 12.6929C16.9262 12.6929 21.4918 16.0628 21.9267 19.7045C21.7495 20.5022 21.0587 21.0939 20.2264 21.1176H20.2236C19.1365 21.1176 18.3937 20.5741 18.3937 19.7045L18.3031 19.5595C17.7958 17.2767 15.2594 15.8635 12.1975 15.8635C9.13561 15.8635 6.59914 17.2767 6.09184 19.5595L6.00125 19.7045ZM9.9509 6.71412C9.9509 8.77953 8.77325 10.4464 7.32384 10.4464C5.87443 10.4464 4.69678 8.76141 4.69678 6.71412L7.70431 3C8.97255 3.25365 9.9509 4.82988 9.9509 6.71412V6.71412ZM14.4441 6.71412C14.4441 4.81176 15.4224 3.25365 16.6907 3L19.6801 6.71412C19.6801 8.77953 18.5205 10.4464 17.0711 10.4464C15.6217 10.4464 14.4441 8.77953 14.4441 6.71412Z" fill="#373D40"/>
</svg>
