<svg width="24" height="24" viewBox="0 0 24 24" fill="none" xmlns="http://www.w3.org/2000/svg">
<path d="M6.00101 19.7045C6.00101 20.5379 5.24007 21.1176 4.15301 21.1176C3.3179 21.0939 2.62716 20.5022 2.45222 19.7164L2.44995 19.7045C2.92101 16.0628 7.46854 12.6929 12.1972 12.6929C16.926 12.6929 21.4916 16.0628 21.9264 19.7045C21.7492 20.5022 21.0585 21.0939 20.2262 21.1176H20.2234C19.1363 21.1176 18.3935 20.5741 18.3935 19.7045L18.3029 19.5595C17.7956 17.2767 15.2591 15.8635 12.1972 15.8635C9.13536 15.8635 6.59889 17.2767 6.0916 19.5595L6.00101 19.7045ZM9.95066 6.71412C9.95066 8.77953 8.77301 10.4464 7.3236 10.4464C5.87419 10.4464 4.69654 8.76141 4.69654 6.71412L7.70407 3C8.9723 3.25365 9.95066 4.82988 9.95066 6.71412V6.71412ZM14.4438 6.71412C14.4438 4.81176 15.4222 3.25365 16.6904 3L19.6798 6.71412C19.6798 8.77953 18.5203 10.4464 17.0709 10.4464C15.6215 10.4464 14.4438 8.77953 14.4438 6.71412Z" fill="black"/>
</svg>
