<svg width="24" height="24" viewBox="0 0 24 24" fill="none" xmlns="http://www.w3.org/2000/svg">
<path d="M14.9986 19.8777C15.0386 20.1776 14.9386 20.4976 14.7086 20.7075C14.5213 20.8938 14.2679 20.9983 14.0037 20.9983C13.7396 20.9983 13.4862 20.8938 13.2988 20.7075L9.29037 16.6981C9.18132 16.5915 9.09841 16.4611 9.04811 16.3172C8.99781 16.1732 8.98148 16.0195 9.00041 15.8682V10.7489L4.21108 4.61978C4.04871 4.41133 3.97544 4.1471 4.00729 3.88481C4.03914 3.62252 4.17352 3.38349 4.38106 3.21997C4.57103 3.07999 4.781 3 5.00097 3H18.999C19.219 3 19.429 3.07999 19.6189 3.21997C19.8265 3.38349 19.9609 3.62252 19.9927 3.88481C20.0246 4.1471 19.9513 4.41133 19.7889 4.61978L14.9986 10.7489V19.8777ZM7.04069 4.99972L10.9991 10.059V15.5783L12.9989 17.578V10.049L16.9593 4.99972H7.04069Z" fill="black"/>
</svg>
