<svg width="24" height="24" viewBox="0 0 24 24" fill="none" xmlns="http://www.w3.org/2000/svg">
<path d="M13.9987 11.9988V19.8777C14.0387 20.1776 13.9387 20.4976 13.7088 20.7075C13.5214 20.8938 13.268 20.9983 13.0039 20.9983C12.7397 20.9983 12.4863 20.8938 12.299 20.7075L10.2992 18.7078C10.1902 18.6012 10.1073 18.4708 10.057 18.3269C10.0067 18.1829 9.99034 18.0293 10.0093 17.8779V11.9988H9.97928L4.21108 4.61978C4.04871 4.41133 3.97544 4.1471 4.00729 3.88481C4.03914 3.62252 4.17352 3.38349 4.38106 3.21997C4.57103 3.07999 4.781 3 5.00097 3H18.999C19.219 3 19.429 3.07999 19.6189 3.21997C19.8265 3.38349 19.9609 3.62252 19.9927 3.88481C20.0246 4.1471 19.9513 4.41133 19.7889 4.61978L14.0297 11.9988H13.9987Z" fill="black"/>
</svg>
