<svg width="24" height="24" viewBox="0 0 24 24" fill="none" xmlns="http://www.w3.org/2000/svg">
<path d="M7.33713 16.7988C7.50237 16.3305 7.80881 15.925 8.2142 15.6381C8.61959 15.3513 9.10397 15.1973 9.60058 15.1973C10.0972 15.1973 10.5816 15.3513 10.987 15.6381C11.3923 15.925 11.6988 16.3305 11.864 16.7988H19.998V18.3984H11.864C11.6988 18.8667 11.3923 19.2723 10.987 19.5591C10.5816 19.846 10.0972 20 9.60058 20C9.10397 20 8.61959 19.846 8.2142 19.5591C7.80881 19.2723 7.50237 18.8667 7.33713 18.3984H4.00195V16.7988H7.33713ZM12.136 11.2002C12.3012 10.7319 12.6076 10.3264 13.013 10.0395C13.4184 9.75268 13.9028 9.59864 14.3994 9.59864C14.896 9.59864 15.3804 9.75268 15.7858 10.0395C16.1912 10.3264 16.4976 10.7319 16.6628 11.2002H19.998V12.7998H16.6628C16.4976 13.2681 16.1912 13.6736 15.7858 13.9605C15.3804 14.2473 14.896 14.4014 14.3994 14.4014C13.9028 14.4014 13.4184 14.2473 13.013 13.9605C12.6076 13.6736 12.3012 13.2681 12.136 12.7998H4.00195V11.2002H12.136ZM7.33713 5.60158C7.50237 5.13327 7.80881 4.72774 8.2142 4.4409C8.61959 4.15405 9.10397 4.00002 9.60058 4.00002C10.0972 4.00002 10.5816 4.15405 10.987 4.4409C11.3923 4.72774 11.6988 5.13327 11.864 5.60158H19.998V7.20119H11.864C11.6988 7.6695 11.3923 8.07503 10.987 8.36187C10.5816 8.64872 10.0972 8.80275 9.60058 8.80275C9.10397 8.80275 8.61959 8.64872 8.2142 8.36187C7.80881 8.07503 7.50237 7.6695 7.33713 7.20119H4.00195V5.60158H7.33713Z" fill="#373D40"/>
</svg>
