<svg width="41" height="41" viewBox="0 0 41 41" fill="none" xmlns="http://www.w3.org/2000/svg">
<path d="M13.5562 7.18735H27.2453V6.71291C27.2453 4.857 26.3383 3.96393 24.5521 3.96393H16.2354C14.4492 3.96393 13.5562 4.857 13.5562 6.71291V7.18735ZM19.096 36.9517H21.7054C23.4637 36.9517 24.3986 36.0168 24.3986 34.2027V18.0159C24.3986 16.4669 24.7475 15.4203 25.3056 14.5552L26.1011 13.3133C26.7848 12.2388 27.2453 11.3178 27.2453 10.0759V8.80605H13.5562V10.0759C13.5562 11.3178 14.0166 12.2388 14.7004 13.3133L15.4958 14.5552C16.054 15.4203 16.4028 16.4669 16.4028 18.0159V34.2027C16.4028 36.0168 17.3377 36.9517 19.096 36.9517ZM17.9378 19.3415C17.9378 17.9739 19.0123 16.8856 20.4077 16.8856C21.7891 16.8856 22.8636 17.9739 22.8636 19.3415V23.5556C22.8636 24.9372 21.7891 26.0116 20.4077 26.0116C19.0123 26.0116 17.9378 24.9372 17.9378 23.5556V19.3415ZM20.4077 25.1465C21.3287 25.1465 21.9985 24.4767 21.9985 23.5556C21.9985 22.6906 21.2868 21.9788 20.4077 21.9788C19.5146 21.9788 18.8029 22.6906 18.8029 23.5556C18.8029 24.4767 19.4867 25.1465 20.4077 25.1465Z" fill="white"/>
</svg>
