<svg width="40" height="40" viewBox="0 0 40 40" fill="none" xmlns="http://www.w3.org/2000/svg">
<path d="M12.9263 6.68514H26.6539V6.20936C26.6539 4.34822 25.7444 3.45264 23.9532 3.45264H15.613C13.8219 3.45264 12.9263 4.34822 12.9263 6.20936V6.68514ZM18.4817 36.5333H21.0985C22.8617 36.5333 23.7992 35.5958 23.7992 33.7766V17.5441C23.7992 15.9908 24.1491 14.9413 24.7088 14.0737L25.5065 12.8283C26.1922 11.7508 26.6539 10.8272 26.6539 9.5818V8.30839H12.9263V9.5818C12.9263 10.8272 13.3881 11.7508 14.0737 12.8283L14.8714 14.0737C15.4311 14.9413 15.7809 15.9908 15.7809 17.5441V33.7766C15.7809 35.5958 16.7185 36.5333 18.4817 36.5333ZM17.3202 23.0995V18.8735C17.3202 17.5021 18.3977 16.4107 19.7971 16.4107C21.1824 16.4107 22.26 17.5021 22.26 18.8735V23.0995C22.26 24.4849 21.1824 25.5624 19.7971 25.5624C18.3977 25.5624 17.3202 24.4849 17.3202 23.0995ZM19.7971 17.2922C18.8735 17.2922 18.1878 17.9639 18.1878 18.8735C18.1878 19.755 18.9015 20.4688 19.7971 20.4688C20.6787 20.4688 21.3923 19.755 21.3923 18.8735C21.3923 17.9639 20.7207 17.2922 19.7971 17.2922Z" fill="black"/>
</svg>
