<svg width="24" height="24" viewBox="0 0 24 24" fill="none" xmlns="http://www.w3.org/2000/svg">
<mask id="path-1-inside-1_1049_16404" fill="white">
<path d="M17.0002 2H9.26682L6.00049 11.6244H9.67198L7.21563 22L17.6889 7.58651H14L17.0002 2Z"/>
</mask>
<path d="M9.26682 2V0.5C8.62417 0.5 8.05292 0.909379 7.84639 1.51793L9.26682 2ZM17.0002 2L18.3217 2.7097L19.5084 0.5H17.0002V2ZM14 7.58651L12.6785 6.87681L11.4918 9.08651H14V7.58651ZM17.6889 7.58651L18.9024 8.46826L20.633 6.08651H17.6889V7.58651ZM6.00049 11.6244L4.58006 11.1423C4.42464 11.6003 4.49955 12.1051 4.78125 12.4981C5.06295 12.8912 5.51689 13.1244 6.00049 13.1244V11.6244ZM9.67198 11.6244L11.1316 11.97L11.5686 10.1244H9.67198V11.6244ZM7.21563 22L5.75598 21.6544L8.42911 22.8817L7.21563 22ZM9.26682 3.5H17.0002V0.5H9.26682V3.5ZM15.6787 1.2903L12.6785 6.87681L15.3215 8.29621L18.3217 2.7097L15.6787 1.2903ZM14 9.08651H17.6889V6.08651H14V9.08651ZM7.84639 1.51793L4.58006 11.1423L7.42092 12.1065L10.6872 2.48207L7.84639 1.51793ZM6.00049 13.1244H9.67198V10.1244H6.00049V13.1244ZM8.21233 11.2788L5.75598 21.6544L8.67528 22.3456L11.1316 11.97L8.21233 11.2788ZM8.42911 22.8817L18.9024 8.46826L16.4754 6.70476L6.00216 21.1183L8.42911 22.8817Z" fill="black" mask="url(#path-1-inside-1_1049_16404)"/>
</svg>
