<svg width="51" height="50" viewBox="0 0 51 50" fill="none" xmlns="http://www.w3.org/2000/svg">
<g clip-path="url(#clip0_1327_16485)">
<path d="M50.3252 24.9394C50.3252 38.522 39.0796 49.7677 25.4971 49.7677C11.939 49.7677 0.668945 38.522 0.668945 24.9394C0.668945 11.3814 11.9146 0.111328 25.4728 0.111328C39.0553 0.111328 50.3252 11.3814 50.3252 24.9394ZM18.8032 13.4991V14.7648C18.8032 16.0062 19.2414 16.9069 19.9229 17.9535L20.7019 19.1706C21.2617 20.0226 21.6025 21.0448 21.6025 22.5783V38.4002C21.6025 40.1529 22.5031 41.0779 24.1827 41.0779H26.7872C28.491 41.0779 29.416 40.1529 29.416 38.4002V22.5783C29.416 21.0448 29.7325 20.0226 30.2923 19.1706L31.0712 17.9535C31.7528 16.9069 32.191 16.0062 32.191 14.7648V13.4991H18.8032ZM27.907 23.8684V27.9822C27.907 29.3452 26.8603 30.3919 25.4971 30.3919C24.1341 30.3919 23.0874 29.3452 23.0874 27.9822V23.8684C23.0874 22.5783 24.1341 21.4588 25.4971 21.4588C26.8603 21.4588 27.907 22.5783 27.907 23.8684ZM23.9635 23.8684C23.9635 24.7448 24.6452 25.4263 25.4971 25.4263C26.3734 25.4263 27.0306 24.7448 27.0306 23.8684C27.0306 23.0166 26.422 22.3349 25.4971 22.3349C24.6207 22.3349 23.9635 23.0166 23.9635 23.8684ZM21.4321 8.80118C19.6795 8.80118 18.8032 9.70183 18.8032 11.4787V11.9656H32.191V11.4787C32.191 9.70183 31.3147 8.80118 29.5377 8.80118H21.4321Z" fill="white" fill-opacity="0.85"/>
</g>
<defs>
<clipPath id="clip0_1327_16485">
<rect width="50" height="50" fill="white" transform="translate(0.49707)"/>
</clipPath>
</defs>
</svg>
