<svg width="51" height="50" viewBox="0 0 51 50" fill="none" xmlns="http://www.w3.org/2000/svg">
<g clip-path="url(#clip0_1327_16485)">
<path d="M49.8857 24.9394C49.8857 38.522 38.6402 49.7677 25.0576 49.7677C11.4995 49.7677 0.229492 38.522 0.229492 24.9394C0.229492 11.3814 11.4752 0.111328 25.0333 0.111328C38.6159 0.111328 49.8857 11.3814 49.8857 24.9394ZM18.3638 13.4991V14.7648C18.3638 16.0062 18.8019 16.9069 19.4835 17.9535L20.2624 19.1706C20.8223 20.0226 21.163 21.0448 21.163 22.5783V38.4002C21.163 40.1529 22.0636 41.0779 23.7432 41.0779H26.3477C28.0516 41.0779 28.9765 40.1529 28.9765 38.4002V22.5783C28.9765 21.0448 29.2931 20.0226 29.8529 19.1706L30.6318 17.9535C31.3133 16.9069 31.7516 16.0062 31.7516 14.7648V13.4991H18.3638ZM27.4675 23.8684V27.9822C27.4675 29.3452 26.4208 30.3919 25.0576 30.3919C23.6946 30.3919 22.6479 29.3452 22.6479 27.9822V23.8684C22.6479 22.5783 23.6946 21.4588 25.0576 21.4588C26.4208 21.4588 27.4675 22.5783 27.4675 23.8684ZM23.5241 23.8684C23.5241 24.7448 24.2058 25.4263 25.0576 25.4263C25.934 25.4263 26.5912 24.7448 26.5912 23.8684C26.5912 23.0166 25.9826 22.3349 25.0576 22.3349C24.1813 22.3349 23.5241 23.0166 23.5241 23.8684ZM20.9927 8.80118C19.2401 8.80118 18.3638 9.70183 18.3638 11.4787V11.9656H31.7516V11.4787C31.7516 9.70183 30.8752 8.80118 29.0983 8.80118H20.9927Z" fill="white" fill-opacity="0.85"/>
</g>
<defs>
<clipPath id="clip0_1327_16485">
<rect width="50" height="50" fill="white" transform="translate(0.49707)"/>
</clipPath>
</defs>
</svg>
