<svg width="24" height="24" viewBox="0 0 24 24" fill="none" xmlns="http://www.w3.org/2000/svg">
<g clip-path="url(#clip0_903_21402)">
<path fill-rule="evenodd" clip-rule="evenodd" d="M21.8748 19.0551V7.07491C21.8748 6.81301 21.7708 6.56183 21.5856 6.37664C21.4004 6.19145 21.1492 6.08741 20.8873 6.08741H16.9373V3.12491C16.9373 2.86301 16.8333 2.61183 16.6481 2.42664C16.4629 2.24145 16.2117 2.13741 15.9498 2.13741H8.0498C7.7879 2.13741 7.53673 2.24145 7.35153 2.42664C7.16634 2.61183 7.0623 2.86301 7.0623 3.12491V4.24493L10.8804 8.06241H19.8998V14.9749H17.7939L19.7693 16.9499H19.8998V17.0804L21.8748 19.0551ZM1.98287 1.70594L1.82153 1.86731L22.3162 22.3588L21.0511 23.6247L19.3128 21.8874H3.1123C2.8504 21.8874 2.59922 21.7834 2.41403 21.5982C2.22884 21.413 2.1248 21.1618 2.1248 20.8999V7.07491C2.1248 6.81301 2.22884 6.56183 2.41403 6.37664C2.59922 6.19145 2.8504 6.08741 3.1123 6.08741H3.50352L0.550781 3.13641L1.98163 1.70471L1.98287 1.70594ZM17.3367 19.9124L14.3724 16.9499H4.0998V19.9124H17.3367ZM12.3963 14.9749L5.47969 8.06241H4.0998V14.9749H12.3963ZM9.0373 4.11241V6.08741H14.9623V4.11241H9.0373Z" fill="#373D40"/>
</g>
<defs>
<clipPath id="clip0_903_21402">
<rect width="24" height="24" fill="white"/>
</clipPath>
</defs>
</svg>
