<svg width="25" height="24" viewBox="0 0 25 24" fill="none" xmlns="http://www.w3.org/2000/svg">
<g clip-path="url(#clip0_1543_17017)">
<path d="M4.46875 5V19H20.4688V7H12.0548L10.0548 5H4.46875ZM12.8827 5H21.4688C21.734 5 21.9883 5.10536 22.1759 5.29289C22.3634 5.48043 22.4688 5.73478 22.4688 6V20C22.4688 20.2652 22.3634 20.5196 22.1759 20.7071C21.9883 20.8946 21.734 21 21.4688 21H3.46875C3.20353 21 2.94918 20.8946 2.76164 20.7071C2.57411 20.5196 2.46875 20.2652 2.46875 20V4C2.46875 3.73478 2.57411 3.48043 2.76164 3.29289C2.94918 3.10536 3.20353 3 3.46875 3H10.8827L12.8827 5Z" fill="#373D40"/>
</g>
<defs>
<clipPath id="clip0_1543_17017">
<rect width="24" height="24" fill="white" transform="translate(0.46875)"/>
</clipPath>
</defs>
</svg>
