<svg width="25" height="25" viewBox="0 0 25 25" fill="none" xmlns="http://www.w3.org/2000/svg">
<g clip-path="url(#clip0_1287_16502)">
<path d="M17.2871 3.58728C20.3251 3.58728 22.7871 6.08728 22.7871 9.58728C22.7871 16.5873 15.2871 20.5873 12.7871 22.0873C10.8101 20.9013 5.70411 18.1503 3.65611 13.5883L1.78711 13.5873V11.5873H2.99711C2.86111 10.9513 2.78711 10.2853 2.78711 9.58728C2.78711 6.08728 5.28711 3.58728 8.28711 3.58728C10.1471 3.58728 11.7871 4.58728 12.7871 5.58728C13.7871 4.58728 15.4271 3.58728 17.2871 3.58728ZM17.2871 5.58728C16.2111 5.58728 15.0471 6.15728 14.2011 7.00128L12.7871 8.41528L11.3731 7.00128C10.5271 6.15728 9.36311 5.58728 8.28711 5.58728C6.34711 5.58728 4.78711 7.24328 4.78711 9.58728C4.78711 10.2723 4.87711 10.9393 5.05411 11.5873H7.22111L9.28711 8.14328L12.2871 13.1433L13.2211 11.5873H17.7871V13.5873H14.3531L12.2871 17.0313L9.28711 12.0313L8.35311 13.5873H5.89511C6.68511 14.9613 7.88011 16.2553 9.43211 17.4903C10.1771 18.0823 10.9721 18.6353 11.8531 19.1903C12.1521 19.3793 12.4481 19.5603 12.7871 19.7623C13.1261 19.5603 13.4221 19.3793 13.7211 19.1913C14.6021 18.6353 15.3971 18.0823 16.1411 17.4903C19.1221 15.1203 20.7871 12.5303 20.7871 9.58728C20.7871 7.22728 19.2501 5.58728 17.2871 5.58728Z" fill="#373D40"/>
</g>
<defs>
<clipPath id="clip0_1287_16502">
<rect width="24" height="24" fill="white" transform="translate(0.787109 0.58728)"/>
</clipPath>
</defs>
</svg>
