<svg width="24" height="24" viewBox="0 0 24 24" fill="none" xmlns="http://www.w3.org/2000/svg">
<path d="M21.9921 13.392C20.7795 12.224 19.5668 11.072 18.3879 9.904L18.2532 9.792V5.936C18.2532 5.777 18.1174 5.648 17.95 5.648H16.03C15.8626 5.648 15.7268 5.777 15.7268 5.936V7.392L12.2068 4.048C12.1532 4.021 12.09 4.0035 12.0226 4H12.0216C11.9374 4 11.9037 4.048 11.8195 4.08C8.5521 7.184 5.28474 10.288 2.06789 13.392C2.02579 13.439 2 13.5005 2 13.568C2 13.718 2.12842 13.84 2.28632 13.84H4.29105V19.712C4.29105 19.871 4.42684 20 4.59421 20H10.6405C10.8079 20 10.9437 19.871 10.9437 19.712V15.616H13.2005V19.712C13.2005 19.871 13.3363 20 13.5037 20H19.55C19.5553 20.0005 19.5611 20.0005 19.5668 20.0005C19.7342 20.0005 19.87 19.8715 19.87 19.7125V13.84H21.8574C22.0763 13.888 22.2111 13.552 21.9921 13.392Z" fill="black"/>
</svg>
