<svg width="24" height="25" viewBox="0 0 24 25" fill="none" xmlns="http://www.w3.org/2000/svg">
<g clip-path="url(#clip0_1181_21998)">
<path d="M20 5.52942H4V19.5294L13.292 10.2354C13.4795 10.0479 13.7338 9.94263 13.999 9.94263C14.2642 9.94263 14.5185 10.0479 14.706 10.2354L20 15.5394V5.52942ZM2 4.52242C2.00183 4.2598 2.1069 4.00844 2.29251 3.82264C2.47813 3.63684 2.72938 3.53151 2.992 3.52942H21.008C21.556 3.52942 22 3.97442 22 4.52242V20.5364C21.9982 20.799 21.8931 21.0504 21.7075 21.2362C21.5219 21.422 21.2706 21.5273 21.008 21.5294H2.992C2.72881 21.5292 2.4765 21.4244 2.29049 21.2382C2.10448 21.052 2 20.7996 2 20.5364V4.52242ZM8 11.5294C7.46957 11.5294 6.96086 11.3187 6.58579 10.9436C6.21071 10.5686 6 10.0599 6 9.52942C6 8.99899 6.21071 8.49028 6.58579 8.11521C6.96086 7.74013 7.46957 7.52942 8 7.52942C8.53043 7.52942 9.03914 7.74013 9.41421 8.11521C9.78929 8.49028 10 8.99899 10 9.52942C10 10.0599 9.78929 10.5686 9.41421 10.9436C9.03914 11.3187 8.53043 11.5294 8 11.5294Z" fill="#373D40"/>
</g>
<defs>
<clipPath id="clip0_1181_21998">
<rect width="24" height="24" fill="white" transform="translate(0 0.529419)"/>
</clipPath>
</defs>
</svg>
