<svg width="24" height="24" viewBox="0 0 24 24" fill="none" xmlns="http://www.w3.org/2000/svg">
<g clip-path="url(#clip0_1181_21986)">
<mask id="mask0_1181_21986" style="mask-type:alpha" maskUnits="userSpaceOnUse" x="0" y="-1" width="24" height="25">
<rect y="-0.129211" width="24" height="24" fill="#D9D9D9"/>
</mask>
<g mask="url(#mask0_1181_21986)">
<path d="M5 20.8708C4.45 20.8708 3.97917 20.675 3.5875 20.2833C3.19583 19.8916 3 19.4208 3 18.8708V4.87079C3 4.32079 3.19583 3.84996 3.5875 3.45829C3.97917 3.06662 4.45 2.87079 5 2.87079H19C19.55 2.87079 20.0208 3.06662 20.4125 3.45829C20.8042 3.84996 21 4.32079 21 4.87079V18.8708C21 19.4208 20.8042 19.8916 20.4125 20.2833C20.0208 20.675 19.55 20.8708 19 20.8708H5ZM5 18.8708H19V4.87079H5V18.8708ZM6 16.8708H18L14.25 11.8708L11.25 15.8708L9 12.8708L6 16.8708ZM8.5 9.87079C8.91667 9.87079 9.27083 9.72496 9.5625 9.43329C9.85417 9.14162 10 8.78746 10 8.37079C10 7.95412 9.85417 7.59996 9.5625 7.30829C9.27083 7.01662 8.91667 6.87079 8.5 6.87079C8.08333 6.87079 7.72917 7.01662 7.4375 7.30829C7.14583 7.59996 7 7.95412 7 8.37079C7 8.78746 7.14583 9.14162 7.4375 9.43329C7.72917 9.72496 8.08333 9.87079 8.5 9.87079Z" fill="#1C1B1F"/>
</g>
</g>
<defs>
<clipPath id="clip0_1181_21986">
<rect width="24" height="24" fill="white"/>
</clipPath>
</defs>
</svg>
