<svg width="24" height="25" viewBox="0 0 24 25" fill="none" xmlns="http://www.w3.org/2000/svg">
<g clip-path="url(#clip0_1181_21986)">
<path d="M4.828 21.1292L4.808 21.1492L4.787 21.1292H2.992C2.72881 21.1289 2.4765 21.0242 2.29049 20.838C2.10448 20.6518 2 20.3994 2 20.1362V4.12221C2.00183 3.85959 2.1069 3.60823 2.29251 3.42243C2.47813 3.23663 2.72938 3.13131 2.992 3.12921H21.008C21.556 3.12921 22 3.57421 22 4.12221V20.1362C21.9982 20.3988 21.8931 20.6502 21.7075 20.836C21.5219 21.0218 21.2706 21.1271 21.008 21.1292H4.828ZM20 15.1292V5.12921H4V19.1292L14 9.12921L20 15.1292ZM20 17.9572L14 11.9572L6.828 19.1292H20V17.9572ZM8 11.1292C7.46957 11.1292 6.96086 10.9185 6.58579 10.5434C6.21071 10.1684 6 9.65964 6 9.12921C6 8.59878 6.21071 8.09007 6.58579 7.715C6.96086 7.33992 7.46957 7.12921 8 7.12921C8.53043 7.12921 9.03914 7.33992 9.41421 7.715C9.78929 8.09007 10 8.59878 10 9.12921C10 9.65964 9.78929 10.1684 9.41421 10.5434C9.03914 10.9185 8.53043 11.1292 8 11.1292Z" fill="#262626"/>
</g>
<defs>
<clipPath id="clip0_1181_21986">
<rect width="24" height="24" fill="white" transform="translate(0 0.129211)"/>
</clipPath>
</defs>
</svg>
