<svg width="24" height="24" viewBox="0 0 24 24" fill="none" xmlns="http://www.w3.org/2000/svg">
<path d="M12.02 2C17.5344 2.01125 22 6.48438 22 12C22 17.5231 17.5231 22 12 22C6.47688 22 2 17.5231 2 12C2 6.47688 6.47688 2 12 2C12.0069 2 12.0144 2 12.0213 2H12.02V2ZM9.92 5.52L10.96 14.1H13.08L14.12 5.56L9.92 5.52ZM12.02 15.32C11.1119 15.3313 10.38 16.07 10.38 16.98C10.38 17.8969 11.1231 18.64 12.04 18.64C12.9569 18.64 13.7 17.8969 13.7 16.98C13.6887 16.0719 12.95 15.34 12.04 15.34C12.0331 15.34 12.0256 15.34 12.0188 15.34H12.02V15.32Z" fill="#373D40"/>
</svg>
