<svg width="24" height="24" viewBox="0 0 24 24" fill="none" xmlns="http://www.w3.org/2000/svg">
<path fill-rule="evenodd" clip-rule="evenodd" d="M2.00879 11.9655C2.00879 17.4641 6.5057 21.961 12.0043 21.961C17.5029 21.961 21.9998 17.4641 21.9998 11.9655C21.9998 6.46688 17.5029 1.96997 12.0043 1.96997C6.5057 1.96997 2.00879 6.46688 2.00879 11.9655ZM3.35147 11.9655C3.35147 7.17019 7.20901 3.31265 12.0043 3.31265C16.7996 3.31265 20.6571 7.17019 20.6571 11.9655C20.6571 16.7608 16.7996 20.6183 12.0043 20.6183C7.20901 20.6183 3.35147 16.7608 3.35147 11.9655ZM12.088 8.40816C12.6634 8.40816 13.1536 7.91797 13.1536 7.34254C13.1536 6.7671 12.6634 6.23429 12.088 6.23429C11.5126 6.23429 11.0224 6.72448 11.0224 7.29991C11.0224 7.87535 11.5126 8.40816 12.088 8.40816ZM11.2568 16.1445V10.0918H10.4043V9.26065H12.9831V16.1445H13.8143V16.9757H10.3617V16.1445H11.2568Z" fill="#373D40"/>
</svg>
