<svg width="24" height="24" viewBox="0 0 24 24" fill="none" xmlns="http://www.w3.org/2000/svg">
<path fill-rule="evenodd" clip-rule="evenodd" d="M2.00903 11.9654C2.00903 17.464 6.50594 21.9609 12.0045 21.9609C17.5031 21.9609 22 17.464 22 11.9654C22 6.46682 17.5031 1.96991 12.0045 1.96991C6.50594 1.96991 2.00903 6.46682 2.00903 11.9654ZM3.35171 11.9654C3.35171 7.17013 7.20925 3.31259 12.0045 3.31259C16.7998 3.31259 20.6574 7.17013 20.6574 11.9654C20.6574 16.7607 16.7998 20.6182 12.0045 20.6182C7.20925 20.6182 3.35171 16.7607 3.35171 11.9654ZM12.0882 8.40809C12.6637 8.40809 13.1538 7.91791 13.1538 7.34248C13.1538 6.76704 12.6637 6.23423 12.0882 6.23423C11.5128 6.23423 11.0226 6.72442 11.0226 7.29985C11.0226 7.87529 11.5128 8.40809 12.0882 8.40809ZM11.257 16.1445V10.0918H10.4046V9.26059H12.9833V16.1445H13.8145V16.9757H10.3619V16.1445H11.257Z" fill="black"/>
</svg>
