<svg width="24" height="24" viewBox="0 0 24 24" fill="none" xmlns="http://www.w3.org/2000/svg">
<g clip-path="url(#clip0_903_21399)">
<path d="M12 22C6.477 22 2 17.523 2 12C2 6.477 6.477 2 12 2C17.523 2 22 6.477 22 12C22 17.523 17.523 22 12 22ZM11 11V17H13V11H11ZM12 7C11.4477 7 11 7.44772 11 8V8C11 8.55228 11.4477 9 12 9V9C12.5523 9 13 8.55228 13 8V8C13 7.44772 12.5523 7 12 7V7Z" fill="#373D40"/>
</g>
<defs>
<clipPath id="clip0_903_21399">
<rect width="24" height="24" fill="white"/>
</clipPath>
</defs>
</svg>
