<svg width="24" height="24" viewBox="0 0 24 24" fill="none" xmlns="http://www.w3.org/2000/svg">
<path d="M12.0088 22C6.48579 22 2.00879 17.523 2.00879 12C2.00879 6.477 6.48579 2 12.0088 2C17.5318 2 22.0088 6.477 22.0088 12C22.0088 17.523 17.5318 22 12.0088 22ZM12.0088 20C14.1305 20 16.1654 19.1571 17.6656 17.6569C19.1659 16.1566 20.0088 14.1217 20.0088 12C20.0088 9.87827 19.1659 7.84344 17.6656 6.34315C16.1654 4.84285 14.1305 4 12.0088 4C9.88706 4 7.85223 4.84285 6.35193 6.34315C4.85164 7.84344 4.00879 9.87827 4.00879 12C4.00879 14.1217 4.85164 16.1566 6.35193 17.6569C7.85223 19.1571 9.88706 20 12.0088 20ZM11.0088 8C11.0088 7.44772 11.4565 7 12.0088 7V7C12.5611 7 13.0088 7.44772 13.0088 8V8C13.0088 8.55228 12.5611 9 12.0088 9V9C11.4565 9 11.0088 8.55228 11.0088 8V8ZM11.0088 11H13.0088V17H11.0088V11Z" fill="#373D40"/>
</svg>
