<svg width="24" height="24" viewBox="0 0 24 24" fill="none" xmlns="http://www.w3.org/2000/svg">
<path d="M4.14182 6.32449V5.00864C4.14341 4.77933 4.23516 4.55986 4.39722 4.39763C4.55929 4.23539 4.77868 4.14343 5.00798 4.1416H20.7387C21.2172 4.1416 21.6049 4.53015 21.6049 5.00864V18.9913C21.6033 19.2206 21.5115 19.4401 21.3495 19.6023C21.1874 19.7646 20.968 19.8565 20.7387 19.8584H5.00798C4.77818 19.8581 4.55787 19.7667 4.39546 19.6041C4.23304 19.4415 4.14182 19.2211 4.14182 18.9913V18.1121H19.8586V7.89616L12.8734 14.1829L4.14182 6.32449ZM2.39551 10.2537H6.76128V12H2.39551V10.2537ZM2.39551 14.6194H9.38074V16.3658H2.39551V14.6194Z" fill="#373D40"/>
</svg>
