<svg width="24" height="24" viewBox="0 0 24 24" fill="none" xmlns="http://www.w3.org/2000/svg">
<path d="M15.2217 16.2156L16.2298 20L11.7252 16.2156H10.331V6H20.7559C21.5495 7.68437 22 9.65312 22 11.6656C22 13.2625 21.6997 14.8594 21.2063 16.2594H15.2217V16.2156ZM6.89888 8.84375H2.02962C1.45046 8.84375 1 8.38437 1 7.79375C1 7.20312 1.45046 6.74375 2.02962 6.74375H6.89888C7.47804 6.74375 7.9285 7.20312 7.9285 7.79375C7.9285 8.34062 7.47804 8.84375 6.89888 8.84375ZM7.56384 9.87187C8.143 9.87187 8.59346 10.3313 8.59346 10.9219C8.59346 11.5125 8.143 11.9719 7.56384 11.9719H3.4239C2.82329 11.9719 2.39428 11.5125 2.39428 10.9219C2.39428 10.3313 2.82329 9.87187 3.4239 9.87187H7.56384ZM8.1001 13.0656C8.78652 13.0656 9.32278 13.6125 9.32278 14.3125C9.32278 14.9906 8.78652 15.5375 8.1001 15.5375H5.33299C4.66803 15.5375 4.13177 14.9906 4.13177 14.3125C4.13177 13.6125 4.66803 13.0656 5.33299 13.0656H8.1001Z" fill="black"/>
</svg>
