<svg width="24" height="24" viewBox="0 0 24 24" fill="none" xmlns="http://www.w3.org/2000/svg">
<circle cx="12" cy="12" r="9.90072" fill="#FFED96" stroke="#262626" stroke-width="0.198553"/>
<circle cx="11.9998" cy="12.0001" r="2.38263" fill="black"/>
<path d="M19.935 11.6697C19.8793 10.3331 19.487 9.03218 18.7943 7.8877C18.1016 6.74323 17.1311 5.79226 15.9728 5.12305L13.9862 8.56151C14.5654 8.89611 15.0507 9.3716 15.397 9.94383C15.7433 10.5161 15.9395 11.1665 15.9673 11.8348L19.935 11.6697Z" fill="black"/>
<path d="M8.26859 19.0111C9.44954 19.6395 10.7701 19.9595 12.1077 19.9413C13.4454 19.9231 14.7567 19.5674 15.9202 18.907L13.9599 15.4535C13.3782 15.7837 12.7225 15.9616 12.0537 15.9707C11.3849 15.9797 10.7246 15.8198 10.1342 15.5055L8.26859 19.0111Z" fill="black"/>
<path d="M7.7906 5.26496C6.65616 5.97394 5.71919 6.95799 5.06663 8.12579C4.41406 9.2936 4.06706 10.6073 4.05781 11.945L8.02876 11.9725C8.03339 11.3036 8.20689 10.6468 8.53317 10.0629C8.85945 9.47898 9.32794 8.98695 9.89516 8.63246L7.7906 5.26496Z" fill="black"/>
</svg>
