<svg width="24" height="24" viewBox="0 0 24 24" fill="none" xmlns="http://www.w3.org/2000/svg">
<mask id="mask0_2405_16659" style="mask-type:alpha" maskUnits="userSpaceOnUse" x="0" y="0" width="24" height="24">
<rect width="24" height="24" fill="#D9D9D9"/>
</mask>
<g mask="url(#mask0_2405_16659)">
<path d="M3.9 11.175C3.71667 10.975 3.625 10.7375 3.625 10.4625C3.625 10.1875 3.71667 9.95001 3.9 9.75001L6.7 6.95001L5.625 5.87501L5.325 6.17501C5.125 6.37501 4.8875 6.47501 4.6125 6.47501C4.3375 6.47501 4.1 6.37501 3.9 6.17501C3.71667 5.99168 3.625 5.75835 3.625 5.47501C3.625 5.19168 3.71667 4.95835 3.9 4.77501L5.9 2.77501C6.1 2.57501 6.3375 2.47501 6.6125 2.47501C6.8875 2.47501 7.125 2.57501 7.325 2.77501C7.50833 2.95835 7.6 3.19168 7.6 3.47501C7.6 3.75835 7.50833 3.99168 7.325 4.17501L7.025 4.47501L8.1 5.55001L10.9 2.75001C11.1 2.55001 11.3375 2.45001 11.6125 2.45001C11.8875 2.45001 12.125 2.55001 12.325 2.75001C12.525 2.95001 12.625 3.18751 12.625 3.46251C12.625 3.73751 12.525 3.97501 12.325 4.17501L11.65 4.82501L19.025 12.2C19.4083 12.5833 19.6 13.0542 19.6 13.6125C19.6 14.1708 19.4083 14.6417 19.025 15.025L18.325 15.75L23.05 20.45H20.2L16.9 17.15L16.2 17.875C15.8167 18.2583 15.3458 18.45 14.7875 18.45C14.2292 18.45 13.7583 18.2583 13.375 17.875L6 10.5L5.325 11.175C5.125 11.3583 4.8875 11.45 4.6125 11.45C4.3375 11.45 4.1 11.3583 3.9 11.175ZM7.4 9.10001L14.775 16.475L17.6 13.625L16.1 12.1L14.7 13.5C14.5 13.6833 14.2625 13.7792 13.9875 13.7875C13.7125 13.7958 13.4833 13.7083 13.3 13.525C13.1 13.325 13 13.0875 13 12.8125C13 12.5375 13.1 12.3 13.3 12.1L14.7 10.7L13.2 9.20001L11.8 10.6C11.6 10.7833 11.3625 10.875 11.0875 10.875C10.8125 10.875 10.575 10.7833 10.375 10.6C10.1917 10.4 10.1 10.1625 10.1 9.88751C10.1 9.61251 10.1917 9.37501 10.375 9.17501L11.775 7.77501L10.25 6.25001L7.4 9.10001Z" fill="#241E1A"/>
</g>
</svg>
