<svg width="24" height="24" viewBox="0 0 24 24" fill="none" xmlns="http://www.w3.org/2000/svg">
<g clip-path="url(#clip0_903_21401)">
<path d="M7.0625 6.08745V3.12495C7.0625 2.86305 7.16654 2.61188 7.35173 2.42668C7.53692 2.24149 7.7881 2.13745 8.05 2.13745H15.95C16.2119 2.13745 16.4631 2.24149 16.6483 2.42668C16.8335 2.61188 16.9375 2.86305 16.9375 3.12495V6.08745H20.8875C21.1494 6.08745 21.4006 6.19149 21.5858 6.37668C21.771 6.56188 21.875 6.81305 21.875 7.07495V20.9C21.875 21.1619 21.771 21.413 21.5858 21.5982C21.4006 21.7834 21.1494 21.8875 20.8875 21.8875H3.1125C2.8506 21.8875 2.59942 21.7834 2.41423 21.5982C2.22904 21.413 2.125 21.1619 2.125 20.9V7.07495C2.125 6.81305 2.22904 6.56188 2.41423 6.37668C2.59942 6.19149 2.8506 6.08745 3.1125 6.08745H7.0625ZM4.1 16.95V19.9125H19.9V16.95H4.1ZM4.1 14.975H19.9V8.06245H4.1V14.975ZM9.0375 4.11245V6.08745H14.9625V4.11245H9.0375ZM11.0125 12.0125H12.9875V13.9875H11.0125V12.0125Z" fill="#373D40"/>
</g>
<defs>
<clipPath id="clip0_903_21401">
<rect width="24" height="24" fill="white"/>
</clipPath>
</defs>
</svg>
