<svg width="24" height="24" viewBox="0 0 24 24" fill="none" xmlns="http://www.w3.org/2000/svg">
<g clip-path="url(#clip0_903_21402)">
<mask id="mask0_903_21402" style="mask-type:alpha" maskUnits="userSpaceOnUse" x="0" y="0" width="24" height="24">
<rect width="24" height="24" fill="#D9D9D9"/>
</mask>
<g mask="url(#mask0_903_21402)">
<path d="M20.5002 23.3L18.2002 21H4.0002C3.4502 21 2.97936 20.8042 2.5877 20.4125C2.19603 20.0208 2.0002 19.55 2.0002 19V8C2.0002 7.45 2.19603 6.97917 2.5877 6.5875C2.97936 6.19583 3.4502 6 4.0002 6H6.0002L8.0002 8H4.0002V19H16.1752L0.700195 3.5L2.1002 2.1L21.9002 21.9L20.5002 23.3ZM22.0002 19.15L20.0002 17.15V8H10.8502L8.0002 5.15V4C8.0002 3.45 8.19603 2.97917 8.5877 2.5875C8.97936 2.19583 9.4502 2 10.0002 2H14.0002C14.5502 2 15.021 2.19583 15.4127 2.5875C15.8044 2.97917 16.0002 3.45 16.0002 4V6H20.0002C20.5502 6 21.021 6.19583 21.4127 6.5875C21.8044 6.97917 22.0002 7.45 22.0002 8V19.15ZM10.0002 6H14.0002V4H10.0002V6Z" fill="#1C1B1F"/>
</g>
</g>
<defs>
<clipPath id="clip0_903_21402">
<rect width="24" height="24" fill="white"/>
</clipPath>
</defs>
</svg>
