<svg width="24" height="25" viewBox="0 0 24 25" fill="none" xmlns="http://www.w3.org/2000/svg">
<g clip-path="url(#clip0_1241_16530)">
<path d="M18.5039 10.8091L22.9039 21.8091H20.7489L19.5479 18.8091H15.4579L14.2589 21.8091H12.1049L16.5039 10.8091H18.5039ZM10.0039 2.80908V4.80908H16.0039V6.80908H14.0359C13.2645 9.13116 12.0334 11.2741 10.4159 13.1101C11.1372 13.7537 11.9196 14.3254 12.7519 14.8171L12.0009 16.6951C10.9264 16.0857 9.9215 15.3611 9.00391 14.5341C7.21749 16.1508 5.10195 17.3613 2.80291 18.0821L2.26691 16.1531C4.23674 15.525 6.05193 14.4884 7.59391 13.1111C6.4526 11.819 5.50197 10.3704 4.77091 8.80908H7.01091C7.56826 9.83794 8.23657 10.8027 9.00391 11.6861C10.254 10.2452 11.2392 8.59439 11.9139 6.81008L2.00391 6.80908V4.80908H8.00391V2.80908H10.0039ZM17.5039 13.6941L16.2569 16.8091H18.7489L17.5039 13.6941Z" fill="#373D40"/>
</g>
<defs>
<clipPath id="clip0_1241_16530">
<rect width="24" height="24" fill="white" transform="translate(0.00390625 0.809082)"/>
</clipPath>
</defs>
</svg>
