<svg width="20" height="20" viewBox="0 0 20 20" fill="none" xmlns="http://www.w3.org/2000/svg">
<g clip-path="url(#clip0_2173_16611)">
<path d="M15.8333 9.16667V4.16667H4.16667V9.16667H15.8333ZM15.8333 10.8333H4.16667V15.8333H15.8333V10.8333ZM3.33333 2.5H16.6667C16.8877 2.5 17.0996 2.5878 17.2559 2.74408C17.4122 2.90036 17.5 3.11232 17.5 3.33333V16.6667C17.5 16.8877 17.4122 17.0996 17.2559 17.2559C17.0996 17.4122 16.8877 17.5 16.6667 17.5H3.33333C3.11232 17.5 2.90036 17.4122 2.74408 17.2559C2.5878 17.0996 2.5 16.8877 2.5 16.6667V3.33333C2.5 3.11232 2.5878 2.90036 2.74408 2.74408C2.90036 2.5878 3.11232 2.5 3.33333 2.5V2.5Z" fill="#262626"/>
</g>
<defs>
<clipPath id="clip0_2173_16611">
<rect width="20" height="20" fill="white"/>
</clipPath>
</defs>
</svg>
