<svg width="20" height="20" viewBox="0 0 20 20" fill="none" xmlns="http://www.w3.org/2000/svg">
<g clip-path="url(#clip0_2173_16611)">
<mask id="mask0_2173_16611" style="mask-type:alpha" maskUnits="userSpaceOnUse" x="-2" y="-2" width="24" height="24">
<rect x="-2" y="-2" width="24" height="24" fill="#D9D9D9"/>
</mask>
<g mask="url(#mask0_2173_16611)">
<path d="M3 9C2.45 9 1.97917 8.80417 1.5875 8.4125C1.19583 8.02083 1 7.55 1 7V3C1 2.45 1.19583 1.97917 1.5875 1.5875C1.97917 1.19583 2.45 1 3 1H17C17.55 1 18.0208 1.19583 18.4125 1.5875C18.8042 1.97917 19 2.45 19 3V7C19 7.55 18.8042 8.02083 18.4125 8.4125C18.0208 8.80417 17.55 9 17 9H3ZM3 7H17V3H3V7ZM3 19C2.45 19 1.97917 18.8042 1.5875 18.4125C1.19583 18.0208 1 17.55 1 17V13C1 12.45 1.19583 11.9792 1.5875 11.5875C1.97917 11.1958 2.45 11 3 11H17C17.55 11 18.0208 11.1958 18.4125 11.5875C18.8042 11.9792 19 12.45 19 13V17C19 17.55 18.8042 18.0208 18.4125 18.4125C18.0208 18.8042 17.55 19 17 19H3ZM3 17H17V13H3V17Z" fill="#1C1B1F"/>
</g>
</g>
<defs>
<clipPath id="clip0_2173_16611">
<rect width="20" height="20" fill="white"/>
</clipPath>
</defs>
</svg>
