<svg width="24" height="24" viewBox="0 0 24 24" fill="none" xmlns="http://www.w3.org/2000/svg">
<g clip-path="url(#clip0_1316_16416)">
<mask id="mask0_1316_16416" style="mask-type:alpha" maskUnits="userSpaceOnUse" x="0" y="0" width="24" height="24">
<rect width="24" height="24" fill="#D9D9D9"/>
</mask>
<g mask="url(#mask0_1316_16416)">
<path d="M17.5 21H18.5V18.5H21V17.5H18.5V15H17.5V17.5H15V18.5H17.5V21ZM18 23C16.6167 23 15.4375 22.5125 14.4625 21.5375C13.4875 20.5625 13 19.3833 13 18C13 16.6167 13.4875 15.4375 14.4625 14.4625C15.4375 13.4875 16.6167 13 18 13C19.3833 13 20.5625 13.4875 21.5375 14.4625C22.5125 15.4375 23 16.6167 23 18C23 19.3833 22.5125 20.5625 21.5375 21.5375C20.5625 22.5125 19.3833 23 18 23ZM9 7V5H21V7H9ZM5 20C4.45 20 3.97917 19.8042 3.5875 19.4125C3.19583 19.0208 3 18.55 3 18C3 17.45 3.19583 16.9792 3.5875 16.5875C3.97917 16.1958 4.45 16 5 16C5.55 16 6.02083 16.1958 6.4125 16.5875C6.80417 16.9792 7 17.45 7 18C7 18.55 6.80417 19.0208 6.4125 19.4125C6.02083 19.8042 5.55 20 5 20ZM5 14C4.45 14 3.97917 13.8042 3.5875 13.4125C3.19583 13.0208 3 12.55 3 12C3 11.45 3.19583 10.9792 3.5875 10.5875C3.97917 10.1958 4.45 10 5 10C5.55 10 6.02083 10.1958 6.4125 10.5875C6.80417 10.9792 7 11.45 7 12C7 12.55 6.80417 13.0208 6.4125 13.4125C6.02083 13.8042 5.55 14 5 14ZM5 8C4.45 8 3.97917 7.80417 3.5875 7.4125C3.19583 7.02083 3 6.55 3 6C3 5.45 3.19583 4.97917 3.5875 4.5875C3.97917 4.19583 4.45 4 5 4C5.55 4 6.02083 4.19583 6.4125 4.5875C6.80417 4.97917 7 5.45 7 6C7 6.55 6.80417 7.02083 6.4125 7.4125C6.02083 7.80417 5.55 8 5 8ZM9 19V17H11.075C11.025 17.3333 11 17.6667 11 18C11 18.3333 11.025 18.6667 11.075 19H9ZM9 13V11H18C17.05 11 16.1583 11.1792 15.325 11.5375C14.4917 11.8958 13.7583 12.3833 13.125 13H9Z" fill="#1C1B1F"/>
</g>
</g>
<defs>
<clipPath id="clip0_1316_16416">
<rect width="24" height="24" fill="white"/>
</clipPath>
</defs>
</svg>
