<svg width="25" height="24" viewBox="0 0 25 24" fill="none" xmlns="http://www.w3.org/2000/svg">
<g clip-path="url(#clip0_1292_16557)">
<path d="M2.07324 18H9.07324V20H2.07324V18ZM2.07324 11H11.0732V13H2.07324V11ZM2.07324 4H22.0732V6H2.07324V4ZM20.7472 13.025L21.9032 12.634L22.9032 14.366L21.9872 15.171C22.1025 15.7177 22.1025 16.2823 21.9872 16.829L22.9032 17.634L21.9032 19.366L20.7472 18.975C20.3372 19.345 19.8492 19.63 19.3122 19.805L19.0732 21H17.0732L16.8332 19.804C16.3025 19.6306 15.814 19.3478 15.3992 18.974L14.2432 19.366L13.2432 17.634L14.1592 16.829C14.0439 16.2823 14.0439 15.7177 14.1592 15.171L13.2432 14.366L14.2432 12.634L15.3992 13.025C15.8092 12.655 16.2972 12.37 16.8342 12.195L17.0732 11H19.0732L19.3132 12.196C19.8492 12.37 20.3372 12.656 20.7472 13.026V13.025ZM18.0732 18C18.6037 18 19.1124 17.7893 19.4875 17.4142C19.8625 17.0391 20.0732 16.5304 20.0732 16C20.0732 15.4696 19.8625 14.9609 19.4875 14.5858C19.1124 14.2107 18.6037 14 18.0732 14C17.5428 14 17.0341 14.2107 16.659 14.5858C16.284 14.9609 16.0732 15.4696 16.0732 16C16.0732 16.5304 16.284 17.0391 16.659 17.4142C17.0341 17.7893 17.5428 18 18.0732 18Z" fill="#262626"/>
</g>
<defs>
<clipPath id="clip0_1292_16557">
<rect width="24" height="24" fill="white" transform="translate(0.0732422)"/>
</clipPath>
</defs>
</svg>
