<svg width="24" height="24" viewBox="0 0 24 24" fill="none" xmlns="http://www.w3.org/2000/svg">
<g clip-path="url(#clip0_1067_24583)">
<mask id="mask0_1067_24583" style="mask-type:alpha" maskUnits="userSpaceOnUse" x="0" y="0" width="24" height="24">
<rect width="24" height="24" fill="#D9D9D9"/>
</mask>
<g mask="url(#mask0_1067_24583)">
<path d="M9 19V17H21V19H9ZM9 13V11H21V13H9ZM9 7V5H21V7H9ZM5 20C4.45 20 3.97917 19.8042 3.5875 19.4125C3.19583 19.0208 3 18.55 3 18C3 17.45 3.19583 16.9792 3.5875 16.5875C3.97917 16.1958 4.45 16 5 16C5.55 16 6.02083 16.1958 6.4125 16.5875C6.80417 16.9792 7 17.45 7 18C7 18.55 6.80417 19.0208 6.4125 19.4125C6.02083 19.8042 5.55 20 5 20ZM5 14C4.45 14 3.97917 13.8042 3.5875 13.4125C3.19583 13.0208 3 12.55 3 12C3 11.45 3.19583 10.9792 3.5875 10.5875C3.97917 10.1958 4.45 10 5 10C5.55 10 6.02083 10.1958 6.4125 10.5875C6.80417 10.9792 7 11.45 7 12C7 12.55 6.80417 13.0208 6.4125 13.4125C6.02083 13.8042 5.55 14 5 14ZM5 8C4.45 8 3.97917 7.80417 3.5875 7.4125C3.19583 7.02083 3 6.55 3 6C3 5.45 3.19583 4.97917 3.5875 4.5875C3.97917 4.19583 4.45 4 5 4C5.55 4 6.02083 4.19583 6.4125 4.5875C6.80417 4.97917 7 5.45 7 6C7 6.55 6.80417 7.02083 6.4125 7.4125C6.02083 7.80417 5.55 8 5 8Z" fill="#1C1B1F"/>
</g>
</g>
<defs>
<clipPath id="clip0_1067_24583">
<rect width="24" height="24" fill="white"/>
</clipPath>
</defs>
</svg>
