<svg width="24" height="24" viewBox="0 0 24 24" fill="none" xmlns="http://www.w3.org/2000/svg">
<path d="M8.30326 4.60762H20.3157V6.45568H8.30326V4.60762ZM5.06915 6.91769C4.70155 6.91769 4.349 6.77166 4.08907 6.51173C3.82914 6.2518 3.68311 5.89925 3.68311 5.53165C3.68311 5.16404 3.82914 4.8115 4.08907 4.55156C4.349 4.29163 4.70155 4.1456 5.06915 4.1456C5.43676 4.1456 5.7893 4.29163 6.04924 4.55156C6.30917 4.8115 6.4552 5.16404 6.4552 5.53165C6.4552 5.89925 6.30917 6.2518 6.04924 6.51173C5.7893 6.77166 5.43676 6.91769 5.06915 6.91769ZM5.06915 13.3859C4.70155 13.3859 4.349 13.2399 4.08907 12.98C3.82914 12.72 3.68311 12.3675 3.68311 11.9999C3.68311 11.6323 3.82914 11.2797 4.08907 11.0198C4.349 10.7598 4.70155 10.6138 5.06915 10.6138C5.43676 10.6138 5.7893 10.7598 6.04924 11.0198C6.30917 11.2797 6.4552 11.6323 6.4552 11.9999C6.4552 12.3675 6.30917 12.72 6.04924 12.98C5.7893 13.2399 5.43676 13.3859 5.06915 13.3859ZM5.06915 19.7617C4.70155 19.7617 4.349 19.6157 4.08907 19.3558C3.82914 19.0958 3.68311 18.7433 3.68311 18.3757C3.68311 18.0081 3.82914 17.6555 4.08907 17.3956C4.349 17.1357 4.70155 16.9896 5.06915 16.9896C5.43676 16.9896 5.7893 17.1357 6.04924 17.3956C6.30917 17.6555 6.4552 18.0081 6.4552 18.3757C6.4552 18.7433 6.30917 19.0958 6.04924 19.3558C5.7893 19.6157 5.43676 19.7617 5.06915 19.7617ZM8.30326 11.0758H20.3157V12.9239H8.30326V11.0758ZM8.30326 17.5441H20.3157V19.3921H8.30326V17.5441Z" fill="#373D40"/>
</svg>
