<svg width="25" height="24" viewBox="0 0 25 24" fill="none" xmlns="http://www.w3.org/2000/svg">
<g clip-path="url(#clip0_1292_16557)">
<path d="M2.5 18H9.5V20H2.5V18ZM2.5 11H11.5V13H2.5V11ZM2.5 4H22.5V6H2.5V4ZM21.174 13.025L22.33 12.634L23.33 14.366L22.414 15.171C22.5293 15.7177 22.5293 16.2823 22.414 16.829L23.33 17.634L22.33 19.366L21.174 18.975C20.764 19.345 20.276 19.63 19.739 19.805L19.5 21H17.5L17.26 19.804C16.7293 19.6306 16.2408 19.3478 15.826 18.974L14.67 19.366L13.67 17.634L14.586 16.829C14.4707 16.2823 14.4707 15.7177 14.586 15.171L13.67 14.366L14.67 12.634L15.826 13.025C16.236 12.655 16.724 12.37 17.261 12.195L17.5 11H19.5L19.74 12.196C20.276 12.37 20.764 12.656 21.174 13.026V13.025ZM18.5 18C19.0304 18 19.5391 17.7893 19.9142 17.4142C20.2893 17.0391 20.5 16.5304 20.5 16C20.5 15.4696 20.2893 14.9609 19.9142 14.5858C19.5391 14.2107 19.0304 14 18.5 14C17.9696 14 17.4609 14.2107 17.0858 14.5858C16.7107 14.9609 16.5 15.4696 16.5 16C16.5 16.5304 16.7107 17.0391 17.0858 17.4142C17.4609 17.7893 17.9696 18 18.5 18V18Z" fill="#373D40"/>
</g>
<defs>
<clipPath id="clip0_1292_16557">
<rect width="24" height="24" fill="white" transform="translate(0.5)"/>
</clipPath>
</defs>
</svg>
