<svg width="25" height="25" viewBox="0 0 25 25" fill="none" xmlns="http://www.w3.org/2000/svg">
<g clip-path="url(#clip0_1287_16497)">
<path d="M13.2871 11.4218V6.4218H11.2871V13.4218H17.2871V11.4218H13.2871ZM18.6511 17.7858L12.2871 24.1498L5.92311 17.7858C4.66445 16.5271 3.8073 14.9235 3.46004 13.1776C3.11278 11.4318 3.29102 9.62223 3.97221 7.9777C4.6534 6.33317 5.80695 4.92757 7.28699 3.93864C8.76703 2.94971 10.5071 2.42188 12.2871 2.42188C14.0671 2.42187 15.8072 2.94971 17.2872 3.93864C18.7673 4.92757 19.9208 6.33317 20.602 7.9777C21.2832 9.62223 21.4614 11.4318 21.1142 13.1776C20.7669 14.9235 19.9098 16.5271 18.6511 17.7858V17.7858Z" fill="#373D40"/>
</g>
<defs>
<clipPath id="clip0_1287_16497">
<rect width="24" height="24" fill="white" transform="translate(0.287109 0.421753)"/>
</clipPath>
</defs>
</svg>
