<svg width="25" height="25" viewBox="0 0 25 25" fill="none" xmlns="http://www.w3.org/2000/svg">
<g clip-path="url(#clip0_1287_16498)">
<path d="M17.8758 16.3718C18.8547 15.3928 19.5213 14.1455 19.7913 12.7877C20.0614 11.4298 19.9227 10.0224 19.3929 8.74335C18.863 7.46431 17.9658 6.3711 16.8147 5.60197C15.6636 4.83283 14.3102 4.4223 12.9258 4.4223C11.5413 4.4223 10.188 4.83283 9.03687 5.60197C7.88574 6.3711 6.98853 7.46431 6.4587 8.74335C5.92886 10.0224 5.7902 11.4298 6.06024 12.7877C6.33027 14.1455 6.99689 15.3928 7.97579 16.3718L12.9258 21.3218L17.8758 16.3718ZM12.9258 24.1498L6.56179 17.7858C5.30312 16.5271 4.44597 14.9235 4.09871 13.1776C3.75145 11.4318 3.92969 9.62223 4.61088 7.9777C5.29207 6.33317 6.44562 4.92757 7.92566 3.93864C9.4057 2.94971 11.1458 2.42188 12.9258 2.42188C14.7058 2.42187 16.4459 2.94971 17.9259 3.93864C19.4059 4.92757 20.5595 6.33317 21.2407 7.9777C21.9219 9.62223 22.1001 11.4318 21.7529 13.1776C21.4056 14.9235 20.5484 16.5271 19.2898 17.7858L12.9258 24.1498ZM13.9258 11.4218H17.9258V13.4218H11.9258V6.4218H13.9258V11.4218Z" fill="#373D40"/>
</g>
<defs>
<clipPath id="clip0_1287_16498">
<rect width="24" height="24" fill="white" transform="translate(0.925781 0.421753)"/>
</clipPath>
</defs>
</svg>
