<svg width="24" height="24" viewBox="0 0 24 24" fill="none" xmlns="http://www.w3.org/2000/svg">
<g clip-path="url(#clip0_1836_29099)">
<path d="M18.6331 9.58073H19.5807C19.832 9.58073 20.0731 9.68056 20.2508 9.85827C20.4285 10.036 20.5283 10.277 20.5283 10.5283V20.0042C20.5283 20.2555 20.4285 20.4966 20.2508 20.6743C20.0731 20.852 19.832 20.9518 19.5807 20.9518H4.41927C4.16795 20.9518 3.92693 20.852 3.74922 20.6743C3.57151 20.4966 3.47168 20.2555 3.47168 20.0042V10.5283C3.47168 10.277 3.57151 10.036 3.74922 9.85827C3.92693 9.68056 4.16795 9.58073 4.41927 9.58073H5.36686V8.63314C5.36686 7.76206 5.53843 6.89952 5.87178 6.09475C6.20513 5.28998 6.69372 4.55874 7.30966 3.9428C7.92561 3.32686 8.65684 2.83826 9.46161 2.50492C10.2664 2.17157 11.1289 2 12 2C12.8711 2 13.7336 2.17157 14.5384 2.50492C15.3432 2.83826 16.0744 3.32686 16.6903 3.9428C17.3063 4.55874 17.7949 5.28998 18.1282 6.09475C18.4616 6.89952 18.6331 7.76206 18.6331 8.63314V9.58073ZM16.738 9.58073V8.63314C16.738 7.37655 16.2388 6.17144 15.3502 5.2829C14.4617 4.39436 13.2566 3.89518 12 3.89518C10.7434 3.89518 9.5383 4.39436 8.64976 5.2829C7.76122 6.17144 7.26204 7.37655 7.26204 8.63314V9.58073H16.738ZM11.0524 13.3711V17.1615H12.9476V13.3711H11.0524Z" fill="#262626"/>
</g>
<defs>
<clipPath id="clip0_1836_29099">
<rect width="24" height="24" fill="white"/>
</clipPath>
</defs>
</svg>
