<svg width="25" height="25" viewBox="0 0 25 25" fill="none" xmlns="http://www.w3.org/2000/svg">
<g clip-path="url(#clip0_1287_16499)">
<path d="M2.743 6.89562L11.99 1.35162C12.1454 1.25837 12.3233 1.20911 12.5045 1.20911C12.6857 1.20911 12.8636 1.25837 13.019 1.35162L22.257 6.89662C22.3311 6.94103 22.3925 7.0039 22.4351 7.07908C22.4776 7.15427 22.5 7.23921 22.5 7.32562V20.0416C22.5 20.3068 22.3946 20.5612 22.2071 20.7487C22.0196 20.9363 21.7652 21.0416 21.5 21.0416H3.5C3.23478 21.0416 2.98043 20.9363 2.79289 20.7487C2.60536 20.5612 2.5 20.3068 2.5 20.0416V7.32462C2.49998 7.23821 2.52236 7.15327 2.56495 7.07808C2.60753 7.0029 2.66888 6.94003 2.743 6.89562ZM4.5 8.17462V19.0416H20.5V8.17362L12.504 3.37362L4.5 8.17362V8.17462ZM12.56 13.7396L17.856 9.27662L19.144 10.8066L12.574 16.3436L5.864 10.8136L7.136 9.26962L12.56 13.7396V13.7396Z" fill="#373D40"/>
</g>
<defs>
<clipPath id="clip0_1287_16499">
<rect width="24" height="24" fill="white" transform="translate(0.5 0.041626)"/>
</clipPath>
</defs>
</svg>
