<svg width="25" height="25" viewBox="0 0 25 25" fill="none" xmlns="http://www.w3.org/2000/svg">
<g clip-path="url(#clip0_1287_16501)">
<path d="M16.6 3.80188C16.4659 4.46181 16.4659 5.14195 16.6 5.80188H5.011L12.561 12.4639L17.61 7.94388C18.036 8.47088 18.568 8.90988 19.173 9.22888L12.572 15.1399L4.5 8.01788V19.8019H20.5V9.70188C21.1599 9.83594 21.8401 9.83594 22.5 9.70188V20.8019C22.5 21.0671 22.3946 21.3215 22.2071 21.509C22.0196 21.6965 21.7652 21.8019 21.5 21.8019H3.5C3.23478 21.8019 2.98043 21.6965 2.79289 21.509C2.60536 21.3215 2.5 21.0671 2.5 20.8019V4.80188C2.5 4.53666 2.60536 4.28231 2.79289 4.09477C2.98043 3.90724 3.23478 3.80188 3.5 3.80188H16.6ZM21.5 7.80188C21.106 7.80188 20.7159 7.72428 20.3519 7.57352C19.988 7.42275 19.6573 7.20178 19.3787 6.9232C19.1001 6.64462 18.8791 6.31391 18.7284 5.94993C18.5776 5.58595 18.5 5.19585 18.5 4.80188C18.5 4.40791 18.5776 4.01781 18.7284 3.65383C18.8791 3.28985 19.1001 2.95914 19.3787 2.68056C19.6573 2.40198 19.988 2.18101 20.3519 2.03024C20.7159 1.87948 21.106 1.80188 21.5 1.80188C22.2956 1.80188 23.0587 2.11795 23.6213 2.68056C24.1839 3.24317 24.5 4.00623 24.5 4.80188C24.5 5.59753 24.1839 6.36059 23.6213 6.9232C23.0587 7.48581 22.2956 7.80188 21.5 7.80188Z" fill="#373D40"/>
</g>
<defs>
<clipPath id="clip0_1287_16501">
<rect width="24" height="24" fill="white" transform="translate(0.5 0.80188)"/>
</clipPath>
</defs>
</svg>
