<svg width="24" height="24" viewBox="0 0 24 24" fill="none" xmlns="http://www.w3.org/2000/svg">
<g clip-path="url(#clip0_1287_16501)">
<mask id="mask0_1287_16501" style="mask-type:alpha" maskUnits="userSpaceOnUse" x="0" y="0" width="25" height="25">
<rect x="0.5" y="0.041626" width="24" height="24" fill="#D9D9D9"/>
</mask>
<g mask="url(#mask0_1287_16501)">
<path d="M4.5 20.0416C3.95 20.0416 3.47917 19.8458 3.0875 19.4541C2.69583 19.0625 2.5 18.5916 2.5 18.0416V6.04163C2.5 5.49163 2.69583 5.02079 3.0875 4.62913C3.47917 4.23746 3.95 4.04163 4.5 4.04163H14.6C14.5333 4.37496 14.5 4.70829 14.5 5.04163C14.5 5.37496 14.5333 5.70829 14.6 6.04163H4.5L12.5 11.0416L16.15 8.76663C16.3833 8.98329 16.6375 9.17079 16.9125 9.32913C17.1875 9.48746 17.475 9.62496 17.775 9.74163L12.5 13.0416L4.5 8.04163V18.0416H20.5V9.94163C20.8833 9.85829 21.2417 9.74163 21.575 9.59163C21.9083 9.44163 22.2167 9.25829 22.5 9.04163V18.0416C22.5 18.5916 22.3042 19.0625 21.9125 19.4541C21.5208 19.8458 21.05 20.0416 20.5 20.0416H4.5ZM19.5 8.04163C18.6667 8.04163 17.9583 7.74996 17.375 7.16663C16.7917 6.58329 16.5 5.87496 16.5 5.04163C16.5 4.20829 16.7917 3.49996 17.375 2.91663C17.9583 2.33329 18.6667 2.04163 19.5 2.04163C20.3333 2.04163 21.0417 2.33329 21.625 2.91663C22.2083 3.49996 22.5 4.20829 22.5 5.04163C22.5 5.87496 22.2083 6.58329 21.625 7.16663C21.0417 7.74996 20.3333 8.04163 19.5 8.04163Z" fill="#1C1B1F"/>
</g>
</g>
<defs>
<clipPath id="clip0_1287_16501">
<rect width="24" height="24" fill="white"/>
</clipPath>
</defs>
</svg>
