<svg width="25" height="24" viewBox="0 0 25 24" fill="none" xmlns="http://www.w3.org/2000/svg">
<g clip-path="url(#clip0_1241_16528)">
<mask id="mask0_1241_16528" style="mask-type:alpha" maskUnits="userSpaceOnUse" x="0" y="0" width="24" height="24">
<rect width="24" height="24" fill="#D9D9D9"/>
</mask>
<g mask="url(#mask0_1241_16528)">
<path d="M15.675 11H19V7H15.675V11ZM10.325 11H13.65V7H10.325V11ZM5 11H8.325V7H5V11ZM5 17H8.325V13H5V17ZM10.325 17H13.65V13H10.325V17ZM15.675 17H19V13H15.675V17ZM3 17V7C3 6.45 3.19583 5.97917 3.5875 5.5875C3.97917 5.19583 4.45 5 5 5H19C19.55 5 20.0208 5.19583 20.4125 5.5875C20.8042 5.97917 21 6.45 21 7V17C21 17.55 20.8042 18.0208 20.4125 18.4125C20.0208 18.8042 19.55 19 19 19H5C4.45 19 3.97917 18.8042 3.5875 18.4125C3.19583 18.0208 3 17.55 3 17Z" fill="#1C1B1F"/>
</g>
</g>
<defs>
<clipPath id="clip0_1241_16528">
<rect width="24" height="24" fill="white" transform="translate(0.426758)"/>
</clipPath>
</defs>
</svg>
