<svg width="25" height="25" viewBox="0 0 25 25" fill="none" xmlns="http://www.w3.org/2000/svg">
<g clip-path="url(#clip0_1241_16528)">
<path d="M21.8604 3.80908C22.1256 3.80908 22.3799 3.91444 22.5675 4.10198C22.755 4.28951 22.8604 4.54387 22.8604 4.80908V20.8091C22.8604 21.0743 22.755 21.3287 22.5675 21.5162C22.3799 21.7037 22.1256 21.8091 21.8604 21.8091H3.86035C3.59514 21.8091 3.34078 21.7037 3.15324 21.5162C2.96571 21.3287 2.86035 21.0743 2.86035 20.8091V4.80908C2.86035 4.54387 2.96571 4.28951 3.15324 4.10198C3.34078 3.91444 3.59514 3.80908 3.86035 3.80908H21.8604ZM11.8604 13.8091H4.86035V19.8091H11.8604V13.8091ZM20.8604 13.8091H13.8604V19.8091H20.8604V13.8091ZM11.8604 5.80908H4.86035V11.8091H11.8604V5.80908ZM20.8604 5.80908H13.8604V11.8091H20.8604V5.80908Z" fill="#373D40"/>
</g>
<defs>
<clipPath id="clip0_1241_16528">
<rect width="24" height="24" fill="white" transform="translate(0.860352 0.809082)"/>
</clipPath>
</defs>
</svg>
