<svg width="24" height="24" viewBox="0 0 24 24" fill="none" xmlns="http://www.w3.org/2000/svg">
<path d="M17.9917 8.7136L18.2046 8.22518C18.5841 7.35429 19.2675 6.6609 20.1204 6.28157L20.7763 5.98985C21.131 5.83211 21.131 5.31603 20.7763 5.15829L20.1571 4.88287C19.2823 4.49378 18.5866 3.77473 18.2136 2.87426L17.9949 2.34645C17.8426 1.97859 17.3346 1.97859 17.1822 2.34645L16.9636 2.87426C16.5907 3.77473 15.8949 4.49378 15.0201 4.88287L14.4008 5.15829C14.0462 5.31603 14.0462 5.83211 14.4008 5.98985L15.0568 6.28157C15.9097 6.6609 16.5932 7.35429 16.9726 8.22518L17.1855 8.7136C17.3413 9.07118 17.8359 9.07118 17.9917 8.7136ZM12.7421 6.68023C12.9788 7.05474 13.3023 7.33148 13.7128 7.51044L14.2009 7.72325C14.529 7.86632 14.7948 8.06728 14.9981 8.32613V10.7049C14.9981 13.0891 13.0653 15.022 10.681 15.022C8.29666 15.022 6.36381 13.0891 6.36381 10.7049V7.25114C6.36381 4.86684 8.29666 2.93399 10.681 2.93399C11.6515 2.93399 12.5473 3.25427 13.2683 3.7949C13.061 3.95005 12.8856 4.14117 12.7421 4.36826C12.5194 4.72075 12.408 5.10608 12.408 5.52425C12.408 5.94242 12.5194 6.32775 12.7421 6.68023ZM2.95752 11.5683H4.69816C5.11712 14.4973 7.6361 16.7489 10.681 16.7489C13.7258 16.7489 16.2448 14.4973 16.6638 11.5683H18.4044C18.0062 15.1702 15.1463 18.0301 11.5444 18.4283V21.9294H9.81756V18.4283C6.21563 18.0301 3.35569 15.1702 2.95752 11.5683Z" fill="black"/>
</svg>
