<svg width="24" height="24" viewBox="0 0 24 24" fill="none" xmlns="http://www.w3.org/2000/svg">
<path d="M17.9466 8.73846L18.1579 8.25373C18.5345 7.38944 19.2128 6.70131 20.0592 6.32485L20.7101 6.03535C21.0621 5.8788 21.0621 5.36662 20.7101 5.21008L20.0956 4.93675C19.2274 4.55061 18.537 3.83701 18.1668 2.94337L17.9498 2.41956C17.7987 2.05448 17.2945 2.05448 17.1432 2.41956L16.9263 2.94337C16.5562 3.83701 15.8657 4.55061 14.9975 4.93675L14.383 5.21008C14.031 5.36662 14.031 5.8788 14.383 6.03535L15.0339 6.32485C15.8804 6.70131 16.5587 7.38944 16.9353 8.25373L17.1465 8.73846C17.3012 9.09332 17.792 9.09332 17.9466 8.73846ZM3.02637 11.5715H4.75382C5.1696 14.4783 7.66949 16.7128 10.6913 16.7128C13.713 16.7128 16.2129 14.4783 16.6288 11.5715H18.3562C17.9611 15.1461 15.1228 17.9844 11.5482 18.3796V21.8541H9.83442V18.3796C6.25979 17.9844 3.42152 15.1461 3.02637 11.5715ZM10.6915 3.00264C8.32526 3.00264 6.40705 4.92085 6.40705 7.28707V10.7146C6.40705 13.0808 8.32526 14.999 10.6915 14.999C13.0577 14.999 14.9759 13.0808 14.9759 10.7146V8.14396H13.2621V10.7146C13.2621 12.1344 12.1113 13.2853 10.6915 13.2853C9.27171 13.2853 8.12082 12.1344 8.12082 10.7146V7.28707C8.12082 5.86734 9.27171 4.71641 10.6915 4.71641C11.2032 4.71641 11.6777 4.86507 12.0771 5.12127L13.0024 3.67881C12.3352 3.25077 11.541 3.00264 10.6915 3.00264Z" fill="black"/>
</svg>
