<svg width="24" height="24" viewBox="0 0 24 24" fill="none" xmlns="http://www.w3.org/2000/svg">
<path d="M18.8026 8.27645L19.0005 7.82258C19.3531 7.01331 19.9882 6.36898 20.7808 6.01648L21.3903 5.7454C21.7199 5.59882 21.7199 5.11925 21.3903 4.97267L20.8149 4.71674C20.002 4.35518 19.3554 3.687 19.0088 2.85024L18.8057 2.35977C18.6641 2.01794 18.192 2.01794 18.0504 2.35977L17.8473 2.85024C17.5007 3.687 16.8542 4.35518 16.0413 4.71674L15.4658 4.97267C15.1363 5.11925 15.1363 5.59882 15.4658 5.7454L16.0754 6.01648C16.8679 6.36898 17.5031 7.01331 17.8557 7.82258L18.0535 8.27645C18.1983 8.60872 18.6579 8.60872 18.8026 8.27645ZM4.98901 11.8255C4.87515 11.3533 5.25682 10.9292 5.7426 10.9292C6.14831 10.9292 6.48602 11.2299 6.59371 11.6211C7.24798 13.9976 9.42471 15.7432 12.0092 15.7432C14.5936 15.7432 16.7703 13.9976 17.4246 11.621C17.5323 11.2299 17.87 10.9292 18.2757 10.9292C18.7615 10.9292 19.1431 11.3533 19.0293 11.8255C18.3263 14.7414 15.8537 16.9675 12.8115 17.3039V20.5573H14.7048C15.0746 20.5573 15.3745 20.8571 15.3745 21.227C15.3745 21.5968 15.0746 21.8967 14.7048 21.8967H9.47934C9.10948 21.8967 8.80965 21.5968 8.80965 21.227C8.80965 20.8571 9.10948 20.5573 9.47934 20.5573H11.2068V17.3039C8.16466 16.9675 5.69208 14.7414 4.98901 11.8255Z" fill="#373D40"/>
<path d="M8.01915 6.98771C8.01915 4.81051 9.78413 3.04553 11.9613 3.04553C12.743 3.04553 13.4737 3.27384 14.0877 3.66769L13.2362 4.99492C12.8687 4.75919 12.4322 4.6224 11.9613 4.6224C10.655 4.6224 9.59602 5.68139 9.59602 6.98771V10.1414C9.59602 11.4478 10.655 12.5068 11.9613 12.5068C13.2677 12.5068 14.3266 11.4478 14.3266 10.1414V7.77614H15.9035V10.1414C15.9035 12.3186 14.1385 14.0836 11.9613 14.0836C9.78413 14.0836 8.01915 12.3186 8.01915 10.1414V6.98771Z" fill="#373D40"/>
</svg>
