<svg width="24" height="24" viewBox="0 0 24 24" fill="none" xmlns="http://www.w3.org/2000/svg">
<path d="M18.8222 8.26738L19.0204 7.81269C19.3736 7.00197 20.0099 6.35648 20.8039 6.00336L21.4144 5.73179C21.7446 5.58495 21.7446 5.10451 21.4144 4.95767L20.838 4.70128C20.0236 4.33907 19.376 3.6697 19.0287 2.83143L18.8252 2.34009C18.6834 1.99764 18.2105 1.99764 18.0686 2.34009L17.8651 2.83143C17.5179 3.6697 16.8703 4.33907 16.0559 4.70128L15.4794 4.95767C15.1493 5.10451 15.1493 5.58495 15.4794 5.73179L16.09 6.00336C16.884 6.35648 17.5203 7.00197 17.8735 7.81269L18.0717 8.26738C18.2167 8.60025 18.6772 8.60025 18.8222 8.26738ZM13.9352 6.37447C14.1556 6.72311 14.4567 6.98073 14.8389 7.14733L15.2932 7.34544C15.5988 7.47863 15.8462 7.66571 16.0354 7.90667V10.1211C16.0354 12.3406 14.2361 14.14 12.0165 14.14C9.79692 14.14 7.9976 12.3406 7.9976 10.1211V6.90594C7.9976 4.68636 9.79692 2.88703 12.0165 2.88703C12.92 2.88703 13.7539 3.18519 14.4251 3.68848C14.2322 3.83291 14.0688 4.01082 13.9352 4.22223C13.728 4.55036 13.6243 4.90907 13.6243 5.29835C13.6243 5.68763 13.728 6.04634 13.9352 6.37447ZM4.97887 11.8024C4.8688 11.3399 5.24223 10.9248 5.71762 10.9248H5.7551C6.15214 10.9248 6.48277 11.2191 6.58703 11.6022C7.23717 13.991 9.42172 15.7475 12.0165 15.7475C14.6113 15.7475 16.7958 13.991 17.446 11.6022C17.5503 11.2191 17.8809 10.9248 18.2779 10.9248H18.3154C18.7908 10.9248 19.1642 11.3399 19.0541 11.8024C18.3565 14.7335 15.875 16.9733 12.8203 17.311V20.5702H14.7169C15.0875 20.5702 15.3878 20.8706 15.3878 21.2411C15.3878 21.6117 15.0875 21.912 14.7169 21.912H9.48216C9.11163 21.912 8.81126 21.6117 8.81126 21.2411C8.81126 20.8706 9.11163 20.5702 9.48216 20.5702H11.2128V17.311C8.15801 16.9733 5.67654 14.7335 4.97887 11.8024Z" fill="#373D40"/>
</svg>
