<svg width="24" height="24" viewBox="0 0 24 24" fill="none" xmlns="http://www.w3.org/2000/svg">
<g clip-path="url(#clip0_1773_38672)">
<path d="M13.196 2.268L16.446 7.898C16.722 8.375 16.558 8.987 16.08 9.263L14.78 10.013L15.781 11.745L14.049 12.745L13.049 11.012L11.75 11.763C11.272 12.039 10.66 11.875 10.384 11.397L8.546 8.215C6.494 8.837 5 10.745 5 13C5 13.625 5.115 14.224 5.324 14.776C6.1 14.284 7.016 14 8 14C9.684 14 11.174 14.833 12.08 16.109L19.768 11.67L20.768 13.402L12.89 17.951C12.962 18.289 13 18.641 13 19C13 19.343 12.966 19.677 12.9 20H21V22L4 22.001C3.372 21.165 3 20.126 3 19C3 17.993 3.298 17.055 3.81 16.27C3.293 15.295 3 14.182 3 13C3 10.005 4.881 7.449 7.527 6.45L7.134 5.768C6.582 4.811 6.909 3.588 7.866 3.036L10.464 1.536C11.421 0.983998 12.644 1.311 13.196 2.268V2.268ZM8 16C6.343 16 5 17.343 5 19C5 19.35 5.06 19.687 5.17 20H10.83C10.94 19.687 11 19.35 11 19C11 17.343 9.657 16 8 16ZM11.464 3.268L8.866 4.768L11.616 9.531L14.214 8.031L11.464 3.268V3.268Z" fill="#373D40"/>
</g>
<defs>
<clipPath id="clip0_1773_38672">
<rect width="24" height="24" fill="white"/>
</clipPath>
</defs>
</svg>
