<svg width="24" height="24" viewBox="0 0 24 24" fill="none" xmlns="http://www.w3.org/2000/svg">
<g clip-path="url(#clip0_1287_16408)">
<mask id="mask0_1287_16408" style="mask-type:alpha" maskUnits="userSpaceOnUse" x="0" y="-1" width="25" height="25">
<rect x="0.426758" y="-0.376953" width="24" height="24" fill="#D9D9D9"/>
</mask>
<g mask="url(#mask0_1287_16408)">
<path d="M12.4268 13.623C11.5934 13.623 10.8851 13.3314 10.3018 12.748C9.71842 12.1647 9.42676 11.4564 9.42676 10.623V4.62305C9.42676 3.78971 9.71842 3.08138 10.3018 2.49805C10.8851 1.91471 11.5934 1.62305 12.4268 1.62305C13.2601 1.62305 13.9684 1.91471 14.5518 2.49805C15.1351 3.08138 15.4268 3.78971 15.4268 4.62305V10.623C15.4268 11.4564 15.1351 12.1647 14.5518 12.748C13.9684 13.3314 13.2601 13.623 12.4268 13.623ZM11.4268 20.623V17.548C9.69342 17.3147 8.26009 16.5397 7.12676 15.223C5.99342 13.9064 5.42676 12.373 5.42676 10.623H7.42676C7.42676 12.0064 7.91426 13.1855 8.88926 14.1605C9.86426 15.1355 11.0434 15.623 12.4268 15.623C13.8101 15.623 14.9893 15.1355 15.9643 14.1605C16.9393 13.1855 17.4268 12.0064 17.4268 10.623H19.4268C19.4268 12.373 18.8601 13.9064 17.7268 15.223C16.5934 16.5397 15.1601 17.3147 13.4268 17.548V20.623H11.4268ZM12.4268 11.623C12.7101 11.623 12.9476 11.5272 13.1393 11.3355C13.3309 11.1439 13.4268 10.9064 13.4268 10.623V4.62305C13.4268 4.33971 13.3309 4.10221 13.1393 3.91055C12.9476 3.71888 12.7101 3.62305 12.4268 3.62305C12.1434 3.62305 11.9059 3.71888 11.7143 3.91055C11.5226 4.10221 11.4268 4.33971 11.4268 4.62305V10.623C11.4268 10.9064 11.5226 11.1439 11.7143 11.3355C11.9059 11.5272 12.1434 11.623 12.4268 11.623Z" fill="#1C1B1F"/>
</g>
</g>
<defs>
<clipPath id="clip0_1287_16408">
<rect width="24" height="24" fill="white"/>
</clipPath>
</defs>
</svg>
