<svg width="24" height="24" viewBox="0 0 24 24" fill="none" xmlns="http://www.w3.org/2000/svg">
<path d="M10.8143 7.78988V7.28865C10.8958 6.66273 11.4258 6.18405 12.0674 6.18405C12.709 6.18405 13.239 6.66273 13.3199 7.28176L13.3205 7.28802V7.78926H15.9871V5.46353C15.7364 3.50182 14.0774 2 12.0674 2C10.0575 2 8.39837 3.5012 8.14963 5.44348L8.14775 5.4629V7.78863L10.8143 7.78988ZM8.14775 8.95275V11.2584C8.39837 13.2201 10.0575 14.722 12.0674 14.722C14.0774 14.722 15.7364 13.2208 15.9852 11.2785L15.9871 11.2591V8.95337L8.14775 8.95275ZM18.3529 6.96786C18.3404 6.96723 18.3259 6.96661 18.3115 6.96661C17.9156 6.96661 17.5923 7.27674 17.571 7.66771V7.66959V11.3787C17.2696 14.1769 14.9207 16.3359 12.0674 16.3359C9.21413 16.3359 6.86522 14.1762 6.56573 11.4032L6.56385 11.3787V7.66959C6.56385 7.2379 6.21361 6.88766 5.78193 6.88766C5.35024 6.88766 5 7.2379 5 7.66959V11.3988C5.19611 14.7746 7.89588 17.4599 11.2592 17.6335L11.2755 17.6341V20.6215H7.90716C7.51933 20.6215 7.20543 20.9354 7.20543 21.3232C7.20543 21.711 7.51933 22.0249 7.90716 22.0249H16.2276C16.6155 22.0249 16.9294 21.711 16.9294 21.3232C16.9294 20.9354 16.6155 20.6215 16.2276 20.6215H12.8594V17.6341C16.2389 17.4599 18.9387 14.7746 19.1342 11.4163L19.1348 11.3988V7.66959C19.1135 7.27675 18.7902 6.96661 18.3942 6.96661C18.3798 6.96661 18.3654 6.96723 18.351 6.96786H18.3529V6.96786Z" fill="black"/>
</svg>
