<svg width="24" height="24" viewBox="0 0 24 24" fill="none" xmlns="http://www.w3.org/2000/svg">
<path d="M18.3529 6.96783C18.3404 6.96721 18.3259 6.96658 18.3115 6.96658C17.9156 6.96658 17.5923 7.27672 17.571 7.66768V7.66956V11.3787C17.2696 14.1768 14.9207 16.3359 12.0674 16.3359C9.21413 16.3359 6.86522 14.1762 6.56573 11.4031L6.56385 11.3787V7.66956C6.56385 7.23787 6.21361 6.88763 5.78193 6.88763C5.35024 6.88763 5 7.23787 5 7.66956V11.3987C5.19611 14.7746 7.89588 17.4599 11.2592 17.6335L11.2755 17.6341V20.6215H7.90716C7.51933 20.6215 7.20543 20.9354 7.20543 21.3232C7.20543 21.711 7.51933 22.0249 7.90716 22.0249H16.2276C16.6155 22.0249 16.9294 21.711 16.9294 21.3232C16.9294 20.9354 16.6155 20.6215 16.2276 20.6215H12.8594V17.6341C16.2389 17.4599 18.9387 14.7746 19.1342 11.4163L19.1348 11.3987V7.66956C19.1135 7.27672 18.7902 6.96658 18.3942 6.96658C18.3798 6.96658 18.3654 6.96721 18.351 6.96783H18.3529Z" fill="#373D40"/>
<path fill-rule="evenodd" clip-rule="evenodd" d="M11.7654 1.7561C9.72198 1.7561 8.06543 3.41265 8.06543 5.4561V10.7563C8.06543 12.7998 9.72198 14.4563 11.7654 14.4563H12.2341C14.2775 14.4563 15.9341 12.7998 15.9341 10.7563V5.4561C15.9341 3.41265 14.2775 1.7561 12.2341 1.7561H11.7654ZM11.6797 3.36255C10.5751 3.36255 9.67969 4.25798 9.67969 5.36255V10.8606C9.67969 11.9652 10.5751 12.8606 11.6797 12.8606H12.3604C13.4649 12.8606 14.3604 11.9652 14.3604 10.8606V5.36255C14.3604 4.25798 13.4649 3.36255 12.3604 3.36255H11.6797Z" fill="#373D40"/>
</svg>
