<svg width="24" height="24" viewBox="0 0 24 24" fill="none" xmlns="http://www.w3.org/2000/svg">
<path d="M12.381 3L9.50054 5.58749V3.79395H6.09525V8.64579L2.95239 11.4683H5.57118L12.381 5.38185L19.1908 11.4683H21.8095L12.381 3ZM15.0288 9.35161C14.7458 9.35161 14.4744 9.46521 14.2743 9.66741C14.0742 9.8696 13.9618 10.1438 13.9618 10.4298C13.9618 10.7158 14.0742 10.99 14.2743 11.1922C14.4744 11.3944 14.7458 11.508 15.0288 11.508C15.3118 11.508 15.5832 11.3944 15.7833 11.1922C15.9834 10.99 16.0958 10.7158 16.0958 10.4298C16.0958 10.1438 15.9834 9.8696 15.7833 9.66741C15.5832 9.46521 15.3118 9.35161 15.0288 9.35161ZM9.25775 11.4683C8.97476 11.4683 8.70337 11.5819 8.50327 11.7841C8.30317 11.9863 8.19075 12.2605 8.19075 12.5465C8.19075 12.8324 8.30317 13.1067 8.50327 13.3089C8.70337 13.5111 8.97476 13.6247 9.25775 13.6247C9.54074 13.6247 9.81213 13.5111 10.0122 13.3089C10.2123 13.1067 10.3248 12.8324 10.3248 12.5465C10.3248 12.2605 10.2123 11.9863 10.0122 11.7841C9.81213 11.5819 9.54074 11.4683 9.25775 11.4683ZM13.5642 11.9391C13.2813 11.9393 13.0101 12.053 12.81 12.2551C12.6099 12.4573 12.4975 12.7314 12.4973 13.0173V15.8207C12.4973 15.9352 12.5422 16.0449 12.6223 16.1259C12.7024 16.2068 12.811 16.2522 12.9243 16.2522C13.0375 16.2522 13.1462 16.2068 13.2262 16.1259C13.3063 16.0449 13.3513 15.9352 13.3513 15.8207V13.4484H13.778V20.5646H13.789C13.8138 20.6861 13.8793 20.7952 13.9745 20.8736C14.0697 20.952 14.1887 20.9948 14.3115 20.9948C14.4342 20.9948 14.5533 20.952 14.6485 20.8736C14.7436 20.7952 14.8092 20.6861 14.834 20.5646H14.8442V16.2518H15.2716V20.5646H15.2826C15.3062 20.6872 15.3713 20.7977 15.4667 20.8771C15.5621 20.9566 15.6819 21 15.8055 21C15.9291 21 16.0489 20.9566 16.1443 20.8771C16.2397 20.7977 16.3048 20.6872 16.3284 20.5646H16.3386V13.4492H16.766V15.8207C16.766 15.9247 16.8037 16.0184 16.8642 16.0931C16.6309 16.2391 16.473 16.498 16.473 16.7949C16.4766 16.8626 16.5058 16.9263 16.5546 16.973C16.6033 17.0196 16.6679 17.0456 16.735 17.0456C16.8021 17.0456 16.8667 17.0196 16.9154 16.973C16.9642 16.9263 16.9934 16.8626 16.997 16.7949C16.997 16.7159 17.0281 16.6402 17.0833 16.5844C17.1386 16.5285 17.2135 16.4972 17.2917 16.4972C17.3698 16.4972 17.4448 16.5285 17.5 16.5844C17.5553 16.6402 17.5863 16.7159 17.5863 16.7949V20.7313C17.5863 20.8774 17.7034 20.9957 17.8488 20.9957C17.9933 20.9957 18.1104 20.8774 18.1104 20.7313V16.7949C18.1104 16.4376 17.8833 16.1351 17.569 16.02C17.6005 15.9605 17.6193 15.893 17.6185 15.8207V13.0173C17.6185 12.7315 17.5062 12.4574 17.3063 12.2552C17.1064 12.053 16.8352 11.9393 16.5523 11.9391H13.5642ZM9.23811 14.1145C8.89475 14.1145 8.59382 14.2836 8.40211 14.5417L7.75311 15.5706H6.72854C6.65806 15.5679 6.58776 15.5795 6.52184 15.6049C6.45592 15.6302 6.39575 15.6688 6.34492 15.7182C6.29409 15.7676 6.25365 15.8268 6.22603 15.8924C6.19841 15.958 6.18418 16.0285 6.18418 16.0998C6.18418 16.1711 6.19841 16.2416 6.22603 16.3072C6.25365 16.3728 6.29409 16.432 6.34492 16.4814C6.39575 16.5309 6.45592 16.5694 6.52184 16.5947C6.58776 16.6201 6.65806 16.6317 6.72854 16.629H8.03754C8.09018 16.629 8.14125 16.6187 8.18996 16.6036V17.0252H6.33725V17.0291C6.15261 17.0363 5.97739 17.1395 5.88861 17.3189L4.57882 19.9659C4.52076 20.0911 4.51338 20.2341 4.55827 20.3647C4.60316 20.4952 4.69676 20.6028 4.81908 20.6646C4.94141 20.7263 5.08278 20.7373 5.21302 20.6952C5.34326 20.6531 5.45205 20.5612 5.51618 20.4391L6.41896 18.6146H9.23811C9.51588 18.6146 9.78228 18.5031 9.9787 18.3047C10.1751 18.1062 10.2855 17.837 10.2855 17.5563V15.1745C10.2855 14.8937 10.1751 14.6244 9.97875 14.4258C9.78235 14.2272 9.51596 14.1155 9.23811 14.1153V14.1145ZM10.8095 15.6913V16.9434C10.9865 17.1039 11.128 17.3002 11.2249 17.5196C11.3218 17.739 11.372 17.9766 11.3721 18.2169C11.3721 19.1656 10.6084 19.9374 9.67025 19.9374C9.06918 19.9374 8.54118 19.6198 8.23711 19.1434H7.08054C7.45768 20.2208 8.47518 20.9957 9.67025 20.9957C11.1859 20.9957 12.4203 19.7492 12.4195 18.2169C12.4195 17.0958 11.7579 16.1304 10.8095 15.6913Z" fill="black"/>
</svg>
