<svg width="24" height="24" viewBox="0 0 24 24" fill="none" xmlns="http://www.w3.org/2000/svg">
<path d="M12.3807 3L9.50029 5.58749V3.79395H6.09501V8.64579L2.95215 11.4683H5.57093L12.3807 5.38185L19.1905 11.4683H21.8093L12.3807 3ZM15.0286 9.35161C14.7456 9.35161 14.4742 9.46521 14.2741 9.66741C14.074 9.8696 13.9616 10.1438 13.9616 10.4298C13.9616 10.7158 14.074 10.99 14.2741 11.1922C14.4742 11.3944 14.7456 11.508 15.0286 11.508C15.3116 11.508 15.583 11.3944 15.7831 11.1922C15.9832 10.99 16.0956 10.7158 16.0956 10.4298C16.0956 10.1438 15.9832 9.8696 15.7831 9.66741C15.583 9.46521 15.3116 9.35161 15.0286 9.35161ZM9.25751 11.4683C8.97452 11.4683 8.70312 11.5819 8.50302 11.7841C8.30292 11.9863 8.19051 12.2605 8.19051 12.5465C8.19051 12.8324 8.30292 13.1067 8.50302 13.3089C8.70312 13.5111 8.97452 13.6247 9.25751 13.6247C9.54049 13.6247 9.81189 13.5111 10.012 13.3089C10.2121 13.1067 10.3245 12.8324 10.3245 12.5465C10.3245 12.2605 10.2121 11.9863 10.012 11.7841C9.81189 11.5819 9.54049 11.4683 9.25751 11.4683ZM13.564 11.9391C13.2811 11.9393 13.0098 12.053 12.8098 12.2551C12.6097 12.4573 12.4972 12.7314 12.497 13.0173V15.8207C12.497 15.9352 12.542 16.0449 12.6221 16.1259C12.7022 16.2068 12.8108 16.2522 12.924 16.2522C13.0373 16.2522 13.1459 16.2068 13.226 16.1259C13.3061 16.0449 13.3511 15.9352 13.3511 15.8207V13.4484H13.7777V20.5646H13.7887C13.8135 20.6861 13.879 20.7952 13.9742 20.8736C14.0694 20.952 14.1884 20.9948 14.3112 20.9948C14.434 20.9948 14.553 20.952 14.6482 20.8736C14.7434 20.7952 14.8089 20.6861 14.8337 20.5646H14.8439V16.2518H15.2714V20.5646H15.2824C15.306 20.6872 15.3711 20.7977 15.4665 20.8771C15.5619 20.9566 15.6816 21 15.8053 21C15.9289 21 16.0486 20.9566 16.144 20.8771C16.2394 20.7977 16.3045 20.6872 16.3281 20.5646H16.3384V13.4492H16.7658V15.8207C16.7658 15.9247 16.8035 16.0184 16.864 16.0931C16.6306 16.2391 16.4727 16.498 16.4727 16.7949C16.4764 16.8626 16.5056 16.9263 16.5543 16.973C16.6031 17.0196 16.6676 17.0456 16.7348 17.0456C16.8019 17.0456 16.8664 17.0196 16.9152 16.973C16.9639 16.9263 16.9931 16.8626 16.9968 16.7949C16.9968 16.7159 17.0278 16.6402 17.0831 16.5844C17.1383 16.5285 17.2133 16.4972 17.2914 16.4972C17.3696 16.4972 17.4445 16.5285 17.4998 16.5844C17.555 16.6402 17.5861 16.7159 17.5861 16.7949V20.7313C17.5861 20.8774 17.7031 20.9957 17.8485 20.9957C17.9931 20.9957 18.1101 20.8774 18.1101 20.7313V16.7949C18.1101 16.4376 17.8831 16.1351 17.5688 16.02C17.6002 15.9605 17.6191 15.893 17.6183 15.8207V13.0173C17.6183 12.7315 17.506 12.4574 17.3061 12.2552C17.1061 12.053 16.8349 11.9393 16.5521 11.9391H13.564ZM9.23786 14.1145C8.89451 14.1145 8.59358 14.2836 8.40186 14.5417L7.75286 15.5706H6.72829C6.65781 15.5679 6.58751 15.5795 6.52159 15.6049C6.45568 15.6302 6.3955 15.6688 6.34467 15.7182C6.29384 15.7676 6.25341 15.8268 6.22579 15.8924C6.19817 15.958 6.18393 16.0285 6.18393 16.0998C6.18393 16.1711 6.19817 16.2416 6.22579 16.3072C6.25341 16.3728 6.29384 16.432 6.34467 16.4814C6.3955 16.5309 6.45568 16.5694 6.52159 16.5947C6.58751 16.6201 6.65781 16.6317 6.72829 16.629H8.03729C8.08993 16.629 8.14101 16.6187 8.18972 16.6036V17.0252H6.33701V17.0291C6.15236 17.0363 5.97715 17.1395 5.88836 17.3189L4.57858 19.9659C4.52051 20.0911 4.51314 20.2341 4.55802 20.3647C4.60291 20.4952 4.69651 20.6028 4.81884 20.6646C4.94117 20.7263 5.08254 20.7373 5.21278 20.6952C5.34302 20.6531 5.45181 20.5612 5.51593 20.4391L6.41872 18.6146H9.23786C9.51564 18.6146 9.78204 18.5031 9.97846 18.3047C10.1749 18.1062 10.2852 17.837 10.2852 17.5563V15.1745C10.2852 14.8937 10.1749 14.6244 9.9785 14.4258C9.78211 14.2272 9.51571 14.1155 9.23786 14.1153V14.1145ZM10.8093 15.6913V16.9434C10.9862 17.1039 11.1278 17.3002 11.2247 17.5196C11.3216 17.739 11.3717 17.9766 11.3719 18.2169C11.3719 19.1656 10.6081 19.9374 9.67001 19.9374C9.06893 19.9374 8.54093 19.6198 8.23686 19.1434H7.08029C7.45743 20.2208 8.47493 20.9957 9.67001 20.9957C11.1856 20.9957 12.42 19.7492 12.4192 18.2169C12.4192 17.0958 11.7576 16.1304 10.8093 15.6913Z" fill="#373D40"/>
</svg>
