<svg width="24" height="24" viewBox="0 0 24 24" fill="none" xmlns="http://www.w3.org/2000/svg">
<mask id="mask0_2300_20084" style="mask-type:alpha" maskUnits="userSpaceOnUse" x="0" y="0" width="24" height="24">
<rect width="24" height="24" fill="#D9D9D9"/>
</mask>
<g mask="url(#mask0_2300_20084)">
<path d="M9.725 14L12 12.625L14.275 14L13.675 11.4L15.675 9.675L13.05 9.45L12 7L10.95 9.45L8.325 9.675L10.325 11.4L9.725 14ZM5 21V5C5 4.45 5.19583 3.97917 5.5875 3.5875C5.97917 3.19583 6.45 3 7 3H17C17.55 3 18.0208 3.19583 18.4125 3.5875C18.8042 3.97917 19 4.45 19 5V21L12 18L5 21ZM7 17.95L12 15.8L17 17.95V5H7V17.95Z" fill="#241E1A"/>
</g>
</svg>
