<svg width="24" height="24" viewBox="0 0 24 24" fill="none" xmlns="http://www.w3.org/2000/svg">
<path d="M10.1092 2.54712C10.631 2.54712 11.0545 2.97061 11.0545 3.49241V7.27358C11.0545 7.79538 10.631 8.21887 10.1092 8.21887H8.21865V10.1095H12.9451V9.16416C12.9451 8.64236 13.3686 8.21887 13.8904 8.21887H19.5622C20.084 8.21887 20.5074 8.64236 20.5074 9.16416V12.9453C20.5074 13.4671 20.084 13.8906 19.5622 13.8906H13.8904C13.3686 13.8906 12.9451 13.4671 12.9451 12.9453V12H8.21865V17.6718H12.9451V16.7265C12.9451 16.2047 13.3686 15.7812 13.8904 15.7812H19.5622C20.084 15.7812 20.5074 16.2047 20.5074 16.7265V20.5077C20.5074 21.0295 20.084 21.453 19.5622 21.453H13.8904C13.3686 21.453 12.9451 21.0295 12.9451 20.5077V19.5624H7.27336C6.75155 19.5624 6.32806 19.1389 6.32806 18.6171V8.21887H4.43748C3.91568 8.21887 3.49219 7.79538 3.49219 7.27358V3.49241C3.49219 2.97061 3.91568 2.54712 4.43748 2.54712H10.1092ZM18.6169 17.6718H14.8357V19.5624H18.6169V17.6718ZM18.6169 10.1095H14.8357V12H18.6169V10.1095ZM9.16394 4.4377H5.38277V6.32829H9.16394V4.4377Z" fill="#373D40"/>
</svg>
