<svg width="24" height="24" viewBox="0 0 24 24" fill="none" xmlns="http://www.w3.org/2000/svg">
<path d="M9.20676 4V11.3195L10.3932 10.1532V5.1663H16.2448V9.85159H20.9502V18.076H18.0143L16.848 19.2423H22.1165V8.40378L17.7127 4H9.20676V4ZM17.4312 5.46793L20.6485 8.6853H17.4312V5.46793V5.46793ZM17.0089 10.4146L10.8959 16.5276L10.1318 19.2423C11.097 19.0412 12.0622 18.7798 12.8665 18.5787L19.06 12.3652C19.06 12.3652 19.261 11.2391 18.3562 10.6962L12.223 16.6483L12.9067 17.1108L13.0676 17.8146L12.6855 18.2369L12.0622 18.4581L11.097 17.4929L11.2176 16.9901L17.7127 10.4951C17.5116 10.4549 17.2502 10.4146 17.0089 10.4146V10.4146ZM2.2693 12.2445C2.12854 12.2445 2.04811 12.3249 2.00789 12.4657C1.96767 12.5864 2.08832 12.707 2.20897 12.7472C4.86331 13.1695 7.23612 13.8733 7.23612 14.2554C7.23612 14.2554 7.15568 14.5168 5.98939 14.7983C3.71712 15.3815 2.47039 16.3064 2.59104 17.2717C2.77201 18.4983 5.06439 19.2021 8.80459 19.2021C8.8448 19.2021 8.88502 19.2021 8.92524 19.2021C8.92524 19.2021 8.92524 19.2021 8.96545 19.2021H9.00567H9.04589C10.7149 17.9553 3.71712 19.2021 3.09375 17.2314C3.01332 16.6885 3.93831 15.8842 6.11004 15.3412C7.29644 15.0597 7.79916 14.7179 7.79916 14.2554C7.73883 13.2097 3.93831 12.5461 2.30952 12.2847C2.30952 12.2445 2.2693 12.2445 2.2693 12.2445V12.2445Z" fill="#373D40"/>
</svg>
