<svg width="24" height="24" viewBox="0 0 24 24" fill="none" xmlns="http://www.w3.org/2000/svg">
<path d="M21.018 4.77506L12.8624 15.2903L13.735 16.1451L13.9534 17.3736L13.4298 18.1209L12.5572 18.4946L11.3366 16.8423L11.5111 15.935L20.1484 4.29394C19.8317 4.22459 19.5107 4.00137 19.189 4.00003L11.0772 14.8937L10.2485 19.2467C10.2004 19.1906 10.1396 19.1536 10.074 19.1404C4.8842 19.1942 3.35739 17.752 3.27062 16.8447C3.18385 15.9899 4.22999 14.7615 6.80294 13.8601C8.15523 13.3826 8.76556 12.8991 8.72169 12.1517C8.67782 10.5496 4.22999 9.42862 2.35414 9.05495C2.26993 9.05932 2.18945 9.09873 2.12599 9.16667C2.06253 9.2346 2.01989 9.327 2.0051 9.42862C1.98999 9.53411 2.00873 9.64267 2.05742 9.73165C2.1061 9.82062 2.18097 9.88314 2.2664 9.90615C5.31904 10.5472 8.11038 11.6682 8.15426 12.2556C8.15426 12.2556 8.06748 12.6293 6.67132 13.1104C4.0545 14.0177 2.57644 15.4599 2.70221 16.9557C2.87673 18.8778 5.58033 20 9.89848 20H10.2036L13.736 18.8253L21.9774 7.76919C22.0364 7.21298 21.9794 6.64754 21.8116 6.12563C21.6438 5.60372 21.3708 5.14236 21.018 4.78461V4.77506Z" fill="#373D40"/>
</svg>
