<svg width="24" height="24" viewBox="0 0 24 24" fill="none" xmlns="http://www.w3.org/2000/svg">
<g clip-path="url(#clip0_559_22122)">
<mask id="mask0_559_22122" style="mask-type:alpha" maskUnits="userSpaceOnUse" x="0" y="0" width="24" height="24">
<rect width="24" height="24" fill="#D9D9D9"/>
</mask>
<g mask="url(#mask0_559_22122)">
<path d="M12 20C11.7167 20 11.4792 19.9042 11.2875 19.7125C11.0958 19.5208 11 19.2833 11 19V15C11 14.7167 11.0958 14.4792 11.2875 14.2875C11.4792 14.0958 11.7167 14 12 14H14.5C14.7833 14 15.0208 14.0958 15.2125 14.2875C15.4042 14.4792 15.5 14.7167 15.5 15V19C15.5 19.2833 15.4042 19.5208 15.2125 19.7125C15.0208 19.9042 14.7833 20 14.5 20H12ZM12.5 18.5H14V15.5H12.5V18.5ZM17 22V19.25C17 18.9667 17.0958 18.7292 17.2875 18.5375C17.4792 18.3458 17.7167 18.25 18 18.25H20V17.5H17V16H20.5C20.7833 16 21.0208 16.0958 21.2125 16.2875C21.4042 16.4792 21.5 16.7167 21.5 17V18.75C21.5 19.0333 21.4042 19.2708 21.2125 19.4625C21.0208 19.6542 20.7833 19.75 20.5 19.75H18.5V20.5H21.5V22H17ZM9 21.95C6.95 21.7167 5.27083 20.8375 3.9625 19.3125C2.65417 17.7875 2 15.95 2 13.8C2 12.1333 2.6625 10.3208 3.9875 8.3625C5.3125 6.40417 7.31667 4.28333 10 2C12.2 3.86667 13.9458 5.63333 15.2375 7.3C16.5292 8.96667 17.3667 10.5333 17.75 12H15.675C15.3083 10.95 14.65 9.80833 13.7 8.575C12.75 7.34167 11.5167 6.03333 10 4.65C8.01667 6.46667 6.52083 8.14167 5.5125 9.675C4.50417 11.2083 4 12.5833 4 13.8C4 15.4 4.4625 16.7625 5.3875 17.8875C6.3125 19.0125 7.51667 19.6917 9 19.925V21.95Z" fill="#1C1B1F"/>
</g>
</g>
<defs>
<clipPath id="clip0_559_22122">
<rect width="24" height="24" fill="white"/>
</clipPath>
</defs>
</svg>
