<svg width="24" height="24" viewBox="0 0 24 24" fill="none" xmlns="http://www.w3.org/2000/svg">
<path d="M12.0608 22C6.44677 22 1.90088 17.5435 1.90088 11.946C1.90088 6.34854 6.44677 1.9136 12.0608 1.9136C17.6749 1.9136 22.2208 6.37007 22.2208 11.946C22.2208 12.3766 22.2208 12.678 22.0966 13.0871H20.0596C20.0596 12.678 20.1838 12.3766 20.1838 11.946C20.1838 7.5111 16.6067 3.98037 12.0608 3.98037C7.63914 3.98037 3.93784 7.61874 3.93784 11.946C3.93784 16.4025 7.51494 19.9332 12.0608 19.9332C12.5328 19.9332 12.9054 19.9332 13.3774 19.8256V21.8924C12.9054 21.8924 12.5328 22 12.0608 22ZM15.4144 19.9332C15.6379 19.4165 16.2341 18.8999 17.0787 18.3832C17.7991 17.8665 18.3953 17.5435 18.5195 17.3282C18.8673 17.0268 18.9915 16.7254 18.9915 16.2949C18.9915 15.9935 18.8673 15.7782 18.743 15.5844C18.6188 15.3907 18.2711 15.2615 17.9233 15.2615C17.4265 15.2615 17.0787 15.4768 16.8303 15.7782C16.7309 15.9935 16.7309 16.2949 16.6067 16.7254H14.9424C14.9424 16.1011 15.0417 15.5844 15.2902 15.1754C15.7621 14.4434 16.4825 14.0343 17.6749 14.0343C18.6437 14.0343 19.2399 14.2281 19.8361 14.6371C20.308 15.0677 20.6558 15.6921 20.6558 16.2949C20.6558 16.8116 20.4322 17.3282 20.0596 17.7588C19.8361 18.0602 19.4634 18.3832 18.8673 18.6846L18.1469 19.0936C17.7991 19.3089 17.4265 19.5027 17.3271 19.6103C17.2029 19.7179 17.0787 19.8256 16.9545 20.0194H20.6558V21.268H14.9424C15.0417 20.7513 15.166 20.3423 15.4144 19.9332Z" fill="black"/>
</svg>
