<svg width="24" height="24" viewBox="0 0 24 24" fill="none" xmlns="http://www.w3.org/2000/svg">
<path d="M12.0608 22C6.44677 22 1.90088 17.5435 1.90088 11.946C1.90088 6.34851 6.44677 1.91357 12.0608 1.91357C17.6749 1.91357 22.2208 6.37004 22.2208 11.946C22.2208 12.3766 22.2208 12.678 22.0966 13.087H20.0596C20.0596 12.678 20.1838 12.3766 20.1838 11.946C20.1838 7.51107 16.6067 3.98034 12.0608 3.98034C7.63914 3.98034 3.93784 7.61871 3.93784 11.946C3.93784 16.4025 7.51494 19.9332 12.0608 19.9332C12.5328 19.9332 12.9054 19.9332 13.3774 19.8256V21.8923C12.9054 21.8923 12.5328 22 12.0608 22V22ZM15.4144 19.9332C15.6379 19.4165 16.2341 18.8998 17.0787 18.3831C17.7991 17.8664 18.3953 17.5435 18.5195 17.3282C18.8673 17.0268 18.9915 16.7254 18.9915 16.2948C18.9915 15.9934 18.8673 15.7781 18.743 15.5844C18.6188 15.3906 18.2711 15.2614 17.9233 15.2614C17.4265 15.2614 17.0787 15.4767 16.8303 15.7781C16.7309 15.9934 16.7309 16.2948 16.6067 16.7254H14.9424C14.9424 16.1011 15.0417 15.5844 15.2902 15.1753C15.7621 14.4434 16.4825 14.0343 17.6749 14.0343C18.6437 14.0343 19.2399 14.2281 19.8361 14.6371C20.308 15.0677 20.6558 15.692 20.6558 16.2948C20.6558 16.8115 20.4322 17.3282 20.0596 17.7588C19.8361 18.0602 19.4634 18.3831 18.8673 18.6845L18.1469 19.0936C17.7991 19.3089 17.4265 19.5026 17.3271 19.6103C17.2029 19.7179 17.0787 19.8256 16.9545 20.0193H20.6558V21.268H14.9424C15.0417 20.7513 15.166 20.3423 15.4144 19.9332V19.9332Z" fill="#373D40"/>
</svg>
