<svg width="24" height="24" viewBox="0 0 24 24" fill="none" xmlns="http://www.w3.org/2000/svg">
<path d="M9.07488 4C10.6045 4 11.8282 5.32407 11.8282 6.97917C11.8282 8.63426 10.6045 9.95833 9.07488 9.95833C7.54523 9.95833 6.32152 8.63426 6.32152 6.97917C6.32152 5.32407 7.54523 4 9.07488 4ZM6.32152 13.9778C5.97188 14.167 5.22891 15.7748 5.22891 15.7748C5.22891 15.7748 4.87928 16.3896 4.66076 18.754L3 18.1392L3.56815 15.1601C3.56815 15.1601 4.66076 10.9987 6.84597 10.9987H11.2164C13.4016 10.9987 14.4942 15.1601 14.4942 15.1601L15.0623 18.1392L13.4016 18.754C13.2268 16.3896 12.8334 15.7748 12.8334 15.7748C12.8334 15.7748 12.0905 14.2143 11.7408 13.9778L11.9594 19.3687C11.129 19.6997 10.2112 19.8889 9.2934 19.8889C8.15709 19.8889 7.06449 19.6052 6.05929 19.085L6.32152 13.9778ZM13.0083 4.85119H20.875V6.26984H13.0083V4.85119ZM13.0083 7.68849H20.875V9.10714H13.0083V7.68849ZM13.8823 10.5258H20.875V11.9444H13.8823V10.5258ZM15.1935 13.3631H20.875V14.7817H15.1935V13.3631ZM16.0675 16.2004H20.875V17.619H16.0675V16.2004Z" fill="black"/>
</svg>
