<svg width="24" height="24" viewBox="0 0 24 24" fill="none" xmlns="http://www.w3.org/2000/svg">
<g clip-path="url(#clip0_1287_16508)">
<mask id="mask0_1287_16508" style="mask-type:alpha" maskUnits="userSpaceOnUse" x="-1" y="1" width="25" height="25">
<rect x="-0.0488281" y="1.13232" width="24" height="24" fill="#D9D9D9"/>
</mask>
<g mask="url(#mask0_1287_16508)">
<path d="M11.9512 13.1323C10.8512 13.1323 9.90951 12.7407 9.12617 11.9573C8.34284 11.174 7.95117 10.2323 7.95117 9.13232C7.95117 8.03232 8.34284 7.09066 9.12617 6.30732C9.90951 5.52399 10.8512 5.13232 11.9512 5.13232C13.0512 5.13232 13.9928 5.52399 14.7762 6.30732C15.5595 7.09066 15.9512 8.03232 15.9512 9.13232C15.9512 10.2323 15.5595 11.174 14.7762 11.9573C13.9928 12.7407 13.0512 13.1323 11.9512 13.1323ZM3.95117 21.1323V18.3323C3.95117 17.7657 4.09701 17.2448 4.38867 16.7698C4.68034 16.2948 5.06784 15.9323 5.55117 15.6823C6.58451 15.1657 7.63451 14.7782 8.70117 14.5198C9.76784 14.2615 10.8512 14.1323 11.9512 14.1323C13.0512 14.1323 14.1345 14.2615 15.2012 14.5198C16.2678 14.7782 17.3178 15.1657 18.3512 15.6823C18.8345 15.9323 19.222 16.2948 19.5137 16.7698C19.8053 17.2448 19.9512 17.7657 19.9512 18.3323V21.1323H3.95117ZM5.95117 19.1323H17.9512V18.3323C17.9512 18.149 17.9053 17.9823 17.8137 17.8323C17.722 17.6823 17.6012 17.5657 17.4512 17.4823C16.5512 17.0323 15.6428 16.6948 14.7262 16.4698C13.8095 16.2448 12.8845 16.1323 11.9512 16.1323C11.0178 16.1323 10.0928 16.2448 9.17617 16.4698C8.25951 16.6948 7.35117 17.0323 6.45117 17.4823C6.30117 17.5657 6.18034 17.6823 6.08867 17.8323C5.99701 17.9823 5.95117 18.149 5.95117 18.3323V19.1323ZM11.9512 11.1323C12.5012 11.1323 12.972 10.9365 13.3637 10.5448C13.7553 10.1532 13.9512 9.68232 13.9512 9.13232C13.9512 8.58232 13.7553 8.11149 13.3637 7.71982C12.972 7.32816 12.5012 7.13232 11.9512 7.13232C11.4012 7.13232 10.9303 7.32816 10.5387 7.71982C10.147 8.11149 9.95117 8.58232 9.95117 9.13232C9.95117 9.68232 10.147 10.1532 10.5387 10.5448C10.9303 10.9365 11.4012 11.1323 11.9512 11.1323Z" fill="#1C1B1F"/>
</g>
</g>
<defs>
<clipPath id="clip0_1287_16508">
<rect width="24" height="24" fill="white"/>
</clipPath>
</defs>
</svg>
