<svg width="24" height="24" viewBox="0 0 24 24" fill="none" xmlns="http://www.w3.org/2000/svg">
<path d="M4.94678 18.5V4.5V8.975V8.5V18.5ZM7.94678 12.5H11.4718C11.7551 12.5 11.9926 12.4042 12.1843 12.2125C12.3759 12.0208 12.4718 11.7833 12.4718 11.5C12.4718 11.2167 12.3759 10.9792 12.1843 10.7875C11.9926 10.5958 11.7551 10.5 11.4718 10.5H7.94678C7.66344 10.5 7.42594 10.5958 7.23428 10.7875C7.04261 10.9792 6.94678 11.2167 6.94678 11.5C6.94678 11.7833 7.04261 12.0208 7.23428 12.2125C7.42594 12.4042 7.66344 12.5 7.94678 12.5ZM7.94678 16.5H11.4718C11.7551 16.5 11.9926 16.4042 12.1843 16.2125C12.3759 16.0208 12.4718 15.7833 12.4718 15.5C12.4718 15.2167 12.3759 14.9792 12.1843 14.7875C11.9926 14.5958 11.7551 14.5 11.4718 14.5H7.94678C7.66344 14.5 7.42594 14.5958 7.23428 14.7875C7.04261 14.9792 6.94678 15.2167 6.94678 15.5C6.94678 15.7833 7.04261 16.0208 7.23428 16.2125C7.42594 16.4042 7.66344 16.5 7.94678 16.5ZM7.94678 8.5H15.9468C16.2301 8.5 16.4676 8.40417 16.6593 8.2125C16.8509 8.02083 16.9468 7.78333 16.9468 7.5C16.9468 7.21667 16.8509 6.97917 16.6593 6.7875C16.4676 6.59583 16.2301 6.5 15.9468 6.5H7.94678C7.66344 6.5 7.42594 6.59583 7.23428 6.7875C7.04261 6.97917 6.94678 7.21667 6.94678 7.5C6.94678 7.78333 7.04261 8.02083 7.23428 8.2125C7.42594 8.40417 7.66344 8.5 7.94678 8.5ZM4.94678 20.5C4.39678 20.5 3.92594 20.3042 3.53428 19.9125C3.14261 19.5208 2.94678 19.05 2.94678 18.5V4.5C2.94678 3.95 3.14261 3.47917 3.53428 3.0875C3.92594 2.69583 4.39678 2.5 4.94678 2.5H18.9468C19.4968 2.5 19.9676 2.69583 20.3593 3.0875C20.7509 3.47917 20.9468 3.95 20.9468 4.5V8.95C20.9468 9.23333 20.8509 9.47083 20.6593 9.6625C20.4676 9.85417 20.2301 9.95 19.9468 9.95C19.6634 9.95 19.4259 9.85417 19.2343 9.6625C19.0426 9.47083 18.9468 9.23333 18.9468 8.95V4.5H4.94678V18.5H8.94678C9.23011 18.5 9.46761 18.5958 9.65928 18.7875C9.85094 18.9792 9.94678 19.2167 9.94678 19.5C9.94678 19.7833 9.85094 20.0208 9.65928 20.2125C9.46761 20.4042 9.23011 20.5 8.94678 20.5H4.94678ZM16.9468 15.5C16.2468 15.5 15.6551 15.2583 15.1718 14.775C14.6884 14.2917 14.4468 13.7 14.4468 13C14.4468 12.3 14.6884 11.7083 15.1718 11.225C15.6551 10.7417 16.2468 10.5 16.9468 10.5C17.6468 10.5 18.2384 10.7417 18.7218 11.225C19.2051 11.7083 19.4468 12.3 19.4468 13C19.4468 13.7 19.2051 14.2917 18.7218 14.775C18.2384 15.2583 17.6468 15.5 16.9468 15.5ZM16.9468 16.5C17.5968 16.5 18.2426 16.5625 18.8843 16.6875C19.5259 16.8125 20.1468 17 20.7468 17.25C21.1301 17.4 21.4259 17.6458 21.6343 17.9875C21.8426 18.3292 21.9468 18.7 21.9468 19.1V19.5C21.9468 19.7833 21.8509 20.0208 21.6593 20.2125C21.4676 20.4042 21.2301 20.5 20.9468 20.5H12.9468C12.6634 20.5 12.4259 20.4042 12.2343 20.2125C12.0426 20.0208 11.9468 19.7833 11.9468 19.5V19.1C11.9468 18.7 12.0509 18.3292 12.2593 17.9875C12.4676 17.6458 12.7634 17.4 13.1468 17.25C13.7468 17 14.3676 16.8125 15.0093 16.6875C15.6509 16.5625 16.2968 16.5 16.9468 16.5Z" fill="#262626"/>
</svg>
