<svg width="24" height="24" viewBox="0 0 24 24" fill="none" xmlns="http://www.w3.org/2000/svg">
<path d="M3.4107 2.99985C2.98182 2.99985 2.66015 3.36241 2.66015 3.7463V18.6326C2.66015 19.0378 2.98182 19.3577 3.32493 19.4003H11.5167C11.6024 18.9098 11.6882 18.4619 11.774 17.9714H4.71881C4.31136 17.9288 4.05403 17.6089 4.05403 17.225V5.17521C4.05403 4.72734 4.39714 4.42876 4.80458 4.42876H16.9206C17.3495 4.42876 17.6712 4.76999 17.6712 5.17521V6.86004C17.757 6.86004 17.8427 6.86004 17.95 6.86004C18.3359 6.86004 18.7005 6.9027 19.1079 7.05198V3.7463C19.1079 3.31976 18.7434 2.99985 18.3359 2.99985H3.4107ZM5.57658 5.17521C5.12625 5.17521 4.80458 5.1907 4.80458 5.59592V7.54251H15.6367C15.9567 7.27877 16.9905 6.86004 17.2735 6.86004V5.59592C17.2735 5.14805 17.0718 5.17521 16.6643 5.17521L5.57658 5.17521ZM18.0786 8.20364C16.7705 8.20364 15.6983 9.27 15.6983 10.5496C15.6983 11.8506 16.7705 12.9169 18.0786 12.9169C19.3653 12.9169 20.4375 11.8506 20.4375 10.5496C20.4375 9.27 19.3653 8.20364 18.0786 8.20364ZM4.80458 8.31721V10.6776H14.3259C14.3259 9.93113 14.5403 8.93569 14.9477 8.31721H4.80458ZM4.80458 11.5371V14.1608H13.3407C13.7267 13.713 14.5403 13.0022 15.1193 12.7676C14.9049 12.469 14.6098 11.9183 14.4808 11.5371H4.80458ZM16.1486 13.8766C14.2401 13.8766 13.2965 17.225 13.2965 17.225L12.8033 19.5709L14.2401 20.0615C14.4116 18.142 14.7333 17.7155 14.7333 17.7155C14.7333 17.7155 15.3552 16.4572 15.6554 16.2866L15.4839 20.3814C16.3416 20.7653 17.2637 20.9999 18.2931 20.9999C19.1079 20.9999 19.9014 20.8719 20.6305 20.552L20.4375 16.2439C20.7592 16.4145 21.381 17.6728 21.381 17.6728C21.381 17.6728 21.7027 18.142 21.8743 20.0188L23.311 19.5283L22.8178 17.1823C22.8178 17.1823 21.8743 13.834 19.9443 13.834H16.1486V13.8766ZM4.84841 14.8577L4.80458 15.938C4.80458 16.3432 4.75877 17.225 5.29487 17.225H11.8139C11.8997 16.9051 12.2672 16.0733 12.3959 15.7534C12.5245 15.4335 12.6746 15.1776 12.8462 14.8577H4.84841Z" fill="#373D40"/>
</svg>
