<svg width="25" height="24" viewBox="0 0 25 24" fill="none" xmlns="http://www.w3.org/2000/svg">
<g clip-path="url(#clip0_1287_16508)">
<path d="M20.2129 22H18.2129V20C18.2129 19.2044 17.8968 18.4413 17.3342 17.8787C16.7716 17.3161 16.0085 17 15.2129 17H9.21289C8.41724 17 7.65418 17.3161 7.09157 17.8787C6.52896 18.4413 6.21289 19.2044 6.21289 20V22H4.21289V20C4.21289 18.6739 4.73967 17.4021 5.67736 16.4645C6.61504 15.5268 7.88681 15 9.21289 15H15.2129C16.539 15 17.8107 15.5268 18.7484 16.4645C19.6861 17.4021 20.2129 18.6739 20.2129 20V22ZM12.2129 13C11.425 13 10.6447 12.8448 9.91679 12.5433C9.18884 12.2417 8.5274 11.7998 7.97025 11.2426C7.4131 10.6855 6.97114 10.0241 6.66961 9.2961C6.36809 8.56815 6.21289 7.78793 6.21289 7C6.21289 6.21207 6.36809 5.43185 6.66961 4.7039C6.97114 3.97595 7.4131 3.31451 7.97025 2.75736C8.5274 2.20021 9.18884 1.75825 9.91679 1.45672C10.6447 1.15519 11.425 1 12.2129 1C13.8042 1 15.3303 1.63214 16.4555 2.75736C17.5808 3.88258 18.2129 5.4087 18.2129 7C18.2129 8.5913 17.5808 10.1174 16.4555 11.2426C15.3303 12.3679 13.8042 13 12.2129 13V13ZM12.2129 11C13.2738 11 14.2912 10.5786 15.0413 9.82843C15.7915 9.07828 16.2129 8.06087 16.2129 7C16.2129 5.93913 15.7915 4.92172 15.0413 4.17157C14.2912 3.42143 13.2738 3 12.2129 3C11.152 3 10.1346 3.42143 9.38446 4.17157C8.63432 4.92172 8.21289 5.93913 8.21289 7C8.21289 8.06087 8.63432 9.07828 9.38446 9.82843C10.1346 10.5786 11.152 11 12.2129 11V11Z" fill="#373D40"/>
</g>
<defs>
<clipPath id="clip0_1287_16508">
<rect width="24" height="24" fill="white" transform="translate(0.212891)"/>
</clipPath>
</defs>
</svg>
