<svg width="24" height="24" viewBox="0 0 24 24" fill="none" xmlns="http://www.w3.org/2000/svg">
<path d="M8 8.5H16C16.2833 8.5 16.5208 8.40417 16.7125 8.2125C16.9042 8.02083 17 7.78333 17 7.5C17 7.21667 16.9042 6.97917 16.7125 6.7875C16.5208 6.59583 16.2833 6.5 16 6.5H8C7.71667 6.5 7.47917 6.59583 7.2875 6.7875C7.09583 6.97917 7 7.21667 7 7.5C7 7.78333 7.09583 8.02083 7.2875 8.2125C7.47917 8.40417 7.71667 8.5 8 8.5ZM5 20.5C4.45 20.5 3.97917 20.3042 3.5875 19.9125C3.19583 19.5208 3 19.05 3 18.5V4.5C3 3.95 3.19583 3.47917 3.5875 3.0875C3.97917 2.69583 4.45 2.5 5 2.5H19C19.55 2.5 20.0208 2.69583 20.4125 3.0875C20.8042 3.47917 21 3.95 21 4.5V9.15C21 9.43333 20.8667 9.625 20.6 9.725C20.3333 9.825 20.0917 9.76667 19.875 9.55C19.475 9.21667 19.0292 8.95833 18.5375 8.775C18.0458 8.59167 17.5333 8.5 17 8.5C16.25 8.5 15.55 8.675 14.9 9.025C14.25 9.375 13.7083 9.86667 13.275 10.5H8C7.71667 10.5 7.47917 10.5958 7.2875 10.7875C7.09583 10.9792 7 11.2167 7 11.5C7 11.7833 7.09583 12.0208 7.2875 12.2125C7.47917 12.4042 7.71667 12.5 8 12.5H12.525C12.4917 12.8333 12.4917 13.1667 12.525 13.5C12.5583 13.8333 12.6333 14.1667 12.75 14.5H8C7.71667 14.5 7.47917 14.5958 7.2875 14.7875C7.09583 14.9792 7 15.2167 7 15.5C7 15.7833 7.09583 16.0208 7.2875 16.2125C7.47917 16.4042 7.71667 16.5 8 16.5H10.925C10.6083 16.8667 10.375 17.2708 10.225 17.7125C10.075 18.1542 10 18.6167 10 19.1V19.5C10 19.7833 9.90417 20.0208 9.7125 20.2125C9.52083 20.4042 9.28333 20.5 9 20.5H5ZM13 20.5C12.7167 20.5 12.4792 20.4042 12.2875 20.2125C12.0958 20.0208 12 19.7833 12 19.5V19.1C12 18.7 12.1042 18.3292 12.3125 17.9875C12.5208 17.6458 12.8167 17.4 13.2 17.25C13.8 17 14.4208 16.8125 15.0625 16.6875C15.7042 16.5625 16.35 16.5 17 16.5C17.65 16.5 18.2958 16.5625 18.9375 16.6875C19.5792 16.8125 20.2 17 20.8 17.25C21.1833 17.4 21.4792 17.6458 21.6875 17.9875C21.8958 18.3292 22 18.7 22 19.1V19.5C22 19.7833 21.9042 20.0208 21.7125 20.2125C21.5208 20.4042 21.2833 20.5 21 20.5H13ZM17 15.5C16.3 15.5 15.7083 15.2583 15.225 14.775C14.7417 14.2917 14.5 13.7 14.5 13C14.5 12.3 14.7417 11.7083 15.225 11.225C15.7083 10.7417 16.3 10.5 17 10.5C17.7 10.5 18.2917 10.7417 18.775 11.225C19.2583 11.7083 19.5 12.3 19.5 13C19.5 13.7 19.2583 14.2917 18.775 14.775C18.2917 15.2583 17.7 15.5 17 15.5Z" fill="#262626"/>
</svg>
