<svg width="24" height="24" viewBox="0 0 24 24" fill="none" xmlns="http://www.w3.org/2000/svg">
<path d="M18.168 3.08789C19.2725 3.08789 20.1679 3.98334 20.168 5.08789V7.97656C19.8836 7.87494 19.0993 7.75951 18.1875 7.82422V6.37402C18.1875 5.82176 17.7398 5.37402 17.1875 5.37402H5.08789C4.53562 5.37402 4.08791 5.82176 4.08789 6.37402V17.625C4.08789 18.1773 4.53561 18.625 5.08789 18.625H12.958C12.7914 19.1786 12.6657 19.9191 12.6455 20.9111L4.10742 20.9121C3.00289 20.9121 2.10747 20.0166 2.10742 18.9121V5.08789C2.10745 3.98334 3.00287 3.08789 4.10742 3.08789H18.168ZM14.292 14.8809C14.8054 15.8353 15.4434 16.2236 15.4434 16.2236C15.1053 16.3294 14.5015 16.4867 14.0488 16.8643H6.61035V14.8809H14.292ZM13.9258 10.917C13.7202 11.5576 13.6541 12.2378 13.7109 12.8994H6.61035V10.917H13.9258ZM15.1729 8.93555H6.61035V6.94922H15.1729V8.93555Z" fill="#262626"/>
<path d="M18.7627 9.3905C20.6131 9.3905 22.1133 10.8662 22.1133 12.6864C22.113 14.5064 20.6129 15.9813 18.7627 15.9813C16.9126 15.9811 15.4133 14.5063 15.4131 12.6864C15.4131 10.8664 16.9125 9.39074 18.7627 9.3905ZM18.7637 11.0067C17.8367 11.0067 17.085 11.7587 17.085 12.6864C17.0852 13.6138 17.8369 14.3661 18.7637 14.3661C19.6903 14.3658 20.4411 13.6137 20.4414 12.6864C20.4414 11.7589 19.6904 11.007 18.7637 11.0067Z" fill="#262626"/>
<path d="M20.0957 17.0214C21.8216 17.0214 23.2207 18.4205 23.2207 20.1464V20.912H21.1895V20.7606C21.1895 19.6562 20.2939 18.7608 19.1895 18.7606H18.3555C17.2509 18.7606 16.3555 19.6561 16.3555 20.7606V20.912H14.3584V20.1464C14.3584 18.4205 15.7575 17.0214 17.4834 17.0214H20.0957Z" fill="#262626"/>
</svg>
