<svg width="24" height="24" viewBox="0 0 24 24" fill="none" xmlns="http://www.w3.org/2000/svg">
<path d="M3.7269 3C3.31153 3 3 3.36256 3 3.74645V18.6327C3 19.0379 3.31153 19.3578 3.64382 19.4005H11.5774C11.6604 18.91 11.7435 18.4621 11.8266 17.9716H4.99377C4.59917 17.9289 4.34995 17.609 4.34995 17.2251V5.17536C4.34995 4.72749 4.68224 4.42891 5.07684 4.42891H16.811C17.2264 4.42891 17.5379 4.77014 17.5379 5.17536V6.86019C17.621 6.86019 17.7041 6.86019 17.8079 6.86019C18.1817 6.86019 18.5348 6.90284 18.9294 7.05213V3.74645C18.9294 3.31991 18.5763 3 18.1817 3H3.7269ZM6.46833 5.79384C6.03219 5.79384 5.72066 6.1564 5.72066 6.56161V7.54265H15.8972C16.0218 7.43602 16.1049 7.35071 16.2503 7.30806V6.56161C16.2503 6.11374 15.8972 5.79384 15.5026 5.79384H6.46833ZM17.9325 8.20379C16.6656 8.20379 15.6272 9.27014 15.6272 10.5498C15.6272 11.8507 16.6656 12.9171 17.9325 12.9171C19.1786 12.9171 20.217 11.8507 20.217 10.5498C20.217 9.27014 19.1786 8.20379 17.9325 8.20379ZM5.72066 8.609V10.6777H14.298C14.298 9.93128 14.5057 9.22749 14.9003 8.609H5.72066ZM5.72066 11.8081V13.7915H13.6542C14.028 13.3436 14.5057 13.0024 15.0665 12.7678C14.8588 12.4692 14.6926 12.1493 14.5472 11.8081H5.72066ZM16.0633 13.8768C14.215 13.8768 13.3011 17.2251 13.3011 17.2251L12.8235 19.5711L14.215 20.0616C14.3811 18.1422 14.6926 17.7156 14.6926 17.7156C14.6926 17.7156 15.2949 16.4573 15.5857 16.2867L15.4195 20.3815C16.2503 20.7654 17.1433 21 18.1402 21C18.9294 21 19.6978 20.872 20.4039 20.5521L20.217 16.2441C20.5286 16.4147 21.1308 17.673 21.1308 17.673C21.1308 17.673 21.4424 18.1422 21.6085 20.019L23 19.5284L22.5223 17.1825C22.5223 17.1825 21.6085 13.8341 19.7394 13.8341H16.0633V13.8768ZM5.72066 14.8578V15.9242C5.72066 16.3294 6.03219 16.6493 6.38525 16.6919H12.1381C12.2212 16.372 12.3043 16.0735 12.4289 15.7536C12.5535 15.4336 12.6989 15.1777 12.865 14.8578H5.72066Z" fill="black"/>
</svg>
