<svg width="25" height="24" viewBox="0 0 25 24" fill="none" xmlns="http://www.w3.org/2000/svg">
<rect x="6.24121" y="5.79883" width="9.2326" height="1.3" fill="#373D40"/>
<rect x="6.24121" y="8.75684" width="9.2326" height="1.3" fill="#373D40"/>
<rect x="6.24121" y="11.7148" width="6.50385" height="1.3" fill="#373D40"/>
<rect x="6.24121" y="14.6729" width="6.50385" height="1.3" fill="#373D40"/>
<path fill-rule="evenodd" clip-rule="evenodd" d="M3.36621 5.021C3.36621 3.91643 4.26164 3.021 5.36621 3.021H17.3849C18.4895 3.021 19.3849 3.91643 19.3849 5.021V9.90018H17.8088V5.47119C17.8088 4.91891 17.3611 4.47119 16.8088 4.47119H5.79688C5.24459 4.47119 4.79688 4.91891 4.79688 5.47119V16.4844C4.79688 17.0367 5.24459 17.4844 5.79688 17.4844H12.5341V18.7504H5.36621C4.26164 18.7504 3.36621 17.855 3.36621 16.7504V5.021Z" fill="#373D40"/>
<path fill-rule="evenodd" clip-rule="evenodd" d="M17.1826 16.5576C18.8346 16.5576 20.1738 15.2403 20.1738 13.6152C20.1738 11.9902 18.8346 10.6729 17.1826 10.6729C15.5306 10.6729 14.1914 11.9902 14.1914 13.6152C14.1914 15.2403 15.5306 16.5576 17.1826 16.5576ZM17.1826 15.3652C18.1491 15.3652 18.9326 14.5817 18.9326 13.6152C18.9326 12.6487 18.1491 11.8652 17.1826 11.8652C16.2161 11.8652 15.4326 12.6487 15.4326 13.6152C15.4326 14.5817 16.2161 15.3652 17.1826 15.3652Z" fill="#373D40"/>
<path fill-rule="evenodd" clip-rule="evenodd" d="M15.7476 17.4858C14.3668 17.4858 13.2476 18.6051 13.2476 19.9858V20.9595H14.7673V20.2367C14.7673 19.3531 15.4837 18.6367 16.3673 18.6367H18.0401C18.9238 18.6367 19.6401 19.3531 19.6401 20.2367V20.9595H21.1599V19.9858C21.1599 18.6051 20.0406 17.4858 18.6599 17.4858H15.7476Z" fill="#373D40"/>
</svg>
