<svg width="27" height="25" viewBox="0 0 27 25" fill="none" xmlns="http://www.w3.org/2000/svg">
<g clip-path="url(#clip0_1379_32881)">
<path d="M22.5 22.25H4.5V20.25C4.5 18.9239 5.09263 17.6521 6.14752 16.7145C7.20242 15.7768 8.63316 15.25 10.125 15.25H16.875C18.3668 15.25 19.7976 15.7768 20.8525 16.7145C21.9074 17.6521 22.5 18.9239 22.5 20.25V22.25ZM13.5 13.25C12.6136 13.25 11.7358 13.0948 10.9169 12.7933C10.0979 12.4917 9.35382 12.0498 8.72703 11.4926C8.10023 10.9355 7.60303 10.2741 7.26381 9.5461C6.92459 8.81815 6.75 8.03793 6.75 7.25C6.75 6.46207 6.92459 5.68185 7.26381 4.9539C7.60303 4.22595 8.10023 3.56451 8.72703 3.00736C9.35382 2.45021 10.0979 2.00825 10.9169 1.70672C11.7358 1.40519 12.6136 1.25 13.5 1.25C15.2902 1.25 17.0071 1.88214 18.273 3.00736C19.5388 4.13258 20.25 5.6587 20.25 7.25C20.25 8.8413 19.5388 10.3674 18.273 11.4926C17.0071 12.6179 15.2902 13.25 13.5 13.25V13.25Z" fill="#373D40"/>
</g>
<defs>
<clipPath id="clip0_1379_32881">
<rect width="27" height="24" fill="white" transform="translate(0 0.25)"/>
</clipPath>
</defs>
</svg>
