<svg width="24" height="24" viewBox="0 0 24 24" fill="none" xmlns="http://www.w3.org/2000/svg">
<g clip-path="url(#clip0_548_22117)">
<mask id="mask0_548_22117" style="mask-type:alpha" maskUnits="userSpaceOnUse" x="0" y="0" width="24" height="24">
<rect width="24" height="24" fill="#D9D9D9"/>
</mask>
<g mask="url(#mask0_548_22117)">
<path d="M3.66667 20C3.20833 20 2.81597 19.8368 2.48958 19.5104C2.16319 19.184 2 18.7917 2 18.3333V6.66667C2 6.20833 2.16319 5.81597 2.48958 5.48958C2.81597 5.16319 3.20833 5 3.66667 5H20.3333C20.7917 5 21.184 5.16319 21.5104 5.48958C21.8368 5.81597 22 6.20833 22 6.66667V18.3333C22 18.7917 21.8368 19.184 21.5104 19.5104C21.184 19.8368 20.7917 20 20.3333 20H3.66667ZM15.25 18.3333H20.3333V6.66667H3.66667V18.3333H3.75C4.33333 17.2917 5.13889 16.4757 6.16667 15.8854C7.19444 15.2951 8.30556 15 9.5 15C10.6944 15 11.8056 15.2951 12.8333 15.8854C13.8611 16.4757 14.6667 17.2917 15.25 18.3333ZM9.5 14.1667C10.1944 14.1667 10.7847 13.9236 11.2708 13.4375C11.7569 12.9514 12 12.3611 12 11.6667C12 10.9722 11.7569 10.3819 11.2708 9.89583C10.7847 9.40972 10.1944 9.16667 9.5 9.16667C8.80556 9.16667 8.21528 9.40972 7.72917 9.89583C7.24306 10.3819 7 10.9722 7 11.6667C7 12.3611 7.24306 12.9514 7.72917 13.4375C8.21528 13.9236 8.80556 14.1667 9.5 14.1667ZM17.8333 17.5L19.5 15.8333L18.25 14.1667H16.875C16.7917 13.9167 16.7222 13.6493 16.6667 13.3646C16.6111 13.0799 16.5833 12.7917 16.5833 12.5C16.5833 12.2083 16.6111 11.9271 16.6667 11.6563C16.7222 11.3854 16.7917 11.1111 16.875 10.8333H18.25L19.5 9.16667L17.8333 7.5C17.0833 8.08333 16.4792 8.82292 16.0208 9.71875C15.5625 10.6146 15.3333 11.5417 15.3333 12.5C15.3333 13.4583 15.5625 14.3854 16.0208 15.2813C16.4792 16.1771 17.0833 16.9167 17.8333 17.5ZM5.79167 18.3333H13.2083C12.7361 17.8056 12.1771 17.3958 11.5312 17.1042C10.8854 16.8125 10.2083 16.6667 9.5 16.6667C8.79167 16.6667 8.11806 16.8125 7.47917 17.1042C6.84028 17.3958 6.27778 17.8056 5.79167 18.3333ZM9.5 12.5C9.26389 12.5 9.06597 12.4201 8.90625 12.2604C8.74653 12.1007 8.66667 11.9028 8.66667 11.6667C8.66667 11.4306 8.74653 11.2326 8.90625 11.0729C9.06597 10.9132 9.26389 10.8333 9.5 10.8333C9.73611 10.8333 9.93403 10.9132 10.0938 11.0729C10.2535 11.2326 10.3333 11.4306 10.3333 11.6667C10.3333 11.9028 10.2535 12.1007 10.0938 12.2604C9.93403 12.4201 9.73611 12.5 9.5 12.5Z" fill="#1C1B1F"/>
</g>
</g>
<defs>
<clipPath id="clip0_548_22117">
<rect width="24" height="24" fill="white"/>
</clipPath>
</defs>
</svg>
