<svg width="24" height="24" viewBox="0 0 24 24" fill="none" xmlns="http://www.w3.org/2000/svg">
<path d="M18.5928 3.08789C19.1449 3.08789 19.5925 3.53485 19.5928 4.08691V7.82227C18.7966 7.68757 17.0217 7.68653 15.6514 8.60059V6.96094H5.8916V8.94434H15.2041C14.5824 9.4893 14.1613 10.1797 13.9238 10.9238H5.8916V12.9043H13.7109C13.7352 13.1839 13.7792 13.4602 13.8477 13.7285C13.9633 14.1814 14.121 14.5646 14.293 14.8838H5.8916V16.8643H14.0479C13.9769 16.9235 13.9095 16.9879 13.8477 17.0586C13.6535 17.2805 12.7034 18.0524 12.6455 20.9121H3.10742C2.5553 20.9121 2.10769 20.4642 2.10742 19.9121V4.08789C2.10742 3.53561 2.55514 3.08789 3.10742 3.08789H18.5928Z" fill="#262626"/>
<path d="M18.7886 9.39001C20.639 9.39001 22.1392 10.8657 22.1392 12.6859C22.1389 14.5059 20.6388 15.9808 18.7886 15.9808C16.9385 15.9806 15.4392 14.5058 15.439 12.6859C15.439 10.8659 16.9384 9.39025 18.7886 9.39001Z" fill="#262626"/>
<path d="M20.1216 17.0214C21.8475 17.0214 23.2466 18.4205 23.2466 20.1464V20.912H14.3843V20.1464C14.3843 18.4205 15.7834 17.0214 17.5093 17.0214H20.1216Z" fill="#262626"/>
</svg>
