<svg width="24" height="25" viewBox="0 0 24 25" fill="none" xmlns="http://www.w3.org/2000/svg">
<g clip-path="url(#clip0_1924_16569)">
<path d="M15 7.37695C15 7.11174 15.1054 6.85738 15.2929 6.66985C15.4804 6.48231 15.7348 6.37695 16 6.37695C16.2652 6.37695 16.5196 6.48231 16.7071 6.66985C16.8946 6.85738 17 7.11174 17 7.37695V17.377C17 17.6422 16.8946 17.8965 16.7071 18.0841C16.5196 18.2716 16.2652 18.377 16 18.377C15.7348 18.377 15.4804 18.2716 15.2929 18.0841C15.1054 17.8965 15 17.6422 15 17.377V7.37695ZM7 7.37695C7 7.11174 7.10536 6.85738 7.29289 6.66985C7.48043 6.48231 7.73478 6.37695 8 6.37695C8.26522 6.37695 8.51957 6.48231 8.70711 6.66985C8.89464 6.85738 9 7.11174 9 7.37695V17.377C9 17.6422 8.89464 17.8965 8.70711 18.0841C8.51957 18.2716 8.26522 18.377 8 18.377C7.73478 18.377 7.48043 18.2716 7.29289 18.0841C7.10536 17.8965 7 17.6422 7 17.377V7.37695Z" fill="#373D40"/>
</g>
<defs>
<clipPath id="clip0_1924_16569">
<rect width="24" height="24" fill="white" transform="translate(0 0.376953)"/>
</clipPath>
</defs>
</svg>
