<svg width="24" height="25" viewBox="0 0 24 25" fill="none" xmlns="http://www.w3.org/2000/svg">
<path fill-rule="evenodd" clip-rule="evenodd" d="M6.98525 15.4378C3.9433 16.9442 1.35586 19.6126 3.24047 20.3804C5.41129 21.2649 7.67273 18.8825 9.07636 16.3736C10.9065 15.6209 14.4872 14.454 15.3508 14.3304C17.0599 15.8882 21.3989 16.7819 21.3989 14.3759C21.1585 12.7662 19.151 12.052 15.8227 12.8639C15.1838 12.3809 14.6917 11.6804 14.2399 11.0373L14.2165 11.0041C13.9331 10.6007 13.5638 9.9756 13.2441 9.43441C13.047 9.10076 12.8687 8.79899 12.741 8.60073C12.9422 8.45976 13.6077 7.15217 13.7822 6.58993C13.9274 5.92188 13.6968 4.89313 13.4602 4.07666C12.9953 1.83518 12.0009 1.84919 11.9039 1.85056C11.902 1.85058 11.9004 1.8506 11.8992 1.8506C10.4415 1.64587 9.25558 5.14695 10.5525 8.60073C10.5275 9.30074 9.02938 12.8691 8.08507 14.9539C7.80283 15.0663 7.21764 15.3141 6.98525 15.4378ZM11.9329 7.7489C11.3551 6.92663 11.1329 3.03754 11.6959 2.6227C11.7875 2.73955 11.8934 2.87997 12.0068 3.03054C12.4982 3.68255 13.133 4.52502 13.3866 4.46886C13.3866 5.93823 12.4652 7.08389 12.0606 7.58701L12.0605 7.58703C12.0084 7.65189 11.9648 7.70608 11.9329 7.7489ZM10.4972 14.5255C11.3973 14.1945 12.7477 13.698 14.2858 13.4163C13.3209 12.7459 11.9648 10.2944 11.6958 9.48562C11.1521 11.1933 10.1126 14.2829 9.7559 14.7874C9.94628 14.728 10.1966 14.636 10.4972 14.5255ZM21.2877 14.5839C21.1155 13.6632 18.1259 13.3836 16.816 13.6034C16.863 14.2163 21.1615 15.0182 21.2877 14.5839ZM4.20327 19.4093C3.69902 18.6249 6.08794 16.3051 7.88698 15.4203C6.96226 17.025 4.65651 20.1143 4.20327 19.4093Z" fill="black"/>
<path d="M3.24047 20.3804L3.21407 20.4452L3.21407 20.4452L3.24047 20.3804ZM6.98525 15.4378L7.01632 15.5006L7.01813 15.4996L6.98525 15.4378ZM9.07636 16.3736L9.04975 16.3089L9.0272 16.3182L9.0153 16.3394L9.07636 16.3736ZM15.3508 14.3304L15.3979 14.2787L15.3736 14.2565L15.3409 14.2611L15.3508 14.3304ZM21.3989 14.3759H21.4697L21.4681 14.3656L21.3989 14.3759ZM15.8227 12.8639L15.7805 12.9197L15.807 12.9397L15.8392 12.9319L15.8227 12.8639ZM14.2399 11.0373L14.2972 10.9971L14.2972 10.9971L14.2399 11.0373ZM14.2165 11.0041L14.2738 10.9638L14.2738 10.9638L14.2165 11.0041ZM13.2441 9.43441L13.3043 9.39882L13.3043 9.39882L13.2441 9.43441ZM12.741 8.60073L12.7009 8.54342L12.6457 8.58204L12.6822 8.63862L12.741 8.60073ZM13.7822 6.58993L13.8493 6.61075L13.8506 6.60479L13.7822 6.58993ZM13.4602 4.07666L13.3915 4.09092L13.393 4.09613L13.4602 4.07666ZM11.9039 1.85056L11.9029 1.78059L11.9029 1.78059L11.9039 1.85056ZM11.8992 1.8506L11.8894 1.92058H11.8992V1.8506ZM10.5525 8.60073L10.6224 8.60322L10.6229 8.58923L10.618 8.57613L10.5525 8.60073ZM8.08507 14.9539L8.11095 15.0189L8.13716 15.0085L8.1488 14.9828L8.08507 14.9539ZM11.6959 2.6227L11.7509 2.57951L11.709 2.52611L11.6543 2.56637L11.6959 2.6227ZM11.9329 7.7489L11.8756 7.78912L11.9312 7.86823L11.989 7.7907L11.9329 7.7489ZM12.0068 3.03054L11.951 3.07265L11.951 3.07265L12.0068 3.03054ZM13.3866 4.46886H13.4566V4.38169L13.3715 4.40054L13.3866 4.46886ZM12.0606 7.58701L12.006 7.54315L12.0059 7.54329L12.0606 7.58701ZM12.0605 7.58703L12.1151 7.63088L12.1152 7.63074L12.0605 7.58703ZM14.2858 13.4163L14.2984 13.4851L14.4639 13.4548L14.3257 13.3588L14.2858 13.4163ZM10.4972 14.5255L10.5213 14.5911L10.5213 14.5911L10.4972 14.5255ZM11.6958 9.48562L11.7622 9.46354L11.6944 9.25955L11.6292 9.46439L11.6958 9.48562ZM9.7559 14.7874L9.69877 14.747L9.57942 14.9158L9.77675 14.8542L9.7559 14.7874ZM21.2877 14.5839L21.3549 14.6035L21.3595 14.5875L21.3564 14.5711L21.2877 14.5839ZM16.816 13.6034L16.8045 13.5344L16.7414 13.545L16.7463 13.6088L16.816 13.6034ZM4.20327 19.4093L4.14441 19.4471L4.14441 19.4471L4.20327 19.4093ZM7.88698 15.4203L7.9476 15.4552L8.06238 15.2561L7.8561 15.3575L7.88698 15.4203ZM7.65163 15.1428L7.62407 15.0785L7.62407 15.0785L7.65163 15.1428ZM10.5802 14.5102L10.6044 14.5759L10.6044 14.5759L10.5802 14.5102ZM14.3689 13.4011L14.3815 13.4699L14.5469 13.4396L14.4088 13.3436L14.3689 13.4011ZM11.7789 9.4704L11.8453 9.44832L11.7775 9.24433L11.7122 9.44917L11.7789 9.4704ZM13.35 4.45525H13.42V4.36808L13.3349 4.38693L13.35 4.45525ZM3.26687 20.3156C3.04021 20.2233 2.88698 20.1049 2.79301 19.9695C2.69955 19.8348 2.66092 19.6779 2.67257 19.5006C2.69616 19.1416 2.92611 18.7033 3.31919 18.2308C4.10269 17.2891 5.50118 16.2508 7.0163 15.5005L6.9542 15.3751C5.42737 16.1312 4.01116 17.1803 3.21161 18.1413C2.81317 18.6202 2.5595 19.0871 2.53293 19.4915C2.5195 19.6959 2.56416 19.8852 2.67804 20.0493C2.79141 20.2126 2.96958 20.3456 3.21407 20.4452L3.26687 20.3156ZM9.0153 16.3394C8.31599 17.5894 7.40511 18.8037 6.40277 19.5946C5.40016 20.3857 4.31899 20.7443 3.26687 20.3156L3.21407 20.4452C4.33277 20.901 5.46773 20.5107 6.48946 19.7044C7.51145 18.898 8.4331 17.6667 9.13742 16.4078L9.0153 16.3394ZM15.3409 14.2611C14.9018 14.324 13.7845 14.6489 12.5544 15.0496C11.3217 15.4511 9.96712 15.9316 9.04975 16.3089L9.10297 16.4383C10.0158 16.0629 11.3666 15.5836 12.5977 15.1826C13.8314 14.7808 14.9362 14.4605 15.3607 14.3997L15.3409 14.2611ZM21.329 14.3759C21.329 14.9515 21.0721 15.323 20.6614 15.5411C20.2451 15.7622 19.665 15.828 19.0221 15.7699C17.7363 15.6536 16.2394 15.0457 15.3979 14.2787L15.3037 14.3821C16.1713 15.1729 17.6985 15.7907 19.0095 15.9093C19.665 15.9685 20.2765 15.904 20.7271 15.6647C21.1834 15.4224 21.4689 15.0033 21.4689 14.3759H21.329ZM15.8392 12.9319C17.4973 12.5274 18.8176 12.5055 19.7491 12.7789C20.6772 13.0514 21.2144 13.6143 21.3297 14.3863L21.4681 14.3656C21.343 13.5278 20.7563 12.9287 19.7885 12.6446C18.824 12.3615 17.4763 12.3885 15.8061 12.7959L15.8392 12.9319ZM14.1826 11.0776C14.6331 11.7188 15.1313 12.4289 15.7805 12.9197L15.8649 12.8081C15.2363 12.3329 14.7502 11.642 14.2972 10.9971L14.1826 11.0776ZM14.1593 11.0443L14.1826 11.0776L14.2972 10.9971L14.2738 10.9638L14.1593 11.0443ZM13.1838 9.47C13.503 10.0102 13.8739 10.6381 14.1593 11.0443L14.2738 10.9638C13.9923 10.5633 13.6246 9.94099 13.3043 9.39882L13.1838 9.47ZM12.6822 8.63862C12.809 8.83546 12.9864 9.1358 13.1838 9.47L13.3043 9.39882C13.1075 9.06571 12.9285 8.76252 12.7998 8.56284L12.6822 8.63862ZM13.7154 6.56919C13.63 6.84432 13.4222 7.3074 13.2094 7.7213C13.1032 7.92772 12.9966 8.12023 12.9045 8.26936C12.8584 8.34399 12.8164 8.40688 12.7804 8.45491C12.7429 8.50483 12.7162 8.5327 12.7009 8.54342L12.7812 8.65803C12.8162 8.63351 12.8542 8.58968 12.8923 8.53892C12.9318 8.48626 12.9763 8.41947 13.0236 8.34291C13.1182 8.18965 13.2267 7.99369 13.3338 7.78531C13.5476 7.36961 13.7599 6.89778 13.849 6.61067L13.7154 6.56919ZM13.393 4.09613C13.5109 4.50298 13.6268 4.96111 13.6952 5.39974C13.7638 5.83973 13.7836 6.25374 13.7138 6.57507L13.8506 6.60479C13.9259 6.25808 13.903 5.82368 13.8335 5.37817C13.7638 4.93129 13.6461 4.46681 13.5275 4.05719L13.393 4.09613ZM11.9049 1.92052C11.9432 1.91998 12.1968 1.91401 12.4983 2.1754C12.8015 2.4384 13.1611 2.979 13.3917 4.09087L13.5288 4.06245C13.2944 2.93284 12.9243 2.3597 12.5899 2.06968C12.2537 1.77805 11.9616 1.77976 11.9029 1.78059L11.9049 1.92052ZM11.8992 1.92058C11.9011 1.92058 11.9032 1.92054 11.9049 1.92052L11.9029 1.78059C11.9008 1.78062 11.8998 1.78063 11.8992 1.78063V1.92058ZM10.618 8.57613C9.97446 6.86237 9.94764 5.13808 10.2608 3.87051C10.4175 3.23634 10.6582 2.72085 10.9451 2.37817C11.232 2.03553 11.5575 1.87327 11.8895 1.9199L11.909 1.78131C11.5121 1.72557 11.1427 1.92417 10.8378 2.28833C10.5329 2.65246 10.2849 3.18971 10.125 3.83694C9.80495 5.13217 9.8336 6.88531 10.487 8.62532L10.618 8.57613ZM8.1488 14.9828C8.62132 13.9396 9.23234 12.5253 9.72849 11.284C9.97653 10.6634 10.1961 10.0853 10.3554 9.61812C10.435 9.38458 10.4998 9.17801 10.5456 9.0073C10.591 8.83808 10.619 8.69922 10.6224 8.60322L10.4826 8.59823C10.4797 8.67724 10.4555 8.80301 10.4104 8.97107C10.3658 9.13763 10.3021 9.34097 10.223 9.57297C10.0648 10.0369 9.84619 10.6124 9.59854 11.232C9.10331 12.4711 8.49314 13.8834 8.02133 14.9251L8.1488 14.9828ZM7.01813 15.4996C7.24668 15.3779 7.82852 15.1314 8.11095 15.0189L8.05918 14.8889C7.77713 15.0012 7.1886 15.2503 6.95237 15.3761L7.01813 15.4996ZM11.6543 2.56637C11.5651 2.63215 11.5015 2.75695 11.454 2.90726C11.4054 3.06089 11.3695 3.25497 11.3446 3.47518C11.2947 3.91599 11.2879 4.47078 11.3167 5.03657C11.3455 5.60259 11.4102 6.18206 11.5042 6.67254C11.5975 7.15915 11.7217 7.57003 11.8756 7.78912L11.9901 7.70867C11.8552 7.51663 11.735 7.13302 11.6416 6.6462C11.5491 6.16325 11.485 5.59035 11.4565 5.02945C11.4279 4.46834 11.4349 3.92168 11.4837 3.49092C11.508 3.27534 11.5426 3.0911 11.5874 2.94944C11.6332 2.80445 11.6859 2.71697 11.7374 2.67903L11.6543 2.56637ZM12.0627 2.98843C11.9494 2.83802 11.8431 2.697 11.7509 2.57951L11.6408 2.6659C11.732 2.78209 11.8374 2.92191 11.951 3.07265L12.0627 2.98843ZM13.3715 4.40054C13.3605 4.40297 13.3391 4.402 13.3031 4.38599C13.2679 4.37034 13.2256 4.34334 13.1765 4.3046C13.0786 4.22722 12.9634 4.11048 12.8383 3.96894C12.5887 3.6863 12.3089 3.31506 12.0627 2.98843L11.951 3.07265C12.1962 3.39803 12.4794 3.77404 12.7334 4.06159C12.8603 4.20515 12.982 4.32925 13.0898 4.4144C13.1436 4.45694 13.1963 4.49163 13.2462 4.51386C13.2954 4.53571 13.3493 4.54878 13.4017 4.53717L13.3715 4.40054ZM12.1151 7.63086C12.5188 7.1289 13.4566 5.96561 13.4566 4.46886H13.3166C13.3166 5.91085 12.4116 7.03888 12.006 7.54315L12.1151 7.63086ZM12.1152 7.63074L12.1152 7.63072L12.0059 7.54329L12.0059 7.54332L12.1152 7.63074ZM11.989 7.7907C12.02 7.74916 12.0626 7.69615 12.1151 7.63088L12.006 7.54317C11.9542 7.60764 11.9096 7.66299 11.8768 7.70709L11.989 7.7907ZM14.2732 13.3474C12.7285 13.6304 11.3731 14.1289 10.473 14.4598L10.5213 14.5911C11.4215 14.2601 12.7669 13.7656 14.2984 13.4851L14.2732 13.3474ZM11.6294 9.5077C11.7665 9.91975 12.1761 10.7403 12.6703 11.5396C12.9179 11.9401 13.1879 12.337 13.4571 12.6765C13.7255 13.015 13.9962 13.3003 14.2459 13.4737L14.3257 13.3588C14.0929 13.1971 13.8323 12.9245 13.5667 12.5896C13.3019 12.2556 13.035 11.8634 12.7894 11.466C12.2971 10.6699 11.8942 9.86022 11.7622 9.46354L11.6294 9.5077ZM9.81304 14.8278C9.90781 14.6938 10.0426 14.398 10.1979 14.0125C10.3546 13.6239 10.5353 13.136 10.7217 12.6111C11.0944 11.5613 11.4905 10.3612 11.7625 9.50685L11.6292 9.46439C11.3575 10.3177 10.9619 11.5163 10.5898 12.5643C10.4037 13.0884 10.2237 13.5742 10.0681 13.9602C9.91131 14.3492 9.78235 14.6288 9.69877 14.747L9.81304 14.8278ZM10.473 14.4598C10.1718 14.5705 9.92337 14.6618 9.73505 14.7206L9.77675 14.8542C9.96919 14.7941 10.2215 14.7014 10.5213 14.5911L10.473 14.4598ZM21.3564 14.5711C21.3067 14.3053 21.0588 14.1019 20.7302 13.948C20.3972 13.792 19.9594 13.6762 19.4901 13.597C18.5518 13.4385 17.4688 13.4229 16.8045 13.5344L16.8276 13.6724C17.4731 13.5641 18.5399 13.5784 19.4668 13.7349C19.9302 13.8132 20.354 13.9263 20.6708 14.0747C20.9922 14.2253 21.1825 14.4022 21.2189 14.5968L21.3564 14.5711ZM16.7463 13.6088C16.7508 13.6673 16.78 13.7201 16.8197 13.766C16.8596 13.8121 16.914 13.8561 16.9783 13.8979C17.1067 13.9817 17.2844 14.0637 17.4922 14.1418C17.9085 14.2981 18.458 14.4431 19.0082 14.5549C19.5584 14.6668 20.1126 14.7461 20.5384 14.77C20.7508 14.7819 20.9346 14.7803 21.0711 14.7609C21.139 14.7513 21.1993 14.7367 21.2466 14.7147C21.2927 14.6933 21.3387 14.659 21.3549 14.6035L21.2205 14.5644C21.2205 14.5644 21.2205 14.5645 21.2204 14.5647C21.2203 14.5648 21.2202 14.5651 21.2199 14.5656C21.2193 14.5665 21.2181 14.5681 21.2158 14.5703C21.2109 14.5748 21.2022 14.581 21.1877 14.5878C21.1582 14.6015 21.1132 14.6136 21.0514 14.6224C20.9284 14.6398 20.7553 14.642 20.5463 14.6303C20.1292 14.6068 19.5821 14.5288 19.0361 14.4178C18.4899 14.3068 17.9482 14.1636 17.5414 14.0108C17.3376 13.9342 17.1708 13.8564 17.0547 13.7807C16.9966 13.7429 16.9538 13.7072 16.9255 13.6745C16.8971 13.6415 16.8872 13.6162 16.8858 13.5981L16.7463 13.6088ZM4.26213 19.3714C4.21086 19.2917 4.19329 19.1881 4.21222 19.0591C4.23123 18.9296 4.2865 18.7791 4.37495 18.6123C4.55181 18.2788 4.85445 17.893 5.2318 17.501C5.98634 16.7171 7.02692 15.9213 7.91786 15.4831L7.8561 15.3575C6.948 15.8042 5.8946 16.6106 5.13098 17.4039C4.74926 17.8005 4.43678 18.197 4.25131 18.5467C4.15861 18.7215 4.09591 18.8878 4.07376 19.0388C4.05154 19.1902 4.06962 19.3308 4.14441 19.4471L4.26213 19.3714ZM7.82635 15.3854C7.36602 16.1842 6.56079 17.3543 5.8149 18.2357C5.44139 18.6772 5.08611 19.0422 4.79868 19.2526C4.65402 19.3586 4.53348 19.4201 4.44096 19.4373C4.39578 19.4457 4.36079 19.4429 4.33368 19.4328C4.30739 19.4229 4.28326 19.4043 4.26213 19.3714L4.14441 19.4471C4.17994 19.5024 4.22694 19.5422 4.28466 19.5638C4.34157 19.5851 4.4035 19.5866 4.46655 19.5749C4.59049 19.5518 4.73167 19.4752 4.88136 19.3655C5.18263 19.1449 5.54657 18.7695 5.92173 18.3261C6.6732 17.4381 7.48322 16.2611 7.9476 15.4552L7.82635 15.3854ZM7.0163 15.5005C7.15751 15.4306 7.4286 15.3145 7.67918 15.2071L7.62407 15.0785C7.3755 15.185 7.09979 15.3031 6.9542 15.3751L7.0163 15.5005ZM7.67918 15.2071C7.85174 15.1332 8.01439 15.0635 8.11434 15.0175L8.05579 14.8904C7.95799 14.9354 7.79752 15.0042 7.62407 15.0785L7.67918 15.2071ZM9.85983 14.839C10.0523 14.7789 10.3045 14.6862 10.6044 14.5759L10.5561 14.4446C10.2549 14.5553 10.0064 14.6466 9.81812 14.7054L9.85983 14.839ZM10.6044 14.5759C11.5046 14.2449 12.8499 13.7504 14.3815 13.4699L14.3563 13.3322C12.8116 13.6152 11.4561 14.1136 10.5561 14.4446L10.6044 14.5759ZM14.4088 13.3436C14.176 13.1819 13.9154 12.9093 13.6498 12.5743C13.3849 12.2403 13.1181 11.8482 12.8724 11.4508C12.3802 10.6547 11.9772 9.845 11.8453 9.44832L11.7125 9.49248C11.8496 9.90453 12.2592 10.725 12.7534 11.5244C13.001 11.9249 13.2709 12.3218 13.5401 12.6613C13.8086 12.9998 14.0793 13.2851 14.3289 13.4585L14.4088 13.3436ZM11.7122 9.44917C11.6987 9.4918 11.6848 9.53528 11.6706 9.57957L11.8039 9.62222C11.8181 9.57787 11.832 9.53432 11.8456 9.49163L11.7122 9.44917ZM7.80797 15.6714C7.8433 15.6531 7.8784 15.6354 7.91326 15.6183L7.8515 15.4927C7.8158 15.5103 7.77988 15.5284 7.74378 15.547L7.80797 15.6714ZM11.6042 2.65229C11.6109 2.66092 11.6178 2.66968 11.6247 2.67857L11.7351 2.59253C11.7281 2.58353 11.7211 2.57465 11.7143 2.5659L11.6042 2.65229ZM11.9143 3.05904C12.1595 3.38442 12.4428 3.76042 12.6968 4.04797C12.8236 4.19154 12.9454 4.31564 13.0531 4.40079C13.107 4.44332 13.1596 4.47802 13.2096 4.50025C13.2588 4.5221 13.3127 4.53517 13.3651 4.52356L13.3349 4.38693C13.3239 4.38936 13.3025 4.38839 13.2665 4.37237C13.2313 4.35673 13.1889 4.32973 13.1399 4.29099C13.042 4.2136 12.9267 4.09687 12.8017 3.95533C12.552 3.67268 12.2722 3.30144 12.0261 2.97482L11.9143 3.05904ZM11.9524 7.77709C11.9568 7.77112 11.9615 7.76488 11.9665 7.75837L11.8553 7.6734C11.8501 7.68029 11.845 7.68699 11.8402 7.69348L11.9524 7.77709ZM13.4199 4.47138C13.4199 4.466 13.42 4.46062 13.42 4.45525H13.28C13.28 4.46042 13.28 4.46559 13.28 4.47075L13.4199 4.47138Z" fill="black"/>
</svg>
