<svg width="24" height="25" viewBox="0 0 24 25" fill="none" xmlns="http://www.w3.org/2000/svg">
<path fill-rule="evenodd" clip-rule="evenodd" d="M6.98525 15.4378C3.9433 16.9441 1.35586 19.6125 3.24047 20.3803C5.41128 21.2648 7.67273 18.8824 9.07636 16.3735C10.9065 15.6209 14.4872 14.4539 15.3508 14.3303C17.0599 15.8881 21.3989 16.7818 21.3989 14.3758C21.1585 12.7661 19.151 12.0519 15.8227 12.8638C15.1838 12.3808 14.6917 11.6803 14.2399 11.0373L14.2165 11.004C13.9331 10.6006 13.5638 9.97551 13.2441 9.43432C13.047 9.10067 12.8687 8.7989 12.741 8.60063C12.9422 8.45967 13.6077 7.15208 13.7822 6.58984C13.9274 5.92179 13.6968 4.89304 13.4602 4.07657C12.9953 1.83509 12.0009 1.8491 11.9039 1.85047C11.902 1.85049 11.9004 1.85051 11.8992 1.85051C10.4415 1.64578 9.25558 5.14686 10.5525 8.60063C10.5275 9.30065 9.02938 12.869 8.08507 14.9538C7.80283 15.0662 7.21764 15.314 6.98525 15.4378ZM11.9329 7.74881C11.3551 6.92654 11.1329 3.03745 11.6958 2.62261C11.7875 2.73946 11.8934 2.87988 12.0068 3.03046C12.4982 3.68247 13.133 4.52493 13.3866 4.46877C13.3866 5.93814 12.4652 7.08379 12.0606 7.58692L12.0605 7.58694C12.0084 7.6518 11.9648 7.70599 11.9329 7.74881ZM10.4972 14.5254C11.3973 14.1944 12.7477 13.6979 14.2858 13.4162C13.3209 12.7458 11.9648 10.2943 11.6958 9.48553C11.1521 11.1932 10.1126 14.2828 9.7559 14.7873C9.94628 14.7279 10.1966 14.6359 10.4972 14.5254ZM21.2877 14.5838C21.1155 13.6631 18.1259 13.3835 16.816 13.6034C16.863 14.2162 21.1615 15.0181 21.2877 14.5838ZM4.20327 19.4092C3.69902 18.6248 6.08794 16.3051 7.88698 15.4202C6.96225 17.0249 4.65651 20.1142 4.20327 19.4092Z" fill="#373D40"/>
<path d="M3.24047 20.3803L3.21407 20.4451L3.21407 20.4451L3.24047 20.3803ZM6.98525 15.4378L7.01632 15.5005L7.01813 15.4995L6.98525 15.4378ZM9.07636 16.3735L9.04975 16.3088L9.0272 16.3181L9.01529 16.3393L9.07636 16.3735ZM15.3508 14.3303L15.3979 14.2786L15.3736 14.2564L15.3409 14.2611L15.3508 14.3303ZM21.3989 14.3758H21.4697L21.4681 14.3655L21.3989 14.3758ZM15.8227 12.8638L15.7805 12.9196L15.807 12.9396L15.8392 12.9318L15.8227 12.8638ZM14.2399 11.0373L14.2972 10.997L14.2972 10.997L14.2399 11.0373ZM14.2165 11.004L14.2738 10.9637L14.2738 10.9637L14.2165 11.004ZM13.2441 9.43432L13.3043 9.39873L13.3043 9.39873L13.2441 9.43432ZM12.741 8.60063L12.7009 8.54333L12.6457 8.58195L12.6822 8.63852L12.741 8.60063ZM13.7822 6.58984L13.8493 6.61066L13.8506 6.6047L13.7822 6.58984ZM13.4602 4.07657L13.3915 4.09083L13.393 4.09604L13.4602 4.07657ZM11.9039 1.85047L11.9029 1.7805L11.9029 1.7805L11.9039 1.85047ZM11.8992 1.85051L11.8894 1.92049H11.8992V1.85051ZM10.5525 8.60063L10.6224 8.60313L10.6229 8.58914L10.618 8.57604L10.5525 8.60063ZM8.08507 14.9538L8.11095 15.0188L8.13716 15.0084L8.1488 14.9827L8.08507 14.9538ZM11.6958 2.62261L11.7509 2.57941L11.709 2.52602L11.6543 2.56628L11.6958 2.62261ZM11.9329 7.74881L11.8756 7.78903L11.9312 7.86814L11.989 7.79061L11.9329 7.74881ZM12.0068 3.03046L11.951 3.07257L11.951 3.07257L12.0068 3.03046ZM13.3866 4.46877H13.4566V4.3816L13.3715 4.40045L13.3866 4.46877ZM12.0606 7.58692L12.006 7.54306L12.0059 7.5432L12.0606 7.58692ZM12.0605 7.58694L12.1151 7.63079L12.1152 7.63065L12.0605 7.58694ZM14.2858 13.4162L14.2984 13.485L14.4639 13.4547L14.3257 13.3587L14.2858 13.4162ZM10.4972 14.5254L10.5213 14.591L10.5213 14.591L10.4972 14.5254ZM11.6958 9.48553L11.7622 9.46345L11.6944 9.25946L11.6292 9.4643L11.6958 9.48553ZM9.7559 14.7873L9.69877 14.7469L9.57942 14.9157L9.77675 14.8541L9.7559 14.7873ZM21.2877 14.5838L21.3549 14.6034L21.3595 14.5874L21.3564 14.571L21.2877 14.5838ZM16.816 13.6034L16.8045 13.5343L16.7414 13.5449L16.7463 13.6087L16.816 13.6034ZM4.20327 19.4092L4.26213 19.3713L4.26213 19.3713L4.20327 19.4092ZM7.88698 15.4202L7.9476 15.4552L8.06238 15.256L7.85609 15.3574L7.88698 15.4202ZM3.26687 20.3155C3.04021 20.2232 2.88698 20.1048 2.79301 19.9694C2.69955 19.8347 2.66092 19.6778 2.67257 19.5005C2.69616 19.1415 2.92611 18.7032 3.31919 18.2307C4.10269 17.289 5.50118 16.2507 7.0163 15.5005L6.9542 15.375C5.42737 16.1311 4.01116 17.1802 3.21161 18.1412C2.81317 18.6201 2.55949 19.0871 2.53293 19.4914C2.5195 19.6958 2.56416 19.8851 2.67804 20.0492C2.79141 20.2126 2.96958 20.3455 3.21407 20.4451L3.26687 20.3155ZM9.01529 16.3393C8.31599 17.5893 7.40511 18.8036 6.40277 19.5945C5.40016 20.3856 4.31899 20.7442 3.26687 20.3155L3.21407 20.4451C4.33277 20.9009 5.46772 20.5106 6.48945 19.7044C7.51145 18.8979 8.4331 17.6666 9.13742 16.4077L9.01529 16.3393ZM15.3409 14.2611C14.9018 14.3239 13.7845 14.6488 12.5544 15.0495C11.3217 15.451 9.96712 15.9315 9.04975 16.3088L9.10297 16.4382C10.0158 16.0628 11.3666 15.5836 12.5977 15.1826C13.8314 14.7807 14.9362 14.4604 15.3607 14.3996L15.3409 14.2611ZM21.329 14.3758C21.329 14.9514 21.0721 15.3229 20.6614 15.541C20.2451 15.7622 19.665 15.8279 19.0221 15.7698C17.7363 15.6535 16.2394 15.0456 15.3979 14.2786L15.3037 14.382C16.1713 15.1728 17.6985 15.7906 19.0095 15.9092C19.665 15.9685 20.2765 15.9039 20.7271 15.6646C21.1834 15.4223 21.4689 15.0033 21.4689 14.3758H21.329ZM15.8392 12.9318C17.4973 12.5273 18.8176 12.5054 19.7491 12.7788C20.6772 13.0513 21.2144 13.6142 21.3297 14.3862L21.4681 14.3655C21.343 13.5277 20.7563 12.9287 19.7885 12.6445C18.824 12.3614 17.4763 12.3884 15.8061 12.7958L15.8392 12.9318ZM14.1826 11.0775C14.6331 11.7187 15.1313 12.4289 15.7805 12.9196L15.8649 12.808C15.2363 12.3328 14.7502 11.6419 14.2972 10.997L14.1826 11.0775ZM14.1593 11.0442L14.1826 11.0775L14.2972 10.997L14.2738 10.9637L14.1593 11.0442ZM13.1838 9.46991C13.503 10.0101 13.8739 10.638 14.1593 11.0442L14.2738 10.9637C13.9923 10.5632 13.6246 9.9409 13.3043 9.39873L13.1838 9.46991ZM12.6822 8.63852C12.809 8.83537 12.9864 9.13571 13.1838 9.46991L13.3043 9.39873C13.1075 9.06562 12.9285 8.76243 12.7998 8.56274L12.6822 8.63852ZM13.7154 6.5691C13.63 6.84423 13.4222 7.30731 13.2094 7.72121C13.1032 7.92763 12.9966 8.12014 12.9045 8.26927C12.8584 8.3439 12.8164 8.40679 12.7804 8.45481C12.7429 8.50474 12.7162 8.53261 12.7009 8.54333L12.7812 8.65794C12.8162 8.63342 12.8542 8.58959 12.8923 8.53883C12.9318 8.48616 12.9763 8.41938 13.0236 8.34282C13.1182 8.18956 13.2267 7.9936 13.3338 7.78522C13.5476 7.36952 13.7599 6.89769 13.849 6.61058L13.7154 6.5691ZM13.393 4.09604C13.5109 4.50289 13.6268 4.96102 13.6952 5.39965C13.7638 5.83964 13.7836 6.25365 13.7138 6.57498L13.8506 6.6047C13.9259 6.25798 13.903 5.82359 13.8335 5.37808C13.7638 4.9312 13.6461 4.46672 13.5275 4.0571L13.393 4.09604ZM11.9049 1.92043C11.9432 1.91989 12.1968 1.91392 12.4982 2.17531C12.8015 2.43831 13.1611 2.97891 13.3917 4.09078L13.5288 4.06236C13.2944 2.93275 12.9243 2.35961 12.5899 2.06959C12.2537 1.77796 11.9616 1.77967 11.9029 1.7805L11.9049 1.92043ZM11.8992 1.92049C11.9011 1.92049 11.9032 1.92045 11.9049 1.92043L11.9029 1.7805C11.9008 1.78053 11.8998 1.78054 11.8992 1.78054V1.92049ZM10.618 8.57604C9.97446 6.86228 9.94764 5.13798 10.2608 3.87042C10.4175 3.23624 10.6582 2.72076 10.9451 2.37808C11.232 2.03544 11.5575 1.87318 11.8895 1.91981L11.909 1.78122C11.5121 1.72548 11.1427 1.92408 10.8378 2.28824C10.5329 2.65237 10.2849 3.18962 10.1249 3.83685C9.80494 5.13208 9.8336 6.88522 10.487 8.62523L10.618 8.57604ZM8.1488 14.9827C8.62131 13.9395 9.23234 12.5252 9.72849 11.2839C9.97653 10.6633 10.1961 10.0852 10.3554 9.61803C10.435 9.38449 10.4998 9.17792 10.5456 9.00721C10.591 8.83799 10.619 8.69913 10.6224 8.60313L10.4826 8.59814C10.4797 8.67715 10.4555 8.80292 10.4104 8.97098C10.3658 9.13754 10.3021 9.34088 10.223 9.57288C10.0648 10.0368 9.84619 10.6123 9.59854 11.2319C9.10331 12.471 8.49313 13.8833 8.02133 14.925L8.1488 14.9827ZM7.01813 15.4995C7.24668 15.3779 7.82852 15.1313 8.11095 15.0188L8.05918 14.8888C7.77713 15.0011 7.1886 15.2502 6.95237 15.376L7.01813 15.4995ZM11.6543 2.56628C11.5651 2.63206 11.5015 2.75686 11.454 2.90717C11.4054 3.0608 11.3695 3.25488 11.3446 3.47509C11.2947 3.9159 11.2879 4.47069 11.3167 5.03648C11.3455 5.6025 11.4102 6.18197 11.5042 6.67245C11.5975 7.15906 11.7217 7.56994 11.8756 7.78903L11.9901 7.70858C11.8552 7.51654 11.735 7.13293 11.6416 6.64611C11.5491 6.16316 11.485 5.59026 11.4565 5.02936C11.4279 4.46825 11.4349 3.92159 11.4836 3.49083C11.508 3.27525 11.5426 3.09101 11.5874 2.94935C11.6332 2.80436 11.6859 2.71688 11.7374 2.67894L11.6543 2.56628ZM12.0627 2.98835C11.9494 2.83794 11.8431 2.69691 11.7509 2.57941L11.6408 2.66581C11.732 2.782 11.8374 2.92182 11.951 3.07257L12.0627 2.98835ZM13.3715 4.40045C13.3605 4.40288 13.3391 4.40191 13.3031 4.3859C13.2679 4.37025 13.2256 4.34325 13.1765 4.30451C13.0786 4.22713 12.9634 4.11039 12.8383 3.96885C12.5887 3.68621 12.3089 3.31497 12.0627 2.98835L11.951 3.07257C12.1962 3.39795 12.4795 3.77395 12.7334 4.0615C12.8603 4.20506 12.982 4.32916 13.0898 4.41431C13.1436 4.45685 13.1963 4.49154 13.2462 4.51377C13.2954 4.53562 13.3493 4.54869 13.4017 4.53708L13.3715 4.40045ZM12.1151 7.63077C12.5188 7.1288 13.4566 5.96552 13.4566 4.46877H13.3166C13.3166 5.91076 12.4116 7.03878 12.006 7.54306L12.1151 7.63077ZM12.1152 7.63065L12.1152 7.63063L12.0059 7.5432L12.0059 7.54323L12.1152 7.63065ZM11.989 7.79061C12.02 7.74907 12.0626 7.69606 12.1151 7.63079L12.006 7.54308C11.9542 7.60754 11.9096 7.6629 11.8768 7.707L11.989 7.79061ZM14.2732 13.3474C12.7285 13.6303 11.3731 14.1288 10.473 14.4597L10.5213 14.591C11.4215 14.2601 12.7669 13.7655 14.2984 13.485L14.2732 13.3474ZM11.6294 9.50761C11.7665 9.91966 12.1761 10.7402 12.6703 11.5395C12.9179 11.94 13.1879 12.3369 13.4571 12.6764C13.7255 13.0149 13.9962 13.3002 14.2459 13.4736L14.3257 13.3587C14.0929 13.197 13.8323 12.9244 13.5667 12.5895C13.3019 12.2555 13.035 11.8633 12.7894 11.466C12.2971 10.6698 11.8942 9.86013 11.7622 9.46345L11.6294 9.50761ZM9.81303 14.8277C9.90781 14.6937 10.0426 14.3979 10.1979 14.0124C10.3546 13.6238 10.5353 13.1359 10.7217 12.611C11.0944 11.5612 11.4905 10.3611 11.7625 9.50676L11.6292 9.4643C11.3575 10.3177 10.9619 11.5162 10.5898 12.5642C10.4037 13.0883 10.2237 13.5741 10.0681 13.9601C9.91131 14.3492 9.78235 14.6287 9.69877 14.7469L9.81303 14.8277ZM10.473 14.4597C10.1718 14.5704 9.92337 14.6618 9.73505 14.7205L9.77675 14.8541C9.96919 14.7941 10.2215 14.7013 10.5213 14.591L10.473 14.4597ZM21.3564 14.571C21.3067 14.3052 21.0588 14.1019 20.7302 13.9479C20.3972 13.7919 19.9594 13.6761 19.4901 13.5969C18.5518 13.4384 17.4688 13.4228 16.8045 13.5343L16.8276 13.6724C17.4731 13.564 18.5399 13.5783 19.4668 13.7349C19.9302 13.8131 20.354 13.9262 20.6708 14.0746C20.9922 14.2252 21.1825 14.4021 21.2189 14.5967L21.3564 14.571ZM16.7463 13.6087C16.7508 13.6672 16.78 13.72 16.8197 13.7659C16.8596 13.8121 16.914 13.856 16.9783 13.8979C17.1067 13.9816 17.2844 14.0636 17.4922 14.1417C17.9085 14.298 18.458 14.443 19.0082 14.5548C19.5584 14.6667 20.1126 14.746 20.5384 14.7699C20.7508 14.7818 20.9346 14.7802 21.0711 14.7608C21.139 14.7512 21.1993 14.7366 21.2466 14.7146C21.2927 14.6932 21.3387 14.6589 21.3549 14.6034L21.2205 14.5643C21.2205 14.5643 21.2205 14.5644 21.2204 14.5646C21.2203 14.5647 21.2202 14.565 21.2199 14.5655C21.2193 14.5664 21.2181 14.568 21.2158 14.5702C21.2109 14.5747 21.2022 14.5809 21.1877 14.5877C21.1582 14.6014 21.1132 14.6135 21.0514 14.6223C20.9284 14.6397 20.7553 14.6419 20.5463 14.6302C20.1292 14.6067 19.5821 14.5287 19.0361 14.4177C18.4899 14.3067 17.9482 14.1635 17.5414 14.0107C17.3376 13.9341 17.1708 13.8563 17.0547 13.7806C16.9966 13.7428 16.9538 13.7071 16.9255 13.6744C16.8971 13.6414 16.8872 13.6161 16.8858 13.598L16.7463 13.6087ZM4.26213 19.3713C4.21086 19.2916 4.19329 19.188 4.21222 19.059C4.23123 18.9295 4.28649 18.779 4.37495 18.6122C4.55181 18.2787 4.85445 17.8929 5.2318 17.5009C5.98634 16.717 7.02692 15.9212 7.91786 15.483L7.85609 15.3574C6.948 15.8041 5.8946 16.6105 5.13098 17.4038C4.74926 17.8004 4.43678 18.1969 4.25131 18.5466C4.1586 18.7215 4.09591 18.8878 4.07376 19.0387C4.05154 19.1901 4.06962 19.3307 4.14441 19.447L4.26213 19.3713ZM7.82635 15.3853C7.36602 16.1841 6.56079 17.3542 5.8149 18.2357C5.44138 18.6771 5.08611 19.0421 4.79868 19.2525C4.65402 19.3585 4.53348 19.42 4.44096 19.4372C4.39578 19.4456 4.36079 19.4428 4.33368 19.4327C4.30739 19.4228 4.28326 19.4042 4.26213 19.3713L4.14441 19.447C4.17994 19.5023 4.22693 19.5421 4.28466 19.5637C4.34157 19.585 4.4035 19.5865 4.46655 19.5748C4.59049 19.5518 4.73167 19.4751 4.88136 19.3655C5.18263 19.1448 5.54657 18.7694 5.92173 18.3261C6.6732 17.438 7.48322 16.261 7.9476 15.4552L7.82635 15.3853Z" fill="#373D40"/>
</svg>
