<svg width="24" height="24" viewBox="0 0 24 24" fill="none" xmlns="http://www.w3.org/2000/svg">
<path d="M11.9943 2.25438C9.95314 2.25438 8.33355 3.87396 8.33355 5.91508C8.33355 7.95621 9.95314 9.57579 11.9943 9.57579C14.0354 9.57579 15.655 7.95621 15.655 5.91508C15.655 3.87396 14.0354 2.25438 11.9943 2.25438ZM8.33355 14.7008L8.06732 21.0238C9.35411 21.6894 10.8406 22 12.3714 22C13.6138 22 14.8563 21.7781 15.9656 21.3122L15.6993 14.6564C16.2096 14.8783 17.1636 16.875 17.1636 16.875C17.1636 16.875 17.6739 17.6072 17.9179 20.5135L20.0922 19.7814L19.2935 16.1207C19.2935 16.1207 17.8292 10.9957 14.9006 10.9957H9.08788C6.11494 11.0401 4.69503 16.1207 4.69503 16.1207L3.96289 19.8258L6.1815 20.5801C6.40336 17.6515 6.91364 16.9194 6.91364 16.9194C6.91364 16.9194 7.84546 14.9226 8.33355 14.7008Z" fill="black"/>
</svg>
