<svg width="24" height="24" viewBox="0 0 24 24" fill="none" xmlns="http://www.w3.org/2000/svg">
<path fill-rule="evenodd" clip-rule="evenodd" d="M4.59447 17.1159C5.56146 14.9289 6.86328 12.518 8.49992 13.5C9.12705 13.8763 9.55756 14.2624 9.89934 14.5689C10.6475 15.2399 10.9705 15.5296 12.0002 14.5C12.0218 14.4783 12.0724 14.4168 12.1481 14.3246L12.1481 14.3246C13.1453 13.1109 18.5129 6.57795 19.9999 15.5C20.0272 15.6638 20.0516 15.8245 20.0733 15.9823C20.6666 14.7817 21 13.4298 21 12C21 7.02944 16.9706 3 12 3C7.02944 3 3 7.02944 3 12C3 13.9004 3.58903 15.6633 4.59447 17.1159ZM4.13682 18.1789C2.79841 16.478 2 14.3323 2 12C2 6.47715 6.47715 2 12 2C17.5228 2 22 6.47715 22 12C22 17.5228 17.5228 22 12 22C11.6548 22 11.3137 21.9825 10.9776 21.9484C10.4401 21.8938 9.91522 21.7966 9.40635 21.6604C7.29145 21.094 5.45301 19.8516 4.13679 18.179L4.13682 18.1789ZM11 9C11 10.1046 10.1046 11 9 11C7.89543 11 7 10.1046 7 9C7 7.89543 7.89543 7 9 7C10.1046 7 11 7.89543 11 9ZM15.8572 7.66667L15.8572 7.66662C15.8571 7.29845 15.3455 7 14.7143 7C14.0831 7 13.5715 7.29848 13.5715 7.66667C13.5715 7.71592 13.5451 7.7641 13.4993 7.78232C13.1979 7.90235 13 8.10436 13 8.33333C13 8.70152 13.5117 9 14.1429 9H15.8572C16.4884 9 17.0001 8.70152 17.0001 8.33333C17.0001 7.96514 16.4884 7.66667 15.8572 7.66667Z" fill="#373D40"/>
</svg>
