<svg width="24" height="25" viewBox="0 0 24 25" fill="none" xmlns="http://www.w3.org/2000/svg">
<g clip-path="url(#clip0_1924_16570)">
<path d="M16.394 12.3769L10 8.1139V16.6399L16.394 12.3769ZM19.376 12.7929L8.777 19.8589C8.70171 19.909 8.61423 19.9377 8.52389 19.9421C8.43355 19.9464 8.34373 19.9261 8.264 19.8834C8.18427 19.8408 8.1176 19.7772 8.07111 19.6997C8.02462 19.6221 8.00005 19.5333 8 19.4429V5.3109C8.00005 5.22046 8.02462 5.13172 8.07111 5.05414C8.1176 4.97656 8.18427 4.91305 8.264 4.87036C8.34373 4.82767 8.43355 4.80741 8.52389 4.81173C8.61423 4.81605 8.70171 4.84479 8.777 4.8949L19.376 11.9609C19.4445 12.0066 19.5006 12.0684 19.5395 12.141C19.5783 12.2136 19.5986 12.2946 19.5986 12.3769C19.5986 12.4592 19.5783 12.5402 19.5395 12.6128C19.5006 12.6854 19.4445 12.7472 19.376 12.7929Z" fill="#373D40"/>
</g>
<defs>
<clipPath id="clip0_1924_16570">
<rect width="24" height="24" fill="white" transform="translate(0 0.376953)"/>
</clipPath>
</defs>
</svg>
