<svg width="24" height="24" viewBox="0 0 24 24" fill="none" xmlns="http://www.w3.org/2000/svg">
<mask id="mask0_2268_32217" style="mask-type:alpha" maskUnits="userSpaceOnUse" x="0" y="0" width="24" height="24">
<rect width="24" height="24" fill="#D9D9D9"/>
</mask>
<g mask="url(#mask0_2268_32217)">
<path d="M18 20L16.6 18.6L18.175 17H14V15H18.175L16.6 13.4L18 12L22 16L18 20ZM4 17C3.45 17 2.97917 16.8042 2.5875 16.4125C2.19583 16.0208 2 15.55 2 15V5C2 4.45 2.19583 3.97917 2.5875 3.5875C2.97917 3.19583 3.45 3 4 3H17C17.55 3 18.0208 3.19583 18.4125 3.5875C18.8042 3.97917 19 4.45 19 5V10.1C18.8333 10.0667 18.6667 10.0417 18.5 10.025C18.3333 10.0083 18.1667 10 18 10C17.8333 10 17.6667 10.0042 17.5 10.0125C17.3333 10.0208 17.1667 10.0417 17 10.075V6.4L10.4 11L4 6.425V15H12.075C12.0417 15.1667 12.0208 15.3333 12.0125 15.5C12.0042 15.6667 12 15.8333 12 16C12 16.1667 12.0083 16.3333 12.025 16.5C12.0417 16.6667 12.0667 16.8333 12.1 17H4ZM5.45 5L10.4 8.55L15.5 5H5.45Z" fill="#1C1B1F"/>
</g>
</svg>
