<svg width="24" height="24" viewBox="0 0 24 24" fill="none" xmlns="http://www.w3.org/2000/svg">
<path d="M15.965 16.9568V15.9654H12.9909V12.9913H15.965V14.9741H17.9478V16.9568H16.9564V18.9396H14.9736V20.9223H12.9909V17.9482H14.9736V16.9568H15.965ZM20.9219 20.9223H16.9564V18.9396H18.9391V16.9568H20.9219V20.9223ZM3.07715 3.07758H11.0081V11.0086H3.07715V3.07758ZM5.0599 5.06032V9.02581H9.02539V5.06032H5.0599ZM17.9478 12.9913H20.9219V14.9741H17.9478V12.9913ZM6.05127 6.05169H8.03402V8.03444H6.05127V6.05169Z" fill="black"/>
<path d="M8.03418 16.8345V15.8431H11.0083V12.869H8.03418V14.8517H6.05143V12.869H3.07731V14.8517H6.05143V16.8345H7.0428V18.8172H5.06006V16.8345H3.07731V20.8H7.0428V18.8172H9.02555V20.8H11.0083V17.8258H9.02555V16.8345H8.03418Z" fill="black"/>
<path d="M17.9478 7.04306V8.03444H20.9219V11.0086H17.9478V9.02583H15.965V11.0086H12.9909V9.02583H15.965V7.04306H16.9564V5.06031H14.9736V7.04306H12.9909V3.07756H16.9564V5.06031H18.9391V3.07756H20.9219V6.05169H18.9391V7.04306H17.9478Z" fill="black"/>
</svg>
