<svg width="24" height="24" viewBox="0 0 24 24" fill="none" xmlns="http://www.w3.org/2000/svg">
<path d="M7.03853 21.3721C6.68653 21.3721 6.39053 21.2521 6.15053 21.0121C5.91053 20.7721 5.79053 20.4761 5.79053 20.1241V3.87605C5.79053 3.50805 5.91053 3.21205 6.15053 2.98805C6.39053 2.74805 6.68653 2.62805 7.03853 2.62805H11.3585C12.5585 2.62805 13.6225 2.88405 14.5505 3.39605C15.4785 3.89205 16.1985 4.58005 16.7105 5.46005C17.2385 6.34005 17.5025 7.36405 17.5025 8.53205C17.5025 9.62005 17.2385 10.5881 16.7105 11.4361C16.1985 12.2841 15.4785 12.9481 14.5505 13.4281C13.6225 13.9081 12.5585 14.1481 11.3585 14.1481H8.28653V20.1241C8.28653 20.4761 8.16653 20.7721 7.92653 21.0121C7.70253 21.2521 7.40653 21.3721 7.03853 21.3721ZM16.9985 21.3721C16.7745 21.3721 16.5665 21.3241 16.3745 21.2281C16.1985 21.1321 16.0465 20.9801 15.9185 20.7721L11.5985 13.8121L14.0225 13.1161L17.9585 19.4521C18.2465 19.9161 18.2865 20.3561 18.0785 20.7721C17.8705 21.1721 17.5105 21.3721 16.9985 21.3721ZM8.28653 11.8441H11.3585C12.0945 11.8441 12.7425 11.7081 13.3025 11.4361C13.8625 11.1481 14.3025 10.7561 14.6225 10.2601C14.9425 9.74805 15.1025 9.17205 15.1025 8.53205C15.1025 7.82805 14.9425 7.20405 14.6225 6.66005C14.3025 6.11605 13.8625 5.69205 13.3025 5.38805C12.7425 5.08405 12.0945 4.93205 11.3585 4.93205H8.28653V11.8441Z" fill="#373D40"/>
</svg>
