<svg width="25" height="24" viewBox="0 0 25 24" fill="none" xmlns="http://www.w3.org/2000/svg">
<path d="M7.12251 21.372C6.77051 21.372 6.47451 21.252 6.23451 21.012C5.99451 20.772 5.87451 20.476 5.87451 20.124V3.87601C5.87451 3.50801 5.99451 3.21201 6.23451 2.98801C6.47451 2.74801 6.77051 2.62801 7.12251 2.62801H11.4425C12.6425 2.62801 13.7065 2.88401 14.6345 3.39601C15.5625 3.89201 16.2825 4.58001 16.7945 5.46001C17.3225 6.34001 17.5865 7.36401 17.5865 8.53201C17.5865 9.62001 17.3225 10.588 16.7945 11.436C16.2825 12.284 15.5625 12.948 14.6345 13.428C13.7065 13.908 12.6425 14.148 11.4425 14.148H8.37051V20.124C8.37051 20.476 8.25051 20.772 8.01051 21.012C7.78651 21.252 7.49051 21.372 7.12251 21.372ZM17.0825 21.372C16.8585 21.372 16.6505 21.324 16.4585 21.228C16.2825 21.132 16.1305 20.98 16.0025 20.772L11.6825 13.812L14.1065 13.116L18.0425 19.452C18.3305 19.916 18.3705 20.356 18.1625 20.772C17.9545 21.172 17.5945 21.372 17.0825 21.372ZM8.37051 11.844H11.4425C12.1785 11.844 12.8265 11.708 13.3865 11.436C13.9465 11.148 14.3865 10.756 14.7065 10.26C15.0265 9.74801 15.1865 9.17201 15.1865 8.53201C15.1865 7.82801 15.0265 7.20401 14.7065 6.66001C14.3865 6.11601 13.9465 5.69201 13.3865 5.38801C12.8265 5.08401 12.1785 4.932 11.4425 4.932H8.37051V11.844Z" fill="#373D40"/>
</svg>
