<svg width="24" height="24" viewBox="0 0 24 24" fill="none" xmlns="http://www.w3.org/2000/svg">
<path d="M16.9616 14.9169C16.0333 14.9169 15.3482 15.5578 15.3482 16.3534C15.3482 17.1269 16.0775 17.7678 16.9616 17.7678C17.8456 17.7678 18.5749 17.1269 18.5749 16.3534C18.5749 15.5578 17.8898 14.9169 16.9616 14.9169ZM16.9616 18.7845C15.4366 18.7845 14.2432 17.7236 14.2432 16.3976C14.2432 15.0716 15.4366 14.0108 16.9616 14.0108C18.4865 14.0108 19.6799 15.0716 19.6799 16.3976C19.6799 17.6794 18.4865 18.7845 16.9616 18.7845ZM16.9616 12.7952C14.2432 12.7952 11.9005 14.276 10.9723 16.3976C11.9005 18.5193 14.2432 20 16.9616 20C19.6799 20 22.0226 18.5193 22.9508 16.3976C22.0226 14.276 19.6799 12.7952 16.9616 12.7952ZM1.99951 4.19812V15.4694H3.92226L8.76227 19.6685L7.48044 15.4694H10.3756C11.6132 13.414 13.978 11.9775 16.5859 11.9775C16.6301 11.9775 16.7406 11.9775 16.7848 11.9775V4.19812H1.99951V4.19812ZM13.4697 5.34735L14.8841 6.67338L8.12136 14.2318L3.32554 9.81165L4.76208 8.48562L8.12136 11.5576L13.4697 5.34735V5.34735Z" fill="#373D40"/>
</svg>
