<svg width="24" height="24" viewBox="0 0 24 24" fill="none" xmlns="http://www.w3.org/2000/svg">
<path d="M1.74805 6.848V15.682H3.56805L6.88605 19L5.82205 15.682H11.534V11.286L8.44005 8.822L10.638 6.848H1.74805ZM13.9 17.39V15.332L16.224 15.29C16.2459 15.2909 16.2713 15.2909 16.2971 15.2909C17.7045 15.2909 18.8451 14.1503 18.8451 12.7429C18.8451 12.6387 18.839 12.5364 18.8267 12.4358L18.828 12.448C18.828 10.418 17.652 10.026 16.224 10.026H14.95V12.756L9.74205 8.878L14.922 5V7.73H16.196C18.674 7.73 20.984 8.906 20.984 12.448C20.984 15.962 18.702 17.39 16.196 17.39L13.9 17.418V17.39Z" fill="#373D40"/>
</svg>
