<svg width="24" height="24" viewBox="0 0 24 24" fill="none" xmlns="http://www.w3.org/2000/svg">
<path d="M17.9459 21C17.8542 21 17.8542 21 17.7624 21H17.3771C15.8357 20.9096 14.6797 19.9515 14.3861 18.6319L15.744 18.2523C15.9275 18.9211 16.6064 19.4815 17.3771 19.59H17.6523C18.1478 19.59 18.6249 19.4815 19.0102 19.1019C19.3956 18.7223 19.5791 18.2523 19.5791 17.7823C19.5791 17.1134 19.4873 16.6434 19.1937 16.3542C18.6249 15.8842 17.6523 15.7938 17.2853 15.7938H4.88091V14.3657H17.3771C17.3771 14.3657 19.1937 14.1849 20.3497 15.3238C21.0287 15.8842 21.3039 16.7338 21.2122 17.7823C21.2122 18.6319 20.8268 19.4815 20.1662 20.1504C19.4873 20.6204 18.7166 21 17.9459 21ZM21.1204 11.8168C21.7994 11.2565 22.0746 10.4068 21.9829 9.35836C21.9829 8.50874 21.5975 7.55065 20.9186 6.99026C20.258 6.42987 19.3956 6.05026 18.6249 6.14064H18.1478C16.6981 6.23103 15.5421 7.18911 15.1568 8.41835L16.5146 8.79797C16.6981 8.12912 17.3771 7.55065 18.1478 7.55065H18.6249C19.102 7.55065 19.5791 7.65912 19.9644 8.03873C20.3497 8.41835 20.5516 8.88836 20.5516 9.44875C20.5516 10.0272 20.4415 10.4972 20.1662 10.7865C19.5791 11.3468 18.6249 11.3468 18.2395 11.3468H2V12.7569H18.0377C18.0377 12.7569 18.1478 12.7569 18.3313 12.7569C18.9185 12.7569 20.258 12.6665 21.1204 11.8168ZM13.4319 8.68951C14.1108 8.12912 14.3861 7.2795 14.2943 6.23103C14.2943 5.3814 13.909 4.44139 13.2484 3.86293C12.5695 3.30254 11.707 2.92292 10.9363 3.01331H10.4592C8.91785 3.10369 7.76182 4.06178 7.46822 5.29102L8.8261 5.67064C9.0096 5.00178 9.68854 4.44139 10.4592 4.44139H10.9363C11.4134 4.44139 11.8905 4.53178 12.2759 4.9114C12.5695 5.29102 12.7529 5.76102 12.863 6.32141C12.863 6.89988 12.7529 7.36988 12.4777 7.65912C11.8905 8.2195 10.9363 8.2195 10.551 8.2195H4.31207V9.64759H10.3675C10.3675 9.64759 10.4592 9.64759 10.6427 9.64759C11.2299 9.64759 12.5695 9.53913 13.4319 8.68951Z" fill="black"/>
</svg>
