<svg width="24" height="24" viewBox="0 0 24 24" fill="none" xmlns="http://www.w3.org/2000/svg">
<g clip-path="url(#clip0_1185_22070)">
<mask id="mask0_1185_22070" style="mask-type:alpha" maskUnits="userSpaceOnUse" x="-1" y="0" width="25" height="25">
<rect x="-0.0527344" y="0.132324" width="24" height="24" fill="#D9D9D9"/>
</mask>
<g mask="url(#mask0_1185_22070)">
<path d="M20.9473 7.13232V19.1323C20.9473 19.6823 20.7514 20.1532 20.3598 20.5448C19.9681 20.9365 19.4973 21.1323 18.9473 21.1323H4.94727C4.39727 21.1323 3.92643 20.9365 3.53477 20.5448C3.1431 20.1532 2.94727 19.6823 2.94727 19.1323V5.13232C2.94727 4.58232 3.1431 4.11149 3.53477 3.71982C3.92643 3.32816 4.39727 3.13232 4.94727 3.13232H16.9473L20.9473 7.13232ZM18.9473 7.98232L16.0973 5.13232H4.94727V19.1323H18.9473V7.98232ZM11.9473 18.1323C12.7806 18.1323 13.4889 17.8407 14.0723 17.2573C14.6556 16.674 14.9473 15.9657 14.9473 15.1323C14.9473 14.299 14.6556 13.5907 14.0723 13.0073C13.4889 12.424 12.7806 12.1323 11.9473 12.1323C11.1139 12.1323 10.4056 12.424 9.82227 13.0073C9.23893 13.5907 8.94727 14.299 8.94727 15.1323C8.94727 15.9657 9.23893 16.674 9.82227 17.2573C10.4056 17.8407 11.1139 18.1323 11.9473 18.1323ZM5.94727 10.1323H14.9473V6.13232H5.94727V10.1323Z" fill="#1C1B1F"/>
</g>
</g>
<defs>
<clipPath id="clip0_1185_22070">
<rect width="24" height="24" fill="white"/>
</clipPath>
</defs>
</svg>
