<svg width="25" height="25" viewBox="0 0 25 25" fill="none" xmlns="http://www.w3.org/2000/svg">
<g clip-path="url(#clip0_1185_22070)">
<path d="M18.0527 19.8677H19.0527V7.69568L17.2247 5.86768H16.0527V9.86768H7.05273V5.86768H5.05273V19.8677H6.05273V12.8677H18.0527V19.8677ZM4.05273 3.86768H18.0527L20.7597 6.57468C20.9473 6.76217 21.0527 7.01648 21.0527 7.28168V20.8677C21.0527 21.1329 20.9474 21.3872 20.7598 21.5748C20.5723 21.7623 20.318 21.8677 20.0527 21.8677H4.05273C3.78752 21.8677 3.53316 21.7623 3.34563 21.5748C3.15809 21.3872 3.05273 21.1329 3.05273 20.8677V4.86768C3.05273 4.60246 3.15809 4.34811 3.34563 4.16057C3.53316 3.97303 3.78752 3.86768 4.05273 3.86768ZM8.05273 14.8677V19.8677H16.0527V14.8677H8.05273Z" fill="#262626"/>
</g>
<defs>
<clipPath id="clip0_1185_22070">
<rect width="24" height="24" fill="white" transform="translate(0.0527344 0.867676)"/>
</clipPath>
</defs>
</svg>
