<svg width="24" height="25" viewBox="0 0 24 25" fill="none" xmlns="http://www.w3.org/2000/svg">
<g clip-path="url(#clip0_1185_22069)">
<path d="M4 3.86768H18L20.707 6.57468C20.8946 6.76217 20.9999 7.01648 21 7.28168V20.8677C21 21.1329 20.8946 21.3872 20.7071 21.5748C20.5196 21.7623 20.2652 21.8677 20 21.8677H4C3.73478 21.8677 3.48043 21.7623 3.29289 21.5748C3.10536 21.3872 3 21.1329 3 20.8677V4.86768C3 4.60246 3.10536 4.34811 3.29289 4.16057C3.48043 3.97303 3.73478 3.86768 4 3.86768V3.86768ZM7 4.86768V9.86768H16V4.86768H7ZM6 12.8677V19.8677H18V12.8677H6ZM13 5.86768H15V8.86768H13V5.86768Z" fill="#373D40"/>
</g>
<defs>
<clipPath id="clip0_1185_22069">
<rect width="24" height="24" fill="white" transform="translate(0 0.867676)"/>
</clipPath>
</defs>
</svg>
