<svg width="24" height="24" viewBox="0 0 24 24" fill="none" xmlns="http://www.w3.org/2000/svg">
<path d="M6.672 3C6.222 3 5.88 3.342 5.88 3.792V5.79C5.88 6.24 6.222 6.564 6.672 6.564C7.122 6.564 7.464 6.24 7.464 5.79V3.792C7.464 3.342 7.086 3 6.672 3V3ZM17.4 3C16.95 3 16.608 3.342 16.608 3.792V5.79C16.608 6.24 16.95 6.564 17.4 6.564C17.85 6.564 18.192 6.24 18.192 5.79V3.792C18.192 3.342 17.814 3 17.4 3V3ZM3 4.962V20.64H21V4.962H19.128V5.79C19.128 6.762 18.336 7.536 17.364 7.536C16.392 7.536 15.6 6.762 15.6 5.79V4.962H8.4V5.79C8.4 6.762 7.608 7.536 6.636 7.536C5.664 7.536 4.872 6.762 4.872 5.79V4.962H3H3ZM4.764 9.156H19.272V18.876H4.764V9.156V9.156ZM5.808 10.056V11.586H14.7V10.056H5.808V10.056ZM9.264 12.234V13.764H14.7V12.234H9.264V12.234ZM12.522 14.448V15.978H17.958V14.448H12.522V14.448ZM5.7 16.59V18.12H17.994V16.59H5.7V16.59Z" fill="#373D40"/>
</svg>
