<svg width="24" height="24" viewBox="0 0 24 24" fill="none" xmlns="http://www.w3.org/2000/svg">
<path d="M14.1819 15.5386C11.1003 17.845 6.70077 17.2442 4.3944 14.1819C2.08803 11.1197 2.70823 6.70077 5.77047 4.3944C8.83271 2.08803 13.2516 2.70823 15.5386 5.77047C17.3992 8.27066 17.3992 11.6624 15.5386 14.1819C15.6743 14.2207 15.7518 14.2982 15.8681 14.3758L20.6747 19.1823C21.0817 19.5893 21.1204 20.2289 20.7134 20.6747C20.3064 21.0817 19.6668 21.1204 19.2211 20.7134L19.1823 20.6747L14.3758 15.8681C14.2982 15.7906 14.2207 15.6743 14.1819 15.5386ZM9.97621 15.5386C13.0384 15.5386 15.5386 13.0384 15.5386 9.97621C15.5386 6.91397 13.0772 4.3944 9.97621 4.3944C6.91397 4.3944 4.3944 6.91397 4.3944 9.97621C4.3944 13.0384 6.91397 15.5386 9.97621 15.5386Z" fill="black"/>
</svg>
