<svg width="24" height="24" viewBox="0 0 24 24" fill="none" xmlns="http://www.w3.org/2000/svg">
<path d="M9.32245 9.42678C9.10786 9.81983 9.00019 10.2608 9.00019 10.75C9.00019 11.5198 9.26567 12.1706 9.79706 12.7022C10.3287 13.2338 10.9802 13.5 11.7502 13.5C12.3095 13.5 12.804 13.3568 13.2375 13.0762L16.5422 16.1582C15.4281 17.6698 13.8503 19.2901 11.8068 21.0176C9.51431 19.0796 7.80645 17.2776 6.68378 15.6114C5.56111 13.9451 5.0002 12.4025 5.00019 10.9844C5.00019 9.24564 5.44815 7.80034 6.34394 6.64846L9.32245 9.42678ZM11.8068 4.00002C13.6031 4.00002 15.187 4.62628 16.5578 5.87893C17.9287 7.13161 18.6144 8.83356 18.6144 10.9844C18.6144 12.0651 18.2871 13.2175 17.635 14.4424L14.4172 11.4414C14.47 11.2225 14.5002 10.9926 14.5002 10.75C14.5002 9.98006 14.2339 9.32953 13.7023 8.79787C13.1707 8.26624 12.5201 8.00006 11.7502 8.00002C11.4371 8.00002 11.1441 8.04583 10.8703 8.13381L7.80292 5.27346C8.99341 4.42459 10.3282 4.00007 11.8068 4.00002Z" fill="#ECB62D"/>
<path d="M3.9973 3.65851L20.7036 19.2374L19.3396 20.7001L2.6333 5.12122L3.9973 3.65851Z" fill="#ECB62D"/>
</svg>
