<svg width="24" height="24" viewBox="0 0 24 24" fill="none" xmlns="http://www.w3.org/2000/svg">
<g clip-path="url(#clip0_1093_16413)">
<mask id="mask0_1093_16413" style="mask-type:alpha" maskUnits="userSpaceOnUse" x="0" y="0" width="24" height="24">
<rect width="24" height="24" fill="#D9D9D9"/>
</mask>
<g mask="url(#mask0_1093_16413)">
<path d="M7.5 6C7.08333 6 6.72917 6.14583 6.4375 6.4375C6.14583 6.72917 6 7.08333 6 7.5C6 7.91667 6.14583 8.27083 6.4375 8.5625C6.72917 8.85417 7.08333 9 7.5 9C7.91667 9 8.27083 8.85417 8.5625 8.5625C8.85417 8.27083 9 7.91667 9 7.5C9 7.08333 8.85417 6.72917 8.5625 6.4375C8.27083 6.14583 7.91667 6 7.5 6ZM7.5 16C7.08333 16 6.72917 16.1458 6.4375 16.4375C6.14583 16.7292 6 17.0833 6 17.5C6 17.9167 6.14583 18.2708 6.4375 18.5625C6.72917 18.8542 7.08333 19 7.5 19C7.91667 19 8.27083 18.8542 8.5625 18.5625C8.85417 18.2708 9 17.9167 9 17.5C9 17.0833 8.85417 16.7292 8.5625 16.4375C8.27083 16.1458 7.91667 16 7.5 16ZM4 3H20C20.2833 3 20.5208 3.09583 20.7125 3.2875C20.9042 3.47917 21 3.71667 21 4V11C21 11.2833 20.9042 11.5208 20.7125 11.7125C20.5208 11.9042 20.2833 12 20 12H4C3.71667 12 3.47917 11.9042 3.2875 11.7125C3.09583 11.5208 3 11.2833 3 11V4C3 3.71667 3.09583 3.47917 3.2875 3.2875C3.47917 3.09583 3.71667 3 4 3ZM5 5V10H19V5H5ZM4 13H20C20.2833 13 20.5208 13.0958 20.7125 13.2875C20.9042 13.4792 21 13.7167 21 14V21C21 21.2833 20.9042 21.5208 20.7125 21.7125C20.5208 21.9042 20.2833 22 20 22H4C3.71667 22 3.47917 21.9042 3.2875 21.7125C3.09583 21.5208 3 21.2833 3 21V14C3 13.7167 3.09583 13.4792 3.2875 13.2875C3.47917 13.0958 3.71667 13 4 13ZM5 15V20H19V15H5Z" fill="#1C1B1F"/>
</g>
</g>
<defs>
<clipPath id="clip0_1093_16413">
<rect width="24" height="24" fill="white"/>
</clipPath>
</defs>
</svg>
