<svg width="24" height="24" viewBox="0 0 24 24" fill="none" xmlns="http://www.w3.org/2000/svg">
<path d="M2.13209 13.63C1.95272 12.5507 1.95272 11.4493 2.13209 10.37C3.23409 10.396 4.22409 9.86801 4.60909 8.93901C4.99409 8.00901 4.66709 6.93501 3.86909 6.17601C4.5055 5.2853 5.28465 4.50581 6.17509 3.86901C6.93509 4.66701 8.00909 4.99401 8.93909 4.60901C9.86909 4.22401 10.3961 3.23301 10.3691 2.13201C11.449 1.95242 12.5512 1.95242 13.6311 2.13201C13.6041 3.23401 14.1321 4.22401 15.0611 4.60901C15.9911 4.99401 17.0651 4.66701 17.8241 3.86901C18.7148 4.50542 19.4943 5.28458 20.1311 6.17501C19.3331 6.93501 19.0061 8.00901 19.3911 8.93901C19.7761 9.86901 20.7671 10.396 21.8681 10.369C22.0477 11.4489 22.0477 12.5511 21.8681 13.631C20.7661 13.604 19.7761 14.132 19.3911 15.061C19.0061 15.991 19.3331 17.065 20.1311 17.824C19.4947 18.7147 18.7155 19.4942 17.8251 20.131C17.0651 19.333 15.9911 19.006 15.0611 19.391C14.1311 19.776 13.6041 20.767 13.6311 21.868C12.5512 22.0476 11.449 22.0476 10.3691 21.868C10.3961 20.766 9.86809 19.776 8.93909 19.391C8.00909 19.006 6.93509 19.333 6.17609 20.131C5.28538 19.4946 4.50589 18.7154 3.86909 17.825C4.66709 17.065 4.99409 15.991 4.60909 15.061C4.22409 14.131 3.23309 13.604 2.13209 13.631V13.63ZM12.0001 15C12.7957 15 13.5588 14.6839 14.1214 14.1213C14.684 13.5587 15.0001 12.7957 15.0001 12C15.0001 11.2044 14.684 10.4413 14.1214 9.87869C13.5588 9.31608 12.7957 9.00001 12.0001 9.00001C11.2044 9.00001 10.4414 9.31608 9.87877 9.87869C9.31616 10.4413 9.00009 11.2044 9.00009 12C9.00009 12.7957 9.31616 13.5587 9.87877 14.1213C10.4414 14.6839 11.2044 15 12.0001 15V15Z" fill="#262626"/>
</svg>
