<svg width="24" height="24" viewBox="0 0 24 24" fill="none" xmlns="http://www.w3.org/2000/svg">
<path d="M15.11 11.5626V9.73512L14.16 9.38518C13.799 9.24909 13.476 8.97691 13.362 8.60753C13.21 8.23815 13.248 7.82989 13.4 7.47995L13.837 6.54678L12.602 5.28311L11.69 5.73026C11.348 5.88578 10.949 5.88578 10.588 5.76914C10.227 5.61361 9.961 5.32199 9.847 4.97205L9.486 4H7.7L7.339 4.97205C7.225 5.32199 6.94 5.65249 6.598 5.76914C6.237 5.94411 5.838 5.88578 5.477 5.73026L4.527 5.28311L3.311 6.54678L3.748 7.51883C3.9 7.88821 3.9 8.27704 3.786 8.64642C3.615 9.0158 3.349 9.28797 2.988 9.42406L2 9.774V11.5626L2.95 11.932C3.311 12.0486 3.615 12.3402 3.748 12.6902C3.9 13.0595 3.862 13.4678 3.71 13.8372L3.273 14.7704L4.489 16.0146L5.439 15.6063C5.8 15.4508 6.199 15.4508 6.56 15.5674C6.902 15.7424 7.187 16.0146 7.301 16.384L7.662 17.356H9.448L9.79 16.384C9.923 16.0146 10.189 15.7035 10.55 15.5674C10.911 15.4119 11.31 15.4508 11.652 15.6063L12.564 16.0535L13.799 14.8092L13.362 13.8761C13.21 13.5067 13.21 13.0984 13.324 12.7485C13.476 12.3791 13.761 12.0875 14.122 11.9708L15.11 11.5626ZM8.536 13.1373C7.225 13.1373 6.123 12.0486 6.123 10.6683C6.123 9.34629 7.187 8.19927 8.536 8.19927C9.847 8.19927 10.949 9.28797 10.949 10.6683C10.949 12.0486 9.885 13.1373 8.536 13.1373ZM21 16.87V15.8979L20.487 15.7035C20.297 15.6063 20.126 15.4897 20.05 15.2953C19.974 15.0814 19.974 14.887 20.05 14.6926L20.297 14.2066L19.613 13.5067L19.138 13.7594C18.948 13.8372 18.739 13.8372 18.549 13.7594C18.34 13.6622 18.188 13.5067 18.15 13.3123L17.96 12.7874H17.048L16.839 13.3123C16.763 13.5067 16.649 13.6622 16.44 13.7594C16.25 13.8372 16.06 13.8372 15.851 13.7594L15.376 13.5067L14.711 14.2066L14.939 14.6926C15.015 14.887 15.015 15.0814 14.939 15.2953C14.863 15.4897 14.711 15.6646 14.502 15.7035L13.989 15.8979V16.87L14.502 17.0644C14.711 17.1616 14.863 17.2783 14.939 17.4727C15.015 17.6865 15.015 17.8809 14.939 18.0948L14.711 18.5808L15.376 19.2612L15.851 19.0279C16.06 18.9307 16.25 18.9307 16.44 19.0279C16.649 19.1057 16.801 19.2612 16.839 19.4557L17.048 20H17.998L18.188 19.4557C18.264 19.2612 18.435 19.1057 18.587 19.0279C18.777 18.9307 18.986 18.9307 19.176 19.0279L19.651 19.2612L20.335 18.5808L20.088 18.0948C20.012 17.8809 20.012 17.6865 20.088 17.4727C20.164 17.2783 20.335 17.1227 20.525 17.0644L21 16.87ZM17.523 17.7254C16.801 17.7254 16.25 17.1616 16.25 16.4228C16.25 15.7035 16.801 15.1203 17.523 15.1203C18.226 15.1203 18.777 15.7035 18.777 16.4228C18.777 17.1227 18.226 17.7254 17.523 17.7254Z" fill="#373D40"/>
</svg>
