<svg width="24" height="24" viewBox="0 0 24 24" fill="none" xmlns="http://www.w3.org/2000/svg">
<path d="M21.0209 5.16399L12.8907 13.7249L13.7605 14.4208L13.9783 15.4209L13.4563 16.0293L12.5864 16.3335L11.3696 14.9884L11.5435 14.2497L20.154 4.77229C19.8383 4.71583 19.5183 4.68689 19.1976 4.68579L11.111 13.5548L10.2849 16.9459C10.2369 16.9002 10.1763 16.8701 10.1109 16.8594V16.8594C4.93725 16.9031 3.41518 15.729 3.32868 14.9903C3.24218 14.2944 4.28507 13.2943 6.85003 12.5605C8.19811 12.1717 8.80655 11.7781 8.76281 11.1696C8.71907 9.86527 4.28507 8.95262 2.41506 8.6484C2.3311 8.65196 2.25087 8.68405 2.18761 8.73935C2.12435 8.79466 2.08184 8.86989 2.0671 8.95262C2.05203 9.0385 2.07072 9.12689 2.11925 9.19933C2.16779 9.27176 2.24242 9.32266 2.32758 9.3414C5.37073 9.86333 8.1534 10.776 8.19714 11.2542C8.19714 11.2542 8.11064 11.5584 6.71882 11.9501C4.11012 12.6888 2.63666 13.8629 2.76204 15.0807C2.93602 16.6455 5.63121 17.5592 9.93595 17.5592H10.2402L13.7615 16.6028L21.9773 7.60162C22.0361 7.14879 21.9793 6.68844 21.812 6.26354C21.6448 5.83863 21.3726 5.46302 21.0209 5.17176V5.16399Z" fill="black"/>
</svg>
