<svg width="24" height="24" viewBox="0 0 24 24" fill="none" xmlns="http://www.w3.org/2000/svg">
<path d="M13.0228 3.75352C12.6806 2.791 11.3194 2.791 10.9772 3.75351L9.1244 8.96557H3.70116C2.64484 8.96557 2.21084 10.3212 3.07076 10.9347L7.81518 14.3193L5.44702 19.407C5.00241 20.3622 6.04236 21.327 6.96158 20.8121L12 17.9898L16.9353 20.8725C17.8254 21.3924 18.871 20.4953 18.4924 19.5365L16.3952 14.2258L20.9634 10.9315C21.8179 10.3153 21.382 8.96557 20.3285 8.96557H19.2825H14.8756L13.0228 3.75352ZM12 5.71484L13.6346 10.7321L18.6308 10.536L14.3578 13.5964L16.12 18.3414L12 16.0102L7.88 18.3414L9.97078 13.5964L5.37 10.53L10.38 10.7321L12 5.71484Z" fill="#262626"/>
</svg>
