<svg width="25" height="25" viewBox="0 0 25 25" fill="none" xmlns="http://www.w3.org/2000/svg">
<path d="M9.34199 5.5404C9.34199 5.36794 9.35667 5.19918 9.3848 5.0352H15.3359C15.364 5.19918 15.3787 5.36794 15.3787 5.5404C15.3787 7.18784 14.0314 8.53074 12.3604 8.53074C10.6893 8.53074 9.34199 7.18784 9.34199 5.5404ZM14.9075 3.9352H9.81316C10.3486 3.1032 11.2886 2.55006 12.3604 2.55006C13.4321 2.55006 14.3721 3.1032 14.9075 3.9352Z" stroke="#373D40" stroke-width="1.1"/>
<path d="M16.3531 13.8937V14.0838L17.3474 16.8747L15.7703 17.7753L13.8044 18.97C13.6607 19.0616 13.5366 19.1809 13.4394 19.3209C13.3421 19.4609 13.2736 19.6188 13.2379 19.7855C13.2022 19.9522 13.1999 20.1243 13.2312 20.2918C13.2625 20.4594 13.3267 20.6191 13.4202 20.7616C13.5137 20.9041 13.6345 21.0267 13.7757 21.1221C13.917 21.2176 14.0757 21.2841 14.2428 21.3177C14.4099 21.3513 14.582 21.3515 14.7492 21.318C14.9163 21.2846 15.0752 21.2184 15.2165 21.1231L20.3695 18.1899C21.0722 17.7114 21.0091 16.9953 20.8803 16.678L19.1475 11.7604C18.8128 10.8317 18.1715 10.099 16.3531 10.099H8.04217L8.04051 10.0982C6.47135 10.1813 5.88074 10.8807 5.56757 11.7596L3.84474 16.6772C3.73897 16.9481 3.73113 17.2474 3.82259 17.5234C3.91405 17.7995 4.09905 18.0349 4.34564 18.189L9.26575 21.1267C9.55303 21.3138 10.0176 21.4457 10.3533 21.3763C10.6891 21.3069 11.0622 21.0472 11.2518 20.7616C11.3447 20.6203 11.494 20.2612 11.5257 20.095C11.5573 19.9289 11.5559 19.7581 11.5215 19.5926C11.4871 19.427 11.4204 19.2698 11.3251 19.13C11.2299 18.9903 11.108 18.8707 10.9664 18.7781L8.69874 17.4409L7.2226 16.5974L8.12388 14.0838V13.8937" stroke="#373D40" stroke-width="1.8"/>
<path d="M13.0712 4.63367C13.0712 5.02624 12.7529 5.34448 12.3604 5.34448C11.9678 5.34448 11.6495 5.02624 11.6495 4.63367C11.6495 4.24109 11.9678 3.92285 12.3604 3.92285C12.7529 3.92285 13.0712 4.24109 13.0712 4.63367Z" stroke="#373D40" stroke-width="1.07837"/>
</svg>
