<svg width="27" height="24" viewBox="0 0 27 24" fill="none" xmlns="http://www.w3.org/2000/svg">
<g clip-path="url(#clip0_1379_32809)">
<path d="M7.59375 2.5C8.22164 2.5 8.84337 2.60993 9.42346 2.82351C10.0035 3.03709 10.5306 3.35015 10.9746 3.7448C11.4186 4.13945 11.7708 4.60796 12.0111 5.1236C12.2513 5.63923 12.375 6.19188 12.375 6.75V11H7.59375C6.32569 11 5.10956 10.5522 4.2129 9.75521C3.31624 8.95818 2.8125 7.87717 2.8125 6.75C2.8125 5.62283 3.31624 4.54183 4.2129 3.7448C5.10956 2.94777 6.32569 2.5 7.59375 2.5V2.5ZM10.125 9V6.75C10.125 6.30499 9.97655 5.86998 9.69841 5.49997C9.42027 5.12996 9.02495 4.84157 8.56242 4.67127C8.09989 4.50097 7.59094 4.45642 7.09993 4.54323C6.60892 4.63005 6.15789 4.84434 5.80389 5.15901C5.44989 5.47368 5.20881 5.87459 5.11114 6.31105C5.01347 6.7475 5.0636 7.1999 5.25518 7.61104C5.44677 8.02217 5.7712 8.37357 6.18747 8.62081C6.60373 8.86804 7.09312 9 7.59375 9H10.125ZM7.59375 13H12.375V17.25C12.375 18.0906 12.0946 18.9123 11.5692 19.6112C11.0438 20.3101 10.2971 20.8548 9.42346 21.1765C8.5498 21.4982 7.58845 21.5823 6.66098 21.4183C5.73351 21.2544 4.88157 20.8496 4.2129 20.2552C3.54423 19.6608 3.08886 18.9036 2.90437 18.0791C2.71989 17.2547 2.81457 16.4002 3.17645 15.6236C3.53833 14.847 4.15116 14.1833 4.93743 13.7163C5.7237 13.2493 6.64811 13 7.59375 13V13ZM7.59375 15C7.09312 15 6.60373 15.132 6.18747 15.3792C5.7712 15.6264 5.44677 15.9778 5.25518 16.389C5.0636 16.8001 5.01347 17.2525 5.11114 17.689C5.20881 18.1254 5.44989 18.5263 5.80389 18.841C6.15789 19.1557 6.60892 19.37 7.09993 19.4568C7.59094 19.5436 8.09989 19.499 8.56242 19.3287C9.02495 19.1584 9.42027 18.87 9.69841 18.5C9.97655 18.13 10.125 17.695 10.125 17.25V15H7.59375ZM19.4063 2.5C20.6743 2.5 21.8904 2.94777 22.7871 3.7448C23.6838 4.54183 24.1875 5.62283 24.1875 6.75C24.1875 7.87717 23.6838 8.95818 22.7871 9.75521C21.8904 10.5522 20.6743 11 19.4063 11H14.625V6.75C14.625 5.62283 15.1287 4.54183 16.0254 3.7448C16.9221 2.94777 18.1382 2.5 19.4063 2.5V2.5ZM19.4063 9C19.9069 9 20.3963 8.86804 20.8125 8.62081C21.2288 8.37357 21.5532 8.02217 21.7448 7.61104C21.9364 7.1999 21.9865 6.7475 21.8889 6.31105C21.7912 5.87459 21.5501 5.47368 21.1961 5.15901C20.8421 4.84434 20.3911 4.63005 19.9001 4.54323C19.4091 4.45642 18.9001 4.50097 18.4376 4.67127C17.9751 4.84157 17.5797 5.12996 17.3016 5.49997C17.0235 5.86998 16.875 6.30499 16.875 6.75V9H19.4063ZM14.625 13H19.4063C20.3519 13 21.2763 13.2493 22.0626 13.7163C22.8488 14.1833 23.4617 14.847 23.8236 15.6236C24.1854 16.4002 24.2801 17.2547 24.0956 18.0791C23.9111 18.9036 23.4558 19.6608 22.7871 20.2552C22.1184 20.8496 21.2665 21.2544 20.339 21.4183C19.4116 21.5823 18.4502 21.4982 17.5765 21.1765C16.7029 20.8548 15.9562 20.3101 15.4308 19.6112C14.9054 18.9123 14.625 18.0906 14.625 17.25V13ZM16.875 15V17.25C16.875 17.695 17.0235 18.13 17.3016 18.5C17.5797 18.87 17.9751 19.1584 18.4376 19.3287C18.9001 19.499 19.4091 19.5436 19.9001 19.4568C20.3911 19.37 20.8421 19.1557 21.1961 18.841C21.5501 18.5263 21.7912 18.1254 21.8889 17.689C21.9865 17.2525 21.9364 16.8001 21.7448 16.389C21.5532 15.9778 21.2288 15.6264 20.8125 15.3792C20.3963 15.132 19.9069 15 19.4063 15H16.875Z" fill="#373D40"/>
</g>
<defs>
<clipPath id="clip0_1379_32809">
<rect width="27" height="24" fill="white"/>
</clipPath>
</defs>
</svg>
