<svg width="27" height="24" viewBox="0 0 27 24" fill="none" xmlns="http://www.w3.org/2000/svg">
<g clip-path="url(#clip0_1379_32810)">
<path d="M7.59375 2.5C8.22164 2.5 8.84337 2.60993 9.42346 2.82351C10.0035 3.03709 10.5306 3.35015 10.9746 3.7448C11.4186 4.13945 11.7708 4.60796 12.0111 5.1236C12.2513 5.63923 12.375 6.19188 12.375 6.75V11H7.59375C6.32569 11 5.10956 10.5522 4.2129 9.75521C3.31624 8.95818 2.8125 7.87717 2.8125 6.75C2.8125 5.62283 3.31624 4.54183 4.2129 3.7448C5.10956 2.94777 6.32569 2.5 7.59375 2.5V2.5ZM7.59375 13H12.375V17.25C12.375 18.0906 12.0946 18.9123 11.5692 19.6112C11.0438 20.3101 10.2971 20.8548 9.42346 21.1765C8.5498 21.4982 7.58845 21.5823 6.66098 21.4183C5.73351 21.2544 4.88157 20.8496 4.2129 20.2552C3.54423 19.6608 3.08886 18.9036 2.90437 18.0791C2.71989 17.2547 2.81457 16.4002 3.17645 15.6236C3.53833 14.847 4.15116 14.1833 4.93743 13.7163C5.7237 13.2493 6.64811 13 7.59375 13V13ZM19.4063 2.5C20.6743 2.5 21.8904 2.94777 22.7871 3.7448C23.6838 4.54183 24.1875 5.62283 24.1875 6.75C24.1875 7.87717 23.6838 8.95818 22.7871 9.75521C21.8904 10.5522 20.6743 11 19.4063 11H14.625V6.75C14.625 5.62283 15.1287 4.54183 16.0254 3.7448C16.9221 2.94777 18.1382 2.5 19.4063 2.5V2.5ZM14.625 13H19.4063C20.3519 13 21.2763 13.2493 22.0626 13.7163C22.8488 14.1833 23.4617 14.847 23.8236 15.6236C24.1854 16.4002 24.2801 17.2547 24.0956 18.0791C23.9111 18.9036 23.4558 19.6608 22.7871 20.2552C22.1184 20.8496 21.2665 21.2544 20.339 21.4183C19.4116 21.5823 18.4502 21.4982 17.5765 21.1765C16.7029 20.8548 15.9562 20.3101 15.4308 19.6112C14.9054 18.9123 14.625 18.0906 14.625 17.25V13Z" fill="#373D40"/>
</g>
<defs>
<clipPath id="clip0_1379_32810">
<rect width="27" height="24" fill="white"/>
</clipPath>
</defs>
</svg>
