<svg width="24" height="24" viewBox="0 0 24 24" fill="none" xmlns="http://www.w3.org/2000/svg">
<g clip-path="url(#clip0_2190_16532)">
<path d="M4.5 14.5C3.8125 14.5 3.22396 14.2552 2.73438 13.7656C2.24479 13.276 2 12.6875 2 12C2 11.3125 2.24479 10.724 2.73438 10.2344C3.22396 9.74479 3.8125 9.5 4.5 9.5C5.1875 9.5 5.77604 9.74479 6.26562 10.2344C6.75521 10.724 7 11.3125 7 12C7 12.6875 6.75521 13.276 6.26562 13.7656C5.77604 14.2552 5.1875 14.5 4.5 14.5ZM12 14.5C11.3125 14.5 10.724 14.2552 10.2344 13.7656C9.74479 13.276 9.5 12.6875 9.5 12C9.5 11.3125 9.74479 10.724 10.2344 10.2344C10.724 9.74479 11.3125 9.5 12 9.5C12.6875 9.5 13.276 9.74479 13.7656 10.2344C14.2552 10.724 14.5 11.3125 14.5 12C14.5 12.6875 14.2552 13.276 13.7656 13.7656C13.276 14.2552 12.6875 14.5 12 14.5ZM19.5 14.5C18.8125 14.5 18.224 14.2552 17.7344 13.7656C17.2448 13.276 17 12.6875 17 12C17 11.3125 17.2448 10.724 17.7344 10.2344C18.224 9.74479 18.8125 9.5 19.5 9.5C20.1875 9.5 20.776 9.74479 21.2656 10.2344C21.7552 10.724 22 11.3125 22 12C22 12.6875 21.7552 13.276 21.2656 13.7656C20.776 14.2552 20.1875 14.5 19.5 14.5Z" fill="#262626"/>
</g>
<defs>
<clipPath id="clip0_2190_16532">
<rect width="24" height="24" fill="white"/>
</clipPath>
</defs>
</svg>
