<svg width="24" height="24" viewBox="0 0 24 24" fill="none" xmlns="http://www.w3.org/2000/svg">
<path d="M4.89455 3V5.29527H4V6.31346H4.89455V8.23636H4V9.25455H4.89455V11.1767H4V12.1949H4.89455V14.1171H4V15.1353H4.89455V17.0575H4V18.0756H4.89455V20.3709H20V3H4.89455ZM18.9818 19.3411H5.91127V18.0604H6.80582V17.0422H5.91127V15.1229H6.80582V14.1047H5.91127V12.1855H6.80582V11.1673H5.91127V9.248H6.80582V8.23636H5.91127V6.31055H6.80582V5.29236H5.91127V4.01818H18.9818V19.3411Z" fill="black"/>
<path d="M13.8008 6.96045H17.0982V7.97863H13.8008V6.96045Z" fill="black"/>
<path d="M13.8008 11.1703H17.0982V12.1885H13.8008V11.1703Z" fill="black"/>
<path d="M13.8008 15.7216H17.0982V16.7398H13.8008V15.7216Z" fill="black"/>
<path d="M12.243 6.51921L11.5238 5.80139L9.87867 7.44212L9.11722 6.68212L8.39795 7.39994L9.87795 8.87703L12.243 6.51921Z" fill="black"/>
<path d="M12.2482 10.7973L11.5289 10.0795L9.88453 11.721L9.12308 10.9595L8.40381 11.6774L9.8838 13.1544L12.2482 10.7973Z" fill="black"/>
<path d="M12.2482 15.0703L11.5289 14.3525L9.88453 15.9939L9.12308 15.2339L8.40381 15.9517L9.8838 17.4288L12.2482 15.0703Z" fill="black"/>
</svg>
