<svg width="27" height="24" viewBox="0 0 27 24" fill="none" xmlns="http://www.w3.org/2000/svg">
<g clip-path="url(#clip0_1379_32812)">
<path d="M23.625 2.992V21.008C23.6226 21.2706 23.5042 21.5219 23.2951 21.7075C23.0861 21.8931 22.8033 21.9982 22.5079 22H4.49212C4.19604 22 3.91207 21.8955 3.7026 21.7095C3.49313 21.5235 3.3753 21.2712 3.375 21.008V2.992C3.37736 2.72938 3.49585 2.47813 3.70487 2.29251C3.91389 2.1069 4.19668 2.00183 4.49212 2H22.5079C23.1244 2 23.625 2.444 23.625 2.992V2.992ZM12.7046 13.122L9.92025 10.646L8.3295 12.061L12.7046 15.95L19.0687 10.293L17.478 8.879L12.7046 13.121V13.122Z" fill="#373D40"/>
</g>
<defs>
<clipPath id="clip0_1379_32812">
<rect width="27" height="24" fill="white"/>
</clipPath>
</defs>
</svg>
