<svg width="24" height="24" viewBox="0 0 24 24" fill="none" xmlns="http://www.w3.org/2000/svg">
<g clip-path="url(#clip0_1300_16446)">
<path d="M21 2.992V21.008C20.9979 21.2706 20.8926 21.5219 20.7068 21.7075C20.521 21.8931 20.2696 21.9982 20.007 22H3.993C3.72981 22 3.47739 21.8955 3.2912 21.7095C3.105 21.5235 3.00027 21.2712 3 21.008V2.992C3.00209 2.72938 3.10742 2.47813 3.29322 2.29251C3.47902 2.1069 3.73038 2.00183 3.993 2H20.007C20.555 2 21 2.444 21 2.992V2.992ZM19 4H5V20H19V4ZM11.293 13.121L15.536 8.879L16.95 10.293L11.293 15.95L7.403 12.06L8.818 10.646L11.293 13.121V13.121Z" fill="#373D40"/>
</g>
<defs>
<clipPath id="clip0_1300_16446">
<rect width="24" height="24" fill="white"/>
</clipPath>
</defs>
</svg>
