<svg width="24" height="25" viewBox="0 0 24 25" fill="none" xmlns="http://www.w3.org/2000/svg">
<g clip-path="url(#clip0_1241_16529)">
<path d="M12 11.8018C13.3261 11.8018 14.5979 12.3285 15.5355 13.2662C16.4732 14.2039 17 15.4757 17 16.8018V22.8018H15V16.8018C15 16.0365 14.7077 15.3002 14.1827 14.7435C13.6578 14.1868 12.9399 13.8517 12.176 13.8068L12 13.8018C11.2348 13.8017 10.4985 14.0941 9.94174 14.619C9.38499 15.144 9.04989 15.8619 9.005 16.6258L9 16.8018V22.8018H7V16.8018C7 15.4757 7.52678 14.2039 8.46447 13.2662C9.40215 12.3285 10.6739 11.8018 12 11.8018ZM5.5 14.8018C5.779 14.8018 6.05 14.8348 6.31 14.8958C6.13902 15.4048 6.03777 15.9346 6.009 16.4708L6 16.8018V16.8878C5.88505 16.8466 5.76549 16.8198 5.644 16.8078L5.5 16.8018C5.12712 16.8018 4.76761 16.9407 4.49158 17.1914C4.21555 17.4421 4.0428 17.7866 4.007 18.1578L4 18.3018V22.8018H2V18.3018C2 17.3735 2.36875 16.4833 3.02513 15.8269C3.6815 15.1705 4.57174 14.8018 5.5 14.8018ZM18.5 14.8018C19.4283 14.8018 20.3185 15.1705 20.9749 15.8269C21.6313 16.4833 22 17.3735 22 18.3018V22.8018H20V18.3018C20 17.9289 19.8611 17.5694 19.6104 17.2933C19.3597 17.0173 19.0152 16.8446 18.644 16.8088L18.5 16.8018C18.325 16.8018 18.157 16.8318 18 16.8868V16.8018C18 16.1358 17.892 15.4958 17.691 14.8978C17.95 14.8348 18.221 14.8018 18.5 14.8018ZM5.5 8.80176C6.16304 8.80176 6.79893 9.06515 7.26777 9.53399C7.73661 10.0028 8 10.6387 8 11.3018C8 11.9648 7.73661 12.6007 7.26777 13.0695C6.79893 13.5384 6.16304 13.8018 5.5 13.8018C4.83696 13.8018 4.20107 13.5384 3.73223 13.0695C3.26339 12.6007 3 11.9648 3 11.3018C3 10.6387 3.26339 10.0028 3.73223 9.53399C4.20107 9.06515 4.83696 8.80176 5.5 8.80176ZM18.5 8.80176C19.163 8.80176 19.7989 9.06515 20.2678 9.53399C20.7366 10.0028 21 10.6387 21 11.3018C21 11.9648 20.7366 12.6007 20.2678 13.0695C19.7989 13.5384 19.163 13.8018 18.5 13.8018C17.837 13.8018 17.2011 13.5384 16.7322 13.0695C16.2634 12.6007 16 11.9648 16 11.3018C16 10.6387 16.2634 10.0028 16.7322 9.53399C17.2011 9.06515 17.837 8.80176 18.5 8.80176ZM5.5 10.8018C5.36739 10.8018 5.24021 10.8544 5.14645 10.9482C5.05268 11.042 5 11.1691 5 11.3018C5 11.4344 5.05268 11.5615 5.14645 11.6553C5.24021 11.7491 5.36739 11.8018 5.5 11.8018C5.63261 11.8018 5.75979 11.7491 5.85355 11.6553C5.94732 11.5615 6 11.4344 6 11.3018C6 11.1691 5.94732 11.042 5.85355 10.9482C5.75979 10.8544 5.63261 10.8018 5.5 10.8018ZM18.5 10.8018C18.3674 10.8018 18.2402 10.8544 18.1464 10.9482C18.0527 11.042 18 11.1691 18 11.3018C18 11.4344 18.0527 11.5615 18.1464 11.6553C18.2402 11.7491 18.3674 11.8018 18.5 11.8018C18.6326 11.8018 18.7598 11.7491 18.8536 11.6553C18.9473 11.5615 19 11.4344 19 11.3018C19 11.1691 18.9473 11.042 18.8536 10.9482C18.7598 10.8544 18.6326 10.8018 18.5 10.8018ZM12 2.80176C13.0609 2.80176 14.0783 3.22319 14.8284 3.97333C15.5786 4.72348 16 5.74089 16 6.80176C16 7.86262 15.5786 8.88004 14.8284 9.63019C14.0783 10.3803 13.0609 10.8018 12 10.8018C10.9391 10.8018 9.92172 10.3803 9.17157 9.63019C8.42143 8.88004 8 7.86262 8 6.80176C8 5.74089 8.42143 4.72348 9.17157 3.97333C9.92172 3.22319 10.9391 2.80176 12 2.80176ZM12 4.80176C11.4696 4.80176 10.9609 5.01247 10.5858 5.38754C10.2107 5.76262 10 6.27132 10 6.80176C10 7.33219 10.2107 7.8409 10.5858 8.21597C10.9609 8.59104 11.4696 8.80176 12 8.80176C12.5304 8.80176 13.0391 8.59104 13.4142 8.21597C13.7893 7.8409 14 7.33219 14 6.80176C14 6.27132 13.7893 5.76262 13.4142 5.38754C13.0391 5.01247 12.5304 4.80176 12 4.80176Z" fill="#373D40"/>
</g>
<defs>
<clipPath id="clip0_1241_16529">
<rect width="24" height="24" fill="white" transform="translate(0 0.801758)"/>
</clipPath>
</defs>
</svg>
