<svg width="24" height="24" viewBox="0 0 24 24" fill="none" xmlns="http://www.w3.org/2000/svg">
<g clip-path="url(#clip0_559_22121)">
<path fill-rule="evenodd" clip-rule="evenodd" d="M4.29596 14.461C4.66109 13.7397 5.24473 13.1522 5.96359 12.7824C6.68244 12.4125 7.49976 12.2791 8.29891 12.4013L8.70457 12.4633L8.99475 12.1732L16.1359 5.03204C16.5068 4.66115 17.0098 4.45279 17.5343 4.45279C18.0588 4.45279 18.5618 4.66115 18.9327 5.03204C19.3036 5.40292 19.512 5.90595 19.512 6.43046C19.512 6.95498 19.3036 7.45801 18.9327 7.82889L11.753 15.0086L11.4699 15.2917L11.5227 15.6887C11.6284 16.4839 11.4822 17.2921 11.1047 17.9999C10.7272 18.7077 10.1374 19.2793 9.41816 19.6345C8.69892 19.9896 7.88646 20.1104 7.09501 19.9798C6.30357 19.8493 5.57295 19.4739 5.0059 18.9066L4.4314 19.4808L5.00581 18.9065C4.43421 18.3348 4.05782 17.5971 3.93034 16.7988C3.80287 16.0005 3.93083 15.1823 4.29596 14.461ZM6.83108 21.5797C5.70518 21.394 4.66581 20.86 3.85911 20.053L3.85902 20.0529C3.0459 19.2396 2.51046 18.1902 2.32912 17.0545C2.14776 15.9188 2.32981 14.7548 2.84926 13.7287C3.36871 12.7025 4.19902 11.8667 5.22169 11.3405C6.11868 10.879 7.12344 10.6763 8.12399 10.7508L14.9893 3.88546C15.6643 3.21048 16.5797 2.83128 17.5343 2.83128C18.4889 2.83128 19.4043 3.21048 20.0793 3.88546C20.7543 4.56043 21.1335 5.4759 21.1335 6.43046C21.1335 7.38503 20.7543 8.30049 20.0793 8.97547L13.1689 15.8859C13.2253 16.8822 13.0076 17.8778 12.5355 18.763C11.9984 19.7699 11.1593 20.5831 10.1361 21.0884C9.11286 21.5936 7.95702 21.7655 6.83108 21.5797ZM5.28938 16.4378C5.33739 17.0258 5.59361 17.5775 6.01197 17.9935C6.42506 18.4073 6.97112 18.6617 7.55363 18.7118C8.13614 18.7619 8.71762 18.6045 9.19528 18.2673C9.67295 17.9302 10.0161 17.435 10.164 16.8694C10.3119 16.3037 10.2551 15.704 10.0036 15.1762L14.9241 10.2557L13.7849 9.11644L8.87753 14.0238C8.35091 13.7577 7.74663 13.6882 7.17336 13.8278C6.60008 13.9674 6.0954 14.307 5.75006 14.7854C5.40472 15.2638 5.24137 15.8497 5.28938 16.4378Z" fill="black"/>
</g>
<defs>
<clipPath id="clip0_559_22121">
<rect width="24" height="24" fill="white"/>
</clipPath>
</defs>
</svg>
