<svg width="24" height="24" viewBox="0 0 24 24" fill="none" xmlns="http://www.w3.org/2000/svg">
<g clip-path="url(#clip0_559_22121)">
<mask id="mask0_559_22121" style="mask-type:alpha" maskUnits="userSpaceOnUse" x="0" y="0" width="24" height="24">
<rect width="24" height="24" fill="#D9D9D9"/>
</mask>
<g mask="url(#mask0_559_22121)">
<path d="M12 22C10.6167 22 9.4375 21.5125 8.4625 20.5375C7.4875 19.5625 7 18.3833 7 17C7 16.2 7.175 15.4542 7.525 14.7625C7.875 14.0708 8.36667 13.4833 9 13V5C9 4.16667 9.29167 3.45833 9.875 2.875C10.4583 2.29167 11.1667 2 12 2C12.8333 2 13.5417 2.29167 14.125 2.875C14.7083 3.45833 15 4.16667 15 5V13C15.6333 13.4833 16.125 14.0708 16.475 14.7625C16.825 15.4542 17 16.2 17 17C17 18.3833 16.5125 19.5625 15.5375 20.5375C14.5625 21.5125 13.3833 22 12 22ZM11 11H13V10H12V9H13V7H12V6H13V5C13 4.71667 12.9042 4.47917 12.7125 4.2875C12.5208 4.09583 12.2833 4 12 4C11.7167 4 11.4792 4.09583 11.2875 4.2875C11.0958 4.47917 11 4.71667 11 5V11Z" fill="#1C1B1F"/>
</g>
</g>
<defs>
<clipPath id="clip0_559_22121">
<rect width="24" height="24" fill="white"/>
</clipPath>
</defs>
</svg>
