<svg width="24" height="24" viewBox="0 0 24 24" fill="none" xmlns="http://www.w3.org/2000/svg">
<g clip-path="url(#clip0_1836_29171)">
<path d="M17.3331 6.74803L18.7126 5.36854L20.0551 6.711L18.6756 8.09049C20.0387 9.79673 20.6968 11.9602 20.5147 14.1364C20.3325 16.3127 19.324 18.3367 17.6962 19.7926C16.0685 21.2486 13.945 22.026 11.762 21.9652C9.57892 21.9044 7.502 21.0101 5.95776 19.4658C4.41351 17.9216 3.51916 15.8447 3.45839 13.6616C3.39762 11.4786 4.17503 9.35512 5.63098 7.72735C7.08692 6.09959 9.11087 5.09108 11.2872 4.90895C13.4634 4.72682 15.6269 5.3849 17.3331 6.74803V6.74803ZM11.9993 20.0701C12.8721 20.0701 13.7363 19.8982 14.5426 19.5642C15.3489 19.2302 16.0815 18.7407 16.6987 18.1236C17.3158 17.5065 17.8053 16.7738 18.1393 15.9675C18.4733 15.1612 18.6452 14.297 18.6452 13.4243C18.6452 12.5515 18.4733 11.6873 18.1393 10.881C17.8053 10.0747 17.3158 9.34206 16.6987 8.72493C16.0815 8.10781 15.3489 7.61828 14.5426 7.28429C13.7363 6.95031 12.8721 6.77841 11.9993 6.77841C10.2367 6.77841 8.54635 7.4786 7.30001 8.72493C6.05367 9.97127 5.35349 11.6617 5.35349 13.4243C5.35349 15.1869 6.05367 16.8772 7.30001 18.1236C8.54635 19.3699 10.2367 20.0701 11.9993 20.0701V20.0701ZM11.0499 8.67722H12.9487V14.3737H11.0499V8.67722ZM8.20171 2.03137H15.797V3.93019H8.20171V2.03137Z" fill="#373D40"/>
</g>
<defs>
<clipPath id="clip0_1836_29171">
<rect width="24" height="24" fill="white"/>
</clipPath>
</defs>
</svg>
