<svg width="24" height="24" viewBox="0 0 24 24" fill="none" xmlns="http://www.w3.org/2000/svg">
<g clip-path="url(#clip0_2068_16438)">
<mask id="mask0_2068_16438" style="mask-type:alpha" maskUnits="userSpaceOnUse" x="0" y="0" width="25" height="24">
<rect x="0.139648" width="24" height="24" fill="#D9D9D9"/>
</mask>
<g mask="url(#mask0_2068_16438)">
<path d="M5.13965 21V19H19.1396V21H5.13965ZM12.1396 17C10.4563 17 9.14798 16.475 8.21465 15.425C7.28132 14.375 6.81465 12.9833 6.81465 11.25V3H9.38965V11.4C9.38965 12.3333 9.62298 13.0917 10.0896 13.675C10.5563 14.2583 11.2396 14.55 12.1396 14.55C13.0396 14.55 13.723 14.2583 14.1896 13.675C14.6563 13.0917 14.8896 12.3333 14.8896 11.4V3H17.4646V11.25C17.4646 12.9833 16.998 14.375 16.0646 15.425C15.1313 16.475 13.823 17 12.1396 17Z" fill="#1C1B1F"/>
</g>
</g>
<defs>
<clipPath id="clip0_2068_16438">
<rect width="24" height="24" fill="white"/>
</clipPath>
</defs>
</svg>
