<svg width="24" height="24" viewBox="0 0 24 24" fill="none" xmlns="http://www.w3.org/2000/svg">
<g clip-path="url(#clip0_1836_29100)">
<path d="M7.26315 9.58144H19.5791C19.8304 9.58144 20.0713 9.68125 20.249 9.85892C20.4267 10.0366 20.5265 10.2776 20.5265 10.5288V20.0026C20.5265 20.2539 20.4267 20.4949 20.249 20.6725C20.0713 20.8502 19.8304 20.95 19.5791 20.95H4.42101C4.16975 20.95 3.92878 20.8502 3.75111 20.6725C3.57345 20.4949 3.47363 20.2539 3.47363 20.0026V10.5288C3.47363 10.2776 3.57345 10.0366 3.75111 9.85892C3.92878 9.68125 4.16975 9.58144 4.42101 9.58144H5.36839V8.63406C5.36785 7.13976 5.872 5.68907 6.79912 4.51716C7.72623 3.34524 9.02197 2.52079 10.4763 2.17744C11.9306 1.83409 13.4583 1.99198 14.8116 2.6255C16.165 3.25903 17.2647 4.33105 17.9325 5.66781L16.2377 6.51477C15.7607 5.55983 14.9751 4.79399 14.0083 4.34143C13.0416 3.88887 11.9503 3.77611 10.9114 4.02143C9.87252 4.26676 8.94696 4.85579 8.28477 5.69302C7.62258 6.53025 7.26259 7.56661 7.26315 8.63406V9.58144ZM5.36839 11.4762V19.0552H18.6317V11.4762H5.36839ZM10.1053 14.3183H13.8948V16.2131H10.1053V14.3183Z" fill="#373D40"/>
</g>
<defs>
<clipPath id="clip0_1836_29100">
<rect width="24" height="24" fill="white"/>
</clipPath>
</defs>
</svg>
