<svg width="25" height="24" viewBox="0 0 25 24" fill="none" xmlns="http://www.w3.org/2000/svg">
<circle cx="12.6348" cy="12" r="10" fill="#FFED96"/>
<path d="M8.66152 16.6332H16.6078H17.4024C17.8413 16.6332 18.197 16.9889 18.197 17.4278V17.4278C18.197 17.6385 18.1133 17.8406 17.9643 17.9897C17.8153 18.1387 17.6132 18.2224 17.4024 18.2224H7.86689C7.65614 18.2224 7.45403 18.1387 7.30501 17.9897C7.15598 17.8406 7.07227 17.6385 7.07227 17.4278V17.4278C7.07227 16.9889 7.42803 16.6332 7.86689 16.6332H8.66152ZM14.2239 10.4663H18.197L12.6347 16.0287L7.07227 10.4663H11.0454V5.22644H14.2239V10.4663Z" fill="#262626"/>
</svg>
