<svg width="28" height="25" viewBox="0 0 28 25" fill="none" xmlns="http://www.w3.org/2000/svg">
<g clip-path="url(#clip0_1836_29189)">
<path d="M14 14.1769V22.1769H5C5 20.0551 5.94821 18.0203 7.63604 16.52C9.32387 15.0197 11.6131 14.1769 14 14.1769V14.1769ZM14 13.1769C10.2706 13.1769 7.25 10.4919 7.25 7.17688C7.25 3.86188 10.2706 1.17688 14 1.17688C17.7294 1.17688 20.75 3.86188 20.75 7.17688C20.75 10.4919 17.7294 13.1769 14 13.1769ZM24.6267 20.2089L26.3188 21.7129L24.728 23.1269L23.036 21.6229C22.0925 22.1174 20.9785 22.289 19.9028 22.1056C18.8272 21.9223 17.8636 21.3965 17.1929 20.6268C16.5222 19.8571 16.1902 18.8964 16.2594 17.9248C16.3285 16.9531 16.7939 16.0372 17.5684 15.3488C18.3429 14.6604 19.3733 14.2467 20.4664 14.1852C21.5595 14.1238 22.6403 14.4188 23.5062 15.015C24.372 15.6112 24.9636 16.4677 25.1699 17.4238C25.3762 18.38 25.1831 19.3702 24.6267 20.2089V20.2089ZM20.75 20.1769C21.3467 20.1769 21.919 19.9662 22.341 19.5911C22.7629 19.216 23 18.7073 23 18.1769C23 17.6464 22.7629 17.1377 22.341 16.7627C21.919 16.3876 21.3467 16.1769 20.75 16.1769C20.1533 16.1769 19.581 16.3876 19.159 16.7627C18.7371 17.1377 18.5 17.6464 18.5 18.1769C18.5 18.7073 18.7371 19.216 19.159 19.5911C19.581 19.9662 20.1533 20.1769 20.75 20.1769V20.1769Z" fill="#373D40"/>
</g>
<defs>
<clipPath id="clip0_1836_29189">
<rect width="27" height="24" fill="white" transform="translate(0.5 0.17688)"/>
</clipPath>
</defs>
</svg>
