<svg width="25" height="25" viewBox="0 0 25 25" fill="none" xmlns="http://www.w3.org/2000/svg">
<path d="M11.0532 12C9.95322 12 9.01156 11.6083 8.22822 10.825C7.44489 10.0417 7.05322 9.1 7.05322 8C7.05322 6.9 7.44489 5.95833 8.22822 5.175C9.01156 4.39167 9.95322 4 11.0532 4C12.1532 4 13.0949 4.39167 13.8782 5.175C14.6616 5.95833 15.0532 6.9 15.0532 8C15.0532 9.1 14.6616 10.0417 13.8782 10.825C13.0949 11.6083 12.1532 12 11.0532 12ZM21.4532 22.8L18.9532 20.3C18.6032 20.5 18.2282 20.6667 17.8282 20.8C17.4282 20.9333 17.0032 21 16.5532 21C15.3032 21 14.2407 20.5625 13.3657 19.6875C12.4907 18.8125 12.0532 17.75 12.0532 16.5C12.0532 15.25 12.4907 14.1875 13.3657 13.3125C14.2407 12.4375 15.3032 12 16.5532 12C17.8032 12 18.8657 12.4375 19.7407 13.3125C20.6157 14.1875 21.0532 15.25 21.0532 16.5C21.0532 16.95 20.9866 17.375 20.8532 17.775C20.7199 18.175 20.5532 18.55 20.3532 18.9L22.8532 21.4C23.0366 21.5833 23.1282 21.8167 23.1282 22.1C23.1282 22.3833 23.0366 22.6167 22.8532 22.8C22.6699 22.9833 22.4366 23.075 22.1532 23.075C21.8699 23.075 21.6366 22.9833 21.4532 22.8ZM16.5532 19C17.2532 19 17.8449 18.7583 18.3282 18.275C18.8116 17.7917 19.0532 17.2 19.0532 16.5C19.0532 15.8 18.8116 15.2083 18.3282 14.725C17.8449 14.2417 17.2532 14 16.5532 14C15.8532 14 15.2616 14.2417 14.7782 14.725C14.2949 15.2083 14.0532 15.8 14.0532 16.5C14.0532 17.2 14.2949 17.7917 14.7782 18.275C15.2616 18.7583 15.8532 19 16.5532 19ZM5.05322 20C4.50322 20 4.03239 19.8042 3.64072 19.4125C3.24906 19.0208 3.05322 18.55 3.05322 18V17.225C3.05322 16.6583 3.19489 16.1333 3.47822 15.65C3.76156 15.1667 4.15322 14.8 4.65322 14.55C5.40322 14.1667 6.23239 13.8375 7.14072 13.5625C8.04906 13.2875 9.04489 13.1083 10.1282 13.025C10.3282 13.0083 10.4782 13.0917 10.5782 13.275C10.6782 13.4583 10.6866 13.65 10.6032 13.85C10.4199 14.2667 10.2824 14.6958 10.1907 15.1375C10.0991 15.5792 10.0532 16.025 10.0532 16.475C10.0532 16.9083 10.0907 17.3458 10.1657 17.7875C10.2407 18.2292 10.3699 18.65 10.5532 19.05C10.6532 19.2833 10.6449 19.5 10.5282 19.7C10.4116 19.9 10.2366 20 10.0032 20H5.05322Z" fill="#262626"/>
</svg>
