<svg width="27" height="25" viewBox="0 0 27 25" fill="none" xmlns="http://www.w3.org/2000/svg">
<g clip-path="url(#clip0_1836_29190)">
<path d="M13.5 14.1769V16.1769C11.7098 16.1769 9.9929 16.809 8.72703 17.9342C7.46116 19.0595 6.75 20.5856 6.75 22.1769H4.5C4.5 20.0551 5.44821 18.0203 7.13604 16.52C8.82387 15.0197 11.1131 14.1769 13.5 14.1769V14.1769ZM13.5 13.1769C9.77062 13.1769 6.75 10.4919 6.75 7.17688C6.75 3.86188 9.77062 1.17688 13.5 1.17688C17.2294 1.17688 20.25 3.86188 20.25 7.17688C20.25 10.4919 17.2294 13.1769 13.5 13.1769ZM13.5 11.1769C15.9863 11.1769 18 9.38688 18 7.17688C18 4.96688 15.9863 3.17688 13.5 3.17688C11.0137 3.17688 9 4.96688 9 7.17688C9 9.38688 11.0137 11.1769 13.5 11.1769ZM24.1267 20.2089L25.8188 21.7129L24.228 23.1269L22.536 21.6229C21.5925 22.1174 20.4785 22.289 19.4028 22.1056C18.3272 21.9223 17.3636 21.3965 16.6929 20.6268C16.0222 19.8571 15.6902 18.8964 15.7594 17.9248C15.8285 16.9531 16.2939 16.0372 17.0684 15.3488C17.8429 14.6604 18.8733 14.2467 19.9664 14.1852C21.0595 14.1238 22.1403 14.4188 23.0062 15.015C23.872 15.6112 24.4636 16.4677 24.6699 17.4238C24.8762 18.38 24.6831 19.3702 24.1267 20.2089V20.2089ZM20.25 20.1769C20.8467 20.1769 21.419 19.9662 21.841 19.5911C22.2629 19.216 22.5 18.7073 22.5 18.1769C22.5 17.6464 22.2629 17.1377 21.841 16.7627C21.419 16.3876 20.8467 16.1769 20.25 16.1769C19.6533 16.1769 19.081 16.3876 18.659 16.7627C18.2371 17.1377 18 17.6464 18 18.1769C18 18.7073 18.2371 19.216 18.659 19.5911C19.081 19.9662 19.6533 20.1769 20.25 20.1769V20.1769Z" fill="#373D40"/>
</g>
<defs>
<clipPath id="clip0_1836_29190">
<rect width="27" height="24" fill="white" transform="translate(0 0.17688)"/>
</clipPath>
</defs>
</svg>
