<svg width="25" height="25" viewBox="0 0 25 25" fill="none" xmlns="http://www.w3.org/2000/svg">
<g clip-path="url(#clip0_1287_16500)">
<path d="M14.2129 10.9633L17.2129 8.71326V14.7133L14.2129 12.4633V14.7133H7.21289V8.71326H14.2129V10.9633ZM5.97589 17.7133H20.2129V5.71326H4.21289V19.0983L5.97589 17.7133ZM6.66789 19.7133L2.21289 23.2133V4.71326C2.21289 4.44804 2.31825 4.19369 2.50578 4.00615C2.69332 3.81861 2.94767 3.71326 3.21289 3.71326H21.2129C21.4781 3.71326 21.7325 3.81861 21.92 4.00615C22.1075 4.19369 22.2129 4.44804 22.2129 4.71326V18.7133C22.2129 18.9785 22.1075 19.2328 21.92 19.4204C21.7325 19.6079 21.4781 19.7133 21.2129 19.7133H6.66789Z" fill="#373D40"/>
</g>
<defs>
<clipPath id="clip0_1287_16500">
<rect width="24" height="24" fill="white" transform="translate(0.212891 0.713257)"/>
</clipPath>
</defs>
</svg>
