<svg width="24" height="24" viewBox="0 0 24 24" fill="none" xmlns="http://www.w3.org/2000/svg">
<g clip-path="url(#clip0_623_22142)">
<mask id="mask0_623_22142" style="mask-type:alpha" maskUnits="userSpaceOnUse" x="0" y="0" width="24" height="24">
<rect width="24" height="24" fill="#D9D9D9"/>
</mask>
<g mask="url(#mask0_623_22142)">
<path d="M4 22V16H7V22H4ZM9 22V10.1C8.16667 10.3833 7.625 10.9042 7.375 11.6625C7.125 12.4208 7 13.2 7 14H5C5 11.8667 5.625 10.1667 6.875 8.9C8.125 7.63333 9.83333 7 12 7C13.6667 7 14.9167 6.5875 15.75 5.7625C16.5833 4.9375 17 3.68333 17 2H19C19 3.46667 18.6875 4.77917 18.0625 5.9375C17.4375 7.09583 16.4167 7.91667 15 8.4V22H13V16H11V22H9ZM12 6C11.45 6 10.9792 5.80417 10.5875 5.4125C10.1958 5.02083 10 4.55 10 4C10 3.45 10.1958 2.97917 10.5875 2.5875C10.9792 2.19583 11.45 2 12 2C12.55 2 13.0208 2.19583 13.4125 2.5875C13.8042 2.97917 14 3.45 14 4C14 4.55 13.8042 5.02083 13.4125 5.4125C13.0208 5.80417 12.55 6 12 6Z" fill="#1C1B1F"/>
</g>
</g>
<defs>
<clipPath id="clip0_623_22142">
<rect width="24" height="24" fill="white"/>
</clipPath>
</defs>
</svg>
