<svg width="24" height="24" viewBox="0 0 24 24" fill="none" xmlns="http://www.w3.org/2000/svg">
<path d="M22 12.3166L21.9949 10.2879C21.9898 9.64418 21.4481 9.19944 20.8194 9.12264L9.23685 7.96764C9.21381 7.96252 9.19333 7.95228 9.17322 7.95228C8.98086 7.95257 8.79646 8.02911 8.66044 8.16513C8.52442 8.30115 8.44788 8.48554 8.44759 8.6779V10.865H5.41928C5.22623 10.865 5.041 10.9413 4.90398 11.0773C4.76696 11.2133 4.68926 11.398 4.68781 11.591C4.68781 11.9948 5.01258 12.317 5.41928 12.317L22 12.3166ZM6.13211 10.0937C6.32594 10.0937 6.51788 10.0555 6.69694 9.9813C6.876 9.90707 7.03866 9.79825 7.1756 9.66106C7.31254 9.52388 7.42108 9.36104 7.49501 9.18185C7.56893 9.00267 7.60678 8.81066 7.6064 8.61682C7.6063 8.42335 7.56808 8.23179 7.49393 8.05308C7.41978 7.87438 7.31115 7.71204 7.17424 7.57533C7.03733 7.43863 6.87483 7.33024 6.69601 7.25635C6.5172 7.18247 6.32558 7.14454 6.13211 7.14473C5.9386 7.14449 5.74694 7.18238 5.56809 7.25625C5.38923 7.33011 5.22669 7.43849 5.08974 7.5752C4.95279 7.71191 4.84412 7.87427 4.76995 8.053C4.69578 8.23172 4.65755 8.42332 4.65745 8.61682C4.65707 8.81069 4.69493 9.00273 4.76888 9.18194C4.84282 9.36115 4.95139 9.52401 5.08838 9.66119C5.22536 9.79838 5.38806 9.9072 5.56716 9.98141C5.74626 10.0556 5.93824 10.0938 6.13211 10.0937ZM20.3337 15.0765V18.1842H21.9744V13.5386H3.62753V6.81739C3.62753 6.3679 3.26728 5.99997 2.81231 5.99997C2.59625 6.00084 2.38937 6.08741 2.23707 6.24066C2.08478 6.39391 1.99952 6.60134 2 6.81739V18.1842H3.62753V15.0768L20.3337 15.0765Z" fill="black"/>
</svg>
