<svg width="24" height="24" viewBox="0 0 24 24" fill="none" xmlns="http://www.w3.org/2000/svg">
<path d="M15.2575 7.00006C15.0018 7.00006 14.7566 7.10164 14.5758 7.28245C14.395 7.46326 14.2934 7.70849 14.2934 7.9642C14.2934 8.2199 14.395 8.46513 14.5758 8.64594C14.7566 8.82675 15.0018 8.92833 15.2575 8.92833C15.5132 8.92833 15.7585 8.82675 15.9393 8.64594C16.1201 8.46513 16.2217 8.2199 16.2217 7.9642C16.2217 7.70849 16.1201 7.46326 15.9393 7.28245C15.7585 7.10164 15.5132 7.00006 15.2575 7.00006ZM15.5792 9.21415C15.3239 9.21415 15.0792 9.31553 14.8987 9.49601C14.7182 9.67648 14.6168 9.92125 14.6168 10.1765V12.4262L14.6445 12.6564L14.2682 14.6581V14.6619L13.1281 16.447C13.0793 16.5175 13.045 16.5971 13.0274 16.6811C13.0098 16.765 13.0091 16.8517 13.0255 16.9359C13.0419 17.0201 13.0749 17.1001 13.1227 17.1714C13.1705 17.2426 13.232 17.3036 13.3037 17.3507C13.3754 17.3978 13.4558 17.43 13.5402 17.4456C13.6245 17.4612 13.7112 17.4597 13.7949 17.4412C13.8787 17.4228 13.958 17.3878 14.028 17.3383C14.0981 17.2888 14.1575 17.2257 14.2028 17.1529L15.3424 15.3678L15.4315 15.1604C15.4798 15.087 15.5135 15.0023 15.5284 14.9102L15.66 13.6163L16.3572 14.8474L16.5475 16.926C16.5475 17.0965 16.6152 17.26 16.7358 17.3806C16.8564 17.5011 17.0199 17.5689 17.1904 17.5689C17.3609 17.5689 17.5244 17.5011 17.6449 17.3806C17.7655 17.26 17.8332 17.0965 17.8332 16.926L17.6431 14.7776C17.6594 14.6932 17.6586 14.6064 17.6406 14.5223C17.6227 14.4383 17.588 14.3587 17.5387 14.2883L16.5278 12.6218L16.5475 12.4262V11.1706L16.8841 11.4939C16.9399 11.5476 17.0051 11.5851 17.0742 11.6067C17.1343 11.6664 17.2103 11.7112 17.2984 11.733L18.7732 12.0987C18.8973 12.1295 19.0285 12.1097 19.138 12.0437C19.2475 11.9777 19.3263 11.8709 19.357 11.7468C19.3878 11.6227 19.368 11.4914 19.302 11.3819C19.236 11.2724 19.1292 11.1936 19.0051 11.1629L17.5568 10.8037L16.4354 9.72442C16.3535 9.56955 16.2309 9.43998 16.0808 9.34967C15.9306 9.25937 15.7587 9.21176 15.5835 9.21198L15.5792 9.21415ZM2.36588 9.52041C2.22372 9.52098 2.08759 9.57796 1.98741 9.67882C1.88722 9.77968 1.83116 9.91619 1.83154 10.0584V17.5354H2.90238V15.4912H12.773L13.3016 14.6638V14.66L13.3353 14.4795H2.89997V10.0586C2.9002 9.988 2.88648 9.91805 2.85962 9.85277C2.83276 9.78748 2.79327 9.72814 2.74343 9.67814C2.69359 9.62814 2.63437 9.58847 2.56917 9.56141C2.50397 9.53434 2.43407 9.52041 2.36347 9.52041H2.36588ZM20.6812 11.5401C20.598 11.548 20.5152 11.5728 20.4373 11.6152L21.6638 13.875C21.738 13.8347 21.8035 13.7802 21.8566 13.7146C21.9098 13.649 21.9495 13.5736 21.9735 13.4927C21.9975 13.4117 22.0053 13.3268 21.9965 13.2429C21.9877 13.1589 21.9624 13.0775 21.9221 13.0033L21.3089 11.8731C21.2485 11.762 21.1568 11.6712 21.0451 11.612C20.9334 11.5527 20.807 11.5277 20.6812 11.5401ZM6.5501 11.767C6.42358 11.7672 6.30232 11.8176 6.21286 11.9071C6.12341 11.9965 6.07304 12.1178 6.07278 12.2443V12.7206H4.08051C3.95352 12.7206 3.83168 12.7708 3.74155 12.8603C3.65141 12.9498 3.6003 13.0712 3.59935 13.1982C3.59935 13.4638 3.81275 13.6758 4.08051 13.6758H13.489L13.6803 12.6583L13.6591 12.4822L6.59196 11.7773C6.5768 11.7739 6.56357 11.767 6.5501 11.767ZM20.1551 11.767L18.7424 12.5337L19.9693 14.7935L21.3813 14.0265L20.1551 11.767ZM18.4599 12.687C18.3857 12.7272 18.3202 12.7817 18.267 12.8473C18.2139 12.9129 18.1742 12.9883 18.1502 13.0693C18.1262 13.1502 18.1184 13.2351 18.1272 13.319C18.136 13.403 18.1613 13.4844 18.2015 13.5586L18.815 14.6884C18.8553 14.7626 18.9098 14.8282 18.9754 14.8813C19.041 14.9345 19.1165 14.9742 19.1974 14.9982C19.2784 15.0222 19.3633 15.03 19.4473 15.0212C19.5313 15.0123 19.6127 14.9871 19.6869 14.9468L18.4599 12.687Z" fill="#373D40"/>
</svg>
