<svg width="24" height="24" viewBox="0 0 24 24" fill="none" xmlns="http://www.w3.org/2000/svg">
<g clip-path="url(#clip0_493_22182)">
<mask id="mask0_493_22182" style="mask-type:alpha" maskUnits="userSpaceOnUse" x="0" y="0" width="24" height="24">
<rect width="24" height="24" fill="#D9D9D9"/>
</mask>
<g mask="url(#mask0_493_22182)">
<path d="M12 12C12.8333 12 13.5417 11.7083 14.125 11.125C14.7083 10.5417 15 9.83333 15 9C15 8.16667 14.7083 7.45833 14.125 6.875C13.5417 6.29167 12.8333 6 12 6C11.1667 6 10.4583 6.29167 9.875 6.875C9.29167 7.45833 9 8.16667 9 9C9 9.83333 9.29167 10.5417 9.875 11.125C10.4583 11.7083 11.1667 12 12 12ZM10.5 9.5C10.3667 9.5 10.25 9.45 10.15 9.35C10.05 9.25 10 9.13333 10 9C10 8.86667 10.05 8.75 10.15 8.65C10.25 8.55 10.3667 8.5 10.5 8.5C10.6333 8.5 10.75 8.55 10.85 8.65C10.95 8.75 11 8.86667 11 9C11 9.13333 10.95 9.25 10.85 9.35C10.75 9.45 10.6333 9.5 10.5 9.5ZM12 9.5C11.8667 9.5 11.75 9.45 11.65 9.35C11.55 9.25 11.5 9.13333 11.5 9C11.5 8.86667 11.55 8.75 11.65 8.65C11.75 8.55 11.8667 8.5 12 8.5C12.1333 8.5 12.25 8.55 12.35 8.65C12.45 8.75 12.5 8.86667 12.5 9C12.5 9.13333 12.45 9.25 12.35 9.35C12.25 9.45 12.1333 9.5 12 9.5ZM13.5 9.5C13.3667 9.5 13.25 9.45 13.15 9.35C13.05 9.25 13 9.13333 13 9C13 8.86667 13.05 8.75 13.15 8.65C13.25 8.55 13.3667 8.5 13.5 8.5C13.6333 8.5 13.75 8.55 13.85 8.65C13.95 8.75 14 8.86667 14 9C14 9.13333 13.95 9.25 13.85 9.35C13.75 9.45 13.6333 9.5 13.5 9.5ZM5 21C4.45 21 3.97917 20.8042 3.5875 20.4125C3.19583 20.0208 3 19.55 3 19V5C3 4.45 3.19583 3.97917 3.5875 3.5875C3.97917 3.19583 4.45 3 5 3H19C19.55 3 20.0208 3.19583 20.4125 3.5875C20.8042 3.97917 21 4.45 21 5V19C21 19.55 20.8042 20.0208 20.4125 20.4125C20.0208 20.8042 19.55 21 19 21H5ZM5 19H19V5H5V19Z" fill="#1C1B1F"/>
</g>
</g>
<defs>
<clipPath id="clip0_493_22182">
<rect width="24" height="24" fill="white"/>
</clipPath>
</defs>
</svg>
