<svg width="24" height="24" viewBox="0 0 24 24" fill="none" xmlns="http://www.w3.org/2000/svg">
<path d="M4.98337 3C3.89813 3 3 3.89813 3 4.98337V19.0166C3 20.1019 3.89813 21 4.98337 21H19.0166C20.1019 21 21 20.1019 21 19.0166V4.98337C21 3.89813 20.1019 3 19.0166 3H4.98337ZM4.98337 4.98337H19.0166V19.0166H4.98337V4.98337ZM11.9252 6.23701C10.5593 6.23701 9.19335 6.5738 7.97713 7.28482C7.7526 7.39709 7.67775 7.71518 7.79002 7.93971L9.30561 10.5593C9.38046 10.6715 9.51143 10.7464 9.6237 10.7838C9.73597 10.8212 9.90437 10.7838 10.0166 10.7089C10.5593 10.316 11.2141 10.1289 11.9252 10.1289C12.58 10.1289 13.2536 10.316 13.8337 10.7089C13.9085 10.7464 14.0208 10.7838 14.1143 10.7838C14.1518 10.7838 14.1892 10.7838 14.2266 10.7838C14.3389 10.7464 14.4511 10.6715 14.526 10.5593L16.0603 7.93971C16.1726 7.71518 16.0977 7.39709 15.8545 7.28482C14.657 6.5738 13.3285 6.23701 11.9252 6.23701ZM11.4574 7.2474V8.22037C11.4574 8.48233 11.6819 8.72557 11.9626 8.72557C12.2432 8.72557 12.4678 8.48233 12.4678 8.22037V7.2474C13.3285 7.32225 14.1892 7.50936 14.9563 7.90229L13.9085 9.66112C13.2911 9.34304 12.6175 9.19335 11.9252 9.19335C11.2141 9.19335 10.5593 9.34304 9.94179 9.66112L8.91268 7.90229C9.69854 7.50936 10.5593 7.28482 11.4574 7.2474Z" fill="black"/>
</svg>
