<svg width="24" height="24" viewBox="0 0 24 24" fill="none" xmlns="http://www.w3.org/2000/svg">
<path d="M6.91601 5.81677H17.1638M5.4707 9.12944H18.5299M6.91601 12.5812H17.1941" stroke="#373D40" stroke-width="1.01125" stroke-linecap="round"/>
<path d="M5.83332 16.9777C5.34965 17.8544 6.31699 20.4844 7.19365 20.4844C8.43306 20.4844 8.7869 18.9129 9.61201 17.9149C11.1204 16.0902 11.3219 19.8512 11.8784 19.953C12.5059 19.8512 13.1466 16.0028 14.479 17.9149C15.8399 19.8679 16.3924 20.54 16.9892 20.341C17.5223 20.1633 18.7187 17.7033 18.1443 16.9777C17.57 16.2522 13.87 16.6084 13.3302 16.7964C12.3772 17.1283 11.3385 17.1605 10.4282 16.7964C9.97476 16.615 6.31699 16.1011 5.83332 16.9777Z" fill="#373D40" stroke="#373D40" stroke-width="0.505623"/>
<path d="M12.0004 3.51561L11.9877 18.2543" stroke="#373D40" stroke-width="1.51687" stroke-linecap="round"/>
</svg>
