<svg width="24" height="24" viewBox="0 0 24 24" fill="none" xmlns="http://www.w3.org/2000/svg">
<path fill-rule="evenodd" clip-rule="evenodd" d="M12.0008 3.13647C12.4197 3.13684 12.759 3.47669 12.7586 3.89556L12.7571 5.6904H17.1636C17.4428 5.6904 17.6692 5.91677 17.6692 6.19602C17.6692 6.47527 17.4428 6.70165 17.1636 6.70165H12.7562L12.7542 9.00306H18.5296C18.8089 9.00306 19.0352 9.22944 19.0352 9.50869C19.0352 9.78794 18.8089 10.0143 18.5296 10.0143H12.7533L12.7512 12.4549H17.1938C17.4731 12.4549 17.6994 12.6812 17.6994 12.9605C17.6994 13.2397 17.4731 13.4661 17.1938 13.4661H12.7504L12.747 17.3386C12.9436 17.2969 13.1385 17.2423 13.3299 17.1756C13.6339 17.0698 14.9406 16.9105 16.1265 16.9213C17.1326 16.9125 18.105 17.0135 18.3769 17.357C18.9513 18.0825 17.7549 20.5426 17.2217 20.7203C17.1168 20.7553 17.0133 20.7633 16.9065 20.7422C16.3394 20.8545 15.7768 20.1571 14.4786 18.2941C14.2612 17.9821 14.0622 17.8235 13.8786 17.7769C13.4329 17.8916 13.084 18.6483 12.7794 19.309C12.5375 19.8336 12.3235 20.2978 12.111 20.3323C12.0737 20.3254 12.038 20.3022 12.0034 20.2653C11.9614 20.3022 11.9197 20.3255 11.8781 20.3323C11.6934 20.2985 11.5478 19.8615 11.3805 19.3594C11.1606 18.6996 10.9034 17.9274 10.4707 17.8105C10.2905 17.8556 10.084 18.0045 9.84459 18.2941C9.58953 18.6027 9.3795 18.966 9.17443 19.3207C8.7161 20.1136 8.28251 20.8636 7.42623 20.8636C7.3983 20.8636 7.37028 20.861 7.34222 20.8558C7.29403 20.861 7.24443 20.8636 7.19332 20.8636C6.31666 20.8636 5.34932 18.2337 5.83299 17.357C6.05005 16.9636 6.90637 16.8502 7.82545 16.8612C9.01304 16.8463 10.3935 17.0687 10.6608 17.1756C10.8459 17.2497 11.0363 17.3073 11.2301 17.3494L11.2335 13.4661H6.91578C6.63653 13.4661 6.41015 13.2397 6.41015 12.9605C6.41015 12.6812 6.63653 12.4549 6.91578 12.4549H11.2344L11.2365 10.0143H5.47047C5.19122 10.0143 4.96484 9.78794 4.96484 9.50869C4.96484 9.22944 5.19122 9.00306 5.47047 9.00306H11.2373L11.2393 6.70165H6.91578C6.63653 6.70165 6.41015 6.47527 6.41015 6.19602C6.41015 5.91677 6.63653 5.6904 6.91578 5.6904H11.2402L11.2417 3.89426C11.2421 3.47538 11.582 3.13611 12.0008 3.13647Z" fill="#373D40"/>
</svg>
